<svg width="1583" height="950" viewBox="0 0 1583 950" fill="none" xmlns="http://www.w3.org/2000/svg">
<mask id="mask0_2004_2292" style="mask-type:luminance" maskUnits="userSpaceOnUse" x="86" y="15" width="1441" height="935">
<path d="M1526.77 15.0308H86.7666V949.197H1526.77V15.0308Z" fill="white"/>
</mask>
<g mask="url(#mask0_2004_2292)">
<mask id="mask1_2004_2292" style="mask-type:luminance" maskUnits="userSpaceOnUse" x="212" y="525" width="286" height="278">
<path d="M354.82 802.888C433.486 802.888 497.257 740.833 497.257 664.284C497.257 587.735 433.486 525.68 354.82 525.68C276.154 525.68 212.383 587.735 212.383 664.284C212.383 740.833 276.154 802.888 354.82 802.888Z" fill="white"/>
</mask>
<g mask="url(#mask1_2004_2292)">
<path d="M392.811 432.577L113.739 659.841L113.982 660.123L393.054 432.86L392.811 432.577Z" fill="#F0FFF0"/>
<path d="M404.727 446.483L125.655 673.746L125.898 674.028L404.97 446.765L404.727 446.483Z" fill="#F0FFF0"/>
<path d="M416.66 460.359L137.588 687.622L137.831 687.904L416.902 460.641L416.66 460.359Z" fill="#F0FFF0"/>
<path d="M428.593 474.234L149.521 701.497L149.764 701.779L428.836 474.516L428.593 474.234Z" fill="#F0FFF0"/>
<path d="M440.528 488.109L161.456 715.372L161.699 715.654L440.77 488.391L440.528 488.109Z" fill="#F0FFF0"/>
<path d="M452.46 501.984L173.389 729.248L173.631 729.53L452.703 502.267L452.46 501.984Z" fill="#F0FFF0"/>
<path d="M464.395 515.859L185.323 743.123L185.566 743.405L464.638 516.141L464.395 515.859Z" fill="#F0FFF0"/>
<path d="M476.329 529.736L197.258 757L197.501 757.282L476.572 530.019L476.329 529.736Z" fill="#F0FFF0"/>
<path d="M488.261 543.61L209.189 770.874L209.432 771.156L488.504 543.892L488.261 543.61Z" fill="#F0FFF0"/>
<path d="M500.198 557.486L221.126 784.75L221.369 785.032L500.44 557.769L500.198 557.486Z" fill="#F0FFF0"/>
<path d="M512.131 571.361L233.06 798.625L233.302 798.907L512.374 571.643L512.131 571.361Z" fill="#F0FFF0"/>
<path d="M524.065 585.237L244.993 812.5L245.236 812.783L524.308 585.519L524.065 585.237Z" fill="#F0FFF0"/>
<path d="M535.998 599.112L256.927 826.375L257.17 826.657L536.241 599.394L535.998 599.112Z" fill="#F0FFF0"/>
<path d="M547.933 612.989L268.861 840.252L269.104 840.535L548.176 613.271L547.933 612.989Z" fill="#F0FFF0"/>
<path d="M559.866 626.863L280.794 854.126L281.037 854.409L560.108 627.145L559.866 626.863Z" fill="#F0FFF0"/>
<path d="M571.8 640.739L292.729 868.002L292.971 868.285L572.043 641.021L571.8 640.739Z" fill="#F0FFF0"/>
<path d="M583.734 654.615L304.662 881.879L304.905 882.161L583.976 654.898L583.734 654.615Z" fill="#F0FFF0"/>
<path d="M595.668 668.49L316.597 895.753L316.839 896.035L595.911 668.772L595.668 668.49Z" fill="#F0FFF0"/>
</g>
<mask id="mask2_2004_2292" style="mask-type:luminance" maskUnits="userSpaceOnUse" x="497" y="-390" width="580" height="565">
<path d="M992.034 91.6611C1105.22 -18.4776 1105.22 -197.048 992.034 -307.186C878.849 -417.325 695.341 -417.325 582.156 -307.186C468.972 -197.048 468.972 -18.4776 582.156 91.6611C695.341 201.8 878.849 201.8 992.034 91.6611Z" fill="white"/>
</mask>
<g mask="url(#mask2_2004_2292)">
<path d="M985.823 -438.079L417.972 24.3533L418.467 24.9293L986.318 -437.503L985.823 -438.079Z" fill="#F3F3F3"/>
<path d="M1010.11 -409.845L442.255 52.5879L442.75 53.1639L1010.6 -409.269L1010.11 -409.845Z" fill="#F3F3F3"/>
<path d="M1034.39 -381.611L466.539 80.8213L467.034 81.3973L1034.89 -381.035L1034.39 -381.611Z" fill="#F3F3F3"/>
<path d="M1058.67 -353.379L490.82 109.054L491.316 109.63L1059.17 -352.803L1058.67 -353.379Z" fill="#F3F3F3"/>
<path d="M1082.95 -325.144L515.103 137.288L515.598 137.864L1083.45 -324.568L1082.95 -325.144Z" fill="#F3F3F3"/>
<path d="M1107.24 -296.911L539.385 165.522L539.88 166.098L1107.73 -296.335L1107.24 -296.911Z" fill="#F3F3F3"/>
<path d="M1131.52 -268.678L563.669 193.755L564.164 194.331L1132.02 -268.102L1131.52 -268.678Z" fill="#F3F3F3"/>
<path d="M1155.8 -240.443L587.952 221.99L588.448 222.565L1156.3 -239.867L1155.8 -240.443Z" fill="#F3F3F3"/>
<path d="M1180.09 -212.209L612.235 250.224L612.731 250.8L1180.58 -211.633L1180.09 -212.209Z" fill="#F3F3F3"/>
<path d="M1204.37 -183.976L636.517 278.457L637.012 279.033L1204.86 -183.4L1204.37 -183.976Z" fill="#F3F3F3"/>
<path d="M1228.65 -155.741L660.8 306.692L661.295 307.268L1229.15 -155.165L1228.65 -155.741Z" fill="#F3F3F3"/>
<path d="M1252.93 -127.509L685.083 334.923L685.578 335.499L1253.43 -126.933L1252.93 -127.509Z" fill="#F3F3F3"/>
<path d="M1277.22 -99.275L709.365 363.158L709.861 363.734L1277.71 -98.699L1277.22 -99.275Z" fill="#F3F3F3"/>
<path d="M996.514 -423.248L428.663 39.1846L429.158 39.7606L997.01 -422.672L996.514 -423.248Z" fill="#F3F3F3"/>
<path d="M1020.8 -395.013L452.945 67.4192L453.441 67.9952L1021.29 -394.437L1020.8 -395.013Z" fill="#F3F3F3"/>
<path d="M1045.08 -366.78L477.228 95.6526L477.723 96.2286L1045.57 -366.204L1045.08 -366.78Z" fill="#F3F3F3"/>
<path d="M1069.36 -338.549L501.511 123.884L502.006 124.46L1069.86 -337.973L1069.36 -338.549Z" fill="#F3F3F3"/>
<path d="M1093.64 -310.315L525.793 152.118L526.288 152.694L1094.14 -309.739L1093.64 -310.315Z" fill="#F3F3F3"/>
<path d="M1117.93 -282.08L550.076 180.353L550.572 180.929L1118.42 -281.504L1117.93 -282.08Z" fill="#F3F3F3"/>
<path d="M1142.21 -253.845L574.359 208.588L574.855 209.164L1142.71 -253.269L1142.21 -253.845Z" fill="#F3F3F3"/>
<path d="M1166.49 -225.612L598.644 236.821L599.139 237.397L1166.99 -225.036L1166.49 -225.612Z" fill="#F3F3F3"/>
<path d="M1190.78 -197.379L622.926 265.054L623.421 265.63L1191.27 -196.803L1190.78 -197.379Z" fill="#F3F3F3"/>
<path d="M1215.06 -169.146L647.207 293.287L647.702 293.863L1215.55 -168.57L1215.06 -169.146Z" fill="#F3F3F3"/>
<path d="M1239.34 -140.911L671.49 321.521L671.986 322.097L1239.84 -140.335L1239.34 -140.911Z" fill="#F3F3F3"/>
<path d="M1263.62 -112.677L695.772 349.756L696.268 350.332L1264.12 -112.101L1263.62 -112.677Z" fill="#F3F3F3"/>
<path d="M1287.91 -84.4434L720.057 377.989L720.552 378.565L1288.4 -83.8674L1287.91 -84.4434Z" fill="#F3F3F3"/>
</g>
<mask id="mask3_2004_2292" style="mask-type:luminance" maskUnits="userSpaceOnUse" x="694" y="827" width="581" height="566">
<path d="M984.254 1392.02C1144.32 1392.02 1274.08 1265.75 1274.08 1109.99C1274.08 954.229 1144.32 827.959 984.254 827.959C824.185 827.959 694.424 954.229 694.424 1109.99C694.424 1265.75 824.185 1392.02 984.254 1392.02Z" fill="white"/>
</mask>
<g mask="url(#mask3_2004_2292)">
<path d="M1061.48 638.541L493.634 1100.9L494.129 1101.48L1061.98 639.117L1061.48 638.541Z" fill="#F3F3F3"/>
<path d="M1085.83 666.811L517.975 1129.24L518.47 1129.82L1086.32 667.387L1085.83 666.811Z" fill="#F3F3F3"/>
<path d="M1110.11 695.044L542.259 1157.48L542.754 1158.05L1110.61 695.62L1110.11 695.044Z" fill="#F3F3F3"/>
<path d="M1134.39 723.276L566.539 1185.71L567.034 1186.28L1134.89 723.852L1134.39 723.276Z" fill="#F3F3F3"/>
<path d="M1158.67 751.51L590.822 1213.94L591.318 1214.52L1159.17 752.086L1158.67 751.51Z" fill="#F3F3F3"/>
<path d="M1182.96 779.745L615.105 1242.18L615.601 1242.75L1183.45 780.321L1182.96 779.745Z" fill="#F3F3F3"/>
<path d="M1207.24 807.979L639.388 1270.41L639.883 1270.99L1207.73 808.555L1207.24 807.979Z" fill="#F3F3F3"/>
<path d="M1231.52 836.213L663.673 1298.65L664.168 1299.22L1232.02 836.789L1231.52 836.213Z" fill="#F3F3F3"/>
<path d="M1255.8 864.444L687.952 1326.88L688.447 1327.45L1256.3 865.02L1255.8 864.444Z" fill="#F3F3F3"/>
<path d="M1280.09 892.678L712.235 1355.11L712.731 1355.69L1280.58 893.254L1280.09 892.678Z" fill="#F3F3F3"/>
<path d="M1304.37 920.913L736.519 1383.35L737.014 1383.92L1304.87 921.489L1304.37 920.913Z" fill="#F3F3F3"/>
<path d="M1328.65 949.147L760.803 1411.58L761.298 1412.16L1329.15 949.723L1328.65 949.147Z" fill="#F3F3F3"/>
<path d="M1072.17 653.37L504.323 1115.73L504.819 1116.31L1072.67 653.946L1072.17 653.37Z" fill="#F3F3F3"/>
<path d="M1096.52 681.641L528.665 1144.07L529.16 1144.65L1097.01 682.217L1096.52 681.641Z" fill="#F3F3F3"/>
<path d="M1120.8 709.875L552.948 1172.31L553.444 1172.88L1121.29 710.451L1120.8 709.875Z" fill="#F3F3F3"/>
<path d="M1145.08 738.107L577.23 1200.54L577.726 1201.12L1145.58 738.683L1145.08 738.107Z" fill="#F3F3F3"/>
<path d="M1169.36 766.34L601.513 1228.77L602.008 1229.35L1169.86 766.916L1169.36 766.34Z" fill="#F3F3F3"/>
<path d="M1193.65 794.575L625.795 1257.01L626.29 1257.58L1194.14 795.151L1193.65 794.575Z" fill="#F3F3F3"/>
<path d="M1217.93 822.809L650.078 1285.24L650.574 1285.82L1218.42 823.385L1217.93 822.809Z" fill="#F3F3F3"/>
<path d="M1242.21 851.044L674.361 1313.48L674.857 1314.05L1242.71 851.62L1242.21 851.044Z" fill="#F3F3F3"/>
<path d="M1266.5 879.275L698.645 1341.71L699.14 1342.28L1266.99 879.851L1266.5 879.275Z" fill="#F3F3F3"/>
<path d="M1290.78 907.509L722.928 1369.94L723.423 1370.52L1291.27 908.085L1290.78 907.509Z" fill="#F3F3F3"/>
<path d="M1315.06 935.743L747.209 1398.18L747.704 1398.75L1315.56 936.319L1315.06 935.743Z" fill="#F3F3F3"/>
</g>
<mask id="mask4_2004_2292" style="mask-type:luminance" maskUnits="userSpaceOnUse" x="54" y="667" width="131" height="127">
<path d="M184.118 733.041C185.417 698.249 157.486 669.019 121.733 667.756C85.9793 666.492 55.9425 693.672 54.6437 728.464C53.3449 763.257 81.2759 792.486 117.029 793.75C152.783 795.014 182.82 767.834 184.118 733.041Z" fill="white"/>
</mask>
<g mask="url(#mask4_2004_2292)">
<path d="M136.64 625.399L9.74512 728.796L9.85605 728.925L136.751 625.528L136.64 625.399Z" fill="#F3F3F3"/>
<path d="M142.096 631.737L15.168 735.101L15.2789 735.23L142.207 631.866L142.096 631.737Z" fill="#F3F3F3"/>
<path d="M147.525 638.048L20.5967 741.413L20.7076 741.542L147.636 638.177L147.525 638.048Z" fill="#F3F3F3"/>
<path d="M152.949 644.359L26.0215 747.724L26.1324 747.853L153.06 644.488L152.949 644.359Z" fill="#F3F3F3"/>
<path d="M158.378 650.67L31.4502 754.035L31.5611 754.164L158.489 650.799L158.378 650.67Z" fill="#F3F3F3"/>
<path d="M163.806 656.982L36.8779 760.347L36.9888 760.476L163.917 657.111L163.806 656.982Z" fill="#F3F3F3"/>
<path d="M169.234 663.292L42.3057 766.657L42.4166 766.786L169.345 663.421L169.234 663.292Z" fill="#F3F3F3"/>
<path d="M174.662 669.603L47.7344 772.968L47.8453 773.097L174.773 669.732L174.662 669.603Z" fill="#F3F3F3"/>
<path d="M180.089 675.913L53.1611 779.278L53.272 779.407L180.2 676.042L180.089 675.913Z" fill="#F3F3F3"/>
<path d="M185.518 682.224L58.5898 785.589L58.7007 785.718L185.629 682.353L185.518 682.224Z" fill="#F3F3F3"/>
<path d="M190.946 688.534L64.0176 791.899L64.1285 792.028L191.056 688.663L190.946 688.534Z" fill="#F3F3F3"/>
<path d="M196.373 694.846L69.4453 798.211L69.5562 798.34L196.484 694.975L196.373 694.846Z" fill="#F3F3F3"/>
<path d="M201.801 701.158L74.873 804.522L74.9839 804.651L201.912 701.287L201.801 701.158Z" fill="#F3F3F3"/>
<path d="M207.229 707.467L80.3008 810.832L80.4117 810.961L207.34 707.596L207.229 707.467Z" fill="#F3F3F3"/>
<path d="M212.656 713.78L85.7275 817.145L85.8384 817.273L212.766 713.909L212.656 713.78Z" fill="#F3F3F3"/>
<path d="M218.083 720.089L91.1553 823.454L91.2662 823.583L218.194 720.218L218.083 720.089Z" fill="#F3F3F3"/>
<path d="M223.511 726.402L96.583 829.766L96.6939 829.895L223.622 726.531L223.511 726.402Z" fill="#F3F3F3"/>
<path d="M228.94 732.713L102.012 836.077L102.123 836.206L229.051 732.842L228.94 732.713Z" fill="#F3F3F3"/>
<path d="M139.107 628.731L12.1299 732.031L12.2407 732.16L139.218 628.86L139.107 628.731Z" fill="#F3F3F3"/>
<path d="M144.485 635.054L17.5566 738.418L17.6675 738.547L144.596 635.183L144.485 635.054Z" fill="#F3F3F3"/>
<path d="M149.912 641.364L22.9844 744.728L23.0953 744.857L150.023 641.492L149.912 641.364Z" fill="#F3F3F3"/>
<path d="M155.34 647.675L28.4121 751.04L28.523 751.169L155.451 647.804L155.34 647.675Z" fill="#F3F3F3"/>
<path d="M160.768 653.985L33.8398 757.349L33.9507 757.478L160.879 654.114L160.768 653.985Z" fill="#F3F3F3"/>
<path d="M166.196 660.296L39.2676 763.661L39.3785 763.79L166.306 660.425L166.196 660.296Z" fill="#F3F3F3"/>
<path d="M171.623 666.607L44.6953 769.971L44.8062 770.1L171.734 666.736L171.623 666.607Z" fill="#F3F3F3"/>
<path d="M177.052 672.918L50.124 776.282L50.2349 776.411L177.163 673.047L177.052 672.918Z" fill="#F3F3F3"/>
<path d="M182.478 679.229L55.5498 782.593L55.6607 782.722L182.589 679.358L182.478 679.229Z" fill="#F3F3F3"/>
<path d="M187.906 685.54L60.9775 788.905L61.0884 789.034L188.016 685.669L187.906 685.54Z" fill="#F3F3F3"/>
<path d="M193.335 691.851L66.4072 795.216L66.5181 795.345L193.446 691.98L193.335 691.851Z" fill="#F3F3F3"/>
<path d="M198.762 698.162L71.834 801.526L71.9449 801.655L198.873 698.291L198.762 698.162Z" fill="#F3F3F3"/>
<path d="M204.19 704.473L77.2617 807.838L77.3726 807.967L204.301 704.602L204.19 704.473Z" fill="#F3F3F3"/>
<path d="M209.618 710.784L82.6904 814.149L82.8014 814.278L209.729 710.913L209.618 710.784Z" fill="#F3F3F3"/>
<path d="M215.045 717.094L88.1172 820.459L88.2281 820.588L215.156 717.223L215.045 717.094Z" fill="#F3F3F3"/>
<path d="M220.475 723.405L93.5469 826.77L93.6578 826.899L220.586 723.534L220.475 723.405Z" fill="#F3F3F3"/>
<path d="M225.902 729.715L98.9736 833.08L99.0845 833.209L226.013 729.844L225.902 729.715Z" fill="#F3F3F3"/>
<path d="M231.329 736.027L104.401 839.392L104.512 839.521L231.44 736.156L231.329 736.027Z" fill="#F3F3F3"/>
</g>
<mask id="mask5_2004_2292" style="mask-type:luminance" maskUnits="userSpaceOnUse" x="1194" y="135" width="165" height="160">
<path d="M1356.12 232.5C1366.19 189.598 1338.61 146.875 1294.52 137.075C1250.44 127.274 1206.53 154.109 1196.46 197.01C1186.39 239.912 1213.96 282.636 1258.05 292.436C1302.14 302.236 1346.05 275.402 1356.12 232.5Z" fill="white"/>
</mask>
<g mask="url(#mask5_2004_2292)">
<path d="M1298.13 81.4872L1137.78 212.239L1137.92 212.401L1298.27 81.6491L1298.13 81.4872Z" fill="#F3F3F3"/>
<path d="M1305.06 89.5898L1144.63 220.24L1144.77 220.403L1305.2 89.7532L1305.06 89.5898Z" fill="#F3F3F3"/>
<path d="M1311.92 97.5676L1151.49 228.218L1151.63 228.379L1312.06 97.7295L1311.92 97.5676Z" fill="#F3F3F3"/>
<path d="M1318.78 105.544L1158.35 236.194L1158.49 236.356L1318.92 105.706L1318.78 105.544Z" fill="#F3F3F3"/>
<path d="M1325.64 113.521L1165.21 244.171L1165.35 244.333L1325.78 113.683L1325.64 113.521Z" fill="#F3F3F3"/>
<path d="M1332.5 121.497L1172.07 252.147L1172.21 252.309L1332.64 121.659L1332.5 121.497Z" fill="#F3F3F3"/>
<path d="M1339.36 129.474L1178.93 260.124L1179.07 260.288L1339.5 129.638L1339.36 129.474Z" fill="#F3F3F3"/>
<path d="M1346.23 137.452L1185.79 268.102L1185.93 268.264L1346.37 137.614L1346.23 137.452Z" fill="#F3F3F3"/>
<path d="M1353.09 145.427L1192.65 276.077L1192.79 276.24L1353.23 145.59L1353.09 145.427Z" fill="#F3F3F3"/>
<path d="M1359.95 153.404L1199.51 284.054L1199.65 284.216L1360.09 153.566L1359.95 153.404Z" fill="#F3F3F3"/>
<path d="M1366.81 161.381L1206.37 292.031L1206.51 292.193L1366.95 161.543L1366.81 161.381Z" fill="#F3F3F3"/>
<path d="M1373.67 169.358L1213.23 300.008L1213.37 300.171L1373.81 169.521L1373.67 169.358Z" fill="#F3F3F3"/>
<path d="M1380.53 177.335L1220.09 307.985L1220.23 308.148L1380.67 177.498L1380.53 177.335Z" fill="#F3F3F3"/>
<path d="M1387.39 185.314L1226.96 315.964L1227.09 316.126L1387.53 185.476L1387.39 185.314Z" fill="#F3F3F3"/>
<path d="M1394.25 193.289L1233.81 323.938L1233.95 324.1L1394.39 193.45L1394.25 193.289Z" fill="#F3F3F3"/>
<path d="M1401.11 201.266L1240.68 331.916L1240.82 332.077L1401.25 201.428L1401.11 201.266Z" fill="#F3F3F3"/>
<path d="M1407.97 209.241L1247.54 339.891L1247.68 340.053L1408.11 209.403L1407.97 209.241Z" fill="#F3F3F3"/>
<path d="M1414.83 217.219L1254.4 347.869L1254.54 348.032L1414.97 217.382L1414.83 217.219Z" fill="#F3F3F3"/>
</g>
<mask id="mask6_2004_2292" style="mask-type:luminance" maskUnits="userSpaceOnUse" x="1178" y="314" width="99" height="96">
<path d="M1276 366.074C1278.42 339.971 1258.63 316.904 1231.81 314.554C1204.98 312.203 1181.28 331.458 1178.86 357.561C1176.44 383.664 1196.23 406.731 1223.06 409.082C1249.88 411.432 1273.59 392.177 1276 366.074Z" fill="white"/>
</mask>
<g mask="url(#mask6_2004_2292)">
<path d="M1240.4 282.525L1144.9 360.383L1144.99 360.48L1240.48 282.622L1240.4 282.525Z" fill="#F3F3F3"/>
<path d="M1244.59 287.328L1149.04 365.137L1149.12 365.235L1244.67 287.426L1244.59 287.328Z" fill="#F3F3F3"/>
<path d="M1248.67 292.077L1153.12 369.886L1153.21 369.984L1248.75 292.175L1248.67 292.077Z" fill="#F3F3F3"/>
<path d="M1252.76 296.83L1157.21 374.639L1157.29 374.736L1252.84 296.927L1252.76 296.83Z" fill="#F3F3F3"/>
<path d="M1256.84 301.579L1161.3 379.388L1161.38 379.486L1256.93 301.677L1256.84 301.579Z" fill="#F3F3F3"/>
<path d="M1260.93 306.331L1165.38 384.14L1165.47 384.237L1261.01 306.428L1260.93 306.331Z" fill="#F3F3F3"/>
<path d="M1265.01 311.079L1169.47 388.889L1169.55 388.986L1265.1 311.177L1265.01 311.079Z" fill="#F3F3F3"/>
<path d="M1269.1 315.831L1173.55 393.64L1173.64 393.738L1269.18 315.928L1269.1 315.831Z" fill="#F3F3F3"/>
<path d="M1273.19 320.581L1177.64 398.391L1177.72 398.488L1273.27 320.679L1273.19 320.581Z" fill="#F3F3F3"/>
<path d="M1277.27 325.331L1181.73 403.141L1181.81 403.238L1277.36 325.429L1277.27 325.331Z" fill="#F3F3F3"/>
<path d="M1281.36 330.081L1185.81 407.891L1185.89 407.988L1281.44 330.179L1281.36 330.081Z" fill="#F3F3F3"/>
<path d="M1285.44 334.833L1189.9 412.642L1189.98 412.74L1285.53 334.93L1285.44 334.833Z" fill="#F3F3F3"/>
<path d="M1289.53 339.584L1193.98 417.393L1194.07 417.49L1289.61 339.681L1289.53 339.584Z" fill="#F3F3F3"/>
<path d="M1293.62 344.335L1198.07 422.145L1198.15 422.242L1293.7 344.433L1293.62 344.335Z" fill="#F3F3F3"/>
<path d="M1297.7 349.083L1202.15 426.893L1202.24 426.99L1297.79 349.181L1297.7 349.083Z" fill="#F3F3F3"/>
<path d="M1301.79 353.836L1206.24 431.645L1206.33 431.743L1301.87 353.933L1301.79 353.836Z" fill="#F3F3F3"/>
<path d="M1305.87 358.586L1210.33 436.395L1210.41 436.493L1305.96 358.683L1305.87 358.586Z" fill="#F3F3F3"/>
<path d="M1309.96 363.337L1214.41 441.146L1214.5 441.244L1310.04 363.435L1309.96 363.337Z" fill="#F3F3F3"/>
<path d="M1242.24 285.03L1146.66 362.803L1146.75 362.9L1242.32 285.127L1242.24 285.03Z" fill="#F3F3F3"/>
<path d="M1246.38 289.821L1150.84 367.631L1150.92 367.728L1246.47 289.919L1246.38 289.821Z" fill="#F3F3F3"/>
<path d="M1250.47 294.573L1154.92 372.382L1155.01 372.48L1250.55 294.67L1250.47 294.573Z" fill="#F3F3F3"/>
<path d="M1254.56 299.323L1159.01 377.133L1159.09 377.23L1254.64 299.421L1254.56 299.323Z" fill="#F3F3F3"/>
<path d="M1258.64 304.074L1163.1 381.883L1163.18 381.981L1258.73 304.171L1258.64 304.074Z" fill="#F3F3F3"/>
<path d="M1262.73 308.824L1167.18 386.633L1167.26 386.73L1262.81 308.921L1262.73 308.824Z" fill="#F3F3F3"/>
<path d="M1266.81 313.576L1171.27 391.385L1171.35 391.483L1266.9 313.674L1266.81 313.576Z" fill="#F3F3F3"/>
<path d="M1270.9 318.326L1175.35 396.135L1175.44 396.233L1270.98 318.423L1270.9 318.326Z" fill="#F3F3F3"/>
<path d="M1274.99 323.076L1179.44 400.885L1179.52 400.983L1275.07 323.173L1274.99 323.076Z" fill="#F3F3F3"/>
<path d="M1279.07 327.826L1183.52 405.635L1183.61 405.733L1279.16 327.923L1279.07 327.826Z" fill="#F3F3F3"/>
<path d="M1283.16 332.578L1187.61 410.388L1187.7 410.485L1283.24 332.676L1283.16 332.578Z" fill="#F3F3F3"/>
<path d="M1287.24 337.328L1191.7 415.138L1191.78 415.235L1287.33 337.426L1287.24 337.328Z" fill="#F3F3F3"/>
<path d="M1291.33 342.079L1195.78 419.889L1195.87 419.986L1291.41 342.177L1291.33 342.079Z" fill="#F3F3F3"/>
<path d="M1295.41 346.828L1199.87 424.637L1199.95 424.735L1295.5 346.926L1295.41 346.828Z" fill="#F3F3F3"/>
<path d="M1299.5 351.581L1203.95 429.39L1204.04 429.487L1299.59 351.678L1299.5 351.581Z" fill="#F3F3F3"/>
<path d="M1303.59 356.33L1208.04 434.14L1208.12 434.237L1303.67 356.428L1303.59 356.33Z" fill="#F3F3F3"/>
<path d="M1307.67 361.082L1212.12 438.891L1212.21 438.989L1307.75 361.179L1307.67 361.082Z" fill="#F3F3F3"/>
<path d="M1311.76 365.831L1216.21 443.64L1216.29 443.737L1311.84 365.928L1311.76 365.831Z" fill="#F3F3F3"/>
</g>
</g>
<mask id="mask7_2004_2292" style="mask-type:luminance" maskUnits="userSpaceOnUse" x="86" y="15" width="1441" height="935">
<path d="M1526.77 15.0308H86.7666V949.197H1526.77V15.0308Z" fill="white"/>
</mask>
<g mask="url(#mask7_2004_2292)">
<path d="M867.308 836.836L826.281 802.724L792.85 830.523L777.663 813.226L826.281 772.799L867.308 806.911L900.739 779.114L915.928 796.411L867.308 836.836Z" fill="#F3F3F3"/>
<path d="M1214.71 37.434L1173.69 3.32194L1140.26 31.119L1125.07 13.822L1173.69 -26.6031L1214.71 7.50701L1248.15 -20.2901L1263.33 -2.99302L1214.71 37.434Z" fill="#F3F3F3"/>
<path d="M278.012 988.223L236.987 954.109L203.554 981.908L188.367 964.611L236.987 924.184L278.012 958.296L311.445 930.499L326.632 947.796L278.012 988.223Z" fill="#F3F3F3"/>
<path d="M52.7864 634.381L11.7598 600.269L-21.6712 628.068L-36.8604 610.771L11.7598 570.344L52.7864 604.456L86.2174 576.659L101.405 593.956L52.7864 634.381Z" fill="#F3F3F3"/>
<path d="M697.651 150.186L656.626 116.076L623.193 143.873L608.006 126.576L656.626 86.1489L697.651 120.261L731.084 92.4639L746.271 109.761L697.651 150.186Z" fill="#F3F3F3"/>
<path d="M1496.57 232.671L1455.54 198.559L1422.11 226.358L1406.93 209.061L1455.54 168.634L1496.57 202.746L1530 174.949L1545.19 192.246L1496.57 232.671Z" fill="#F3F3F3"/>
<path d="M1358.31 963.26L1317.28 929.148L1283.85 956.945L1268.66 939.648L1317.28 899.223L1358.31 933.333L1391.74 905.538L1406.93 922.833L1358.31 963.26Z" fill="#F3F3F3"/>
</g>
<mask id="mask8_2004_2292" style="mask-type:luminance" maskUnits="userSpaceOnUse" x="86" y="15" width="1441" height="935">
<path d="M1526.77 15.0308H86.7666V949.197H1526.77V15.0308Z" fill="white"/>
</mask>
<g mask="url(#mask8_2004_2292)">
<path d="M206.27 593.82L191.231 581.315L178.973 591.505L173.405 585.164L191.231 570.344L206.27 582.849L218.525 572.659L224.093 579L206.27 593.82Z" fill="#F3F3F3"/>
<path d="M1066.94 884.226L1051.9 871.719L1039.64 881.911L1034.07 875.57L1051.9 860.75L1066.94 873.255L1079.19 863.063L1084.76 869.405L1066.94 884.226Z" fill="#F3F3F3"/>
<path d="M1417.31 408.696L1402.27 396.189L1390.02 406.379L1384.45 400.038L1402.27 385.219L1417.31 397.723L1429.57 387.533L1435.14 393.874L1417.31 408.696Z" fill="#F3F3F3"/>
<path d="M1404.58 26.7695L1389.54 14.2628L1377.28 24.4546L1371.72 18.1135L1389.54 3.29199L1404.58 15.7986L1416.83 5.60686L1422.4 11.948L1404.58 26.7695Z" fill="#F3F3F3"/>
<path d="M753.792 719.94L738.751 707.435L726.496 717.625L720.928 711.284L738.751 696.464L753.792 708.969L766.048 698.779L771.616 705.12L753.792 719.94Z" fill="#F3F3F3"/>
<path d="M94.2875 910.96L79.2462 898.455L66.9909 908.645L61.4229 902.304L79.2462 887.484L94.2875 899.989L106.543 889.799L112.111 896.14L94.2875 910.96Z" fill="#F3F3F3"/>
<path d="M803.655 203.168L788.615 190.662L776.36 200.853L770.792 194.51L788.615 179.691L803.655 192.197L815.91 182.006L821.478 188.347L803.655 203.168Z" fill="#F3F3F3"/>
<path d="M172.767 150.309L157.728 137.803L145.472 147.994L139.904 141.653L157.728 126.832L172.767 139.338L185.022 129.147L190.59 135.488L172.767 150.309Z" fill="#F3F3F3"/>
</g>
<path d="M1162.67 717.646C1161.44 717.646 1160.44 718.615 1160.44 719.813C1160.44 721.01 1161.44 721.98 1162.67 721.98C1163.9 721.98 1164.89 721.01 1164.89 719.813C1164.89 718.615 1163.9 717.646 1162.67 717.646Z" fill="#F0FFF0"/>
<path d="M1175.44 717.646C1174.21 717.646 1173.21 718.615 1173.21 719.813C1173.21 721.01 1174.21 721.98 1175.44 721.98C1176.67 721.98 1177.67 721.01 1177.67 719.813C1177.67 718.615 1176.67 717.646 1175.44 717.646Z" fill="#F0FFF0"/>
<path d="M1188.21 717.646C1186.98 717.646 1185.99 718.615 1185.99 719.813C1185.99 721.01 1186.98 721.98 1188.21 721.98C1189.44 721.98 1190.44 721.01 1190.44 719.813C1190.44 718.615 1189.44 717.646 1188.21 717.646Z" fill="#F0FFF0"/>
<path d="M1200.99 717.646C1199.76 717.646 1198.76 718.615 1198.76 719.813C1198.76 721.01 1199.76 721.98 1200.99 721.98C1202.22 721.98 1203.21 721.01 1203.21 719.813C1203.21 718.615 1202.22 717.646 1200.99 717.646Z" fill="#F0FFF0"/>
<path d="M1213.76 717.646C1212.53 717.646 1211.53 718.615 1211.53 719.813C1211.53 721.01 1212.53 721.98 1213.76 721.98C1214.99 721.98 1215.99 721.01 1215.99 719.813C1215.99 718.615 1214.99 717.646 1213.76 717.646Z" fill="#F0FFF0"/>
<path d="M1226.53 717.646C1225.3 717.646 1224.31 718.615 1224.31 719.813C1224.31 721.01 1225.3 721.98 1226.53 721.98C1227.76 721.98 1228.76 721.01 1228.76 719.813C1228.76 718.615 1227.76 717.646 1226.53 717.646Z" fill="#F0FFF0"/>
<path d="M1239.31 717.646C1238.08 717.646 1237.08 718.615 1237.08 719.813C1237.08 721.01 1238.08 721.98 1239.31 721.98C1240.54 721.98 1241.53 721.01 1241.53 719.813C1241.53 718.615 1240.54 717.646 1239.31 717.646Z" fill="#F0FFF0"/>
<path d="M1252.08 717.646C1250.85 717.646 1249.85 718.615 1249.85 719.813C1249.85 721.01 1250.85 721.98 1252.08 721.98C1253.31 721.98 1254.31 721.01 1254.31 719.813C1254.31 718.615 1253.31 717.646 1252.08 717.646Z" fill="#F0FFF0"/>
<path d="M1264.85 717.646C1263.62 717.646 1262.63 718.615 1262.63 719.813C1262.63 721.01 1263.62 721.98 1264.85 721.98C1266.08 721.98 1267.08 721.01 1267.08 719.813C1267.08 718.615 1266.08 717.646 1264.85 717.646Z" fill="#F0FFF0"/>
<path d="M1277.63 717.646C1276.39 717.646 1275.4 718.615 1275.4 719.813C1275.4 721.01 1276.39 721.98 1277.63 721.98C1278.85 721.98 1279.85 721.01 1279.85 719.813C1279.85 718.615 1278.86 717.646 1277.63 717.646Z" fill="#F0FFF0"/>
<path d="M1290.4 717.646C1289.17 717.646 1288.17 718.615 1288.17 719.813C1288.17 721.01 1289.17 721.98 1290.4 721.98C1291.63 721.98 1292.63 721.01 1292.63 719.813C1292.63 718.615 1291.63 717.646 1290.4 717.646Z" fill="#F0FFF0"/>
<path d="M1303.17 717.646C1301.94 717.646 1300.95 718.615 1300.95 719.813C1300.95 721.01 1301.94 721.98 1303.17 721.98C1304.4 721.98 1305.4 721.01 1305.4 719.813C1305.4 718.615 1304.4 717.646 1303.17 717.646Z" fill="#F0FFF0"/>
<path d="M1315.95 717.646C1314.72 717.646 1313.72 718.615 1313.72 719.813C1313.72 721.01 1314.71 721.98 1315.95 721.98C1317.18 721.98 1318.17 721.01 1318.17 719.813C1318.17 718.615 1317.18 717.646 1315.95 717.646Z" fill="#F0FFF0"/>
<path d="M1328.72 717.646C1327.49 717.646 1326.49 718.615 1326.49 719.813C1326.49 721.01 1327.49 721.98 1328.72 721.98C1329.95 721.98 1330.95 721.01 1330.95 719.813C1330.95 718.615 1329.95 717.646 1328.72 717.646Z" fill="#F0FFF0"/>
<path d="M1341.49 717.646C1340.26 717.646 1339.27 718.615 1339.27 719.813C1339.27 721.01 1340.26 721.98 1341.49 721.98C1342.72 721.98 1343.72 721.01 1343.72 719.813C1343.72 718.615 1342.72 717.646 1341.49 717.646Z" fill="#F0FFF0"/>
<path d="M1354.26 717.646C1353.03 717.646 1352.04 718.615 1352.04 719.813C1352.04 721.01 1353.03 721.98 1354.26 721.98C1355.5 721.98 1356.49 721.01 1356.49 719.813C1356.49 718.615 1355.5 717.646 1354.26 717.646Z" fill="#F0FFF0"/>
<path d="M1367.04 717.646C1365.81 717.646 1364.81 718.615 1364.81 719.813C1364.81 721.01 1365.81 721.98 1367.04 721.98C1368.27 721.98 1369.26 721.01 1369.26 719.813C1369.26 718.615 1368.27 717.646 1367.04 717.646Z" fill="#F0FFF0"/>
<path d="M1379.81 721.978C1381.04 721.978 1382.04 721.008 1382.04 719.811C1382.04 718.615 1381.04 717.644 1379.81 717.644C1378.58 717.644 1377.58 718.613 1377.58 719.811C1377.58 721.008 1378.58 721.978 1379.81 721.978Z" fill="#F0FFF0"/>
<path d="M1162.67 729.39C1161.44 729.39 1160.44 730.36 1160.44 731.557C1160.44 732.753 1161.44 733.724 1162.67 733.724C1163.9 733.724 1164.89 732.755 1164.89 731.557C1164.89 730.36 1163.9 729.39 1162.67 729.39Z" fill="#F0FFF0"/>
<path d="M1175.44 729.39C1174.21 729.39 1173.21 730.36 1173.21 731.557C1173.21 732.753 1174.21 733.724 1175.44 733.724C1176.67 733.724 1177.67 732.755 1177.67 731.557C1177.67 730.36 1176.67 729.39 1175.44 729.39Z" fill="#F0FFF0"/>
<path d="M1188.21 729.39C1186.98 729.39 1185.99 730.36 1185.99 731.557C1185.99 732.753 1186.98 733.724 1188.21 733.724C1189.44 733.724 1190.44 732.755 1190.44 731.557C1190.44 730.36 1189.44 729.39 1188.21 729.39Z" fill="#F0FFF0"/>
<path d="M1200.99 729.39C1199.76 729.39 1198.76 730.36 1198.76 731.557C1198.76 732.753 1199.76 733.724 1200.99 733.724C1202.22 733.724 1203.21 732.755 1203.21 731.557C1203.21 730.36 1202.22 729.39 1200.99 729.39Z" fill="#F0FFF0"/>
<path d="M1213.76 729.39C1212.53 729.39 1211.53 730.36 1211.53 731.557C1211.53 732.753 1212.53 733.724 1213.76 733.724C1214.99 733.724 1215.99 732.755 1215.99 731.557C1215.99 730.36 1214.99 729.39 1213.76 729.39Z" fill="#F0FFF0"/>
<path d="M1226.53 729.39C1225.3 729.39 1224.31 730.36 1224.31 731.557C1224.31 732.753 1225.3 733.724 1226.53 733.724C1227.76 733.724 1228.76 732.755 1228.76 731.557C1228.76 730.36 1227.76 729.39 1226.53 729.39Z" fill="#F0FFF0"/>
<path d="M1239.31 729.39C1238.08 729.39 1237.08 730.36 1237.08 731.557C1237.08 732.753 1238.08 733.724 1239.31 733.724C1240.54 733.724 1241.53 732.755 1241.53 731.557C1241.53 730.36 1240.54 729.39 1239.31 729.39Z" fill="#F0FFF0"/>
<path d="M1252.08 729.39C1250.85 729.39 1249.85 730.36 1249.85 731.557C1249.85 732.753 1250.85 733.724 1252.08 733.724C1253.31 733.724 1254.31 732.755 1254.31 731.557C1254.31 730.36 1253.31 729.39 1252.08 729.39Z" fill="#F0FFF0"/>
<path d="M1264.85 729.39C1263.62 729.39 1262.63 730.36 1262.63 731.557C1262.63 732.753 1263.62 733.724 1264.85 733.724C1266.08 733.724 1267.08 732.755 1267.08 731.557C1267.08 730.36 1266.08 729.39 1264.85 729.39Z" fill="#F0FFF0"/>
<path d="M1277.63 729.39C1276.39 729.39 1275.4 730.36 1275.4 731.557C1275.4 732.753 1276.39 733.724 1277.63 733.724C1278.85 733.724 1279.85 732.755 1279.85 731.557C1279.85 730.36 1278.86 729.39 1277.63 729.39Z" fill="#F0FFF0"/>
<path d="M1290.4 729.39C1289.17 729.39 1288.17 730.36 1288.17 731.557C1288.17 732.753 1289.17 733.724 1290.4 733.724C1291.63 733.724 1292.63 732.755 1292.63 731.557C1292.63 730.36 1291.63 729.39 1290.4 729.39Z" fill="#F0FFF0"/>
<path d="M1303.17 729.39C1301.94 729.39 1300.95 730.36 1300.95 731.557C1300.95 732.753 1301.94 733.724 1303.17 733.724C1304.4 733.724 1305.4 732.755 1305.4 731.557C1305.4 730.36 1304.4 729.39 1303.17 729.39Z" fill="#F0FFF0"/>
<path d="M1315.95 729.39C1314.72 729.39 1313.72 730.36 1313.72 731.557C1313.72 732.753 1314.71 733.724 1315.95 733.724C1317.18 733.724 1318.17 732.755 1318.17 731.557C1318.17 730.36 1317.18 729.39 1315.95 729.39Z" fill="#F0FFF0"/>
<path d="M1328.72 729.39C1327.49 729.39 1326.49 730.36 1326.49 731.557C1326.49 732.753 1327.49 733.724 1328.72 733.724C1329.95 733.724 1330.95 732.755 1330.95 731.557C1330.95 730.36 1329.95 729.39 1328.72 729.39Z" fill="#F0FFF0"/>
<path d="M1341.49 729.39C1340.26 729.39 1339.27 730.36 1339.27 731.557C1339.27 732.753 1340.26 733.724 1341.49 733.724C1342.72 733.724 1343.72 732.755 1343.72 731.557C1343.72 730.36 1342.72 729.39 1341.49 729.39Z" fill="#F0FFF0"/>
<path d="M1354.26 729.39C1353.03 729.39 1352.04 730.36 1352.04 731.557C1352.04 732.753 1353.03 733.724 1354.26 733.724C1355.5 733.724 1356.49 732.755 1356.49 731.557C1356.49 730.36 1355.5 729.39 1354.26 729.39Z" fill="#F0FFF0"/>
<path d="M1367.04 729.39C1365.81 729.39 1364.81 730.36 1364.81 731.557C1364.81 732.753 1365.81 733.724 1367.04 733.724C1368.27 733.724 1369.26 732.755 1369.26 731.557C1369.26 730.36 1368.27 729.39 1367.04 729.39Z" fill="#F0FFF0"/>
<path d="M1379.81 729.39C1378.58 729.39 1377.58 730.36 1377.58 731.557C1377.58 732.753 1378.58 733.724 1379.81 733.724C1381.04 733.724 1382.04 732.755 1382.04 731.557C1382.04 730.36 1381.04 729.39 1379.81 729.39Z" fill="#F0FFF0"/>
<path d="M1162.67 741.136C1161.44 741.136 1160.44 742.106 1160.44 743.303C1160.44 744.501 1161.44 745.471 1162.67 745.471C1163.9 745.471 1164.89 744.501 1164.89 743.303C1164.89 742.106 1163.9 741.136 1162.67 741.136Z" fill="#F0FFF0"/>
<path d="M1175.44 741.136C1174.21 741.136 1173.21 742.106 1173.21 743.303C1173.21 744.501 1174.21 745.471 1175.44 745.471C1176.67 745.471 1177.67 744.501 1177.67 743.303C1177.67 742.106 1176.67 741.136 1175.44 741.136Z" fill="#F0FFF0"/>
<path d="M1188.21 741.136C1186.98 741.136 1185.99 742.106 1185.99 743.303C1185.99 744.501 1186.98 745.471 1188.21 745.471C1189.44 745.471 1190.44 744.501 1190.44 743.303C1190.44 742.106 1189.44 741.136 1188.21 741.136Z" fill="#F0FFF0"/>
<path d="M1200.99 741.136C1199.76 741.136 1198.76 742.106 1198.76 743.303C1198.76 744.501 1199.76 745.471 1200.99 745.471C1202.22 745.471 1203.21 744.501 1203.21 743.303C1203.21 742.106 1202.22 741.136 1200.99 741.136Z" fill="#F0FFF0"/>
<path d="M1213.76 741.136C1212.53 741.136 1211.53 742.106 1211.53 743.303C1211.53 744.501 1212.53 745.471 1213.76 745.471C1214.99 745.471 1215.99 744.501 1215.99 743.303C1215.99 742.106 1214.99 741.136 1213.76 741.136Z" fill="#F0FFF0"/>
<path d="M1226.53 741.136C1225.3 741.136 1224.31 742.106 1224.31 743.303C1224.31 744.501 1225.3 745.471 1226.53 745.471C1227.76 745.471 1228.76 744.501 1228.76 743.303C1228.76 742.106 1227.76 741.136 1226.53 741.136Z" fill="#F0FFF0"/>
<path d="M1239.31 741.136C1238.08 741.136 1237.08 742.106 1237.08 743.303C1237.08 744.501 1238.08 745.471 1239.31 745.471C1240.54 745.471 1241.53 744.501 1241.53 743.303C1241.53 742.106 1240.54 741.136 1239.31 741.136Z" fill="#F0FFF0"/>
<path d="M1252.08 741.136C1250.85 741.136 1249.85 742.106 1249.85 743.303C1249.85 744.501 1250.85 745.471 1252.08 745.471C1253.31 745.471 1254.31 744.501 1254.31 743.303C1254.31 742.106 1253.31 741.136 1252.08 741.136Z" fill="#F0FFF0"/>
<path d="M1264.85 741.136C1263.62 741.136 1262.63 742.106 1262.63 743.303C1262.63 744.501 1263.62 745.471 1264.85 745.471C1266.08 745.471 1267.08 744.501 1267.08 743.303C1267.08 742.106 1266.08 741.136 1264.85 741.136Z" fill="#F0FFF0"/>
<path d="M1277.63 741.136C1276.39 741.136 1275.4 742.106 1275.4 743.303C1275.4 744.501 1276.39 745.471 1277.63 745.471C1278.85 745.471 1279.85 744.501 1279.85 743.303C1279.85 742.106 1278.86 741.136 1277.63 741.136Z" fill="#F0FFF0"/>
<path d="M1290.4 741.136C1289.17 741.136 1288.17 742.106 1288.17 743.303C1288.17 744.501 1289.17 745.471 1290.4 745.471C1291.63 745.471 1292.63 744.501 1292.63 743.303C1292.63 742.106 1291.63 741.136 1290.4 741.136Z" fill="#F0FFF0"/>
<path d="M1303.17 741.136C1301.94 741.136 1300.95 742.106 1300.95 743.303C1300.95 744.501 1301.94 745.471 1303.17 745.471C1304.4 745.471 1305.4 744.501 1305.4 743.303C1305.4 742.106 1304.4 741.136 1303.17 741.136Z" fill="#F0FFF0"/>
<path d="M1315.95 741.136C1314.72 741.136 1313.72 742.106 1313.72 743.303C1313.72 744.501 1314.71 745.471 1315.95 745.471C1317.18 745.471 1318.17 744.501 1318.17 743.303C1318.17 742.106 1317.18 741.136 1315.95 741.136Z" fill="#F0FFF0"/>
<path d="M1328.72 741.136C1327.49 741.136 1326.49 742.106 1326.49 743.303C1326.49 744.501 1327.49 745.471 1328.72 745.471C1329.95 745.471 1330.95 744.501 1330.95 743.303C1330.95 742.106 1329.95 741.136 1328.72 741.136Z" fill="#F0FFF0"/>
<path d="M1341.49 741.136C1340.26 741.136 1339.27 742.106 1339.27 743.303C1339.27 744.501 1340.26 745.471 1341.49 745.471C1342.72 745.471 1343.72 744.501 1343.72 743.303C1343.72 742.106 1342.72 741.136 1341.49 741.136Z" fill="#F0FFF0"/>
<path d="M1354.26 741.136C1353.03 741.136 1352.04 742.106 1352.04 743.303C1352.04 744.501 1353.03 745.471 1354.26 745.471C1355.5 745.471 1356.49 744.501 1356.49 743.303C1356.49 742.106 1355.5 741.136 1354.26 741.136Z" fill="#F0FFF0"/>
<path d="M1367.04 741.136C1365.81 741.136 1364.81 742.106 1364.81 743.303C1364.81 744.501 1365.81 745.471 1367.04 745.471C1368.27 745.471 1369.26 744.501 1369.26 743.303C1369.26 742.106 1368.27 741.136 1367.04 741.136Z" fill="#F0FFF0"/>
<path d="M1379.81 741.136C1378.58 741.136 1377.58 742.106 1377.58 743.303C1377.58 744.501 1378.58 745.471 1379.81 745.471C1381.04 745.471 1382.04 744.501 1382.04 743.303C1382.04 742.106 1381.04 741.136 1379.81 741.136Z" fill="#F0FFF0"/>
<path d="M2.22721 814.042C0.998407 814.042 0 815.012 0 816.21C0 817.405 0.996487 818.377 2.22721 818.377C3.45601 818.377 4.45441 817.407 4.45441 816.21C4.45249 815.012 3.45601 814.042 2.22721 814.042Z" fill="#F3F3F3"/>
<path d="M14.9987 814.042C13.7699 814.042 12.7715 815.012 12.7715 816.21C12.7715 817.405 13.768 818.377 14.9987 818.377C16.2275 818.377 17.2259 817.407 17.2259 816.21C17.2259 815.012 16.2294 814.042 14.9987 814.042Z" fill="#F3F3F3"/>
<path d="M27.7731 814.042C26.5443 814.042 25.5459 815.012 25.5459 816.21C25.5459 817.405 26.5424 818.377 27.7731 818.377C29.0038 818.377 30.0003 817.407 30.0003 816.21C30.0003 815.012 29.0019 814.042 27.7731 814.042Z" fill="#F3F3F3"/>
<path d="M40.5465 814.042C39.3158 814.042 38.3193 815.012 38.3193 816.21C38.3193 817.405 39.3158 818.377 40.5465 818.377C41.7753 818.377 42.7737 817.407 42.7737 816.21C42.7718 815.012 41.7753 814.042 40.5465 814.042Z" fill="#F3F3F3"/>
<path d="M53.318 814.042C52.0892 814.042 51.0908 815.012 51.0908 816.21C51.0908 817.405 52.0873 818.377 53.318 818.377C54.5468 818.377 55.5452 817.407 55.5452 816.21C55.5452 815.012 54.5487 814.042 53.318 814.042Z" fill="#F3F3F3"/>
<path d="M66.0924 814.042C64.8636 814.042 63.8652 815.012 63.8652 816.21C63.8652 817.405 64.8617 818.377 66.0924 818.377C67.3212 818.377 68.3196 817.407 68.3196 816.21C68.3196 815.012 67.3232 814.042 66.0924 814.042Z" fill="#F3F3F3"/>
<path d="M78.8659 814.042C77.6371 814.042 76.6387 815.012 76.6387 816.21C76.6387 817.405 77.6352 818.377 78.8659 818.377C80.0947 818.377 81.0931 817.407 81.0931 816.21C81.0912 815.012 80.0947 814.042 78.8659 814.042Z" fill="#F3F3F3"/>
<path d="M91.6374 814.042C90.4086 814.042 89.4102 815.012 89.4102 816.21C89.4102 817.405 90.4066 818.377 91.6374 818.377C92.8662 818.377 93.8646 817.407 93.8646 816.21C93.8646 815.012 92.8681 814.042 91.6374 814.042Z" fill="#F3F3F3"/>
<path d="M104.412 814.042C103.183 814.042 102.185 815.012 102.185 816.21C102.185 817.405 103.181 818.377 104.412 818.377C105.641 818.377 106.639 817.407 106.639 816.21C106.639 815.012 105.642 814.042 104.412 814.042Z" fill="#F3F3F3"/>
<path d="M117.185 814.042C115.954 814.042 114.958 815.012 114.958 816.21C114.958 817.405 115.954 818.377 117.185 818.377C118.414 818.377 119.412 817.407 119.412 816.21C119.412 815.012 118.414 814.042 117.185 814.042Z" fill="#F3F3F3"/>
<path d="M129.959 814.042C128.728 814.042 127.731 815.012 127.731 816.21C127.731 817.405 128.728 818.377 129.959 818.377C131.187 818.377 132.186 817.407 132.186 816.21C132.184 815.012 131.187 814.042 129.959 814.042Z" fill="#F3F3F3"/>
<path d="M142.731 814.042C141.502 814.042 140.504 815.012 140.504 816.21C140.504 817.405 141.5 818.377 142.731 818.377C143.96 818.377 144.958 817.407 144.958 816.21C144.958 815.012 143.962 814.042 142.731 814.042Z" fill="#F3F3F3"/>
<path d="M155.505 814.042C154.276 814.042 153.277 815.012 153.277 816.21C153.277 817.405 154.274 818.377 155.505 818.377C156.733 818.377 157.732 817.407 157.732 816.21C157.73 815.012 156.733 814.042 155.505 814.042Z" fill="#F3F3F3"/>
<path d="M168.276 814.042C167.047 814.042 166.049 815.012 166.049 816.21C166.049 817.405 167.045 818.377 168.276 818.377C169.507 818.377 170.503 817.407 170.503 816.21C170.503 815.012 169.507 814.042 168.276 814.042Z" fill="#F3F3F3"/>
<path d="M181.05 814.042C179.822 814.042 178.823 815.012 178.823 816.21C178.823 817.405 179.82 818.377 181.05 818.377C182.279 818.377 183.278 817.407 183.278 816.21C183.278 815.012 182.281 814.042 181.05 814.042Z" fill="#F3F3F3"/>
<path d="M193.824 814.042C192.595 814.042 191.597 815.012 191.597 816.21C191.597 817.405 192.593 818.377 193.824 818.377C195.053 818.377 196.051 817.407 196.051 816.21C196.051 815.012 195.053 814.042 193.824 814.042Z" fill="#F3F3F3"/>
<path d="M206.597 814.042C205.369 814.042 204.37 815.012 204.37 816.21C204.37 817.405 205.367 818.377 206.597 818.377C207.828 818.377 208.825 817.407 208.825 816.21C208.823 815.012 207.826 814.042 206.597 814.042Z" fill="#F3F3F3"/>
<path d="M219.37 818.375C220.599 818.375 221.597 817.405 221.597 816.208C221.597 815.012 220.601 814.04 219.37 814.04C218.141 814.04 217.143 815.01 217.143 816.208C217.144 817.405 218.141 818.375 219.37 818.375Z" fill="#F3F3F3"/>
<path d="M2.22721 825.787C0.998407 825.787 0 826.756 0 827.954C0 829.15 0.996487 830.121 2.22721 830.121C3.45601 830.121 4.45441 829.151 4.45441 827.954C4.45249 826.756 3.45601 825.787 2.22721 825.787Z" fill="#F3F3F3"/>
<path d="M14.9987 825.787C13.7699 825.787 12.7715 826.756 12.7715 827.954C12.7715 829.15 13.768 830.121 14.9987 830.121C16.2275 830.121 17.2259 829.151 17.2259 827.954C17.2259 826.756 16.2294 825.787 14.9987 825.787Z" fill="#F3F3F3"/>
<path d="M27.7731 825.787C26.5443 825.787 25.5459 826.756 25.5459 827.954C25.5459 829.15 26.5424 830.121 27.7731 830.121C29.0038 830.121 30.0003 829.151 30.0003 827.954C30.0003 826.756 29.0019 825.787 27.7731 825.787Z" fill="#F3F3F3"/>
<path d="M40.5465 825.787C39.3158 825.787 38.3193 826.756 38.3193 827.954C38.3193 829.15 39.3158 830.121 40.5465 830.121C41.7753 830.121 42.7737 829.151 42.7737 827.954C42.7718 826.756 41.7753 825.787 40.5465 825.787Z" fill="#F3F3F3"/>
<path d="M53.318 825.787C52.0892 825.787 51.0908 826.756 51.0908 827.954C51.0908 829.15 52.0873 830.121 53.318 830.121C54.5468 830.121 55.5452 829.151 55.5452 827.954C55.5452 826.756 54.5487 825.787 53.318 825.787Z" fill="#F3F3F3"/>
<path d="M66.0924 825.787C64.8636 825.787 63.8652 826.756 63.8652 827.954C63.8652 829.15 64.8617 830.121 66.0924 830.121C67.3212 830.121 68.3196 829.151 68.3196 827.954C68.3196 826.756 67.3232 825.787 66.0924 825.787Z" fill="#F3F3F3"/>
<path d="M78.8659 825.787C77.6371 825.787 76.6387 826.756 76.6387 827.954C76.6387 829.15 77.6352 830.121 78.8659 830.121C80.0947 830.121 81.0931 829.151 81.0931 827.954C81.0912 826.756 80.0947 825.787 78.8659 825.787Z" fill="#F3F3F3"/>
<path d="M91.6374 825.787C90.4086 825.787 89.4102 826.756 89.4102 827.954C89.4102 829.15 90.4066 830.121 91.6374 830.121C92.8662 830.121 93.8646 829.151 93.8646 827.954C93.8646 826.756 92.8681 825.787 91.6374 825.787Z" fill="#F3F3F3"/>
<path d="M104.412 825.787C103.183 825.787 102.185 826.756 102.185 827.954C102.185 829.15 103.181 830.121 104.412 830.121C105.641 830.121 106.639 829.151 106.639 827.954C106.639 826.756 105.642 825.787 104.412 825.787Z" fill="#F3F3F3"/>
<path d="M117.185 825.787C115.954 825.787 114.958 826.756 114.958 827.954C114.958 829.15 115.954 830.121 117.185 830.121C118.414 830.121 119.412 829.151 119.412 827.954C119.412 826.756 118.414 825.787 117.185 825.787Z" fill="#F3F3F3"/>
<path d="M129.959 825.787C128.728 825.787 127.731 826.756 127.731 827.954C127.731 829.15 128.728 830.121 129.959 830.121C131.187 830.121 132.186 829.151 132.186 827.954C132.184 826.756 131.187 825.787 129.959 825.787Z" fill="#F3F3F3"/>
<path d="M142.731 825.787C141.502 825.787 140.504 826.756 140.504 827.954C140.504 829.15 141.5 830.121 142.731 830.121C143.96 830.121 144.958 829.151 144.958 827.954C144.958 826.756 143.962 825.787 142.731 825.787Z" fill="#F3F3F3"/>
<path d="M155.505 825.787C154.276 825.787 153.277 826.756 153.277 827.954C153.277 829.15 154.274 830.121 155.505 830.121C156.733 830.121 157.732 829.151 157.732 827.954C157.73 826.756 156.733 825.787 155.505 825.787Z" fill="#F3F3F3"/>
<path d="M168.276 825.787C167.047 825.787 166.049 826.756 166.049 827.954C166.049 829.15 167.045 830.121 168.276 830.121C169.507 830.121 170.503 829.151 170.503 827.954C170.503 826.756 169.507 825.787 168.276 825.787Z" fill="#F3F3F3"/>
<path d="M181.05 825.787C179.822 825.787 178.823 826.756 178.823 827.954C178.823 829.15 179.82 830.121 181.05 830.121C182.279 830.121 183.278 829.151 183.278 827.954C183.278 826.756 182.281 825.787 181.05 825.787Z" fill="#F3F3F3"/>
<path d="M193.824 825.787C192.595 825.787 191.597 826.756 191.597 827.954C191.597 829.15 192.593 830.121 193.824 830.121C195.053 830.121 196.051 829.151 196.051 827.954C196.051 826.756 195.053 825.787 193.824 825.787Z" fill="#F3F3F3"/>
<path d="M206.597 825.787C205.369 825.787 204.37 826.756 204.37 827.954C204.37 829.15 205.367 830.121 206.597 830.121C207.828 830.121 208.825 829.151 208.825 827.954C208.823 826.756 207.826 825.787 206.597 825.787Z" fill="#F3F3F3"/>
<path d="M219.37 825.787C218.141 825.787 217.143 826.756 217.143 827.954C217.143 829.15 218.139 830.121 219.37 830.121C220.599 830.121 221.597 829.151 221.597 827.954C221.597 826.756 220.601 825.787 219.37 825.787Z" fill="#F3F3F3"/>
<path d="M2.22721 837.532C0.998407 837.532 0 838.502 0 839.7C0 840.897 0.996487 841.867 2.22721 841.867C3.45601 841.867 4.45441 840.897 4.45441 839.7C4.45441 838.502 3.45601 837.532 2.22721 837.532Z" fill="#F3F3F3"/>
<path d="M14.9987 837.532C13.7699 837.532 12.7715 838.502 12.7715 839.7C12.7715 840.897 13.768 841.867 14.9987 841.867C16.2275 841.867 17.2259 840.897 17.2259 839.7C17.2259 838.502 16.2294 837.532 14.9987 837.532Z" fill="#F3F3F3"/>
<path d="M27.7731 837.532C26.5443 837.532 25.5459 838.502 25.5459 839.7C25.5459 840.897 26.5424 841.867 27.7731 841.867C29.0038 841.867 30.0003 840.897 30.0003 839.7C30.0003 838.502 29.0019 837.532 27.7731 837.532Z" fill="#F3F3F3"/>
<path d="M40.5465 837.532C39.3158 837.532 38.3193 838.502 38.3193 839.7C38.3193 840.897 39.3158 841.867 40.5465 841.867C41.7753 841.867 42.7737 840.897 42.7737 839.7C42.7737 838.502 41.7753 837.532 40.5465 837.532Z" fill="#F3F3F3"/>
<path d="M53.319 837.532C52.0902 837.532 51.0918 838.502 51.0918 839.7C51.0918 840.897 52.0883 841.867 53.319 841.867C54.5478 841.867 55.5462 840.897 55.5462 839.7C55.5462 838.502 54.5497 837.532 53.319 837.532Z" fill="#F3F3F3"/>
<path d="M66.0924 837.532C64.8636 837.532 63.8652 838.502 63.8652 839.7C63.8652 840.897 64.8617 841.867 66.0924 841.867C67.3212 841.867 68.3196 840.897 68.3196 839.7C68.3196 838.502 67.3232 837.532 66.0924 837.532Z" fill="#F3F3F3"/>
<path d="M78.8659 837.532C77.6371 837.532 76.6387 838.502 76.6387 839.7C76.6387 840.897 77.6352 841.867 78.8659 841.867C80.0947 841.867 81.0931 840.897 81.0931 839.7C81.0931 838.502 80.0947 837.532 78.8659 837.532Z" fill="#F3F3F3"/>
<path d="M91.6374 837.532C90.4086 837.532 89.4102 838.502 89.4102 839.7C89.4102 840.897 90.4066 841.867 91.6374 841.867C92.8662 841.867 93.8646 840.897 93.8646 839.7C93.8646 838.502 92.8681 837.532 91.6374 837.532Z" fill="#F3F3F3"/>
<path d="M104.412 837.532C103.183 837.532 102.185 838.502 102.185 839.7C102.185 840.897 103.181 841.867 104.412 841.867C105.641 841.867 106.639 840.897 106.639 839.7C106.639 838.502 105.642 837.532 104.412 837.532Z" fill="#F3F3F3"/>
<path d="M117.185 837.532C115.954 837.532 114.958 838.502 114.958 839.7C114.958 840.897 115.954 841.867 117.185 841.867C118.414 841.867 119.412 840.897 119.412 839.7C119.412 838.502 118.414 837.532 117.185 837.532Z" fill="#F3F3F3"/>
<path d="M129.96 837.532C128.729 837.532 127.732 838.502 127.732 839.7C127.732 840.897 128.729 841.867 129.96 841.867C131.188 841.867 132.187 840.897 132.187 839.7C132.187 838.502 131.188 837.532 129.96 837.532Z" fill="#F3F3F3"/>
<path d="M142.731 837.532C141.502 837.532 140.504 838.502 140.504 839.7C140.504 840.897 141.5 841.867 142.731 841.867C143.96 841.867 144.958 840.897 144.958 839.7C144.958 838.502 143.962 837.532 142.731 837.532Z" fill="#F3F3F3"/>
<path d="M155.505 837.532C154.276 837.532 153.277 838.502 153.277 839.7C153.277 840.897 154.274 841.867 155.505 841.867C156.733 841.867 157.732 840.897 157.732 839.7C157.732 838.502 156.733 837.532 155.505 837.532Z" fill="#F3F3F3"/>
<path d="M168.276 837.532C167.047 837.532 166.049 838.502 166.049 839.7C166.049 840.897 167.045 841.867 168.276 841.867C169.507 841.867 170.503 840.897 170.503 839.7C170.503 838.502 169.507 837.532 168.276 837.532Z" fill="#F3F3F3"/>
<path d="M181.05 837.532C179.822 837.532 178.823 838.502 178.823 839.7C178.823 840.897 179.82 841.867 181.05 841.867C182.279 841.867 183.278 840.897 183.278 839.7C183.278 838.502 182.281 837.532 181.05 837.532Z" fill="#F3F3F3"/>
<path d="M193.824 837.532C192.595 837.532 191.597 838.502 191.597 839.7C191.597 840.897 192.593 841.867 193.824 841.867C195.053 841.867 196.051 840.897 196.051 839.7C196.051 838.502 195.053 837.532 193.824 837.532Z" fill="#F3F3F3"/>
<path d="M206.598 837.532C205.369 837.532 204.371 838.502 204.371 839.7C204.371 840.897 205.368 841.867 206.598 841.867C207.829 841.867 208.825 840.897 208.825 839.7C208.825 838.502 207.827 837.532 206.598 837.532Z" fill="#F3F3F3"/>
<path d="M219.37 837.532C218.141 837.532 217.143 838.502 217.143 839.7C217.143 840.897 218.139 841.867 219.37 841.867C220.599 841.867 221.597 840.897 221.597 839.7C221.597 838.502 220.601 837.532 219.37 837.532Z" fill="#F3F3F3"/>
<path d="M1363.53 76.4615C1362.3 76.4615 1361.3 77.4312 1361.3 78.6288C1361.3 79.8245 1362.3 80.7961 1363.53 80.7961C1364.76 80.7961 1365.76 79.8264 1365.76 78.6288C1365.75 77.4312 1364.76 76.4615 1363.53 76.4615Z" fill="#F3F3F3"/>
<path d="M1376.3 76.4617C1375.07 76.4617 1374.07 77.4313 1374.07 78.6289C1374.07 79.8247 1375.07 80.7962 1376.3 80.7962C1377.53 80.7962 1378.53 79.8265 1378.53 78.6289C1378.53 77.4313 1377.53 76.4617 1376.3 76.4617Z" fill="#F3F3F3"/>
<path d="M1389.07 76.4617C1387.84 76.4617 1386.85 77.4313 1386.85 78.6289C1386.85 79.8247 1387.84 80.7962 1389.07 80.7962C1390.3 80.7962 1391.3 79.8265 1391.3 78.6289C1391.3 77.4313 1390.3 76.4617 1389.07 76.4617Z" fill="#F3F3F3"/>
<path d="M1401.85 76.4617C1400.62 76.4617 1399.62 77.4313 1399.62 78.6289C1399.62 79.8247 1400.62 80.7962 1401.85 80.7962C1403.08 80.7962 1404.07 79.8265 1404.07 78.6289C1404.07 77.4313 1403.08 76.4617 1401.85 76.4617Z" fill="#F3F3F3"/>
<path d="M1414.62 76.4617C1413.39 76.4617 1412.39 77.4313 1412.39 78.6289C1412.39 79.8247 1413.39 80.7962 1414.62 80.7962C1415.85 80.7962 1416.85 79.8265 1416.85 78.6289C1416.85 77.4313 1415.85 76.4617 1414.62 76.4617Z" fill="#F3F3F3"/>
<path d="M1427.39 76.4617C1426.16 76.4617 1425.17 77.4313 1425.17 78.6289C1425.17 79.8247 1426.16 80.7962 1427.39 80.7962C1428.62 80.7962 1429.62 79.8265 1429.62 78.6289C1429.62 77.4313 1428.62 76.4617 1427.39 76.4617Z" fill="#F3F3F3"/>
<path d="M1440.17 76.4617C1438.94 76.4617 1437.94 77.4313 1437.94 78.6289C1437.94 79.8247 1438.94 80.7962 1440.17 80.7962C1441.4 80.7962 1442.39 79.8265 1442.39 78.6289C1442.39 77.4313 1441.4 76.4617 1440.17 76.4617Z" fill="#F3F3F3"/>
<path d="M1452.94 76.4617C1451.71 76.4617 1450.71 77.4313 1450.71 78.6289C1450.71 79.8247 1451.71 80.7962 1452.94 80.7962C1454.17 80.7962 1455.17 79.8265 1455.17 78.6289C1455.17 77.4313 1454.17 76.4617 1452.94 76.4617Z" fill="#F3F3F3"/>
<path d="M1465.71 76.4617C1464.48 76.4617 1463.49 77.4313 1463.49 78.6289C1463.49 79.8247 1464.48 80.7962 1465.71 80.7962C1466.94 80.7962 1467.94 79.8265 1467.94 78.6289C1467.94 77.4313 1466.94 76.4617 1465.71 76.4617Z" fill="#F3F3F3"/>
<path d="M1478.49 76.4617C1477.26 76.4617 1476.26 77.4313 1476.26 78.6289C1476.26 79.8247 1477.26 80.7962 1478.49 80.7962C1479.71 80.7962 1480.71 79.8265 1480.71 78.6289C1480.71 77.4313 1479.71 76.4617 1478.49 76.4617Z" fill="#F3F3F3"/>
<path d="M1491.26 76.4617C1490.03 76.4617 1489.03 77.4313 1489.03 78.6289C1489.03 79.8247 1490.03 80.7962 1491.26 80.7962C1492.49 80.7962 1493.49 79.8265 1493.49 78.6289C1493.48 77.4313 1492.49 76.4617 1491.26 76.4617Z" fill="#F3F3F3"/>
<path d="M1504.03 76.4617C1502.8 76.4617 1501.8 77.4313 1501.8 78.6289C1501.8 79.8247 1502.8 80.7962 1504.03 80.7962C1505.26 80.7962 1506.26 79.8265 1506.26 78.6289C1506.26 77.4313 1505.26 76.4617 1504.03 76.4617Z" fill="#F3F3F3"/>
<path d="M1516.81 76.4617C1515.58 76.4617 1514.58 77.4313 1514.58 78.6289C1514.58 79.8247 1515.57 80.7962 1516.81 80.7962C1518.04 80.7962 1519.03 79.8265 1519.03 78.6289C1519.03 77.4313 1518.03 76.4617 1516.81 76.4617Z" fill="#F3F3F3"/>
<path d="M1529.58 76.4617C1528.35 76.4617 1527.35 77.4313 1527.35 78.6289C1527.35 79.8247 1528.35 80.7962 1529.58 80.7962C1530.81 80.7962 1531.81 79.8265 1531.81 78.6289C1531.8 77.4313 1530.81 76.4617 1529.58 76.4617Z" fill="#F3F3F3"/>
<path d="M1542.35 76.4617C1541.12 76.4617 1540.12 77.4313 1540.12 78.6289C1540.12 79.8247 1541.12 80.7962 1542.35 80.7962C1543.58 80.7962 1544.58 79.8265 1544.58 78.6289C1544.58 77.4313 1543.58 76.4617 1542.35 76.4617Z" fill="#F3F3F3"/>
<path d="M1555.12 76.4617C1553.89 76.4617 1552.9 77.4313 1552.9 78.6289C1552.9 79.8247 1553.89 80.7962 1555.12 80.7962C1556.36 80.7962 1557.35 79.8265 1557.35 78.6289C1557.35 77.4313 1556.36 76.4617 1555.12 76.4617Z" fill="#F3F3F3"/>
<path d="M1567.9 76.4617C1566.67 76.4617 1565.67 77.4313 1565.67 78.6289C1565.67 79.8247 1566.67 80.7962 1567.9 80.7962C1569.13 80.7962 1570.13 79.8265 1570.13 78.6289C1570.12 77.4313 1569.13 76.4617 1567.9 76.4617Z" fill="#F3F3F3"/>
<path d="M1580.67 80.7942C1581.9 80.7942 1582.9 79.8246 1582.9 78.627C1582.9 77.4312 1581.9 76.4597 1580.67 76.4597C1579.44 76.4597 1578.45 77.4294 1578.45 78.627C1578.45 79.8246 1579.44 80.7942 1580.67 80.7942Z" fill="#F3F3F3"/>
<path d="M1363.53 88.2059C1362.3 88.2059 1361.3 89.1756 1361.3 90.3732C1361.3 91.5708 1362.3 92.5405 1363.53 92.5405C1364.76 92.5405 1365.76 91.5708 1365.76 90.3732C1365.75 89.1756 1364.76 88.2059 1363.53 88.2059Z" fill="#F3F3F3"/>
<path d="M1376.3 88.2059C1375.07 88.2059 1374.07 89.1756 1374.07 90.3732C1374.07 91.5708 1375.07 92.5405 1376.3 92.5405C1377.53 92.5405 1378.53 91.5708 1378.53 90.3732C1378.53 89.1756 1377.53 88.2059 1376.3 88.2059Z" fill="#F3F3F3"/>
<path d="M1389.07 88.2058C1387.84 88.2058 1386.85 89.1755 1386.85 90.3731C1386.85 91.5707 1387.84 92.5403 1389.07 92.5403C1390.3 92.5403 1391.3 91.5707 1391.3 90.3731C1391.3 89.1755 1390.3 88.2058 1389.07 88.2058Z" fill="#F3F3F3"/>
<path d="M1401.85 88.2059C1400.62 88.2059 1399.62 89.1756 1399.62 90.3732C1399.62 91.5708 1400.62 92.5405 1401.85 92.5405C1403.08 92.5405 1404.07 91.5708 1404.07 90.3732C1404.07 89.1756 1403.08 88.2059 1401.85 88.2059Z" fill="#F3F3F3"/>
<path d="M1414.62 88.2059C1413.39 88.2059 1412.39 89.1756 1412.39 90.3732C1412.39 91.5708 1413.39 92.5405 1414.62 92.5405C1415.85 92.5405 1416.85 91.5708 1416.85 90.3732C1416.85 89.1756 1415.85 88.2059 1414.62 88.2059Z" fill="#F3F3F3"/>
<path d="M1427.39 88.2059C1426.16 88.2059 1425.17 89.1756 1425.17 90.3732C1425.17 91.5708 1426.16 92.5405 1427.39 92.5405C1428.62 92.5405 1429.62 91.5708 1429.62 90.3732C1429.62 89.1756 1428.62 88.2059 1427.39 88.2059Z" fill="#F3F3F3"/>
<path d="M1440.17 88.2059C1438.94 88.2059 1437.94 89.1756 1437.94 90.3732C1437.94 91.5708 1438.94 92.5405 1440.17 92.5405C1441.4 92.5405 1442.39 91.5708 1442.39 90.3732C1442.39 89.1756 1441.4 88.2059 1440.17 88.2059Z" fill="#F3F3F3"/>
<path d="M1452.94 88.2059C1451.71 88.2059 1450.71 89.1756 1450.71 90.3732C1450.71 91.5708 1451.71 92.5405 1452.94 92.5405C1454.17 92.5405 1455.17 91.5708 1455.17 90.3732C1455.17 89.1756 1454.17 88.2059 1452.94 88.2059Z" fill="#F3F3F3"/>
<path d="M1465.71 88.2059C1464.48 88.2059 1463.49 89.1756 1463.49 90.3732C1463.49 91.5708 1464.48 92.5405 1465.71 92.5405C1466.94 92.5405 1467.94 91.5708 1467.94 90.3732C1467.94 89.1756 1466.94 88.2059 1465.71 88.2059Z" fill="#F3F3F3"/>
<path d="M1478.49 88.2059C1477.26 88.2059 1476.26 89.1756 1476.26 90.3732C1476.26 91.5708 1477.26 92.5405 1478.49 92.5405C1479.71 92.5405 1480.71 91.5708 1480.71 90.3732C1480.71 89.1756 1479.71 88.2059 1478.49 88.2059Z" fill="#F3F3F3"/>
<path d="M1491.26 88.2059C1490.03 88.2059 1489.03 89.1756 1489.03 90.3732C1489.03 91.5708 1490.03 92.5405 1491.26 92.5405C1492.49 92.5405 1493.49 91.5708 1493.49 90.3732C1493.48 89.1756 1492.49 88.2059 1491.26 88.2059Z" fill="#F3F3F3"/>
<path d="M1504.03 88.2059C1502.8 88.2059 1501.8 89.1756 1501.8 90.3732C1501.8 91.5708 1502.8 92.5405 1504.03 92.5405C1505.26 92.5405 1506.26 91.5708 1506.26 90.3732C1506.26 89.1756 1505.26 88.2059 1504.03 88.2059Z" fill="#F3F3F3"/>
<path d="M1516.81 88.2059C1515.58 88.2059 1514.58 89.1756 1514.58 90.3732C1514.58 91.5708 1515.57 92.5405 1516.81 92.5405C1518.04 92.5405 1519.03 91.5708 1519.03 90.3732C1519.03 89.1756 1518.03 88.2059 1516.81 88.2059Z" fill="#F3F3F3"/>
<path d="M1529.58 88.2059C1528.35 88.2059 1527.35 89.1756 1527.35 90.3732C1527.35 91.5708 1528.35 92.5405 1529.58 92.5405C1530.81 92.5405 1531.81 91.5708 1531.81 90.3732C1531.8 89.1756 1530.81 88.2059 1529.58 88.2059Z" fill="#F3F3F3"/>
<path d="M1542.35 88.2059C1541.12 88.2059 1540.12 89.1756 1540.12 90.3732C1540.12 91.5708 1541.12 92.5405 1542.35 92.5405C1543.58 92.5405 1544.58 91.5708 1544.58 90.3732C1544.58 89.1756 1543.58 88.2059 1542.35 88.2059Z" fill="#F3F3F3"/>
<path d="M1555.12 88.2059C1553.89 88.2059 1552.9 89.1756 1552.9 90.3732C1552.9 91.5708 1553.89 92.5405 1555.12 92.5405C1556.36 92.5405 1557.35 91.5708 1557.35 90.3732C1557.35 89.1756 1556.36 88.2059 1555.12 88.2059Z" fill="#F3F3F3"/>
<path d="M1567.9 88.2059C1566.67 88.2059 1565.67 89.1756 1565.67 90.3732C1565.67 91.5708 1566.67 92.5405 1567.9 92.5405C1569.13 92.5405 1570.13 91.5708 1570.13 90.3732C1570.12 89.1756 1569.13 88.2059 1567.9 88.2059Z" fill="#F3F3F3"/>
<path d="M1580.67 88.2059C1579.44 88.2059 1578.45 89.1756 1578.45 90.3732C1578.45 91.5708 1579.44 92.5405 1580.67 92.5405C1581.9 92.5405 1582.9 91.5708 1582.9 90.3732C1582.9 89.1756 1581.9 88.2059 1580.67 88.2059Z" fill="#F3F3F3"/>
<path d="M1363.53 99.9521C1362.3 99.9521 1361.3 100.922 1361.3 102.119C1361.3 103.315 1362.3 104.287 1363.53 104.287C1364.76 104.287 1365.76 103.317 1365.76 102.119C1365.75 100.922 1364.76 99.9521 1363.53 99.9521Z" fill="#F3F3F3"/>
<path d="M1376.3 99.9521C1375.07 99.9521 1374.07 100.922 1374.07 102.119C1374.07 103.315 1375.07 104.287 1376.3 104.287C1377.53 104.287 1378.53 103.317 1378.53 102.119C1378.53 100.922 1377.53 99.9521 1376.3 99.9521Z" fill="#F3F3F3"/>
<path d="M1389.07 99.9519C1387.84 99.9519 1386.85 100.922 1386.85 102.119C1386.85 103.315 1387.84 104.286 1389.07 104.286C1390.3 104.286 1391.3 103.317 1391.3 102.119C1391.3 100.922 1390.3 99.9519 1389.07 99.9519Z" fill="#F3F3F3"/>
<path d="M1401.85 99.9521C1400.62 99.9521 1399.62 100.922 1399.62 102.119C1399.62 103.315 1400.62 104.287 1401.85 104.287C1403.08 104.287 1404.07 103.317 1404.07 102.119C1404.07 100.922 1403.08 99.9521 1401.85 99.9521Z" fill="#F3F3F3"/>
<path d="M1414.62 99.9521C1413.39 99.9521 1412.39 100.922 1412.39 102.119C1412.39 103.315 1413.39 104.287 1414.62 104.287C1415.85 104.287 1416.85 103.317 1416.85 102.119C1416.85 100.922 1415.85 99.9521 1414.62 99.9521Z" fill="#F3F3F3"/>
<path d="M1427.39 99.9521C1426.16 99.9521 1425.17 100.922 1425.17 102.119C1425.17 103.315 1426.16 104.287 1427.39 104.287C1428.62 104.287 1429.62 103.317 1429.62 102.119C1429.62 100.922 1428.62 99.9521 1427.39 99.9521Z" fill="#F3F3F3"/>
<path d="M1440.17 99.9521C1438.94 99.9521 1437.94 100.922 1437.94 102.119C1437.94 103.315 1438.94 104.287 1440.17 104.287C1441.4 104.287 1442.39 103.317 1442.39 102.119C1442.39 100.922 1441.4 99.9521 1440.17 99.9521Z" fill="#F3F3F3"/>
<path d="M1452.94 99.9521C1451.71 99.9521 1450.71 100.922 1450.71 102.119C1450.71 103.315 1451.71 104.287 1452.94 104.287C1454.17 104.287 1455.17 103.317 1455.17 102.119C1455.17 100.922 1454.17 99.9521 1452.94 99.9521Z" fill="#F3F3F3"/>
<path d="M1465.71 99.9521C1464.48 99.9521 1463.49 100.922 1463.49 102.119C1463.49 103.315 1464.48 104.287 1465.71 104.287C1466.94 104.287 1467.94 103.317 1467.94 102.119C1467.94 100.922 1466.94 99.9521 1465.71 99.9521Z" fill="#F3F3F3"/>
<path d="M1478.49 99.9521C1477.26 99.9521 1476.26 100.922 1476.26 102.119C1476.26 103.315 1477.26 104.287 1478.49 104.287C1479.71 104.287 1480.71 103.317 1480.71 102.119C1480.71 100.922 1479.71 99.9521 1478.49 99.9521Z" fill="#F3F3F3"/>
<path d="M1491.26 99.9521C1490.03 99.9521 1489.03 100.922 1489.03 102.119C1489.03 103.315 1490.03 104.287 1491.26 104.287C1492.49 104.287 1493.49 103.317 1493.49 102.119C1493.48 100.922 1492.49 99.9521 1491.26 99.9521Z" fill="#F3F3F3"/>
<path d="M1504.03 99.9521C1502.8 99.9521 1501.8 100.922 1501.8 102.119C1501.8 103.315 1502.8 104.287 1504.03 104.287C1505.26 104.287 1506.26 103.317 1506.26 102.119C1506.26 100.922 1505.26 99.9521 1504.03 99.9521Z" fill="#F3F3F3"/>
<path d="M1516.81 99.9521C1515.58 99.9521 1514.58 100.922 1514.58 102.119C1514.58 103.315 1515.57 104.287 1516.81 104.287C1518.04 104.287 1519.03 103.317 1519.03 102.119C1519.03 100.922 1518.03 99.9521 1516.81 99.9521Z" fill="#F3F3F3"/>
<path d="M1529.58 99.9521C1528.35 99.9521 1527.35 100.922 1527.35 102.119C1527.35 103.315 1528.35 104.287 1529.58 104.287C1530.81 104.287 1531.81 103.317 1531.81 102.119C1531.8 100.922 1530.81 99.9521 1529.58 99.9521Z" fill="#F3F3F3"/>
<path d="M1542.35 99.9521C1541.12 99.9521 1540.12 100.922 1540.12 102.119C1540.12 103.315 1541.12 104.287 1542.35 104.287C1543.58 104.287 1544.58 103.317 1544.58 102.119C1544.58 100.922 1543.58 99.9521 1542.35 99.9521Z" fill="#F3F3F3"/>
<path d="M1555.12 99.9521C1553.89 99.9521 1552.9 100.922 1552.9 102.119C1552.9 103.315 1553.89 104.287 1555.12 104.287C1556.36 104.287 1557.35 103.317 1557.35 102.119C1557.35 100.922 1556.36 99.9521 1555.12 99.9521Z" fill="#F3F3F3"/>
<path d="M1567.9 99.9521C1566.67 99.9521 1565.67 100.922 1565.67 102.119C1565.67 103.315 1566.67 104.287 1567.9 104.287C1569.13 104.287 1570.13 103.317 1570.13 102.119C1570.12 100.922 1569.13 99.9521 1567.9 99.9521Z" fill="#F3F3F3"/>
<path d="M1580.67 99.9521C1579.44 99.9521 1578.45 100.922 1578.45 102.119C1578.45 103.315 1579.44 104.287 1580.67 104.287C1581.9 104.287 1582.9 103.317 1582.9 102.119C1582.9 100.922 1581.9 99.9521 1580.67 99.9521Z" fill="#F3F3F3"/>
<path d="M359.273 2.16727C359.273 0.971533 358.276 0 357.046 0C355.815 0 354.818 0.969665 354.818 2.16727C354.818 3.363 355.815 4.33453 357.046 4.33453C358.276 4.33453 359.273 3.36487 359.273 2.16727Z" fill="#F3F3F3"/>
<path d="M359.273 14.5973C359.273 13.4016 358.276 12.4301 357.046 12.4301C355.815 12.4301 354.818 13.3997 354.818 14.5973C354.818 15.7931 355.815 16.7646 357.046 16.7646C358.276 16.7627 359.273 15.7931 359.273 14.5973Z" fill="#F3F3F3"/>
<path d="M359.273 27.0273C359.273 25.8315 358.276 24.86 357.046 24.86C355.815 24.86 354.818 25.8297 354.818 27.0273C354.818 28.223 355.815 29.1945 357.046 29.1945C358.276 29.1926 359.273 28.223 359.273 27.0273Z" fill="#F3F3F3"/>
<path d="M359.273 39.4555C359.273 38.2597 358.276 37.2882 357.046 37.2882C355.815 37.2882 354.818 38.2579 354.818 39.4555C354.818 40.6531 355.815 41.6227 357.046 41.6227C358.276 41.6227 359.273 40.6531 359.273 39.4555Z" fill="#F3F3F3"/>
<path d="M359.273 51.8855C359.273 50.6898 358.276 49.7183 357.046 49.7183C355.815 49.7183 354.818 50.6879 354.818 51.8855C354.818 53.0813 355.815 54.0528 357.046 54.0528C358.276 54.0528 359.273 53.0813 359.273 51.8855Z" fill="#F3F3F3"/>
<path d="M359.273 64.3155C359.273 63.1197 358.276 62.1482 357.046 62.1482C355.815 62.1482 354.818 63.1179 354.818 64.3155C354.818 65.5131 355.815 66.4827 357.046 66.4827C358.276 66.4809 359.273 65.5112 359.273 64.3155Z" fill="#F3F3F3"/>
<path d="M359.273 76.7437C359.273 75.5479 358.276 74.5764 357.046 74.5764C355.815 74.5764 354.818 75.5461 354.818 76.7437C354.818 77.9413 355.815 78.911 357.046 78.911C358.276 78.911 359.273 77.9413 359.273 76.7437Z" fill="#F3F3F3"/>
<path d="M359.273 89.1737C359.273 87.978 358.276 87.0065 357.046 87.0065C355.815 87.0065 354.818 87.9761 354.818 89.1737C354.818 90.3695 355.815 91.341 357.046 91.341C358.276 91.341 359.273 90.3695 359.273 89.1737Z" fill="#F3F3F3"/>
<path d="M359.273 101.604C359.273 100.408 358.276 99.4364 357.046 99.4364C355.815 99.4364 354.818 100.406 354.818 101.604C354.818 102.799 355.815 103.771 357.046 103.771C358.276 103.769 359.273 102.799 359.273 101.604Z" fill="#F3F3F3"/>
<path d="M359.273 114.032C359.273 112.836 358.276 111.865 357.046 111.865C355.815 111.865 354.818 112.834 354.818 114.032C354.818 115.228 355.815 116.199 357.046 116.199C358.276 116.199 359.273 115.229 359.273 114.032Z" fill="#F3F3F3"/>
<path d="M359.273 126.462C359.273 125.264 358.276 124.295 357.046 124.295C355.815 124.295 354.818 125.264 354.818 126.462C354.818 127.658 355.815 128.629 357.046 128.629C358.276 128.629 359.273 127.66 359.273 126.462Z" fill="#F3F3F3"/>
<path d="M359.273 138.892C359.273 137.694 358.276 136.725 357.046 136.725C355.815 136.725 354.818 137.694 354.818 138.892C354.818 140.088 355.815 141.059 357.046 141.059C358.276 141.057 359.273 140.088 359.273 138.892Z" fill="#F3F3F3"/>
<path d="M359.273 151.32C359.273 150.124 358.276 149.153 357.046 149.153C355.815 149.153 354.818 150.122 354.818 151.32C354.818 152.516 355.815 153.487 357.046 153.487C358.276 153.487 359.273 152.518 359.273 151.32Z" fill="#F3F3F3"/>
<path d="M359.273 163.75C359.273 162.554 358.276 161.583 357.046 161.583C355.815 161.583 354.818 162.552 354.818 163.75C354.818 164.948 355.815 165.917 357.046 165.917C358.276 165.917 359.273 164.948 359.273 163.75Z" fill="#F3F3F3"/>
<path d="M359.273 176.18C359.273 174.983 358.276 174.013 357.046 174.013C355.815 174.013 354.818 174.983 354.818 176.18C354.818 177.378 355.815 178.347 357.046 178.347C358.276 178.346 359.273 177.376 359.273 176.18Z" fill="#F3F3F3"/>
<path d="M359.273 188.61C359.273 187.413 358.276 186.443 357.046 186.443C355.815 186.443 354.818 187.413 354.818 188.61C354.818 189.806 355.815 190.777 357.046 190.777C358.276 190.776 359.273 189.806 359.273 188.61Z" fill="#F3F3F3"/>
<path d="M359.273 201.038C359.273 199.843 358.276 198.871 357.046 198.871C355.815 198.871 354.818 199.841 354.818 201.038C354.818 202.234 355.815 203.206 357.046 203.206C358.276 203.206 359.273 202.236 359.273 201.038Z" fill="#F3F3F3"/>
<path d="M354.82 213.469C354.82 214.664 355.817 215.636 357.048 215.636C358.276 215.636 359.275 214.666 359.275 213.469C359.275 212.271 358.278 211.301 357.048 211.301C355.817 211.301 354.82 212.271 354.82 213.469Z" fill="#F3F3F3"/>
<path d="M347.203 2.16727C347.203 0.971533 346.207 0 344.976 0C343.747 0 342.749 0.969665 342.749 2.16727C342.749 3.363 343.745 4.33453 344.976 4.33453C346.207 4.33453 347.203 3.36487 347.203 2.16727Z" fill="#F3F3F3"/>
<path d="M347.203 14.5973C347.203 13.4016 346.207 12.4301 344.976 12.4301C343.747 12.4301 342.749 13.3997 342.749 14.5973C342.749 15.7931 343.745 16.7646 344.976 16.7646C346.207 16.7627 347.203 15.7931 347.203 14.5973Z" fill="#F3F3F3"/>
<path d="M347.203 27.0273C347.203 25.8315 346.207 24.86 344.976 24.86C343.747 24.86 342.749 25.8297 342.749 27.0273C342.749 28.223 343.745 29.1945 344.976 29.1945C346.207 29.1926 347.203 28.223 347.203 27.0273Z" fill="#F3F3F3"/>
<path d="M347.203 39.4555C347.203 38.2597 346.207 37.2882 344.976 37.2882C343.747 37.2882 342.749 38.2579 342.749 39.4555C342.749 40.6531 343.745 41.6227 344.976 41.6227C346.207 41.6227 347.203 40.6531 347.203 39.4555Z" fill="#F3F3F3"/>
<path d="M347.203 51.8855C347.203 50.6898 346.207 49.7183 344.976 49.7183C343.747 49.7183 342.749 50.6879 342.749 51.8855C342.749 53.0813 343.745 54.0528 344.976 54.0528C346.207 54.0528 347.203 53.0813 347.203 51.8855Z" fill="#F3F3F3"/>
<path d="M347.203 64.3155C347.203 63.1197 346.207 62.1482 344.976 62.1482C343.747 62.1482 342.749 63.1179 342.749 64.3155C342.749 65.5131 343.745 66.4827 344.976 66.4827C346.207 66.4809 347.203 65.5112 347.203 64.3155Z" fill="#F3F3F3"/>
<path d="M347.203 76.7437C347.203 75.5479 346.207 74.5764 344.976 74.5764C343.747 74.5764 342.749 75.5461 342.749 76.7437C342.749 77.9413 343.745 78.911 344.976 78.911C346.207 78.911 347.203 77.9413 347.203 76.7437Z" fill="#F3F3F3"/>
<path d="M347.203 89.1737C347.203 87.978 346.207 87.0065 344.976 87.0065C343.747 87.0065 342.749 87.9761 342.749 89.1737C342.749 90.3695 343.745 91.341 344.976 91.341C346.207 91.341 347.203 90.3695 347.203 89.1737Z" fill="#F3F3F3"/>
<path d="M347.203 101.604C347.203 100.408 346.207 99.4364 344.976 99.4364C343.747 99.4364 342.749 100.406 342.749 101.604C342.749 102.799 343.745 103.771 344.976 103.771C346.207 103.769 347.203 102.799 347.203 101.604Z" fill="#F3F3F3"/>
<path d="M347.203 114.032C347.203 112.836 346.207 111.865 344.976 111.865C343.747 111.865 342.749 112.834 342.749 114.032C342.749 115.228 343.745 116.199 344.976 116.199C346.207 116.199 347.203 115.229 347.203 114.032Z" fill="#F3F3F3"/>
<path d="M347.203 126.462C347.203 125.264 346.207 124.295 344.976 124.295C343.747 124.295 342.749 125.264 342.749 126.462C342.749 127.658 343.745 128.629 344.976 128.629C346.207 128.629 347.203 127.66 347.203 126.462Z" fill="#F3F3F3"/>
<path d="M347.203 138.892C347.203 137.694 346.207 136.725 344.976 136.725C343.747 136.725 342.749 137.694 342.749 138.892C342.749 140.088 343.745 141.059 344.976 141.059C346.207 141.057 347.203 140.088 347.203 138.892Z" fill="#F3F3F3"/>
<path d="M347.203 151.32C347.203 150.124 346.207 149.153 344.976 149.153C343.747 149.153 342.749 150.122 342.749 151.32C342.749 152.516 343.745 153.487 344.976 153.487C346.207 153.487 347.203 152.518 347.203 151.32Z" fill="#F3F3F3"/>
<path d="M347.203 163.75C347.203 162.554 346.207 161.583 344.976 161.583C343.747 161.583 342.749 162.552 342.749 163.75C342.749 164.948 343.745 165.917 344.976 165.917C346.207 165.917 347.203 164.948 347.203 163.75Z" fill="#F3F3F3"/>
<path d="M347.203 176.18C347.203 174.983 346.207 174.013 344.976 174.013C343.747 174.013 342.749 174.983 342.749 176.18C342.749 177.378 343.745 178.347 344.976 178.347C346.207 178.346 347.203 177.376 347.203 176.18Z" fill="#F3F3F3"/>
<path d="M347.203 188.61C347.203 187.413 346.207 186.443 344.976 186.443C343.747 186.443 342.749 187.413 342.749 188.61C342.749 189.806 343.745 190.777 344.976 190.777C346.207 190.776 347.203 189.806 347.203 188.61Z" fill="#F3F3F3"/>
<path d="M347.203 201.038C347.203 199.843 346.207 198.871 344.976 198.871C343.747 198.871 342.749 199.841 342.749 201.038C342.749 202.234 343.745 203.206 344.976 203.206C346.207 203.206 347.203 202.236 347.203 201.038Z" fill="#F3F3F3"/>
<path d="M347.203 213.469C347.203 212.271 346.207 211.301 344.976 211.301C343.747 211.301 342.749 212.271 342.749 213.469C342.749 214.664 343.745 215.636 344.976 215.636C346.207 215.634 347.203 214.664 347.203 213.469Z" fill="#F3F3F3"/>
<path d="M335.132 2.16727C335.132 0.971533 334.136 0 332.905 0C331.674 0 330.678 0.969665 330.678 2.16727C330.678 3.363 331.674 4.33453 332.905 4.33453C334.136 4.33453 335.132 3.36487 335.132 2.16727Z" fill="#F3F3F3"/>
<path d="M335.132 14.5973C335.132 13.4016 334.136 12.4301 332.905 12.4301C331.674 12.4301 330.678 13.3997 330.678 14.5973C330.678 15.7931 331.674 16.7646 332.905 16.7646C334.136 16.7627 335.132 15.7931 335.132 14.5973Z" fill="#F3F3F3"/>
<path d="M335.132 27.0273C335.132 25.8315 334.136 24.86 332.905 24.86C331.674 24.86 330.678 25.8297 330.678 27.0273C330.678 28.223 331.674 29.1945 332.905 29.1945C334.136 29.1926 335.132 28.223 335.132 27.0273Z" fill="#F3F3F3"/>
<path d="M335.132 39.4555C335.132 38.2597 334.136 37.2882 332.905 37.2882C331.674 37.2882 330.678 38.2579 330.678 39.4555C330.678 40.6531 331.674 41.6227 332.905 41.6227C334.136 41.6227 335.132 40.6531 335.132 39.4555Z" fill="#F3F3F3"/>
<path d="M335.132 51.8855C335.132 50.6898 334.136 49.7183 332.905 49.7183C331.674 49.7183 330.678 50.6879 330.678 51.8855C330.678 53.0813 331.674 54.0528 332.905 54.0528C334.136 54.0528 335.132 53.0813 335.132 51.8855Z" fill="#F3F3F3"/>
<path d="M335.132 64.3155C335.132 63.1197 334.136 62.1482 332.905 62.1482C331.674 62.1482 330.678 63.1179 330.678 64.3155C330.678 65.5131 331.674 66.4827 332.905 66.4827C334.136 66.4809 335.132 65.5112 335.132 64.3155Z" fill="#F3F3F3"/>
<path d="M335.132 76.7437C335.132 75.5479 334.136 74.5764 332.905 74.5764C331.674 74.5764 330.678 75.5461 330.678 76.7437C330.678 77.9413 331.674 78.911 332.905 78.911C334.136 78.911 335.132 77.9413 335.132 76.7437Z" fill="#F3F3F3"/>
<path d="M335.132 89.1737C335.132 87.978 334.136 87.0065 332.905 87.0065C331.674 87.0065 330.678 87.9761 330.678 89.1737C330.678 90.3695 331.674 91.341 332.905 91.341C334.136 91.341 335.132 90.3695 335.132 89.1737Z" fill="#F3F3F3"/>
<path d="M335.132 101.604C335.132 100.408 334.136 99.4364 332.905 99.4364C331.674 99.4364 330.678 100.406 330.678 101.604C330.678 102.799 331.674 103.771 332.905 103.771C334.136 103.769 335.132 102.799 335.132 101.604Z" fill="#F3F3F3"/>
<path d="M335.132 114.032C335.132 112.836 334.136 111.865 332.905 111.865C331.674 111.865 330.678 112.834 330.678 114.032C330.678 115.228 331.674 116.199 332.905 116.199C334.136 116.199 335.132 115.229 335.132 114.032Z" fill="#F3F3F3"/>
<path d="M335.132 126.462C335.132 125.264 334.136 124.295 332.905 124.295C331.674 124.295 330.678 125.264 330.678 126.462C330.678 127.658 331.674 128.629 332.905 128.629C334.136 128.629 335.132 127.66 335.132 126.462Z" fill="#F3F3F3"/>
<path d="M335.132 138.892C335.132 137.694 334.136 136.725 332.905 136.725C331.674 136.725 330.678 137.694 330.678 138.892C330.678 140.088 331.674 141.059 332.905 141.059C334.136 141.057 335.132 140.088 335.132 138.892Z" fill="#F3F3F3"/>
<path d="M335.132 151.32C335.132 150.124 334.136 149.153 332.905 149.153C331.674 149.153 330.678 150.122 330.678 151.32C330.678 152.516 331.674 153.487 332.905 153.487C334.136 153.487 335.132 152.518 335.132 151.32Z" fill="#F3F3F3"/>
<path d="M335.132 163.75C335.132 162.554 334.136 161.583 332.905 161.583C331.674 161.583 330.678 162.552 330.678 163.75C330.678 164.948 331.674 165.917 332.905 165.917C334.136 165.917 335.132 164.948 335.132 163.75Z" fill="#F3F3F3"/>
<path d="M335.132 176.18C335.132 174.983 334.136 174.013 332.905 174.013C331.674 174.013 330.678 174.983 330.678 176.18C330.678 177.378 331.674 178.347 332.905 178.347C334.136 178.346 335.132 177.376 335.132 176.18Z" fill="#F3F3F3"/>
<path d="M335.132 188.61C335.132 187.413 334.136 186.443 332.905 186.443C331.674 186.443 330.678 187.413 330.678 188.61C330.678 189.806 331.674 190.777 332.905 190.777C334.136 190.776 335.132 189.806 335.132 188.61Z" fill="#F3F3F3"/>
<path d="M335.132 201.038C335.132 199.843 334.136 198.871 332.905 198.871C331.674 198.871 330.678 199.841 330.678 201.038C330.678 202.234 331.674 203.206 332.905 203.206C334.136 203.206 335.132 202.236 335.132 201.038Z" fill="#F3F3F3"/>
<path d="M335.132 213.469C335.132 212.271 334.136 211.301 332.905 211.301C331.674 211.301 330.678 212.271 330.678 213.469C330.678 214.664 331.674 215.636 332.905 215.636C334.136 215.634 335.132 214.664 335.132 213.469Z" fill="#F3F3F3"/>
<path d="M296.672 115.784C301.197 104.943 295.833 92.5848 284.692 88.1817C273.552 83.7785 260.852 88.9976 256.327 99.8387C251.802 110.68 257.165 123.038 268.306 127.441C279.447 131.844 292.147 126.625 296.672 115.784Z" fill="#F3F3F3"/>
<path d="M276.504 216.643C288.529 216.643 298.277 207.157 298.277 195.456C298.277 183.754 288.529 174.269 276.504 174.269C264.479 174.269 254.731 183.754 254.731 195.456C254.731 207.157 264.479 216.643 276.504 216.643Z" fill="#F3F3F3"/>
<path d="M276.504 425.421C262.911 425.421 251.852 414.658 251.852 401.43C251.852 388.202 262.911 377.441 276.504 377.441C290.098 377.441 301.157 388.202 301.157 401.43C301.157 414.658 290.098 425.421 276.504 425.421ZM276.504 383.046C266.086 383.046 257.612 391.292 257.612 401.43C257.612 411.568 266.088 419.816 276.504 419.816C286.922 419.816 295.397 411.568 295.397 401.43C295.397 391.292 286.922 383.046 276.504 383.046Z" fill="#F0FFF0"/>
<path d="M1275.35 823.761C1287.16 821.562 1294.9 810.461 1292.64 798.968C1290.38 787.476 1278.98 779.942 1267.17 782.142C1255.35 784.342 1247.61 795.442 1249.87 806.935C1252.13 818.428 1263.54 825.961 1275.35 823.761Z" fill="#F3F3F3"/>
<path d="M1364.66 823.818C1376.54 821.984 1384.64 811.128 1382.75 799.572C1380.87 788.016 1369.71 780.135 1357.83 781.97C1345.96 783.805 1337.86 794.66 1339.75 806.216C1341.63 817.773 1352.79 825.653 1364.66 823.818Z" fill="#F3F3F3"/>
<path d="M1385.95 497.16C1385.95 510.388 1374.89 521.149 1361.3 521.149C1347.7 521.149 1336.65 510.388 1336.65 497.16C1336.65 483.932 1347.7 473.17 1361.3 473.17C1374.89 473.17 1385.95 483.932 1385.95 497.16ZM1342.41 497.16C1342.41 507.297 1350.88 515.544 1361.3 515.544C1371.72 515.544 1380.19 507.297 1380.19 497.16C1380.19 487.022 1371.72 478.775 1361.3 478.775C1350.88 478.775 1342.41 487.022 1342.41 497.16Z" fill="#F0FFF0"/>
</svg>
