<svg width="24" height="24" viewBox="0 0 24 24" fill="none" xmlns="http://www.w3.org/2000/svg">
<path d="M9 22.0005H15C20 22.0005 22 20.0005 22 15.0005V9.00049C22 4.00049 20 2.00049 15 2.00049H9C4 2.00049 2 4.00049 2 9.00049V15.0005C2 20.0005 4 22.0005 9 22.0005Z" stroke="#000418" stroke-width="1.5" stroke-linecap="round" stroke-linejoin="round"/>
<path d="M17 2.44043V12.4204C17 14.3904 15.59 15.1604 13.86 14.1204L12.54 13.3304C12.24 13.1504 11.76 13.1504 11.46 13.3304L10.14 14.1204C8.41 15.1504 7 14.3904 7 12.4204V2.44043" stroke="#000418" stroke-width="1.5" stroke-linecap="round" stroke-linejoin="round"/>
<path d="M9 22.0005H15C20 22.0005 22 20.0005 22 15.0005V9.00049C22 4.00049 20 2.00049 15 2.00049H9C4 2.00049 2 4.00049 2 9.00049V15.0005C2 20.0005 4 22.0005 9 22.0005Z" stroke="#000418" stroke-width="1.5" stroke-linecap="round" stroke-linejoin="round"/>
<path d="M17 2.44043V12.4204C17 14.3904 15.59 15.1604 13.86 14.1204L12.54 13.3304C12.24 13.1504 11.76 13.1504 11.46 13.3304L10.14 14.1204C8.41 15.1504 7 14.3904 7 12.4204V2.44043" stroke="#000418" stroke-width="1.5" stroke-linecap="round" stroke-linejoin="round"/>
</svg>
