<svg width="24" height="25" viewBox="0 0 24 25" fill="none" xmlns="http://www.w3.org/2000/svg">
<path d="M7.99983 22.8245H15.9998C20.0198 22.8245 20.7398 21.2145 20.9498 19.2545L21.6998 11.2545C21.9698 8.81446 21.2698 6.82446 16.9998 6.82446H6.99983C2.72983 6.82446 2.02983 8.81446 2.29983 11.2545L3.04983 19.2545C3.25983 21.2145 3.97983 22.8245 7.99983 22.8245Z" stroke="white" stroke-width="1.5" stroke-miterlimit="10" stroke-linecap="round" stroke-linejoin="round"/>
<path d="M8 6.82446V6.02446C8 4.25446 8 2.82446 11.2 2.82446H12.8C16 2.82446 16 4.25446 16 6.02446V6.82446" stroke="white" stroke-width="1.5" stroke-miterlimit="10" stroke-linecap="round" stroke-linejoin="round"/>
<path d="M14 13.8245V14.8245C14 14.8345 14 14.8345 14 14.8445C14 15.9345 13.99 16.8245 12 16.8245C10.02 16.8245 10 15.9445 10 14.8545V13.8245C10 12.8245 10 12.8245 11 12.8245H13C14 12.8245 14 12.8245 14 13.8245Z" stroke="white" stroke-width="1.5" stroke-miterlimit="10" stroke-linecap="round" stroke-linejoin="round"/>
<path d="M21.65 11.8245C19.34 13.5045 16.7 14.5045 14 14.8445" stroke="white" stroke-width="1.5" stroke-miterlimit="10" stroke-linecap="round" stroke-linejoin="round"/>
<path d="M2.62012 12.0945C4.87012 13.6345 7.41012 14.5645 10.0001 14.8545" stroke="white" stroke-width="1.5" stroke-miterlimit="10" stroke-linecap="round" stroke-linejoin="round"/>
</svg>
