<svg width="15" height="15" viewBox="0 0 15 15" fill="none" xmlns="http://www.w3.org/2000/svg">
<path d="M12.3486 0.500977C13.4424 0.500977 14.3486 1.40723 14.3486 2.50098V12.501C14.3486 13.626 13.4424 14.501 12.3486 14.501H2.34863C1.22363 14.501 0.348633 13.626 0.348633 12.501V2.50098C0.348633 1.40723 1.22363 0.500977 2.34863 0.500977H12.3486ZM10.9424 6.12598C11.2861 5.78223 11.2861 5.25098 10.9424 4.90723C10.5986 4.56348 10.0674 4.56348 9.72363 4.90723L6.34863 8.28223L4.94238 6.90723C4.59863 6.56348 4.06738 6.56348 3.72363 6.90723C3.37988 7.25098 3.37988 7.78223 3.72363 8.12598L5.72363 10.126C6.06738 10.4697 6.59863 10.4697 6.94238 10.126L10.9424 6.12598Z" fill="#E2403C"/>
</svg>
