<svg width="100" height="87" viewBox="0 0 100 87" fill="none" xmlns="http://www.w3.org/2000/svg">
<path opacity="0.1" d="M100 36.0986C100 63.7128 77.6142 86.0986 50 86.0986C22.3858 86.0986 0 63.7128 0 36.0986C0 8.48434 37.3858 41.0983 65 41.0983C92.6142 41.0983 100 8.48434 100 36.0986Z" fill="#855FCE"/>
<path d="M31.6733 34.0539L26.5771 19.3726C26.3615 18.5128 25.8291 17.7661 25.0864 17.2822C24.3438 16.7982 23.4457 16.6126 22.5721 16.7626C22.124 16.8581 21.7001 17.0436 21.3259 17.3079C20.9517 17.5722 20.6351 17.9097 20.3953 18.2999C20.1554 18.6902 19.9974 19.1251 19.9306 19.5783C19.8639 20.0315 19.8899 20.4935 20.0071 20.9364L25.2496 37.1251L31.6733 34.0539ZM68.3258 34.0539L73.4221 19.3726C73.6376 18.5128 74.17 17.7661 74.9127 17.2822C75.6553 16.7982 76.5534 16.6126 77.4271 16.7626C77.8751 16.8581 78.299 17.0436 78.6732 17.3079C79.0474 17.5722 79.364 17.9097 79.6038 18.2999C79.8437 18.6902 80.0017 19.1251 80.0685 19.5783C80.1352 20.0315 80.1092 20.4935 79.9921 20.9364L74.7495 37.1251L68.3258 34.0539Z" fill="#FFAC96"/>
<path d="M42.1763 40.1424L32.2313 34.3126C31.5431 33.9152 30.7366 33.7738 29.9543 33.9136C29.1719 34.0534 28.4642 34.4653 27.9563 35.0765L24.3271 23.8726C24.1115 23.0128 23.5791 22.2661 22.8364 21.7822C22.0938 21.2982 21.1957 21.1126 20.3221 21.2626C19.874 21.3581 19.4501 21.5436 19.0759 21.8079C18.7017 22.0722 18.3851 22.4097 18.1453 22.7999C17.9054 23.1902 17.7474 23.6251 17.6806 24.0783C17.6139 24.5315 17.6399 24.9935 17.7571 25.4364L22.6508 43.6951C22.8753 44.5491 23.3492 45.3168 24.0121 45.9001L31.6171 52.6614C32.0915 53.0839 32.4712 53.602 32.731 54.1818C32.9909 54.7616 33.125 55.3898 33.1246 56.0251V59.6251H46.6245V47.9071C46.6247 46.3373 46.2142 44.7948 45.4339 43.4327C44.6535 42.0706 43.5305 40.9363 42.1763 40.1424ZM79.6771 21.2626C78.8034 21.1126 77.9053 21.2982 77.1627 21.7822C76.42 22.2661 75.8876 23.0128 75.6721 23.8726L72.0383 35.0765C71.5304 34.4653 70.8227 34.0534 70.0403 33.9136C69.258 33.7738 68.4515 33.9152 67.7633 34.3126L57.8183 40.1424C56.4649 40.9369 55.3428 42.0714 54.5633 43.4335C53.7838 44.7956 53.374 46.3378 53.3745 47.9071V59.6251H66.8745V56.0251C66.8741 55.3898 67.0083 54.7616 67.2681 54.1818C67.5279 53.602 67.9076 53.0839 68.382 52.6614L75.987 45.9001C76.6499 45.3168 77.1238 44.5491 77.3483 43.6951L82.2421 25.4364C82.3592 24.9935 82.3852 24.5315 82.3185 24.0783C82.2517 23.6251 82.0937 23.1902 81.8538 22.7999C81.614 22.4097 81.2974 22.0722 80.9232 21.8079C80.549 21.5436 80.1251 21.3581 79.6771 21.2626Z" fill="#FFBCAB"/>
<path d="M52.25 59.625V68.625H68V59.625H53.375H52.25ZM47.75 59.625H32V68.625H47.75V59.625Z" fill="#006DF0"/>
<path d="M65.1194 20.8797L64.3207 21.6785L49.9994 35.9997L35.6782 21.6785L34.8794 20.8797C33.9065 19.9469 33.1296 18.8292 32.5943 17.5921C32.0591 16.3551 31.7762 15.0236 31.7623 13.6758C31.7483 12.328 32.0037 10.9909 32.5133 9.74309C33.023 8.49526 33.7766 7.36175 34.7301 6.40902C35.6836 5.45629 36.8177 4.70353 38.0659 4.19489C39.3141 3.68624 40.6514 3.43195 41.9992 3.44691C43.347 3.46188 44.6782 3.74581 45.9148 4.28206C47.1515 4.8183 48.2686 5.59606 49.2007 6.56973L49.9994 7.36848L50.7982 6.56973C51.7302 5.59606 52.8474 4.8183 54.084 4.28206C55.3206 3.74581 56.6519 3.46188 57.9997 3.44691C59.3475 3.43195 60.6847 3.68624 61.9329 4.19489C63.1812 4.70353 64.3153 5.45629 65.2687 6.40902C66.2222 7.36175 66.9759 8.49526 67.4855 9.74309C67.9951 10.9909 68.2505 12.328 68.2366 13.6758C68.2227 15.0236 67.9398 16.3551 67.4045 17.5921C66.8692 18.8292 66.0923 19.9469 65.1194 20.8797Z" fill="#D80027"/>
<path d="M65.12 6.56978C64.0497 5.48807 62.7469 4.66455 61.3106 4.16181C59.8743 3.65907 58.3423 3.49033 56.831 3.66841C58.7257 3.87839 60.5226 4.61936 62.0146 5.80595C63.5066 6.99254 64.633 8.57647 65.2641 10.3753C65.8952 12.1741 66.0053 14.1146 65.5818 15.9733C65.1582 17.832 64.2182 19.5332 62.87 20.8809L62.0712 21.6797L48.875 34.8748L50 35.9998L64.3212 21.6785L65.12 20.8798C67.0161 18.9813 68.0811 16.4079 68.0811 13.7248C68.0811 11.0416 67.0161 8.46823 65.12 6.56978Z" fill="#BD0022"/>
<path d="M52.25 24.75V20.25H56.75V15.75H52.25V11.25H47.75V15.75H43.25V20.25H47.75V24.75H52.25Z" fill="#F1F2F2"/>
<path d="M71.1427 37.9127L63.6232 42.0752C63.4083 42.1996 63.2489 42.4014 63.1776 42.6393C63.1063 42.8772 63.1285 43.1333 63.2395 43.3554C63.2989 43.4742 63.382 43.5796 63.4836 43.6651C63.5852 43.7506 63.7033 43.8144 63.8305 43.8525C63.9577 43.8907 64.0913 43.9024 64.2232 43.8869C64.3551 43.8715 64.4825 43.8292 64.5974 43.7627L71.1427 40.1627C71.826 39.7665 72.3488 39.1432 72.6199 38.4013C72.8911 37.6595 72.8934 36.846 72.6265 36.1025C72.3663 36.865 71.8393 37.5079 71.1427 37.9127ZM28.8562 37.9127L36.3757 42.0752C36.5906 42.1996 36.7499 42.4014 36.8212 42.6393C36.8925 42.8772 36.8704 43.1333 36.7593 43.3554C36.6999 43.4742 36.6169 43.5796 36.5152 43.6651C36.4136 43.7506 36.2956 43.8144 36.1684 43.8525C36.0412 43.8907 35.9075 43.9024 35.7756 43.8869C35.6437 43.8715 35.5164 43.8292 35.4014 43.7627L28.8562 40.1627C28.1728 39.7665 27.65 39.1432 27.3789 38.4013C27.1078 37.6595 27.1054 36.846 27.3723 36.1025C27.6326 36.865 28.1595 37.5079 28.8562 37.9127Z" fill="#FFAC96"/>
</svg>
