<svg width="100" height="87" viewBox="0 0 100 87" fill="none" xmlns="http://www.w3.org/2000/svg">
<path opacity="0.1" d="M100 36.0986C100 63.7128 77.6142 86.0986 50 86.0986C22.3858 86.0986 0 63.7128 0 36.0986C0 8.48434 37.3858 41.0983 65 41.0983C92.6142 41.0983 100 8.48434 100 36.0986Z" fill="#855FCE"/>
<path fill-rule="evenodd" clip-rule="evenodd" d="M34.5643 62.7381H65.4332C66.2982 62.7381 67.04 62.3662 67.555 61.6729C68.07 60.9796 68.2153 60.1586 67.9644 59.3332C65.6379 51.6165 58.4759 45.9951 49.9998 45.9951C41.5239 45.9951 34.3596 51.6165 32.0331 59.3332C31.7844 60.1586 31.9275 60.9796 32.4425 61.6729C32.9576 62.3662 33.7014 62.7381 34.5643 62.7381Z" fill="#8AC9FE"/>
<path fill-rule="evenodd" clip-rule="evenodd" d="M65.4332 62.7381C66.2982 62.7381 67.04 62.3662 67.555 61.6729C68.07 60.9796 68.2153 60.1586 67.9644 59.3332C65.638 51.6165 58.4759 45.9951 49.9998 45.9951C49.1018 45.9951 48.2193 46.0589 47.3564 46.1801C54.6506 47.2101 60.5977 52.433 62.6776 59.3332C62.9285 60.1586 62.7855 60.9796 62.2705 61.6729C61.7555 62.3662 61.0115 62.7381 60.1487 62.7381H65.4332Z" fill="#60B7FF"/>
<path fill-rule="evenodd" clip-rule="evenodd" d="M49.9999 45.994C55.2251 45.994 59.4862 41.7329 59.4862 36.5078C59.4862 31.2826 55.2251 27.0215 49.9999 27.0215C44.7748 27.0215 40.5137 31.2826 40.5137 36.5078C40.5137 41.7329 44.7748 45.994 49.9999 45.994Z" fill="#F6DCCD"/>
<path fill-rule="evenodd" clip-rule="evenodd" d="M50.0004 27.0215C55.2388 27.0215 59.4868 31.2693 59.4868 36.5078C59.4868 41.7483 55.2388 45.994 50.0004 45.994C49.5515 45.994 49.109 45.9633 48.6777 45.9038C53.291 45.2589 56.8434 41.2994 56.8434 36.5078C56.8434 31.7184 53.291 27.7566 48.6777 27.114C49.116 27.053 49.5579 27.0221 50.0004 27.0215Z" fill="#F1CBBC"/>
<path fill-rule="evenodd" clip-rule="evenodd" d="M35.4007 51.8211C35.3787 51.6086 35.4015 51.3938 35.4678 51.1907C35.534 50.9876 35.6421 50.8007 35.7852 50.642C35.9282 50.4833 36.103 50.3564 36.2982 50.2696C36.4933 50.1827 36.7046 50.1378 36.9182 50.1377H63.0864C63.3 50.1377 63.5112 50.1826 63.7064 50.2695C63.9016 50.3563 64.0763 50.4832 64.2193 50.6418C64.3624 50.8005 64.4705 50.9874 64.5367 51.1905C64.6029 51.3936 64.6258 51.6083 64.6038 51.8208L63.166 65.678H36.8411L35.4007 51.8211Z" fill="#ECEFF1"/>
<path fill-rule="evenodd" clip-rule="evenodd" d="M61.3008 50.1377H62.8824C63.1217 50.1377 63.3584 50.1879 63.577 50.2852C63.7957 50.3825 63.9915 50.5246 64.1518 50.7023C64.3121 50.8801 64.4332 51.0895 64.5074 51.3171C64.5816 51.5446 64.6071 51.7852 64.5824 52.0233L63.1656 65.678H61.584L63.0008 52.0233C63.0255 51.7852 62.9999 51.5446 62.9257 51.3171C62.8516 51.0895 62.7304 50.8801 62.5702 50.7024C62.4099 50.5246 62.2141 50.3825 61.9954 50.2852C61.7768 50.188 61.5401 50.1377 61.3008 50.1377ZM50.0031 60.2629C51.6761 60.2629 53.0404 59.2042 53.0404 57.9093C53.0404 56.6116 51.6761 55.5558 50.0031 55.5558C48.3302 55.5558 46.9629 56.6116 46.9629 57.9093C46.9629 59.2042 48.3302 60.2629 50.0031 60.2629Z" fill="#D1D1D6"/>
<path fill-rule="evenodd" clip-rule="evenodd" d="M33.1592 69.1763C33.1592 69.3636 33.2335 69.5431 33.3659 69.6755C33.4983 69.8079 33.6779 69.8822 33.8651 69.8822H66.1384C66.3256 69.8822 66.5052 69.8079 66.6376 69.6755C66.7699 69.5431 66.8443 69.3636 66.8443 69.1763V65.9959C66.8443 65.8087 66.7699 65.6292 66.6376 65.4968C66.5052 65.3644 66.3256 65.29 66.1384 65.29H33.8651C33.6779 65.29 33.4983 65.3644 33.3659 65.4968C33.2335 65.6292 33.1592 65.8087 33.1592 65.9959V69.1763Z" fill="#E3A76F"/>
<path fill-rule="evenodd" clip-rule="evenodd" d="M33.1699 69.2217C33.2127 69.2287 33.2562 69.2324 33.3002 69.2324H65.4038C65.6134 69.2324 65.8146 69.1491 65.9628 69.0007C66.0363 68.9273 66.0945 68.8402 66.1343 68.7443C66.174 68.6483 66.1945 68.5455 66.1945 68.4417V65.4311C66.1945 65.387 66.1908 65.3436 66.1836 65.3008C66.3682 65.3315 66.536 65.4268 66.6569 65.5696C66.7779 65.7124 66.8442 65.8935 66.8442 66.0806V69.0914C66.8442 69.1952 66.8238 69.2981 66.7841 69.3941C66.7444 69.49 66.6861 69.5772 66.6127 69.6507C66.5392 69.7241 66.452 69.7824 66.356 69.8221C66.26 69.8618 66.1572 69.8822 66.0533 69.8821H33.9499C33.7628 69.8822 33.5816 69.8159 33.4388 69.6949C33.296 69.574 33.2007 69.4063 33.1699 69.2217Z" fill="#C48958"/>
<path fill-rule="evenodd" clip-rule="evenodd" d="M30.8242 31.5283C38.9221 31.5283 45.5274 24.9231 45.5274 16.8252C45.5274 8.72339 38.9221 2.11816 30.8242 2.11816C22.7224 2.11816 16.1172 8.72339 16.1172 16.8252C16.1172 24.9231 22.7224 31.5283 30.8242 31.5283Z" fill="#8AC9FE"/>
<path fill-rule="evenodd" clip-rule="evenodd" d="M30.1182 31.5115C37.8906 31.1412 44.1155 24.6866 44.1155 16.8252C44.1155 8.96014 37.8906 2.50541 30.1182 2.13496C30.3533 2.12376 30.5887 2.11816 30.8242 2.11816C38.9221 2.11816 45.5273 8.72339 45.5273 16.8252C45.5273 24.9231 38.9221 31.5283 30.8242 31.5283C30.5876 31.5283 30.3521 31.5227 30.1182 31.5115Z" fill="#60B7FF"/>
<path fill-rule="evenodd" clip-rule="evenodd" d="M30.8245 5.37109C37.1464 5.37109 42.2749 10.4996 42.2749 16.8254C42.2749 23.1473 37.1464 28.2758 30.8245 28.2758C24.4986 28.2758 19.3701 23.1473 19.3701 16.8254C19.3701 10.4996 24.4986 5.37109 30.8245 5.37109Z" fill="#ECEFF1"/>
<path fill-rule="evenodd" clip-rule="evenodd" d="M31.282 28.267C31.1296 28.2729 30.977 28.2759 30.8245 28.2758C24.4986 28.2758 19.3701 23.1473 19.3701 16.8254C19.3701 10.4996 24.4986 5.37109 30.8245 5.37109C30.9778 5.37109 31.1303 5.3742 31.282 5.38013C25.1684 5.62055 20.2855 10.6531 20.2855 16.8254C20.2855 22.9942 25.1684 28.0265 31.282 28.267Z" fill="#D1D1D6"/>
<path fill-rule="evenodd" clip-rule="evenodd" d="M29.6948 12.4909C29.6948 11.8676 30.2009 11.3615 30.8242 11.3615C31.4475 11.3615 31.9536 11.8676 31.9536 12.4909V16.1732L34.2785 17.5154C34.5377 17.6653 34.7269 17.912 34.8044 18.2012C34.8819 18.4905 34.8414 18.7987 34.6919 19.0582C34.542 19.3175 34.2953 19.5067 34.006 19.5842C33.7168 19.6617 33.4085 19.6213 33.1491 19.4717L30.2595 17.8034C30.0878 17.7042 29.9452 17.5616 29.8461 17.3899C29.7469 17.2182 29.6948 17.0234 29.6948 16.8252V12.4909ZM29.6948 7.70558C29.6948 7.08229 30.2009 6.57617 30.8242 6.57617C31.4475 6.57617 31.9536 7.08229 31.9536 7.70558V8.69537C31.9536 9.31881 31.4475 9.82478 30.8242 9.82478C30.2009 9.82478 29.6948 9.31881 29.6948 8.69537V7.70558ZM36.4711 9.57702C36.9119 9.13627 37.6276 9.13627 38.0684 9.57702C38.5091 10.0178 38.5091 10.7335 38.0684 11.1743L37.37 11.8727C36.9292 12.3134 36.2135 12.3134 35.7727 11.8727C35.332 11.4319 35.332 10.7163 35.7727 10.2756L36.4711 9.57702ZM38.0684 22.4722C38.28 22.6841 38.3989 22.9713 38.3989 23.2708C38.3989 23.5703 38.28 23.8575 38.0684 24.0694C37.8565 24.2811 37.5693 24.4 37.2697 24.4C36.9702 24.4 36.683 24.2811 36.4711 24.0694L35.7727 23.371C35.561 23.1591 35.4421 22.8719 35.4421 22.5724C35.4421 22.2729 35.561 21.9857 35.7727 21.7738C35.9846 21.5621 36.2718 21.4432 36.5713 21.4432C36.8709 21.4432 37.1581 21.5621 37.37 21.7738L38.0684 22.4722ZM25.1733 24.0694C24.9615 24.2811 24.6742 24.4 24.3747 24.4C24.0752 24.4 23.7879 24.2811 23.576 24.0694C23.3644 23.8575 23.2455 23.5703 23.2455 23.2708C23.2455 22.9713 23.3644 22.6841 23.576 22.4722L24.2744 21.7738C24.4863 21.5621 24.7736 21.4432 25.0731 21.4432C25.3726 21.4432 25.6599 21.5621 25.8717 21.7738C26.0834 21.9857 26.2023 22.2729 26.2023 22.5724C26.2023 22.8719 26.0834 23.1591 25.8717 23.371L25.1733 24.0694ZM23.576 11.1743C23.1353 10.7335 23.1353 10.0178 23.576 9.57702C24.0168 9.13627 24.7324 9.13627 25.1733 9.57702L25.8717 10.2756C26.3125 10.7163 26.3125 11.4319 25.8717 11.8727C25.431 12.3134 24.7152 12.3134 24.2744 11.8727L23.576 11.1743ZM39.9398 15.6957C40.5631 15.6957 41.0692 16.2019 41.0692 16.8252C41.0692 17.4486 40.5631 17.9546 39.9398 17.9546H38.954C38.3307 17.9546 37.8246 17.4486 37.8246 16.8252C37.8246 16.2019 38.3307 15.6957 38.954 15.6957H39.9398ZM31.9536 25.9408C31.9536 26.5642 31.4475 27.0702 30.8242 27.0702C30.2009 27.0702 29.6948 26.5642 29.6948 25.9408V24.9551C29.6948 24.3317 30.2009 23.8257 30.8242 23.8257C31.4475 23.8257 31.9536 24.3317 31.9536 24.9551V25.9408ZM21.7046 17.9546C21.0813 17.9546 20.5752 17.4486 20.5752 16.8252C20.5752 16.2019 21.0813 15.6957 21.7046 15.6957H22.6944C23.3177 15.6957 23.8238 16.2019 23.8238 16.8252C23.8238 17.4486 23.3177 17.9546 22.6944 17.9546H21.7046Z" fill="#A79BA7"/>
<path fill-rule="evenodd" clip-rule="evenodd" d="M69.178 2.11816C77.2986 2.11816 83.8817 8.70122 83.8817 16.8218C83.8817 24.9423 77.2986 31.5254 69.178 31.5254C61.0575 31.5254 54.4746 24.9423 54.4746 16.8218C54.4746 8.70122 61.0575 2.11816 69.178 2.11816Z" fill="#FFC338"/>
<path fill-rule="evenodd" clip-rule="evenodd" d="M69.1777 2.11816C77.2984 2.11816 83.8815 8.70122 83.8815 16.8218C83.8815 24.9424 77.2984 31.5254 69.1777 31.5254C68.7539 31.5254 68.334 31.5062 67.9189 31.471C75.4503 30.8325 81.3639 24.5182 81.3639 16.8218C81.3639 9.12532 75.4503 2.81106 67.9189 2.17252C68.334 2.13722 68.7539 2.11816 69.1777 2.11816Z" fill="#F5B829"/>
<path d="M75.0737 11.6978C75.4367 12.5628 75.0293 13.5584 74.1645 13.9212C73.2994 14.284 72.3041 13.8769 71.9412 13.012C71.5639 12.1137 70.8482 11.5952 70.0625 11.396C69.5569 11.2686 69.0293 11.2556 68.5181 11.3577C68.0417 11.4536 67.6053 11.6456 67.2668 11.921C66.8691 12.2444 66.6165 12.7092 66.6445 13.2835C66.6691 13.7902 66.9381 14.1406 67.3134 14.3855C67.8859 14.7592 68.6924 14.9694 69.4644 15.0962C70.6555 15.2917 71.9585 15.6197 73.0583 16.2838C74.3557 17.0674 75.335 18.2477 75.5553 20.0643C75.5718 20.199 75.5824 20.3657 75.587 20.5614C75.6267 22.2362 74.8651 23.4825 73.7204 24.351C72.9009 24.9728 71.8913 25.374 70.8777 25.5788V26.1259C70.8777 27.0641 70.117 27.8247 69.1786 27.8247C68.2402 27.8247 67.4796 27.0641 67.4796 26.1259V25.5447C66.6737 25.3594 65.9074 25.0424 65.2337 24.5934C64.0772 23.8233 63.191 22.6863 62.8161 21.1815C62.5925 20.2726 63.148 19.3545 64.0567 19.1309C64.9658 18.9073 65.8841 19.4629 66.1077 20.372C66.2597 20.9814 66.6254 21.447 67.105 21.7664C67.7222 22.1772 68.5192 22.3731 69.3309 22.3538C69.4614 22.3508 69.628 22.3369 69.8309 22.3124C70.5218 22.2286 71.2039 22.0148 71.6763 21.6565C71.9981 21.4126 72.2126 21.076 72.2023 20.6409C72.1982 20.5813 72.1921 20.5218 72.1841 20.4626C72.1123 19.8697 71.7667 19.4687 71.3059 19.1906C70.6476 18.793 69.7581 18.5787 68.9201 18.4409C67.7643 18.2513 66.5063 17.9036 65.4685 17.2261C64.2336 16.4197 63.3462 15.2257 63.2597 13.4427C63.1741 11.6796 63.9329 10.266 65.13 9.29285C65.8005 8.74749 66.6115 8.35219 67.4796 8.12589V7.51728C67.4796 6.57902 68.2402 5.81836 69.1786 5.81836C70.117 5.81836 70.8777 6.57902 70.8777 7.51728V8.10231L70.8853 8.10415C72.6396 8.54885 74.2357 9.70198 75.0737 11.6978Z" fill="#FFE177"/>
</svg>
