<svg width="26" height="24" viewBox="0 0 26 24" fill="none" xmlns="http://www.w3.org/2000/svg">
<path d="M14.2888 11.6513V22.4653C14.2888 22.8394 14.1402 23.1982 13.8756 23.4627C13.6111 23.7272 13.2523 23.8758 12.8783 23.8758C12.5042 23.8758 12.1454 23.7272 11.8809 23.4627C11.6163 23.1982 11.4677 22.8394 11.4677 22.4653V11.6513C11.4677 11.2772 11.6163 10.9185 11.8809 10.6539C12.1454 10.3894 12.5042 10.2408 12.8783 10.2408C13.2523 10.2408 13.6111 10.3894 13.8756 10.6539C14.1402 10.9185 14.2888 11.2772 14.2888 11.6513ZM21.3414 19.6443C20.9673 19.6443 20.6085 19.7929 20.344 20.0574C20.0794 20.3219 19.9308 20.6807 19.9308 21.0548V22.4653C19.9308 22.8394 20.0794 23.1982 20.344 23.4627C20.6085 23.7272 20.9673 23.8758 21.3414 23.8758C21.7154 23.8758 22.0742 23.7272 22.3387 23.4627C22.6033 23.1982 22.7519 22.8394 22.7519 22.4653V21.0548C22.7519 20.6807 22.6033 20.3219 22.3387 20.0574C22.0742 19.7929 21.7154 19.6443 21.3414 19.6443ZM24.1624 14.9425H22.7519V1.7777C22.7519 1.40361 22.6033 1.04484 22.3387 0.780319C22.0742 0.515795 21.7154 0.367188 21.3414 0.367188C20.9673 0.367188 20.6085 0.515795 20.344 0.780319C20.0794 1.04484 19.9308 1.40361 19.9308 1.7777V14.9425H18.5203C18.1462 14.9425 17.7875 15.0911 17.5229 15.3557C17.2584 15.6202 17.1098 15.979 17.1098 16.3531C17.1098 16.7271 17.2584 17.0859 17.5229 17.3504C17.7875 17.615 18.1462 17.7636 18.5203 17.7636H24.1624C24.5365 17.7636 24.8953 17.615 25.1598 17.3504C25.4243 17.0859 25.5729 16.7271 25.5729 16.3531C25.5729 15.979 25.4243 15.6202 25.1598 15.3557C24.8953 15.0911 24.5365 14.9425 24.1624 14.9425ZM4.41515 15.8829C4.04105 15.8829 3.68228 16.0315 3.41776 16.296C3.15324 16.5605 3.00463 16.9193 3.00463 17.2934V22.4653C3.00463 22.8394 3.15324 23.1982 3.41776 23.4627C3.68228 23.7272 4.04105 23.8758 4.41515 23.8758C4.78924 23.8758 5.14801 23.7272 5.41253 23.4627C5.67706 23.1982 5.82566 22.8394 5.82566 22.4653V17.2934C5.82566 16.9193 5.67706 16.5605 5.41253 16.296C5.14801 16.0315 4.78924 15.8829 4.41515 15.8829ZM7.23618 11.1812H5.82566V1.7777C5.82566 1.40361 5.67706 1.04484 5.41253 0.780319C5.14801 0.515795 4.78924 0.367188 4.41515 0.367188C4.04105 0.367188 3.68228 0.515795 3.41776 0.780319C3.15324 1.04484 3.00463 1.40361 3.00463 1.7777V11.1812H1.59411C1.22002 11.1812 0.861248 11.3298 0.596725 11.5943C0.332201 11.8588 0.183594 12.2176 0.183594 12.5917C0.183594 12.9658 0.332201 13.3245 0.596725 13.5891C0.861248 13.8536 1.22002 14.0022 1.59411 14.0022H7.23618C7.61027 14.0022 7.96904 13.8536 8.23357 13.5891C8.49809 13.3245 8.6467 12.9658 8.6467 12.5917C8.6467 12.2176 8.49809 11.8588 8.23357 11.5943C7.96904 11.3298 7.61027 11.1812 7.23618 11.1812ZM15.6993 5.53908H14.2888V1.7777C14.2888 1.40361 14.1402 1.04484 13.8756 0.780319C13.6111 0.515795 13.2523 0.367188 12.8783 0.367188C12.5042 0.367188 12.1454 0.515795 11.8809 0.780319C11.6163 1.04484 11.4677 1.40361 11.4677 1.7777V5.53908H10.0572C9.68312 5.53908 9.32435 5.68769 9.05983 5.95222C8.79531 6.21674 8.6467 6.57551 8.6467 6.9496C8.6467 7.32369 8.79531 7.68247 9.05983 7.94699C9.32435 8.21151 9.68312 8.36012 10.0572 8.36012H15.6993C16.0734 8.36012 16.4321 8.21151 16.6967 7.94699C16.9612 7.68247 17.1098 7.32369 17.1098 6.9496C17.1098 6.57551 16.9612 6.21674 16.6967 5.95222C16.4321 5.68769 16.0734 5.53908 15.6993 5.53908Z" fill="#000418" fill-opacity="0.4"/>
</svg>
