<svg width="24" height="24" viewBox="0 0 24 24" fill="none" xmlns="http://www.w3.org/2000/svg">
<g clip-path="url(#clip0_146_7858)">
<circle cx="12" cy="12" r="12" fill="#D9D9D9"/>
<g clip-path="url(#clip1_146_7858)">
<mask id="mask0_146_7858" style="mask-type:luminance" maskUnits="userSpaceOnUse" x="-5" y="-1" width="34" height="26">
<path d="M29 -0.153809H-5V24.1538H29V-0.153809Z" fill="white"/>
</mask>
<g mask="url(#mask0_146_7858)">
<path d="M2.97559 -0.153809H21.0198V24.1538H2.97567L2.97559 -0.153809Z" fill="white"/>
<path d="M-6.04395 -0.153809H2.97569V24.1538H-6.04395V-0.153809ZM21.0199 -0.153809H30.0395V24.1538H21.0249L21.0199 -0.153809ZM5.68013 11.5917L4.97285 11.8196L8.23506 14.5494C8.48411 15.2473 8.1504 15.4515 7.9362 15.8219L11.4724 15.3945L11.3877 18.789L12.1248 18.77L11.9604 15.3992L15.5066 15.8028C15.2874 15.3613 15.0932 15.1287 15.2924 14.426L18.5496 11.8385L17.9818 11.6392C17.5137 11.2973 18.1811 9.99176 18.2807 9.16564C18.2807 9.16564 16.3831 9.78757 16.2586 9.46003L15.7705 8.57228L14.0423 10.3858C13.8531 10.4286 13.7733 10.3573 13.7285 10.2054L14.5254 6.41689L13.2603 7.09576C13.1557 7.14325 13.0512 7.10523 12.9815 6.98655L11.7612 4.66023L10.5062 7.07684C10.4115 7.16226 10.3169 7.17173 10.2372 7.11478L9.03194 6.46915L9.75911 10.2244C9.69936 10.3763 9.55987 10.4143 9.4005 10.3336L7.74197 8.54381C7.52786 8.87612 7.38336 9.41254 7.09453 9.53599C6.81063 9.64997 5.84945 9.3081 5.20694 9.17519C5.42607 9.93003 6.11338 11.1834 5.68013 11.5964V11.5917Z" fill="#D52B1E"/>
</g>
</g>
</g>
<defs>
<clipPath id="clip0_146_7858">
<rect width="24" height="24" fill="white"/>
</clipPath>
<clipPath id="clip1_146_7858">
<rect width="24" height="24" rx="12" fill="white"/>
</clipPath>
</defs>
</svg>
