<svg width="24" height="24" viewBox="0 0 24 24" fill="none" xmlns="http://www.w3.org/2000/svg">
<g clip-path="url(#clip0_146_7868)">
<circle cx="12" cy="12" r="12" fill="#D9D9D9"/>
<g clip-path="url(#clip1_146_7868)">
<mask id="mask0_146_7868" style="mask-type:luminance" maskUnits="userSpaceOnUse" x="-8" y="-2" width="40" height="29">
<path d="M32 -1.76733H-8V26.2327H32V-1.76733Z" fill="white"/>
</mask>
<g mask="url(#mask0_146_7868)">
<path d="M-8 -1.76733H32V26.2327H-8V-1.76733Z" fill="#000066"/>
<path fill-rule="evenodd" clip-rule="evenodd" d="M10.7377 21.1285L8.00639 21.3502L8.38139 23.8818L6.5002 22.0326L4.6189 23.8818L4.9939 21.3502L2.2627 21.1285L4.6189 19.8277L3.10019 17.6985L5.6627 18.6027L6.5002 16.1702L7.3439 18.6027L9.9064 17.6985L8.38769 19.8277M22.4127 23.4618L21.7502 22.5401L22.8627 22.931L23.2252 21.8752L23.5877 22.931L24.7002 22.5401L24.0439 23.4618L25.0689 24.0276L23.8814 24.1268L24.0439 25.2293L23.2314 24.4184L22.4064 25.2293L22.5689 24.1268L21.3814 24.0335M22.4064 7.00595L21.7502 6.08425L22.8627 6.47515L23.2252 5.41925L23.5877 6.47515L24.7002 6.08425L24.0439 7.00595L25.0689 7.57765L23.8814 7.67095L24.0439 8.77345L23.2314 7.96845L22.4064 8.76765L22.5689 7.67095L21.3814 7.57765M15.8002 13.691L15.1439 12.7693L16.2564 13.1602L16.6189 12.1042L16.9877 13.1602L18.1002 12.7693L17.4377 13.691L18.4627 14.2568L17.2752 14.356L17.4439 15.4585L16.6189 14.6477L15.8064 15.4585L15.9627 14.356L14.7752 14.2627M28.2939 12.0459L27.6252 11.1243L28.7377 11.5152L29.1002 10.4593L29.4689 11.5152L30.5814 11.1243L29.9252 12.0459L30.9439 12.6118L29.7564 12.711L29.9189 13.8077L29.1064 13.0027L28.2814 13.8077L28.4439 12.711L27.2564 12.6118M25.8752 16.8993L25.2314 17.2785L25.4127 16.5843L24.8314 16.1293L25.5877 16.071L25.8752 15.4177L26.1689 16.0768L26.9252 16.1293L26.3439 16.5843L26.5252 17.2785" fill="white"/>
<path d="M-8 -1.76733H12V12.2327H-8V-1.76733Z" fill="#000066"/>
<path d="M-5.65625 -1.76733L1.9688 3.51187L9.5625 -1.76733H12V0.040966L4.5 5.26187L12 10.4535V12.2327H9.5L2 7.01187L-5.46875 12.2327H-8V10.4827L-0.5312 5.29097L-8 0.0993662V-1.76733H-5.65625Z" fill="white"/>
<path d="M5.25 6.42847L12 11.066V12.2327L3.5312 6.42847H5.25ZM-0.5 7.01187L-0.3125 8.03267L-6.3125 12.2327H-8L-0.5 7.01187ZM12 -1.76733V-1.67983L4.2188 3.80347L4.2812 2.52017L10.4375 -1.76733H12ZM-8 -1.76733L-0.5312 3.36597H-2.40625L-8 -0.542334V-1.76733Z" fill="#C8102E"/>
<path d="M-0.4688 -1.76733V12.2327H4.5312V-1.76733H-0.4688ZM-8 2.89937V7.56597H12V2.89937H-8Z" fill="white"/>
<path d="M-8 3.86187V6.66187H12V3.86187H-8ZM0.5312 -1.76733V12.2327H3.5312V-1.76733H0.5312Z" fill="#C8102E"/>
</g>
</g>
</g>
<defs>
<clipPath id="clip0_146_7868">
<rect width="24" height="24" fill="white"/>
</clipPath>
<clipPath id="clip1_146_7868">
<rect width="24" height="24" rx="12" fill="white"/>
</clipPath>
</defs>
</svg>
