<svg width="24" height="24" viewBox="0 0 24 24" fill="none" xmlns="http://www.w3.org/2000/svg">
<g clip-path="url(#clip0_146_7845)">
<circle cx="12" cy="12" r="12" fill="#D9D9D9"/>
<g clip-path="url(#clip1_146_7845)">
<mask id="mask0_146_7845" style="mask-type:luminance" maskUnits="userSpaceOnUse" x="-6" y="0" width="36" height="25">
<path d="M29.4613 0.00976562H-5.46094V24.4554H29.4613V0.00976562Z" fill="white"/>
</mask>
<g mask="url(#mask0_146_7845)">
<path d="M-5.46094 0.00976562H29.4613V24.4554H-5.46094V0.00976562Z" fill="#012169"/>
<path d="M-1.36848 0.00976562L11.9456 9.22776L25.2052 0.00976562H29.4613V3.16735L16.3655 12.2835L29.4613 21.3488V24.4554H25.0961L12.0002 15.3392L-1.04109 24.4554H-5.46094V21.3997L7.58035 12.3344L-5.46094 3.26915V0.00976562H-1.36848Z" fill="white"/>
<path d="M17.6751 14.3207L29.4613 22.4183V24.4554L14.6739 14.3207H17.6751ZM7.63492 15.3392L7.96231 17.1217L-2.51437 24.4554H-5.46094L7.63492 15.3392ZM29.4613 0.00976562V0.162551L15.8744 9.73711L15.9835 7.49623L26.733 0.00976562H29.4613ZM-5.46094 0.00976562L7.58035 8.97318H4.30639L-5.46094 2.14876V0.00976562Z" fill="#C8102E"/>
<path d="M7.68948 0.00976562V24.4554H16.4201V0.00976562H7.68948ZM-5.46094 8.15827V16.3069H29.4613V8.15827H-5.46094Z" fill="white"/>
<path d="M-5.46094 9.8389V14.728H29.4613V9.8389H-5.46094ZM9.4356 0.00976562V24.4554H14.6739V0.00976562H9.4356Z" fill="#C8102E"/>
</g>
</g>
</g>
<defs>
<clipPath id="clip0_146_7845">
<rect width="24" height="24" fill="white"/>
</clipPath>
<clipPath id="clip1_146_7845">
<rect width="24" height="24" rx="12" fill="white"/>
</clipPath>
</defs>
</svg>
