<svg width="14" height="13" viewBox="0 0 14 13" fill="none" xmlns="http://www.w3.org/2000/svg">
<path d="M10.363 3.94184C10.7938 3.94184 11.143 3.59262 11.143 3.16184C11.143 2.73105 10.7938 2.38184 10.363 2.38184C9.93223 2.38184 9.58301 2.73105 9.58301 3.16184C9.58301 3.59262 9.93223 3.94184 10.363 3.94184Z" fill="white"/>
<path fill-rule="evenodd" clip-rule="evenodd" d="M3.74512 6.5C3.74512 8.29238 5.20274 9.75 6.99512 9.75C8.78749 9.75 10.2451 8.29238 10.2451 6.5C10.2451 4.70763 8.78749 3.25 6.99512 3.25C5.20274 3.25 3.74512 4.70763 3.74512 6.5ZM5.37012 6.5C5.37012 5.60381 6.09893 4.875 6.99512 4.875C7.8913 4.875 8.62012 5.60381 8.62012 6.5C8.62012 7.39619 7.8913 8.125 6.99512 8.125C6.09893 8.125 5.37012 7.39619 5.37012 6.5Z" fill="white"/>
<path fill-rule="evenodd" clip-rule="evenodd" d="M3.74512 13H10.2451C11.9156 13 13.4951 11.4205 13.4951 9.75V3.25C13.4951 1.5795 11.9156 0 10.2451 0H3.74512C2.07462 0 0.495117 1.5795 0.495117 3.25V9.75C0.495117 11.4205 2.07462 13 3.74512 13ZM2.12012 3.25C2.12012 2.49031 2.98543 1.625 3.74512 1.625H10.2451C11.0048 1.625 11.8701 2.49031 11.8701 3.25V9.75C11.8701 10.5097 11.0048 11.375 10.2451 11.375H3.74512C2.9708 11.375 2.12012 10.5243 2.12012 9.75V3.25Z" fill="white"/>
</svg>
