<svg width="13" height="14" viewBox="0 0 13 14" fill="none" xmlns="http://www.w3.org/2000/svg">
<path d="M9.86789 4.8432C10.2987 4.8432 10.6479 4.49399 10.6479 4.0632C10.6479 3.63242 10.2987 3.2832 9.86789 3.2832C9.43711 3.2832 9.08789 3.63242 9.08789 4.0632C9.08789 4.49399 9.43711 4.8432 9.86789 4.8432Z" fill="#000418"/>
<path fill-rule="evenodd" clip-rule="evenodd" d="M3.25 7.40088C3.25 9.19325 4.70763 10.6509 6.5 10.6509C8.29238 10.6509 9.75 9.19325 9.75 7.40088C9.75 5.6085 8.29238 4.15088 6.5 4.15088C4.70763 4.15088 3.25 5.6085 3.25 7.40088ZM4.875 7.40088C4.875 6.50469 5.60381 5.77588 6.5 5.77588C7.39619 5.77588 8.125 6.50469 8.125 7.40088C8.125 8.29707 7.39619 9.02588 6.5 9.02588C5.60381 9.02588 4.875 8.29707 4.875 7.40088Z" fill="#000418"/>
<path fill-rule="evenodd" clip-rule="evenodd" d="M3.25 13.9009H9.75C11.4205 13.9009 13 12.3214 13 10.6509V4.15088C13 2.48038 11.4205 0.900879 9.75 0.900879H3.25C1.5795 0.900879 0 2.48038 0 4.15088V10.6509C0 12.3214 1.5795 13.9009 3.25 13.9009ZM1.625 4.15088C1.625 3.39119 2.49031 2.52588 3.25 2.52588H9.75C10.5097 2.52588 11.375 3.39119 11.375 4.15088V10.6509C11.375 11.4106 10.5097 12.2759 9.75 12.2759H3.25C2.47569 12.2759 1.625 11.4252 1.625 10.6509V4.15088Z" fill="#000418"/>
</svg>
