<svg width="24" height="24" viewBox="0 0 24 24" fill="none" xmlns="http://www.w3.org/2000/svg">
<g clip-path="url(#clip0_2001_1695)">
<mask id="mask0_2001_1695" style="mask-type:luminance" maskUnits="userSpaceOnUse" x="0" y="0" width="24" height="24">
<path d="M24 0H0V24H24V0Z" fill="white"/>
</mask>
<g mask="url(#mask0_2001_1695)">
<path d="M12 21C16.9706 21 21 16.9706 21 12C21 7.02942 16.9706 3 12 3C7.02942 3 3 7.02942 3 12C3 16.9706 7.02942 21 12 21Z" stroke="#E2403C" stroke-width="1.5" stroke-linecap="round" stroke-linejoin="round"/>
<path d="M14.8 8.99999C14.6188 8.68571 14.3557 8.42669 14.0386 8.25053C13.7215 8.07437 13.3625 7.98779 13 7.99997H11C10.4696 7.99997 9.96084 8.21069 9.58578 8.58575C9.21072 8.96081 9 9.46955 9 9.99995C9 10.5304 9.21072 11.0391 9.58578 11.4142C9.96084 11.7893 10.4696 12 11 12H13C13.5304 12 14.0392 12.2107 14.4142 12.5858C14.7893 12.9608 15 13.4696 15 14C15 14.5304 14.7893 15.0391 14.4142 15.4142C14.0392 15.7893 13.5304 15.9999 13 15.9999H11C10.6375 16.0122 10.2785 15.9255 9.96144 15.7494C9.64434 15.5733 9.38118 15.3142 9.19998 15" stroke="#E2403C" stroke-width="1.5" stroke-linecap="round" stroke-linejoin="round"/>
<path d="M12 6V7.99998M12 16V18" stroke="#E2403C" stroke-width="1.5" stroke-linecap="round" stroke-linejoin="round"/>
</g>
</g>
<defs>
<clipPath id="clip0_2001_1695">
<rect width="24" height="24" fill="white"/>
</clipPath>
</defs>
</svg>
