<svg width="24" height="24" viewBox="0 0 24 24" fill="none" xmlns="http://www.w3.org/2000/svg">
<path d="M0.500488 2.14797C0.500488 1.23861 1.26179 0.500488 2.20026 0.500488H21.7997C22.7386 0.500488 23.4995 1.23861 23.4995 2.14797V21.8523C23.4995 22.7619 22.7386 23.4995 21.7997 23.4995H2.20026C1.26188 23.4995 0.500488 22.762 0.500488 21.8526V2.1477V2.14797Z" fill="#0A66C2"/>
<path d="M7.48966 19.7475V9.39322H4.04807V19.7475H7.49002H7.48966ZM5.76959 7.97977C6.96949 7.97977 7.71651 7.18469 7.71651 6.19106C7.69405 5.17479 6.96949 4.40189 5.79241 4.40189C4.61451 4.40189 3.84521 5.17479 3.84521 6.19097C3.84521 7.1846 4.59196 7.97968 5.74704 7.97968H5.76932L5.76959 7.97977ZM9.39463 19.7475H12.8359V13.9658C12.8359 13.6568 12.8584 13.3469 12.9493 13.1262C13.198 12.5076 13.7643 11.8673 14.7152 11.8673C15.9602 11.8673 16.4586 12.8168 16.4586 14.2088V19.7475H19.8998V13.8107C19.8998 10.6304 18.2022 9.15047 15.9379 9.15047C14.0816 9.15047 13.2663 10.188 12.8133 10.8947H12.8362V9.39358H9.39481C9.43973 10.3649 9.39454 19.7478 9.39454 19.7478L9.39463 19.7475Z" fill="white"/>
</svg>
