<svg width="14" height="15" viewBox="0 0 14 15" fill="none" xmlns="http://www.w3.org/2000/svg">
<path d="M1.6875 4.27588C2.61948 4.27588 3.375 3.52036 3.375 2.58838C3.375 1.6564 2.61948 0.900879 1.6875 0.900879C0.75552 0.900879 0 1.6564 0 2.58838C0 3.52036 0.75552 4.27588 1.6875 4.27588Z" fill="#000418"/>
<path d="M3.09375 5.40088H0.28125C0.126 5.40088 0 5.52688 0 5.68213V14.1196C0 14.2749 0.126 14.4009 0.28125 14.4009H3.09375C3.249 14.4009 3.375 14.2749 3.375 14.1196V5.68213C3.375 5.52688 3.249 5.40088 3.09375 5.40088Z" fill="#000418"/>
<path d="M11.4733 5.01335C10.2712 4.6016 8.76769 4.96329 7.866 5.61185C7.83506 5.49091 7.72481 5.40091 7.59375 5.40091H4.78125C4.626 5.40091 4.5 5.52691 4.5 5.68216V14.1197C4.5 14.2749 4.626 14.4009 4.78125 14.4009H7.59375C7.749 14.4009 7.875 14.2749 7.875 14.1197V8.05591C8.3295 7.66441 8.91506 7.53954 9.39431 7.74316C9.85894 7.93947 10.125 8.41872 10.125 9.05716V14.1197C10.125 14.2749 10.251 14.4009 10.4062 14.4009H13.2188C13.374 14.4009 13.5 14.2749 13.5 14.1197V8.49072C13.4679 6.17941 12.3806 5.32385 11.4733 5.01335Z" fill="#000418"/>
</svg>
