<svg width="70" height="70" viewBox="0 0 70 70" fill="none" xmlns="http://www.w3.org/2000/svg">
<path d="M48.6731 12.82C48.745 12.6956 48.8408 12.5867 48.9548 12.4993C49.0688 12.412 49.199 12.348 49.3378 12.3109C49.4766 12.2739 49.6213 12.2645 49.7637 12.2834C49.9061 12.3023 50.0434 12.3491 50.1677 12.421C54.7408 15.0671 58.5763 18.872 61.2596 23.4243C64.0242 28.1148 65.4854 33.4875 65.4854 38.9617C65.4854 39.2518 65.3702 39.53 65.1651 39.7351C64.9599 39.9402 64.6817 40.0555 64.3917 40.0555C64.1016 40.0555 63.8234 39.9402 63.6183 39.7351C63.4131 39.53 63.2979 39.2518 63.2979 38.9617C63.2979 28.8358 57.8469 19.3915 49.0721 14.3146C48.821 14.1693 48.6379 13.9302 48.5631 13.6499C48.4883 13.3696 48.5279 13.0711 48.6731 12.82ZM5.29471 40.0555C5.58479 40.0555 5.86299 39.9402 6.06811 39.7351C6.27322 39.53 6.38846 39.2518 6.38846 38.9617C6.38846 28.8358 11.8394 19.3915 20.6143 14.3146C20.8599 14.1666 21.0376 13.928 21.1091 13.6503C21.1806 13.3726 21.1402 13.0779 20.9965 12.8297C20.8529 12.5814 20.6176 12.3995 20.3412 12.3231C20.0648 12.2467 19.7694 12.2819 19.5187 12.421C14.9455 15.0671 11.11 18.872 8.4268 23.4243C5.66221 28.1148 4.20096 33.4875 4.20096 38.9617C4.20096 39.2518 4.31619 39.53 4.52131 39.7351C4.72643 39.9402 5.00463 40.0555 5.29471 40.0555ZM49.0721 63.609C44.7671 66.0998 39.8467 67.4164 34.8432 67.4164C29.8397 67.4164 24.9193 66.0998 20.6143 63.609C20.3632 63.4637 20.0647 63.4241 19.7844 63.4989C19.5041 63.5738 19.265 63.7569 19.1198 64.008C18.9745 64.2591 18.9349 64.5576 19.0098 64.8379C19.0846 65.1182 19.2677 65.3572 19.5188 65.5025C24.1564 68.1856 29.4555 69.6039 34.8432 69.6039C40.2309 69.6039 45.5299 68.1856 50.1676 65.5025C50.2919 65.4306 50.4009 65.3349 50.4882 65.2208C50.5755 65.1068 50.6396 64.9767 50.6766 64.8379C50.7137 64.6991 50.723 64.5544 50.7041 64.412C50.6853 64.2696 50.6385 64.1323 50.5666 64.008C50.4947 63.8836 50.3989 63.7747 50.2849 63.6873C50.1709 63.6 50.0407 63.536 49.902 63.4989C49.7632 63.4619 49.6185 63.4525 49.4761 63.4714C49.3337 63.4903 49.1964 63.537 49.0721 63.609ZM26.2019 9.03766C26.2019 4.27287 30.0784 0.396484 34.8432 0.396484C39.608 0.396484 43.4844 4.27301 43.4844 9.03766C43.4844 13.8023 39.6078 17.6788 34.8432 17.6788C30.0785 17.6788 26.2019 13.8023 26.2019 9.03766ZM28.3894 9.03766C28.3894 12.5962 31.2845 15.4913 34.8432 15.4913C38.4018 15.4913 41.2969 12.5962 41.2969 9.03766C41.2969 5.47914 38.4017 2.58398 34.8432 2.58398C31.2847 2.58398 28.3894 5.47914 28.3894 9.03766ZM17.6926 44.2762V59.3712C17.6926 59.6613 17.5774 59.9395 17.3723 60.1446C17.1672 60.3497 16.889 60.465 16.5989 60.465H1.50391C1.21383 60.465 0.935626 60.3497 0.730508 60.1446C0.52539 59.9395 0.410156 59.6613 0.410156 59.3712V44.2762C0.410156 43.9862 0.52539 43.708 0.730508 43.5028C0.935626 43.2977 1.21383 43.1825 1.50391 43.1825H16.5989C16.889 43.1825 17.1672 43.2977 17.3723 43.5028C17.5774 43.708 17.6926 43.9862 17.6926 44.2762ZM15.5051 45.37H2.59766V58.2775H15.5051V45.37ZM69.4337 59.9341C69.3365 60.096 69.1991 60.23 69.0348 60.323C68.8704 60.4161 68.6848 60.465 68.496 60.465H52.404C52.2152 60.465 52.0296 60.416 51.8652 60.323C51.7009 60.2299 51.5635 60.0959 51.4663 59.934C51.3691 59.7721 51.3155 59.5878 51.3107 59.399C51.3059 59.2102 51.3501 59.0234 51.4389 58.8567L59.485 43.7618C59.5782 43.5868 59.7173 43.4404 59.8873 43.3384C60.0573 43.2363 60.2519 43.1824 60.4502 43.1824C60.6485 43.1824 60.8431 43.2363 61.0131 43.3384C61.1831 43.4404 61.3222 43.5868 61.4154 43.7618L69.4615 58.8567C69.5503 59.0234 69.5944 59.2102 69.5896 59.399C69.5849 59.5878 69.5313 59.7721 69.4341 59.9341H69.4337ZM66.6736 58.2775L60.4501 46.6015L54.2265 58.2775H66.6738H66.6736ZM15.8692 36.7447C15.8692 26.2824 24.3809 17.7707 34.8432 17.7707C45.3055 17.7707 53.8172 26.2824 53.8172 36.7447V40.4473C53.8172 40.7374 53.7019 41.0156 53.4968 41.2207C53.2917 41.4258 53.0135 41.541 52.7234 41.541H46.5728L45.5894 41.7349L44.8398 43.5445L45.4578 44.4659C45.8999 45.125 45.8138 46.0113 45.2523 46.5732L43.0731 48.7524C42.5116 49.3141 41.6251 49.4003 40.9656 48.9582L40.0441 48.3402L38.2345 49.0898L38.0198 50.1782C37.8662 50.9574 37.1783 51.5229 36.3841 51.5229H33.3026C32.5084 51.5229 31.8205 50.9574 31.6668 50.1782L31.4521 49.0898L29.6427 48.3402L28.7213 48.9582C28.0612 49.4005 27.175 49.3138 26.6137 48.7524L24.4346 46.5734C23.8731 46.0115 23.7867 45.1251 24.229 44.4657L24.8469 43.5444L24.0972 41.7348L23.1139 41.5409H16.9632C16.6732 41.5409 16.395 41.4257 16.1898 41.2206C15.9847 41.0154 15.8695 40.7372 15.8695 40.4472V36.7445L15.8692 36.7447ZM45.8351 39.4569V37.2307L44.5916 36.9856C44.4149 36.9507 44.2495 36.8727 44.1101 36.7586C43.9707 36.6444 43.8617 36.4975 43.7928 36.3311L42.5946 33.4389C42.5257 33.2725 42.4989 33.0915 42.5167 32.9122C42.5345 32.7329 42.5963 32.5608 42.6966 32.4111L43.4026 31.3584L41.8286 29.7843L40.7758 30.4903C40.6261 30.5907 40.4539 30.6525 40.2746 30.6703C40.0953 30.6881 39.9143 30.6613 39.7478 30.5923L36.8557 29.394C36.6892 29.325 36.5424 29.216 36.4283 29.0767C36.3141 28.9373 36.2362 28.7719 36.2013 28.5951L35.9562 27.3518H33.7299L33.4847 28.5951C33.4499 28.7719 33.3719 28.9373 33.2578 29.0766C33.1436 29.216 32.9968 29.325 32.8304 29.394L29.9384 30.5923C29.7719 30.6613 29.5909 30.688 29.4116 30.6702C29.2323 30.6524 29.0601 30.5906 28.9104 30.4903L27.8577 29.7843L26.2836 31.3584L26.9896 32.4111C27.09 32.5608 27.1518 32.7329 27.1696 32.9122C27.1874 33.0915 27.1606 33.2725 27.0916 33.4389L25.8934 36.3311C25.8245 36.4976 25.7155 36.6444 25.5762 36.7586C25.4368 36.8728 25.2714 36.9508 25.0946 36.9856L23.8511 37.2308V39.4569L25.0945 39.702C25.2712 39.7369 25.4367 39.8148 25.5761 39.929C25.7155 40.0432 25.8245 40.19 25.8934 40.3565L27.0916 43.2485C27.1606 43.415 27.1873 43.5959 27.1695 43.7752C27.1517 43.9545 27.0899 44.1267 26.9896 44.2764L26.2836 45.3291L27.8578 46.9033L28.9105 46.1973C29.0603 46.097 29.2324 46.0352 29.4118 46.0174C29.5911 45.9996 29.772 46.0263 29.9385 46.0953L32.8304 47.2935C32.9968 47.3624 33.1437 47.4714 33.2578 47.6108C33.372 47.7502 33.4499 47.9156 33.4847 48.0923L33.7299 49.3358H35.9562L36.2013 48.0923C36.2362 47.9156 36.3142 47.7502 36.4284 47.6108C36.5425 47.4714 36.6894 47.3624 36.8558 47.2935L39.7478 46.0953C39.9143 46.0264 40.0952 45.9996 40.2745 46.0174C40.4538 46.0352 40.626 46.097 40.7757 46.1973L41.8284 46.9033L43.4026 45.3291L42.6966 44.2764C42.5962 44.1267 42.5344 43.9546 42.5166 43.7752C42.4989 43.5959 42.5256 43.415 42.5946 43.2485L43.7928 40.3565C43.8617 40.19 43.9707 40.0432 44.1101 39.929C44.2495 39.8148 44.415 39.7368 44.5918 39.702L45.8351 39.4569ZM18.0567 39.3535H21.6639V36.8031C21.6639 36.0089 22.2295 35.3209 23.0087 35.1673L24.097 34.9528L24.8466 33.1431L24.2286 32.2217C23.7862 31.5625 23.8726 30.6759 24.4344 30.1141L26.6134 27.9351C27.1749 27.3738 28.061 27.2871 28.7206 27.7292L29.6423 28.3473L31.452 27.5975L31.6665 26.5092C31.8201 25.7302 32.508 25.1646 33.3024 25.1646H36.3839C37.1781 25.1646 37.866 25.7302 38.0196 26.5092L38.2341 27.5975L40.044 28.3473L40.9652 27.7293C41.6247 27.2872 42.5111 27.3736 43.0726 27.9348L45.2517 30.1139C45.8131 30.6755 45.8998 31.5619 45.4575 32.2215L44.8395 33.143L45.5891 34.9527L46.6776 35.1672C47.4567 35.3209 48.0222 36.0087 48.0222 36.8029V39.3534H51.6294V36.7445C51.6294 27.4884 44.099 19.9581 34.8429 19.9581C25.5868 19.9581 18.0564 27.4884 18.0564 36.7445V39.3534L18.0567 39.3535ZM42.1348 38.3437C42.1348 42.3644 38.8638 45.6354 34.8432 45.6354C30.8226 45.6354 27.5516 42.3644 27.5516 38.3437C27.5516 34.3231 30.8226 31.0521 34.8432 31.0521C38.8638 31.0521 42.1348 34.3231 42.1348 38.3437ZM39.9473 38.3437C39.9473 35.5292 37.6577 33.2396 34.8432 33.2396C32.0287 33.2396 29.7391 35.5292 29.7391 38.3437C29.7391 41.1582 32.0287 43.4479 34.8432 43.4479C37.6577 43.4479 39.9473 41.1582 39.9473 38.3437Z" fill="#01B199"/>
</svg>