<svg width="66" height="70" viewBox="0 0 66 70" fill="none" xmlns="http://www.w3.org/2000/svg">
<path d="M65.3081 12.1689C53.5697 0.430429 53.8928 0.538121 53.2466 0.538121H21.5851C19.7543 0.538121 18.3543 1.93812 18.3543 3.76889V31.2304H11.5697V29.615C11.5697 28.9689 11.1389 28.5381 10.4928 28.5381C9.84661 28.5381 9.41584 28.9689 9.41584 29.615V31.2304H2.30814C1.12353 31.2304 0.154297 32.1997 0.154297 33.3843V67.3074C0.154297 68.492 1.12353 69.4612 2.30814 69.4612H44.5235C45.7081 69.4612 46.6774 68.492 46.6774 67.3074V54.5997H62.5081C64.3389 54.5997 65.7389 53.1997 65.7389 51.3689C65.7389 10.2304 66.062 12.7074 65.3081 12.1689ZM54.3235 4.19966L62.0774 11.9535H54.3235V4.19966ZM2.30814 33.3843H9.41584V34.9997C9.41584 35.6458 9.84661 36.0766 10.4928 36.0766C11.1389 36.0766 11.5697 35.6458 11.5697 34.9997V33.3843H35.3697V34.9997C35.3697 35.6458 35.8005 36.0766 36.4466 36.0766C37.0928 36.0766 37.5235 35.6458 37.5235 34.9997V33.3843H44.6312V39.1997H2.30814V33.3843ZM2.30814 67.3074V41.3535H44.5235V67.3074H2.30814ZM62.5081 52.4458H46.7851V33.3843C46.7851 32.1997 45.8158 31.2304 44.6312 31.2304H37.5235V29.615C37.5235 28.9689 37.0928 28.5381 36.4466 28.5381C35.8005 28.5381 35.3697 28.9689 35.3697 29.615V31.2304H20.5081V3.76889C20.5081 3.12274 20.9389 2.69197 21.5851 2.69197H52.1697V13.1381C52.1697 13.7843 52.6005 14.215 53.2466 14.215H63.6928V51.4766C63.5851 52.0151 63.1543 52.4458 62.5081 52.4458Z" fill="#F99C1E"/>
<path d="M27.7234 8.50781H29.8772V10.6617H27.7234V8.50781ZM35.2618 8.50781H37.4157V10.6617H35.2618V8.50781ZM42.8003 8.50781H44.9541V10.6617H42.8003V8.50781ZM28.0465 17.554H56.0465V19.7078H28.0465V17.554ZM46.7849 26.4924H56.1541V28.6463H46.7849V26.4924ZM50.6618 35.5386H56.0465V37.6924H50.6618V35.5386ZM50.6618 44.477H56.0465V46.6309H50.6618V44.477ZM12.0003 45.2309H9.84645C9.2003 45.2309 8.76953 45.6617 8.76953 46.3078C8.76953 46.954 9.2003 47.3847 9.84645 47.3847H12.0003C12.6465 47.3847 13.0772 46.954 13.0772 46.3078C13.0772 45.6617 12.6465 45.2309 12.0003 45.2309ZM24.4926 45.2309H22.3388C21.6926 45.2309 21.2618 45.6617 21.2618 46.3078C21.2618 46.954 21.6926 47.3847 22.3388 47.3847H24.4926C25.1388 47.3847 25.5695 46.954 25.5695 46.3078C25.5695 45.6617 25.1388 45.2309 24.4926 45.2309ZM37.0926 45.2309H34.9388C34.2926 45.2309 33.8618 45.6617 33.8618 46.3078C33.8618 46.954 34.2926 47.3847 34.9388 47.3847H37.0926C37.7388 47.3847 38.1695 46.954 38.1695 46.3078C38.1695 45.6617 37.6311 45.2309 37.0926 45.2309ZM12.0003 53.3078H9.84645C9.2003 53.3078 8.76953 53.7386 8.76953 54.3847C8.76953 55.0309 9.2003 55.4617 9.84645 55.4617H12.0003C12.6465 55.4617 13.0772 55.0309 13.0772 54.3847C13.0772 53.7386 12.6465 53.3078 12.0003 53.3078ZM24.4926 53.3078H22.3388C21.6926 53.3078 21.2618 53.7386 21.2618 54.3847C21.2618 55.0309 21.6926 55.4617 22.3388 55.4617H24.4926C25.1388 55.4617 25.5695 55.0309 25.5695 54.3847C25.5695 53.7386 25.1388 53.3078 24.4926 53.3078ZM37.0926 53.3078H34.9388C34.2926 53.3078 33.8618 53.7386 33.8618 54.3847C33.8618 55.0309 34.2926 55.4617 34.9388 55.4617H37.0926C37.7388 55.4617 38.1695 55.0309 38.1695 54.3847C38.1695 53.7386 37.6311 53.3078 37.0926 53.3078ZM12.0003 61.3847H9.84645C9.2003 61.3847 8.76953 61.8155 8.76953 62.4617C8.76953 63.1078 9.2003 63.5386 9.84645 63.5386H12.0003C12.6465 63.5386 13.0772 63.1078 13.0772 62.4617C13.0772 61.8155 12.6465 61.3847 12.0003 61.3847ZM24.4926 61.3847H22.3388C21.6926 61.3847 21.2618 61.8155 21.2618 62.4617C21.2618 63.1078 21.6926 63.5386 22.3388 63.5386H24.4926C25.1388 63.5386 25.5695 63.1078 25.5695 62.4617C25.5695 61.8155 25.1388 61.3847 24.4926 61.3847ZM37.0926 61.3847H34.9388C34.2926 61.3847 33.8618 61.8155 33.8618 62.4617C33.8618 63.1078 34.2926 63.5386 34.9388 63.5386H37.0926C37.7388 63.5386 38.1695 63.1078 38.1695 62.4617C38.1695 61.8155 37.6311 61.3847 37.0926 61.3847Z" fill="#F99C1E"/>
</svg>