<svg width="70" height="70" viewBox="0 0 70 70" fill="none" xmlns="http://www.w3.org/2000/svg">
<path d="M33.9701 22.7498C37.8819 22.7498 41.0731 19.5587 41.0731 15.6469C41.0731 11.7351 37.8819 8.54395 33.9701 8.54395C30.0584 8.54395 26.8672 11.7351 26.8672 15.6469C26.8672 19.5587 30.0584 22.7498 33.9701 22.7498ZM33.9701 10.6028C36.7495 10.6028 39.0142 12.8675 39.0142 15.6469C39.0142 18.4263 36.7495 20.691 33.9701 20.691C31.1907 20.691 28.926 18.4263 28.926 15.6469C28.926 12.8675 31.1907 10.6028 33.9701 10.6028Z" fill="#76AA2D"/>
<path d="M9.16153 34.6909C10.1909 34.6909 11.0145 34.485 11.838 34.1762C12.2498 34.2791 12.7645 34.3821 13.1762 34.3821H23.7792C24.9115 34.3821 25.838 35.3085 25.838 36.4409V62.9997C25.838 65.5732 27.8968 67.6321 30.4704 67.6321C31.9115 67.6321 33.2498 66.9115 34.0733 65.8821C34.8968 66.9115 36.1321 67.5291 37.5733 67.5291C40.1468 67.5291 42.2057 65.4703 42.2057 62.8968V36.4409C42.2057 35.3085 43.1321 34.3821 44.2645 34.3821H56.1027C56.7204 34.3821 57.338 34.2791 57.9557 33.9703C58.9851 34.485 59.9115 34.6909 61.0439 34.6909C64.9557 34.6909 68.1468 31.4997 68.1468 27.5879C68.1468 23.6762 64.9557 20.485 61.0439 20.485C60.1174 20.485 59.1909 20.6909 58.2645 21.1027L48.2792 4.63207H56.9262C57.5439 4.63207 57.9557 4.2203 57.9557 3.60265C57.9557 2.98501 57.5439 2.57324 56.9262 2.57324H12.6615C12.0439 2.57324 11.6321 2.98501 11.6321 3.60265C11.6321 4.2203 12.0439 4.63207 12.6615 4.63207H22.1321L12.1468 21.1027C11.3233 20.6909 10.3968 20.485 9.36742 20.485C5.24977 20.485 2.05859 23.6762 2.05859 27.5879C2.05859 31.4997 5.24977 34.6909 9.16153 34.6909ZM11.838 31.9115C11.1174 31.4997 10.7057 30.6762 10.7057 29.8527C10.7057 28.4115 11.838 27.2791 13.2792 27.2791H14.3086C14.3086 29.235 13.2792 30.985 11.838 31.9115ZM30.4704 65.4703C29.0292 65.4703 27.8968 64.3379 27.8968 62.8968V49.3085H32.9409V62.9997C32.9409 64.338 31.8086 65.4703 30.4704 65.4703ZM40.0439 62.7938C40.0439 64.235 38.9115 65.3674 37.4704 65.3674C36.1321 65.3674 34.9998 64.338 34.9998 62.9997V49.3085H40.0439V62.7938ZM57.7498 31.6027C56.5145 30.6762 55.6909 29.1321 55.7939 27.2791H55.8968C57.338 27.2791 58.4704 28.4115 58.4704 29.8527C58.4704 30.4703 58.1615 31.0879 57.7498 31.6027ZM60.838 22.5438C63.6174 22.5438 65.8821 24.8085 65.8821 27.5879C65.8821 30.3674 63.6174 32.6321 60.838 32.6321C60.4262 32.6321 60.0145 32.5291 59.6027 32.5291C60.1174 31.8085 60.5292 30.8821 60.5292 29.8527C60.5292 27.485 58.6762 25.5291 56.3086 25.3232C57.1321 23.5732 58.8821 22.5438 60.838 22.5438ZM24.2939 4.52912H45.6027L56.2057 22.1321C55.1762 22.9556 54.4557 23.985 54.0439 25.2203H43.338C42.7204 25.2203 42.3086 25.6321 42.3086 26.2497C42.3086 26.8674 42.7204 27.2791 43.338 27.2791H53.6321C53.5292 29.235 54.2498 30.985 55.4851 32.3232H44.1615C41.8968 32.3232 40.0439 34.1762 40.0439 36.4409V47.2497H27.8968V36.4409C27.8968 34.1762 26.0439 32.3232 23.7792 32.3232H14.4115C15.6468 30.985 16.3674 29.235 16.2645 27.2791H38.2939C38.9115 27.2791 39.3233 26.8674 39.3233 26.2497C39.3233 25.6321 38.9115 25.2203 38.2939 25.2203H15.8527C15.4409 23.985 14.6174 22.8527 13.6909 22.1321L24.2939 4.52912ZM9.16153 22.5438C11.0145 22.5438 12.7645 23.6762 13.588 25.2203H13.1762C10.6027 25.2203 8.54389 27.2791 8.54389 29.8527C8.54389 30.8821 8.95565 31.9115 9.47036 32.6321H9.05859C6.27918 32.6321 4.01448 30.3674 4.01448 27.5879C4.01448 24.8085 6.38212 22.5438 9.16153 22.5438Z" fill="#76AA2D"/>
</svg>