<svg width="70" height="70" viewBox="0 0 70 70" fill="none" xmlns="http://www.w3.org/2000/svg">
<path d="M27.2976 64.3825C27.2976 64.9863 26.818 65.4812 26.2142 65.4812C25.6105 65.4812 25.1156 64.9863 25.1156 64.3825V50.6231C25.1156 49.6951 25.5175 48.8589 26.1678 48.2557C26.8291 47.6447 27.6977 47.3074 28.5981 47.3118H41.3971C42.341 47.3118 43.2078 47.6673 43.8263 48.2557C44.476 48.8595 44.8796 49.6951 44.8796 50.6231V64.3825C44.8796 64.9863 44.3995 65.4812 43.7957 65.4812C43.192 65.4812 42.6971 64.9863 42.6971 64.3825V50.6231C42.6971 50.3295 42.5729 50.0506 42.3563 49.8499C42.0913 49.6171 41.7498 49.4904 41.3971 49.4938H36.0881V64.3831C36.0881 64.9868 35.609 65.4817 35.0053 65.4817C34.7142 65.4806 34.4354 65.3645 34.2297 65.1587C34.0239 64.9529 33.9077 64.6741 33.9066 64.3831V49.4933H28.5981C28.2267 49.4933 27.9014 49.6333 27.6542 49.8493C27.4376 50.05 27.2981 50.3289 27.2981 50.6226L27.2976 64.3825ZM24.2182 32.6397H31.368C31.5105 32.6389 31.6517 32.6664 31.7835 32.7205C31.9153 32.7747 32.0351 32.8545 32.1358 32.9552C32.2366 33.056 32.3164 33.1757 32.3705 33.3075C32.4247 33.4393 32.4522 33.5806 32.4514 33.7231V40.3785C32.4522 40.521 32.4248 40.6622 32.3706 40.794C32.3165 40.9258 32.2367 41.0455 32.1359 41.1461C32.0351 41.2468 31.9153 41.3265 31.7835 41.3805C31.6517 41.4345 31.5105 41.4618 31.368 41.4608H24.2182C24.0757 41.4618 23.9344 41.4345 23.8026 41.3805C23.6708 41.3265 23.551 41.2468 23.4502 41.1461C23.3494 41.0455 23.2696 40.9258 23.2155 40.794C23.1614 40.6622 23.1339 40.521 23.1348 40.3785V33.7231C23.1338 33.5805 23.1612 33.4392 23.2153 33.3074C23.2694 33.1755 23.3492 33.0557 23.45 32.9549C23.5508 32.8541 23.6706 32.7744 23.8025 32.7202C23.9343 32.6661 24.0756 32.6388 24.2182 32.6397ZM24.2182 19.407H31.368C31.5105 19.4062 31.6517 19.4336 31.7835 19.4878C31.9153 19.542 32.0351 19.6217 32.1358 19.7225C32.2366 19.8233 32.3164 19.943 32.3705 20.0748C32.4247 20.2066 32.4522 20.3478 32.4514 20.4903V27.1453C32.4523 27.2878 32.4249 27.4291 32.3708 27.5609C32.3167 27.6928 32.2369 27.8126 32.1362 27.9134C32.0354 28.0142 31.9156 28.094 31.7837 28.1481C31.6518 28.2022 31.5105 28.2296 31.368 28.2286H24.2182C24.0757 28.2294 23.9344 28.2019 23.8026 28.1478C23.6708 28.0936 23.5511 28.0138 23.4503 27.9131C23.3496 27.8123 23.2698 27.6926 23.2156 27.5608C23.1615 27.429 23.134 27.2877 23.1348 27.1453V20.4909C23.1338 20.3483 23.1612 20.207 23.2153 20.0751C23.2694 19.9432 23.3492 19.8234 23.45 19.7225C23.5507 19.6217 23.6705 19.5419 23.8024 19.4877C23.9343 19.4335 24.0756 19.4061 24.2182 19.407ZM30.2693 21.5901H25.3168V26.0466H30.2693V21.5901ZM42.2169 26.0466C42.8206 26.0466 43.2997 26.542 43.2997 27.1458C43.2997 27.7495 42.8201 28.2292 42.2169 28.2292H38.642C38.0382 28.2292 37.5428 27.749 37.5428 27.1458V20.4909C37.5428 19.8871 38.0377 19.4075 38.642 19.4075C38.7845 19.4067 38.9257 19.4342 39.0575 19.4884C39.1893 19.5425 39.309 19.6223 39.4098 19.723C39.5106 19.8238 39.5903 19.9436 39.6445 20.0753C39.6987 20.2071 39.7261 20.3484 39.7253 20.4909V26.0466H42.2169ZM38.642 32.6397H45.7765C46.3803 32.6397 46.8752 33.1199 46.8752 33.7231V40.3785C46.8752 40.9823 46.3803 41.4608 45.7765 41.4608H38.642C38.0382 41.4608 37.5428 40.9817 37.5428 40.3785V33.7231C37.5428 33.1199 38.0382 32.6397 38.642 32.6397ZM44.6937 34.8223H39.7259V39.2793H44.6937V34.8223ZM30.2693 34.8223H25.3168V39.2793H30.2693V34.8223ZM53.3906 33.5224C53.0817 34.0331 52.4167 34.2185 51.9053 33.909C51.7419 33.8079 51.6042 33.6703 51.5028 33.507L42.1239 17.6121C41.6438 16.7918 41.2418 15.7396 40.9946 14.811C40.7451 13.8402 40.6201 12.8417 40.6228 11.8393C40.6199 10.284 40.9247 8.74345 41.5197 7.30642C42.1146 5.86938 42.988 4.56423 44.0894 3.46611C45.1879 2.36525 46.4932 1.49232 47.9301 0.897494C49.3671 0.302667 50.9074 -0.00233598 52.4626 1.34707e-05C55.728 1.34707e-05 58.6838 1.33111 60.8353 3.46665C62.9708 5.61861 64.3024 8.57392 64.3024 11.8399C64.3024 12.8614 64.163 13.8518 63.9158 14.8116C63.6675 15.8025 63.2803 16.7306 62.8013 17.5974L53.3906 33.5224ZM52.4626 30.829L60.9124 16.5129C61.7055 15.083 62.1209 13.4745 62.1193 11.8393C62.1193 9.17712 61.0371 6.76322 59.2876 5.01431C58.3925 4.11611 57.3288 3.40354 56.1576 2.9175C54.9863 2.43147 53.7307 2.18153 52.4626 2.18204C51.192 2.17978 49.9335 2.42886 48.7595 2.91494C47.5856 3.40102 46.5194 4.1145 45.6223 5.01431C43.8881 6.76322 42.8053 9.17712 42.8053 11.8393C42.8053 12.6908 42.9131 13.4947 43.0996 14.2691C43.3003 15.0424 43.6098 15.7856 43.9811 16.4817L52.4626 30.829Z" fill="#5B2ECC"/>
<path d="M52.4621 5.52539C54.1957 5.52539 55.774 6.23797 56.9186 7.38258C57.5088 7.9648 57.9771 8.65883 58.2961 9.42409C58.6151 10.1894 58.7783 11.0105 58.7763 11.8396C58.7763 13.588 58.0637 15.1673 56.9186 16.3125C55.7734 17.4423 54.1957 18.1538 52.4621 18.1538C50.7867 18.1536 49.1792 17.4918 47.9892 16.3125C46.8441 15.1673 46.1479 13.5885 46.1479 11.8396C46.1479 10.0907 46.8441 8.51242 47.9892 7.38258C48.5755 6.79342 49.2725 6.32603 50.0402 6.00729C50.8078 5.68856 51.6309 5.52479 52.4621 5.52539ZM55.3715 8.91492C54.5973 8.14199 53.5481 7.70787 52.4542 7.70787C51.3602 7.70787 50.311 8.14199 49.5369 8.91492C48.7937 9.67344 48.3299 10.6945 48.3299 11.8402C48.3299 12.9853 48.7937 14.0222 49.5369 14.7654C50.311 15.5383 51.3602 15.9724 52.4542 15.9724C53.5481 15.9724 54.5973 15.5383 55.3715 14.7654C55.7601 14.384 56.0685 13.9287 56.2784 13.4264C56.4883 12.924 56.5955 12.3846 56.5937 11.8402C56.5937 10.6945 56.1294 9.67344 55.3715 8.91492ZM57.5065 53.162C56.9027 53.162 56.4242 52.6671 56.4242 52.0634C56.4242 51.4596 56.9033 50.9795 57.5065 50.9795H61.4686C62.8309 50.9795 64.0383 51.7691 64.5644 53.0226L69.687 65.4968C69.9036 66.0229 69.9807 66.5495 69.9189 67.0756C69.8106 68.1437 69.098 69.1335 68.1541 69.629C67.6709 69.8771 67.1349 70.0046 66.5917 70.0009H3.41726C2.87391 70.0047 2.33769 69.8771 1.85429 69.629C0.894524 69.1335 0.198352 68.1437 0.0747581 67.0756C0.0297417 66.5385 0.109086 65.9983 0.306633 65.4968L5.44507 53.0226C5.97116 51.7691 7.17812 50.9795 8.54038 50.9795H12.4713C13.0751 50.9795 13.5547 51.4602 13.5547 52.0634C13.5547 52.6666 13.0751 53.162 12.4713 53.162H8.54038C8.06077 53.162 7.64241 53.3939 7.45702 53.8582L2.33445 66.3319C2.25902 66.4912 2.22695 66.6675 2.24148 66.8432C2.28796 67.1992 2.5357 67.5241 2.84523 67.6947C3.01531 67.7723 3.2007 67.8188 3.41781 67.8188H66.5928C66.8094 67.8188 66.9948 67.7723 67.1501 67.6947C67.4755 67.5241 67.7226 67.1998 67.7538 66.8432C67.7691 66.6726 67.7538 66.503 67.6762 66.3319L62.5536 53.8582C62.3676 53.3934 61.9498 53.162 61.4702 53.162H57.5065Z" fill="#5B2ECC"/>
<path d="M51.3628 38.2112C51.3628 37.6074 51.8577 37.112 52.4615 37.112C53.0652 37.112 53.5448 37.6074 53.5448 38.2112V64.3819C53.5448 64.9856 53.0647 65.4806 52.4615 65.4806H17.5462C16.9425 65.4806 16.4629 64.9856 16.4629 64.3819V16.5445C16.4629 15.6159 16.8654 14.7798 17.5156 14.1766C18.1733 13.5582 19.0426 13.2148 19.9454 13.2168H37.1703C37.7741 13.2168 38.2537 13.7117 38.2537 14.316C38.2537 14.9198 37.7735 15.4147 37.1703 15.4147H19.9454C19.5582 15.4147 19.2334 15.5388 18.9862 15.7707C18.8791 15.8692 18.7935 15.9888 18.7349 16.122C18.6762 16.2552 18.6458 16.399 18.6455 16.5445V63.298H51.3634L51.3628 38.2112Z" fill="#5B2ECC"/>
</svg>