<svg width="66" height="66" viewBox="0 0 66 66" fill="none" xmlns="http://www.w3.org/2000/svg">
<path d="M58.3884 42.8893C58.2877 42.7451 58.1537 42.6273 57.9977 42.546C57.8418 42.4647 57.6685 42.4222 57.4926 42.4222H39.297C37.6006 36.7314 32.2543 32.6846 26.2475 32.6846H14.015C6.49981 32.6846 0.385742 38.791 0.385742 46.2985V64.7194C0.385742 65.0095 0.500976 65.2877 0.706094 65.4928C0.911212 65.6979 1.18941 65.8132 1.47949 65.8132H49.7522C49.9764 65.8131 50.1951 65.7441 50.3788 65.6156C50.5625 65.4871 50.7023 65.3052 50.7792 65.0946L58.5186 43.8922C58.5789 43.727 58.5984 43.5496 58.5756 43.3752C58.5527 43.2008 58.4881 43.0345 58.3873 42.8904L58.3884 42.8893ZM2.57324 46.2985C2.57324 39.9985 7.70621 34.8721 14.015 34.8721H26.2475C31.0698 34.8721 35.3912 37.975 37.0045 42.4222H25.32C25.0958 42.4223 24.877 42.4913 24.6933 42.6198C24.5096 42.7483 24.3698 42.9302 24.2929 43.1408L16.8161 63.6246H2.57324V46.2985ZM48.9876 63.6257H19.1446L26.0856 44.6108H55.9286L48.9876 63.6257Z" fill="#1367CB"/>
<path d="M32.4136 54.1201C32.4136 56.9441 34.7116 59.2421 37.5356 59.2421C40.3597 59.2421 42.6577 56.9441 42.6577 54.1201C42.6577 51.296 40.3597 48.998 37.5356 48.998C34.7116 48.998 32.4136 51.296 32.4136 54.1201ZM40.4702 54.1201C40.4702 55.7377 39.1533 57.0546 37.5356 57.0546C35.918 57.0546 34.6011 55.7377 34.6011 54.1201C34.6011 52.5024 35.918 51.1855 37.5356 51.1855C39.1533 51.1855 40.4702 52.5024 40.4702 54.1201ZM19.9711 31.6129C25.7166 31.6129 30.3912 26.9382 30.3912 21.1927C30.3912 15.4473 25.7166 10.7726 19.9711 10.7726C14.2256 10.7726 9.55094 15.4473 9.55094 21.1927C9.55094 26.9382 14.2256 31.6129 19.9711 31.6129ZM19.9711 12.959C24.5102 12.959 28.2037 16.6526 28.2037 21.1916C28.2037 25.7307 24.5102 29.4243 19.9711 29.4243C15.432 29.4243 11.7384 25.7307 11.7384 21.1916C11.7384 16.6526 15.432 12.959 19.9711 12.959ZM5.62109 45.9837C5.33101 45.9837 5.05281 46.0989 4.8477 46.304C4.64258 46.5091 4.52734 46.7873 4.52734 47.0774V48.2773C4.52734 48.5673 4.64258 48.8455 4.8477 49.0507C5.05281 49.2558 5.33101 49.371 5.62109 49.371C5.91117 49.371 6.18937 49.2558 6.39449 49.0507C6.59961 48.8455 6.71484 48.5673 6.71484 48.2773V47.0774C6.71484 46.7873 6.59961 46.5091 6.39449 46.304C6.18937 46.0989 5.91117 45.9837 5.62109 45.9837ZM5.62109 51.2752C5.33101 51.2752 5.05281 51.3905 4.8477 51.5956C4.64258 51.8007 4.52734 52.0789 4.52734 52.369V58.8615C4.52734 59.1516 4.64258 59.4298 4.8477 59.6349C5.05281 59.84 5.33101 59.9552 5.62109 59.9552C5.91117 59.9552 6.18937 59.84 6.39449 59.6349C6.59961 59.4298 6.71484 59.1516 6.71484 58.8615V52.369C6.71484 52.0789 6.59961 51.8007 6.39449 51.5956C6.18937 51.3905 5.91117 51.2752 5.62109 51.2752ZM52.4216 7.24305C51.1889 6.8622 49.8927 6.73094 48.6088 6.85695C46.2261 7.08339 44.0142 8.19217 42.407 9.96565C40.7999 11.7391 39.9136 14.0492 39.9222 16.4426C39.9222 21.7549 44.2447 26.0774 49.557 26.0774C51.9592 26.0883 54.278 25.197 56.0543 23.5799C57.8307 21.9627 58.9352 19.7376 59.1492 17.3449C59.2724 16.0614 59.134 14.7661 58.7423 13.5376C58.2759 12.0558 57.4574 10.7092 56.3568 9.61297C55.2561 8.51673 53.9052 7.70355 52.4216 7.24305ZM57.0033 16.4426C57.0033 16.6788 56.9902 16.9151 56.9694 17.1448C56.8033 18.9934 55.9494 20.7123 54.5765 21.9614C53.2037 23.2105 51.412 23.8987 49.5559 23.8899C47.5815 23.8876 45.6886 23.1022 44.2924 21.7061C42.8963 20.3099 42.1109 18.417 42.1086 16.4426C42.1021 14.5918 42.7879 12.8054 44.0313 11.4345C45.2748 10.0635 46.9859 9.20712 48.8286 9.03352C49.8194 8.9348 50.82 9.03634 51.7708 9.33211C52.9179 9.68796 53.9615 10.3167 54.8123 11.1644C55.663 12.0121 56.2955 13.0535 56.6555 14.1993C56.8862 14.9201 57.0033 15.6748 57.0033 16.4437V16.4426Z" fill="#1367CB"/>
<path d="M51.363 10.6438C50.7784 10.4616 50.1695 10.3694 49.5572 10.3703C49.2671 10.3703 48.9889 10.4855 48.7838 10.6907C48.5787 10.8958 48.4634 11.174 48.4634 11.4641C48.4634 11.7541 48.5787 12.0323 48.7838 12.2375C48.9889 12.4426 49.2671 12.5578 49.5572 12.5578C50.0678 12.5569 50.5736 12.6569 51.0455 12.8518C51.5175 13.0468 51.9463 13.333 52.3074 13.694C52.6685 14.055 52.9548 14.4838 53.1499 14.9557C53.345 15.4275 53.4451 15.9333 53.4444 16.4439C53.4444 16.734 53.5596 17.0122 53.7647 17.2173C53.9698 17.4224 54.248 17.5377 54.5381 17.5377C54.8282 17.5377 55.1064 17.4224 55.3115 17.2173C55.5166 17.0122 55.6319 16.734 55.6319 16.4439C55.6319 15.8183 55.5367 15.2003 55.3486 14.613C55.0543 13.6787 54.538 12.8298 53.8439 12.1387C53.1497 11.4476 52.2985 10.9339 51.363 10.6438ZM49.5572 4.88625C49.8473 4.88625 50.1255 4.77102 50.3306 4.5659C50.5357 4.36078 50.6509 4.08258 50.6509 3.7925V1.28125C50.6509 0.991169 50.5357 0.71297 50.3306 0.507852C50.1255 0.302734 49.8473 0.1875 49.5572 0.1875C49.2671 0.1875 48.9889 0.302734 48.7838 0.507852C48.5787 0.71297 48.4634 0.991169 48.4634 1.28125V3.7925C48.4634 4.08258 48.5787 4.36078 48.7838 4.5659C48.9889 4.77102 49.2671 4.88625 49.5572 4.88625ZM48.4634 29.0942V31.6055C48.4634 31.8955 48.5787 32.1737 48.7838 32.3789C48.9889 32.584 49.2671 32.6992 49.5572 32.6992C49.8473 32.6992 50.1255 32.584 50.3306 32.3789C50.5357 32.1737 50.6509 31.8955 50.6509 31.6055V29.0942C50.6509 28.8041 50.5357 28.5259 50.3306 28.3208C50.1255 28.1157 49.8473 28.0005 49.5572 28.0005C49.2671 28.0005 48.9889 28.1157 48.7838 28.3208C48.5787 28.5259 48.4634 28.8041 48.4634 29.0942ZM62.2075 17.5366H64.7187C65.0088 17.5366 65.287 17.4213 65.4921 17.2162C65.6973 17.0111 65.8125 16.7329 65.8125 16.4428C65.8125 16.1527 65.6973 15.8745 65.4921 15.6694C65.287 15.4643 65.0088 15.3491 64.7187 15.3491H62.2075C61.9174 15.3491 61.6392 15.4643 61.4341 15.6694C61.229 15.8745 61.1137 16.1527 61.1137 16.4428C61.1137 16.7329 61.229 17.0111 61.4341 17.2162C61.6392 17.4213 61.9174 17.5366 62.2075 17.5366ZM36.9058 15.3491H34.3945C34.1045 15.3491 33.8263 15.4643 33.6211 15.6694C33.416 15.8745 33.3008 16.1527 33.3008 16.4428C33.3008 16.7329 33.416 17.0111 33.6211 17.2162C33.8263 17.4213 34.1045 17.5366 34.3945 17.5366H36.9058C37.1959 17.5366 37.4741 17.4213 37.6792 17.2162C37.8843 17.0111 37.9995 16.7329 37.9995 16.4428C37.9995 16.1527 37.8843 15.8745 37.6792 15.6694C37.4741 15.4643 37.1959 15.3491 36.9058 15.3491ZM59.2752 8.27141L61.0514 6.49516C61.2565 6.29007 61.3717 6.01191 61.3717 5.72187C61.3717 5.43184 61.2565 5.15368 61.0514 4.94859C60.8463 4.74351 60.5682 4.62829 60.2781 4.62829C59.9881 4.62829 59.7099 4.74351 59.5048 4.94859L57.7286 6.72484C57.5235 6.92993 57.4083 7.20809 57.4083 7.49813C57.4083 7.78816 57.5235 8.06632 57.7286 8.27141C57.9337 8.47649 58.2118 8.59171 58.5019 8.59171C58.7919 8.59171 59.0701 8.47649 59.2752 8.27141ZM38.8352 28.2586C38.9788 28.2587 39.1211 28.2305 39.2538 28.1755C39.3865 28.1205 39.507 28.0398 39.6084 27.9381L41.3847 26.1619C41.4862 26.0603 41.5668 25.9398 41.6217 25.8071C41.6767 25.6744 41.705 25.5322 41.705 25.3886C41.705 25.245 41.6767 25.1028 41.6217 24.9701C41.5668 24.8374 41.4862 24.7169 41.3847 24.6153C41.2831 24.5138 41.1626 24.4332 41.0299 24.3783C40.8972 24.3233 40.755 24.295 40.6114 24.295C40.4678 24.295 40.3256 24.3233 40.1929 24.3783C40.0602 24.4332 39.9397 24.5138 39.8381 24.6153L38.0619 26.3916C37.9084 26.5443 37.8038 26.7392 37.7613 26.9515C37.7188 27.1639 37.7404 27.384 37.8232 27.5841C37.9061 27.7841 38.0465 27.955 38.2267 28.0751C38.4068 28.1952 38.6186 28.2591 38.8352 28.2586ZM60.2781 28.2586C60.4946 28.2591 60.7064 28.1952 60.8866 28.0751C61.0668 27.955 61.2072 27.7841 61.29 27.5841C61.3729 27.384 61.3944 27.1639 61.352 26.9515C61.3095 26.7392 61.2049 26.5443 61.0514 26.3916L59.2752 24.6153C59.0701 24.4102 58.7919 24.295 58.5019 24.295C58.2118 24.295 57.9337 24.4102 57.7286 24.6153C57.5235 24.8204 57.4083 25.0986 57.4083 25.3886C57.4083 25.6786 57.5235 25.9568 57.7286 26.1619L59.5048 27.9381C59.6063 28.0398 59.7268 28.1205 59.8595 28.1755C59.9922 28.2305 60.1345 28.2587 60.2781 28.2586ZM39.8381 8.27141C39.9395 8.37333 40.0599 8.45421 40.1927 8.5094C40.3254 8.56459 40.4677 8.59301 40.6114 8.59301C40.7551 8.59301 40.8974 8.56459 41.0302 8.5094C41.1629 8.45421 41.2833 8.37333 41.3847 8.27141C41.4863 8.16992 41.567 8.04938 41.622 7.9167C41.6771 7.78401 41.7054 7.64177 41.7054 7.49813C41.7054 7.35448 41.6771 7.21224 41.622 7.07955C41.567 6.94687 41.4863 6.82633 41.3847 6.72484L39.6084 4.94859C39.5069 4.84704 39.3863 4.76649 39.2537 4.71153C39.121 4.65658 38.9788 4.62829 38.8352 4.62829C38.6915 4.62829 38.5493 4.65658 38.4167 4.71153C38.284 4.76649 38.1634 4.84704 38.0619 4.94859C37.9603 5.05014 37.8798 5.1707 37.8248 5.30338C37.7699 5.43606 37.7416 5.57826 37.7416 5.72187C37.7416 5.86549 37.7699 6.00769 37.8248 6.14037C37.8798 6.27305 37.9603 6.39361 38.0619 6.49516L39.8381 8.27141Z" fill="#1367CB"/>
</svg>