<svg width="66" height="70" viewBox="0 0 66 70" fill="none" xmlns="http://www.w3.org/2000/svg">
<path d="M23.6286 17.4762H40.7322C41.0223 17.4762 41.3005 17.361 41.5056 17.1559C41.7108 16.9507 41.826 16.6725 41.826 16.3825V8.80647C41.826 8.51638 41.7108 8.23818 41.5056 8.03307C41.3005 7.82795 41.0223 7.71271 40.7322 7.71271H23.6286C23.3385 7.71271 23.0603 7.82795 22.8552 8.03307C22.6501 8.23818 22.5348 8.51638 22.5348 8.80647V16.3825C22.5348 16.6725 22.6501 16.9507 22.8552 17.1559C23.0603 17.361 23.3385 17.4762 23.6286 17.4762ZM24.7223 9.90022H39.6385V15.2887H24.7223V9.90022ZM65.7114 39.1103C65.7114 31.9628 61.5654 25.7663 55.5527 22.7965V11.0199C55.5527 8.84078 53.7797 7.06781 51.6006 7.06781H48.6216V4.08885C48.6216 1.90969 46.8488 0.136719 44.6695 0.136719H17.3872C16.3165 0.136719 15.3503 0.536895 14.5926 1.29432L1.44666 14.4406C0.689375 15.1979 0.289062 16.1643 0.289062 17.2352V58.9801C0.289062 61.1592 2.06203 62.9322 4.24119 62.9322H7.22002V65.9111C7.22002 68.0903 8.99299 69.8633 11.1723 69.8633H51.6006C53.7797 69.8633 55.5527 68.0903 55.5527 65.9111V55.4243C61.5656 52.4545 65.7114 46.258 65.7114 39.1103ZM51.6006 9.25531C52.5736 9.25531 53.3652 10.0469 53.3652 11.0199V21.8879C51.8327 21.3677 50.2372 21.0559 48.6216 20.9606V9.25531H51.6006ZM15.1095 3.87105V13.4704C15.1095 14.2904 14.4425 14.9574 13.6224 14.9574H4.0234L15.1095 3.87105ZM2.47656 58.9801V17.2352C2.47656 17.2043 2.47916 17.175 2.48039 17.1449H13.6226C15.6487 17.1449 17.2971 15.4965 17.2971 13.4704V2.32805C17.3272 2.32682 17.3566 2.32422 17.3874 2.32422H44.6696C45.6426 2.32422 46.4342 3.11582 46.4342 4.08885V20.9606C43.9728 21.1059 41.5673 21.7539 39.366 22.8647H8.17869C7.88861 22.8647 7.61041 22.9799 7.40529 23.1851C7.20018 23.3902 7.08494 23.6684 7.08494 23.9585C7.08494 24.2485 7.20018 24.5267 7.40529 24.7319C7.61041 24.937 7.88861 25.0522 8.17869 25.0522H36.0078C34.1885 26.545 32.6741 28.3746 31.5475 30.4407H8.17869C7.88861 30.4407 7.61041 30.5559 7.40529 30.7611C7.20018 30.9662 7.08494 31.2444 7.08494 31.5345C7.08494 31.8245 7.20018 32.1027 7.40529 32.3078C7.61041 32.513 7.88861 32.6282 8.17869 32.6282H30.5396C29.8789 34.3543 29.4872 36.1717 29.3782 38.0167H8.17869C7.88861 38.0167 7.61041 38.1319 7.40529 38.3371C7.20018 38.5422 7.08494 38.8204 7.08494 39.1105C7.08494 39.4005 7.20018 39.6787 7.40529 39.8839C7.61041 40.089 7.88861 40.2042 8.17869 40.2042H29.3782C29.4872 42.0492 29.8789 43.8666 30.5396 45.5927H8.17869C7.88861 45.5927 7.61041 45.7079 7.40529 45.913C7.20018 46.1182 7.08494 46.3964 7.08494 46.6864C7.08494 46.9765 7.20018 47.2547 7.40529 47.4598C7.61041 47.665 7.88861 47.7802 8.17869 47.7802H31.5475C32.6743 49.8463 34.1887 51.6758 36.0079 53.1687H8.17869C7.88861 53.1687 7.61041 53.2839 7.40529 53.489C7.20018 53.6942 7.08494 53.9724 7.08494 54.2624C7.08494 54.5525 7.20018 54.8307 7.40529 55.0358C7.61041 55.241 7.88861 55.3562 8.17869 55.3562H39.3663C41.5675 56.4669 43.973 57.1148 46.4342 57.2601V58.9801C46.4342 59.9531 45.6426 60.7447 44.6696 60.7447H4.24119C3.26816 60.7447 2.47656 59.9531 2.47656 58.9801ZM53.3653 65.9111C53.3653 66.8842 52.5737 67.6758 51.6007 67.6758H11.1723C10.1993 67.6758 9.40752 66.8842 9.40752 65.9111V62.9322H44.6695C46.8486 62.9322 48.6216 61.1592 48.6216 58.9801V57.2601C50.2372 57.1649 51.8327 56.853 53.3652 56.3329V65.9111H53.3653ZM47.5279 55.1064C38.7076 55.1064 31.5318 47.9306 31.5318 39.1103C31.5318 30.29 38.7076 23.1142 47.5279 23.1142C56.3481 23.1142 63.5239 30.29 63.5239 39.1103C63.5239 47.9306 56.3481 55.1064 47.5279 55.1064ZM47.528 25.5553C40.0536 25.5553 33.9729 31.6362 33.9729 39.1105C33.9729 46.5847 40.0537 52.6656 47.528 52.6656C55.0023 52.6656 61.0831 46.5847 61.0831 39.1105C61.0831 31.6362 55.0023 25.5553 47.528 25.5553ZM47.528 50.4781C41.2597 50.4781 36.1604 45.3786 36.1604 39.1105C36.1604 32.8423 41.2598 27.7428 47.528 27.7428C53.7961 27.7428 58.8956 32.8423 58.8956 39.1105C58.8956 45.3786 53.7961 50.4781 47.528 50.4781ZM51.5905 41.7807C51.5905 43.5835 50.3165 45.0942 48.6216 45.4602V46.2003C48.6216 46.4904 48.5064 46.7686 48.3013 46.9737C48.0961 47.1788 47.8179 47.294 47.5279 47.294C47.2378 47.294 46.9596 47.1788 46.7545 46.9737C46.5493 46.7686 46.4341 46.4904 46.4341 46.2003V45.5036C45.9372 45.4282 45.4603 45.2548 45.0311 44.9932C44.602 44.7317 44.2292 44.3873 43.9345 43.9802C43.7645 43.7452 43.6949 43.4523 43.7408 43.1659C43.7868 42.8795 43.9447 42.6231 44.1797 42.4531C44.2961 42.3689 44.4279 42.3085 44.5677 42.2752C44.7074 42.242 44.8523 42.2366 44.9942 42.2593C45.136 42.2821 45.2719 42.3326 45.3942 42.4079C45.5166 42.4832 45.6228 42.5818 45.707 42.6982C46.0055 43.111 46.4836 43.3573 46.9859 43.3573H47.8264C48.6957 43.3573 49.403 42.6501 49.403 41.7808C49.403 40.9116 48.6957 40.2043 47.8264 40.2043H47.2295C45.154 40.2043 43.4655 38.5157 43.4655 36.4403C43.4655 34.6376 44.7393 33.1268 46.4342 32.7608V32.0208C46.4342 31.7307 46.5495 31.4525 46.7546 31.2474C46.9597 31.0422 47.2379 30.927 47.528 30.927C47.8181 30.927 48.0963 31.0422 48.3014 31.2474C48.5065 31.4525 48.6217 31.7307 48.6217 32.0208V32.7175C49.1187 32.7928 49.5956 32.9663 50.0248 33.2279C50.4539 33.4895 50.8267 33.8339 51.1214 34.2411C51.2913 34.4761 51.361 34.7691 51.3149 35.0555C51.2689 35.3419 51.111 35.5982 50.876 35.7682C50.6409 35.9382 50.348 36.0078 50.0616 35.9618C49.7752 35.9158 49.5188 35.7579 49.3488 35.5228C49.0504 35.1102 48.5724 34.8638 48.0701 34.8638H47.2295C46.3603 34.8638 45.653 35.5711 45.653 36.4403C45.653 37.3096 46.3603 38.0168 47.2295 38.0168H47.8264C49.902 38.0167 51.5905 39.7053 51.5905 41.7807Z" fill="#E83C6A"/>
</svg>