<svg width="20" height="21" viewBox="0 0 20 21" fill="none" xmlns="http://www.w3.org/2000/svg">
<path d="M16.9842 18.1822C16.8185 18.1821 16.6596 18.1161 16.5425 17.9989L11.2259 12.6822C11.1096 12.5646 11.0444 12.4059 11.0444 12.2406C11.0444 12.0752 11.1096 11.9165 11.2259 11.7989L17.6675 5.35723C17.8259 5.1989 18.0675 5.14057 18.2842 5.1989C18.5009 5.26557 18.6675 5.44057 18.7175 5.65723C18.8759 6.36557 18.9592 7.15723 18.9592 8.0739V13.0739C18.9592 15.3822 18.4759 16.9406 17.4258 17.9989C17.3092 18.1156 17.1342 18.1406 16.9842 18.1822ZM12.5509 12.2406L16.9342 16.6239C17.4592 15.8156 17.7092 14.6656 17.7092 13.0739V8.0739C17.7092 7.73223 17.7009 7.41557 17.6759 7.11557L12.5509 12.2406Z" fill="white"/>
<path d="M5.22484 19.3079C5.17484 19.3079 5.13317 19.2995 5.08317 19.2912C2.32484 18.6579 1.0415 16.6829 1.0415 13.0745V8.07455C1.0415 3.54954 2.97484 1.61621 7.49984 1.61621H12.4998C16.1082 1.61621 18.0832 2.89954 18.7165 5.65788C18.7665 5.86621 18.6998 6.09121 18.5498 6.24121L5.6665 19.1245C5.54941 19.2418 5.39054 19.3077 5.22484 19.3079ZM7.49984 2.86621C3.65817 2.86621 2.2915 4.23288 2.2915 8.07455V13.0745C2.2915 15.9662 3.0915 17.4162 5.03317 17.9912L17.4082 5.61621C16.8415 3.67454 15.3832 2.87454 12.4915 2.87454H7.49984V2.86621Z" fill="white"/>
<path d="M12.5 19.5336H7.49998C6.58331 19.5336 5.79998 19.4586 5.08331 19.2919C4.97453 19.2687 4.87424 19.2159 4.7934 19.1395C4.71257 19.0631 4.6543 18.9659 4.62498 18.8586C4.55831 18.6419 4.62498 18.4086 4.78331 18.2419L11.225 11.8002C11.4666 11.5586 11.8666 11.5586 12.1083 11.8002L17.425 17.1169C17.542 17.2341 17.6078 17.393 17.6078 17.5586C17.6078 17.7242 17.542 17.8831 17.425 18.0002C16.3666 19.0502 14.8083 19.5336 12.5 19.5336ZM6.54165 18.2502C6.84165 18.2752 7.15831 18.2836 7.49998 18.2836H12.5C14.1 18.2836 15.2416 18.0336 16.05 17.5086L11.6666 13.1252L6.54165 18.2502ZM7.59915 11.6661C7.07415 11.6661 6.54915 11.4744 6.13248 11.0827C4.80748 9.82441 4.27415 8.44108 4.59081 7.09108C4.90748 5.70775 6.11581 4.77441 7.59915 4.77441C9.08248 4.77441 10.2908 5.70775 10.6075 7.09108C10.9158 8.44941 10.3825 9.82441 9.05748 11.0827C8.64915 11.4661 8.12415 11.6661 7.59915 11.6661ZM5.80748 7.36608C5.54081 8.49941 6.30748 9.51608 6.99915 10.1744C7.34081 10.4994 7.86581 10.4994 8.19915 10.1744C8.88248 9.52441 9.64915 8.50775 9.39081 7.36608C9.16581 6.37441 8.28248 6.01608 7.59915 6.01608C6.91581 6.01608 6.04081 6.37441 5.80748 7.36608Z" fill="white"/>
<path d="M7.62337 8.48112C7.16504 8.48112 6.79004 8.10612 6.79004 7.64779C6.79004 7.18945 7.15671 6.81445 7.62337 6.81445H7.63171C8.09004 6.81445 8.46504 7.18945 8.46504 7.64779C8.46504 8.10612 8.08171 8.48112 7.62337 8.48112Z" fill="white"/>
</svg>
