<svg width="73" height="73" viewBox="0 0 73 73" fill="none" xmlns="http://www.w3.org/2000/svg">
<g clip-path="url(#clip0_148_8547)">
<path d="M34.3159 12.2198L32.5937 0.806641H7.32605C3.5213 0.806641 0.5 3.90658 0.5 7.71088V55.4918C0.5 59.2961 3.52119 62.3331 7.32605 62.3331H31.2946L48.5626 36.1879V17.5428L34.3159 12.2198Z" fill="#00ACEA"/>
<path d="M32.5938 0.822388L48.5156 17.5428H37.9169C34.9735 17.5428 32.5938 15.1631 32.5938 12.2197V0.822388Z" fill="#00EFD1"/>
<path d="M31.9834 36.6577H11.5843C10.7235 36.6577 10.0186 37.3625 10.0186 38.2235C10.0186 39.0848 10.7235 39.7888 11.5843 39.7888H31.9834C32.8442 39.7888 33.5492 39.0848 33.5492 38.2235C33.5492 37.3625 32.8604 36.6577 31.9834 36.6577ZM11.5843 31.9613H27.4435C28.3042 31.9613 29.0091 31.2568 29.0091 30.3955C29.0091 29.5346 28.3042 28.8302 27.4433 28.8302H11.5843C10.7235 28.8302 10.0186 29.5346 10.0186 30.3955C10.0186 31.2568 10.7235 31.9613 11.5843 31.9613ZM26.8325 44.6421H11.5843C10.7235 44.6421 10.0186 45.347 10.0186 46.2074C10.0186 47.0688 10.7235 47.7732 11.5843 47.7732H26.8326C27.6939 47.7732 28.3982 47.0688 28.3982 46.2074C28.3982 45.347 27.6939 44.6421 26.8325 44.6421Z" fill="#083863"/>
<path d="M48.5151 33.0731C58.2216 34.4345 65.6889 42.7634 65.6889 52.8453C65.6889 63.8669 56.75 72.8066 45.7285 72.8066C38.1515 72.8066 31.5447 68.5796 28.1785 62.3486C26.6443 59.515 25.7676 56.2744 25.7676 52.83C25.7676 41.8084 34.7069 32.8691 45.7285 32.8691C46.6681 32.8849 47.5913 32.9479 48.5151 33.0731Z" fill="#FEDB41"/>
<path d="M46.8406 41.2917C46.5436 40.9789 46.1362 40.7908 45.6981 40.7908C45.2594 40.7908 44.8525 40.9789 44.5551 41.2917L35.3806 51.1394C34.786 51.7657 34.8331 52.7676 35.4593 53.3464C35.7563 53.6285 36.1483 53.7696 36.524 53.7696C36.9464 53.7696 37.3844 53.5969 37.6979 53.2686L44.1793 46.3327V63.4293C44.1793 64.2901 44.8838 64.995 45.7447 64.995C46.606 64.995 47.3104 64.2901 47.3104 63.4293V46.3326L53.7449 53.2686C54.34 53.8949 55.3106 53.9413 55.9522 53.3464C56.5785 52.7518 56.6097 51.7657 56.0305 51.1394L46.8406 41.2917Z" fill="#083863"/>
</g>
<defs>
<clipPath id="clip0_148_8547">
<rect width="72" height="72" fill="white" transform="translate(0.5 0.806641)"/>
</clipPath>
</defs>
</svg>
