<svg width="20" height="21" viewBox="0 0 20 21" fill="none" xmlns="http://www.w3.org/2000/svg">
<path d="M14.1665 18.2829H5.83317C5.4915 18.2829 5.20817 17.9995 5.20817 17.6579C5.20817 17.3162 5.4915 17.0329 5.83317 17.0329H14.1665C16.5498 17.0329 17.7082 15.8745 17.7082 13.4912V7.65788C17.7082 5.27454 16.5498 4.11621 14.1665 4.11621H5.83317C3.44984 4.11621 2.2915 5.27454 2.2915 7.65788C2.2915 7.99954 2.00817 8.28288 1.6665 8.28288C1.32484 8.28288 1.0415 7.99954 1.0415 7.65788C1.0415 4.61621 2.7915 2.86621 5.83317 2.86621H14.1665C17.2082 2.86621 18.9582 4.61621 18.9582 7.65788V13.4912C18.9582 16.5329 17.2082 18.2829 14.1665 18.2829Z" fill="white"/>
<path d="M9.999 11.2972C9.299 11.2972 8.59067 11.0806 8.049 10.6389L5.44067 8.55558C5.31938 8.45026 5.24343 8.30218 5.22866 8.14223C5.21389 7.98227 5.26144 7.82279 5.36139 7.69704C5.46134 7.5713 5.60598 7.48899 5.76515 7.46729C5.92431 7.44559 6.0857 7.48617 6.21567 7.58058L8.824 9.66391C9.45734 10.1722 10.5323 10.1722 11.1657 9.66391L13.774 7.58058C14.0407 7.36391 14.4407 7.40558 14.649 7.68058C14.8657 7.94724 14.824 8.34724 14.549 8.55558L11.9407 10.6389C11.4073 11.0806 10.699 11.2972 9.999 11.2972ZM6.6665 14.9489H1.6665C1.32484 14.9489 1.0415 14.6656 1.0415 14.3239C1.0415 13.9822 1.32484 13.6989 1.6665 13.6989H6.6665C7.00817 13.6989 7.2915 13.9822 7.2915 14.3239C7.2915 14.6656 7.00817 14.9489 6.6665 14.9489ZM4.1665 11.6156H1.6665C1.32484 11.6156 1.0415 11.3322 1.0415 10.9906C1.0415 10.6489 1.32484 10.3656 1.6665 10.3656H4.1665C4.50817 10.3656 4.7915 10.6489 4.7915 10.9906C4.7915 11.3322 4.50817 11.6156 4.1665 11.6156Z" fill="white"/>
</svg>
