<svg width="253" height="119" viewBox="0 0 253 119" fill="none" xmlns="http://www.w3.org/2000/svg">
<path fill-rule="evenodd" clip-rule="evenodd" d="M44.8817 89.6279C21.9654 71.0144 6.124 45.1063 0 16.2252L76.5188 0C78.931 11.3759 85.1707 21.5808 94.1972 28.9124C103.224 36.244 114.491 40.2591 126.12 40.2878C137.749 40.3166 149.036 36.3572 158.098 29.0703C167.161 21.7833 173.451 11.6094 175.919 0.245555L252.357 16.8486C246.09 45.6991 230.121 71.5286 207.113 90.0287C184.105 108.529 155.45 118.581 125.927 118.508C96.4035 118.435 67.7979 108.241 44.8817 89.6279Z" fill="#F8BF10"/>
<path d="M183.121 105.109C202.924 66.5049 186.134 17.7207 176 0.0001297L252.469 16.6095C241.48 69.1596 201.123 97.525 183.121 105.109Z" fill="#F9D14E"/>
</svg>
