<svg width="253" height="119" viewBox="0 0 253 119" fill="none" xmlns="http://www.w3.org/2000/svg">
<path fill-rule="evenodd" clip-rule="evenodd" d="M44.8817 28.8804C21.9654 47.4939 6.124 73.402 0 102.283L76.5188 118.508C78.931 107.132 85.1707 96.9275 94.1972 89.5959C103.224 82.2643 114.491 78.2492 126.12 78.2205C137.749 78.1917 149.036 82.1511 158.098 89.438C167.161 96.725 173.451 106.899 175.919 118.263L252.357 101.66C246.09 72.8092 230.121 46.9797 207.113 28.4796C184.105 9.97957 155.45 -0.0723747 125.927 0.00056232C96.4035 0.0734917 67.7979 10.2669 44.8817 28.8804Z" fill="#E2403C"/>
<path d="M183.121 13.3989C202.924 52.0034 186.134 100.788 176 118.508L252.469 101.899C241.48 49.3487 201.123 20.9833 183.121 13.3989Z" fill="#EB6F55"/>
</svg>
