<svg width="100" height="87" viewBox="0 0 100 87" fill="none" xmlns="http://www.w3.org/2000/svg">
<path opacity="0.1" d="M100 36.0986C100 63.7128 77.6142 86.0986 50 86.0986C22.3858 86.0986 0 63.7128 0 36.0986C0 8.48434 37.3858 41.0983 65 41.0983C92.6142 41.0983 100 8.48434 100 36.0986Z" fill="#855FCE"/>
<path fill-rule="evenodd" clip-rule="evenodd" d="M61.9761 55.3203L37.8433 55.6298L32.4817 64.8302C32.2462 65.2344 32.5647 65.6776 32.9687 65.6776H67.0309C67.4349 65.6776 67.7534 65.2344 67.5179 64.8302L61.9761 55.3203Z" fill="#003748"/>
<path fill-rule="evenodd" clip-rule="evenodd" d="M61.9763 55.3203L59.1846 55.3562L64.7055 64.8302C64.9411 65.2345 64.6225 65.6776 64.2185 65.6776H67.031C67.435 65.6776 67.7536 65.2344 67.518 64.8302L61.9763 55.3203Z" fill="#00242F"/>
<path fill-rule="evenodd" clip-rule="evenodd" d="M81.1078 6.32129C83.1024 6.32129 84.7345 7.95338 84.7345 9.94801V52.1988C84.7345 54.1934 83.1023 55.8255 81.1078 55.8255H18.8923C16.898 55.8255 15.2656 54.1937 15.2656 52.1988V9.94801C15.2656 7.95324 16.8977 6.32129 18.8923 6.32129H81.1078Z" fill="#E6F8FF"/>
<path fill-rule="evenodd" clip-rule="evenodd" d="M81.1074 6.32129C83.102 6.32129 84.7341 7.95338 84.7341 9.94801V52.1988C84.7341 54.1934 83.1019 55.8255 81.1074 55.8255H76.8887C78.883 55.8255 80.5154 54.1934 80.5154 52.1988V9.94801C80.5154 7.95338 78.8833 6.32129 76.8887 6.32129H81.1074Z" fill="#D0F1FF"/>
<path fill-rule="evenodd" clip-rule="evenodd" d="M84.7344 51.1592H15.2656V53.6051C15.2656 55.5998 16.8977 57.2318 18.8922 57.2318H81.1078C83.1023 57.2318 84.7344 55.6 84.7344 53.6051V51.1592Z" fill="#004960"/>
<path fill-rule="evenodd" clip-rule="evenodd" d="M84.734 51.1592H80.5153V53.6051C80.5153 55.5998 78.8832 57.2318 76.8887 57.2318H81.1074C83.1019 57.2318 84.734 55.6 84.734 53.6051V51.1592Z" fill="#003748"/>
<path fill-rule="evenodd" clip-rule="evenodd" d="M73.6719 21.8477V31.7986C73.6719 32.1498 73.4826 32.4506 73.1657 32.6024L64.139 36.9262C62.0396 37.9318 59.8183 37.9318 57.7191 36.9262L48.6926 32.6024C48.3758 32.4506 48.1865 32.1497 48.1865 31.7986V22.6866L73.6719 21.8477Z" fill="#82A3AD"/>
<path fill-rule="evenodd" clip-rule="evenodd" d="M73.6714 21.8477V31.7987C73.6714 32.15 73.4821 32.4508 73.1653 32.6025L64.1386 36.9263C62.0392 37.9319 59.8179 37.9319 57.7186 36.9263L56.2197 36.2083C58.3191 37.2139 60.5404 37.2139 62.6397 36.2083L71.6664 31.8845C71.9832 31.7327 72.1725 31.4318 72.1725 31.0807V21.8972L73.6714 21.8477Z" fill="#688D97"/>
<path fill-rule="evenodd" clip-rule="evenodd" d="M42.6241 22.2074L60.6254 13.5848C60.7922 13.505 61.1037 13.5234 61.3177 13.6259L79.1471 22.1662C79.3612 22.2687 79.3998 22.4179 79.2331 22.4978L61.2318 31.1205C61.065 31.2004 60.7537 31.1818 60.5396 31.0793L42.7102 22.539C42.496 22.4365 42.4574 22.2873 42.6241 22.2074Z" fill="#B4D2D7"/>
<path fill-rule="evenodd" clip-rule="evenodd" d="M42.6242 22.2075L44.1359 21.4834L60.5395 29.3408C60.7535 29.4433 61.065 29.4619 61.2317 29.382L77.7213 21.4834L79.147 22.1663C79.361 22.2688 79.3997 22.418 79.2329 22.4979L61.2317 31.1206C61.065 31.2004 60.7535 31.1819 60.5395 31.0794L42.7101 22.5391C42.496 22.4366 42.4574 22.2874 42.6242 22.2075Z" fill="#9BB9C3"/>
<path fill-rule="evenodd" clip-rule="evenodd" d="M60.8818 23.2403C60.6466 23.228 60.4258 23.1227 60.2682 22.9476C60.1105 22.7725 60.0289 22.5419 60.0413 22.3067C60.0536 22.0714 60.1589 21.8506 60.334 21.693C60.5091 21.5353 60.7397 21.4537 60.9749 21.4661L77.7927 22.3235C78.027 22.3358 78.2469 22.4403 78.4045 22.6142C78.562 22.788 78.6443 23.0172 78.6335 23.2516V35.8222C78.6337 35.9387 78.611 36.0542 78.5667 36.1619C78.5223 36.2697 78.4571 36.3676 78.3749 36.4502C78.2927 36.5327 78.195 36.5983 78.0874 36.6431C77.9799 36.6879 77.8645 36.7111 77.748 36.7114C77.6315 36.7116 77.516 36.6889 77.4083 36.6445C77.3005 36.6001 77.2026 36.535 77.12 36.4528C77.0374 36.3705 76.9719 36.2728 76.9271 36.1653C76.8822 36.0577 76.8591 35.9424 76.8588 35.8258V24.055L60.8818 23.2403Z" fill="#82A3AD"/>
<path fill-rule="evenodd" clip-rule="evenodd" d="M78.0427 31.7941L80.1021 33.7056C80.1939 33.791 80.241 33.8988 80.241 34.0241V38.03C80.2408 38.1452 80.1949 38.2556 80.1135 38.3371C80.032 38.4185 79.9216 38.4644 79.8064 38.4646H75.6876C75.5724 38.4645 75.4619 38.4186 75.3804 38.3371C75.299 38.2556 75.2531 38.1452 75.2529 38.03V34.0241C75.2529 33.8988 75.3 33.791 75.3919 33.7056L77.4513 31.7941C77.5316 31.7193 77.6373 31.6777 77.747 31.6777C77.8567 31.6777 77.9624 31.7193 78.0427 31.7941Z" fill="#FFDA2D"/>
<path fill-rule="evenodd" clip-rule="evenodd" d="M78.0419 31.794L80.1014 33.7056C80.1932 33.7909 80.2403 33.8988 80.2403 34.0241V38.0299C80.2401 38.1451 80.1942 38.2556 80.1128 38.337C80.0313 38.4185 79.9209 38.4644 79.8056 38.4646H78.9363C79.0515 38.4644 79.1619 38.4185 79.2434 38.337C79.3249 38.2556 79.3708 38.1451 79.371 38.0299V34.0241C79.371 33.8988 79.3239 33.7909 79.232 33.7056L77.3115 31.923L77.4505 31.794C77.5308 31.7193 77.6365 31.6777 77.7462 31.6777C77.8559 31.6777 77.9616 31.7193 78.0419 31.794Z" fill="#FFC700"/>
<path fill-rule="evenodd" clip-rule="evenodd" d="M38.7687 15.0762C39.0671 15.0762 39.3533 15.1947 39.5642 15.4057C39.7752 15.6167 39.8937 15.9028 39.8937 16.2012C39.8937 16.4995 39.7752 16.7857 39.5642 16.9967C39.3533 17.2076 39.0671 17.3262 38.7687 17.3262H21.6064C21.3081 17.3262 21.0219 17.2076 20.811 16.9967C20.6 16.7857 20.4814 16.4995 20.4814 16.2012C20.4814 15.9028 20.6 15.6167 20.811 15.4057C21.0219 15.1947 21.3081 15.0762 21.6064 15.0762H38.7687ZM38.7687 30.4411C39.0671 30.4411 39.3533 30.5597 39.5642 30.7706C39.7752 30.9816 39.8937 31.2678 39.8937 31.5661C39.8937 31.8645 39.7752 32.1507 39.5642 32.3616C39.3533 32.5726 39.0671 32.6911 38.7687 32.6911H21.6064C21.3081 32.6911 21.0219 32.5726 20.811 32.3616C20.6 32.1507 20.4814 31.8645 20.4814 31.5661C20.4814 31.2678 20.6 30.9816 20.811 30.7706C21.0219 30.5597 21.3081 30.4411 21.6064 30.4411H38.7687ZM38.7687 25.3196C39.0671 25.3196 39.3533 25.4381 39.5642 25.6491C39.7752 25.8601 39.8937 26.1462 39.8937 26.4446C39.8937 26.7429 39.7752 27.0291 39.5642 27.2401C39.3533 27.4511 39.0671 27.5696 38.7687 27.5696H21.6064C21.3081 27.5696 21.0219 27.4511 20.811 27.2401C20.6 27.0291 20.4814 26.7429 20.4814 26.4446C20.4814 26.1462 20.6 25.8601 20.811 25.6491C21.0219 25.4381 21.3081 25.3196 21.6064 25.3196H38.7687ZM38.7687 20.1979C39.0671 20.1979 39.3533 20.3164 39.5642 20.5274C39.7752 20.7384 39.8937 21.0245 39.8937 21.3229C39.8937 21.6212 39.7752 21.9074 39.5642 22.1184C39.3533 22.3293 39.0671 22.4479 38.7687 22.4479H21.6064C21.3081 22.4479 21.0219 22.3293 20.811 22.1184C20.6 21.9074 20.4814 21.6212 20.4814 21.3229C20.4814 21.0245 20.6 20.7384 20.811 20.5274C21.0219 20.3164 21.3081 20.1979 21.6064 20.1979H38.7687Z" fill="#D0F1FF"/>
<path fill-rule="evenodd" clip-rule="evenodd" d="M40.175 13.6699C40.4734 13.6699 40.7595 13.7884 40.9705 13.9994C41.1815 14.2104 41.3 14.4966 41.3 14.7949C41.3 15.0933 41.1815 15.3794 40.9705 15.5904C40.7595 15.8014 40.4734 15.9199 40.175 15.9199H23.0127C22.7143 15.9199 22.4282 15.8014 22.2172 15.5904C22.0062 15.3794 21.8877 15.0933 21.8877 14.7949C21.8877 14.4966 22.0062 14.2104 22.2172 13.9994C22.4282 13.7884 22.7143 13.6699 23.0127 13.6699H40.175ZM40.175 29.0349C40.4734 29.0349 40.7595 29.1534 40.9705 29.3644C41.1815 29.5754 41.3 29.8615 41.3 30.1599C41.3 30.4583 41.1815 30.7444 40.9705 30.9554C40.7595 31.1664 40.4734 31.2849 40.175 31.2849H23.0127C22.7143 31.2849 22.4282 31.1664 22.2172 30.9554C22.0062 30.7444 21.8877 30.4583 21.8877 30.1599C21.8877 29.8615 22.0062 29.5754 22.2172 29.3644C22.4282 29.1534 22.7143 29.0349 23.0127 29.0349H40.175ZM40.175 23.9133C40.4734 23.9133 40.7595 24.0319 40.9705 24.2428C41.1815 24.4538 41.3 24.74 41.3 25.0383C41.3 25.3367 41.1815 25.6228 40.9705 25.8338C40.7595 26.0448 40.4734 26.1633 40.175 26.1633H23.0127C22.7143 26.1633 22.4282 26.0448 22.2172 25.8338C22.0062 25.6228 21.8877 25.3367 21.8877 25.0383C21.8877 24.74 22.0062 24.4538 22.2172 24.2428C22.4282 24.0319 22.7143 23.9133 23.0127 23.9133H40.175ZM40.175 18.7916C40.4734 18.7916 40.7595 18.9102 40.9705 19.1211C41.1815 19.3321 41.3 19.6183 41.3 19.9166C41.3 20.215 41.1815 20.5011 40.9705 20.7121C40.7595 20.9231 40.4734 21.0416 40.175 21.0416H23.0127C22.7143 21.0416 22.4282 20.9231 22.2172 20.7121C22.0062 20.5011 21.8877 20.215 21.8877 19.9166C21.8877 19.6183 22.0062 19.3321 22.2172 19.1211C22.4282 18.9102 22.7143 18.7916 23.0127 18.7916H40.175Z" fill="#8D9CA8"/>
<path fill-rule="evenodd" clip-rule="evenodd" d="M34.8265 36.3564H42.393C42.7023 36.3564 42.9555 36.6096 42.9555 36.9189V40.9973C42.9555 41.3067 42.7023 41.5598 42.393 41.5598H34.8265C34.5171 41.5598 34.264 41.3067 34.264 40.9973V36.9189C34.264 36.6096 34.517 36.3564 34.8265 36.3564ZM20.7949 36.3564H28.3614C28.6708 36.3564 28.9239 36.6096 28.9239 36.9189V40.9973C28.9239 41.3067 28.6708 41.5598 28.3614 41.5598H20.7949C20.4855 41.5598 20.2324 41.3067 20.2324 40.9973V36.9189C20.2326 36.6096 20.4855 36.3564 20.7949 36.3564Z" fill="#64B5F6"/>
<path fill-rule="evenodd" clip-rule="evenodd" d="M34.8263 36.3564H42.3928C42.7022 36.3564 42.9553 36.6096 42.9553 36.9189V37.7627H36.2326C35.9232 37.7627 35.6701 38.0158 35.6701 38.3252V41.5598H34.8263C34.517 41.5598 34.2638 41.3067 34.2638 40.9973V36.9189C34.2638 36.6096 34.5168 36.3564 34.8263 36.3564ZM20.7948 36.3564H28.3612C28.6706 36.3564 28.9237 36.6096 28.9237 36.9189V37.7627H22.2012C21.8918 37.7627 21.6387 38.0158 21.6387 38.3252V41.5598H20.7949C20.4855 41.5598 20.2324 41.3067 20.2324 40.9973V36.9189C20.2324 36.6096 20.4854 36.3564 20.7948 36.3564Z" fill="#42A5F5"/>
<path fill-rule="evenodd" clip-rule="evenodd" d="M45.9584 41.2621L47.0911 40.1292C47.3418 39.8788 47.2064 39.4366 46.8387 39.3895L41.5806 38.7155C41.5146 38.707 41.4475 38.7137 41.3845 38.7352C41.3215 38.7566 41.2643 38.7923 41.2172 38.8393C41.1702 38.8864 41.1346 38.9436 41.1131 39.0066C41.0916 39.0696 41.0849 39.1366 41.0934 39.2026L41.7674 44.4607C41.8146 44.8285 42.2568 44.9638 42.5073 44.713L43.64 43.5803L47.7264 47.6667C47.8336 47.7734 47.9786 47.8334 48.1298 47.8334C48.281 47.8334 48.4261 47.7734 48.5332 47.6667L50.0446 46.1553C50.1514 46.0482 50.2113 45.9031 50.2113 45.7519C50.2113 45.6007 50.1514 45.4556 50.0446 45.3485L45.9584 41.2621Z" fill="#8D9CA8"/>
<path fill-rule="evenodd" clip-rule="evenodd" d="M41.9221 38.7592L41.5806 38.7155C41.5146 38.707 41.4475 38.7137 41.3845 38.7352C41.3215 38.7566 41.2643 38.7923 41.2172 38.8393C41.1702 38.8864 41.1346 38.9436 41.1131 39.0066C41.0916 39.0696 41.0849 39.1366 41.0934 39.2026L41.7674 44.4607C41.8146 44.8285 42.2568 44.9638 42.5073 44.713L43.2922 43.9281C43.0418 44.1788 42.5995 44.0435 42.5524 43.6758L41.9221 38.7592ZM43.6402 43.5803L47.7266 47.6667C47.8337 47.7734 47.9787 47.8334 48.13 47.8334C48.2812 47.8334 48.4262 47.7734 48.5333 47.6667L50.0448 46.1553L50.0462 46.1537L49.3182 46.8817C49.2111 46.9885 49.066 47.0484 48.9148 47.0484C48.7636 47.0484 48.6185 46.9885 48.5114 46.8817L44.425 42.7953L43.6402 43.5803Z" fill="#7A8C98"/>
</svg>