<svg width="100" height="87" viewBox="0 0 100 87" fill="none" xmlns="http://www.w3.org/2000/svg">
<path opacity="0.1" d="M100 36.0986C100 63.7128 77.6142 86.0986 50 86.0986C22.3858 86.0986 0 63.7128 0 36.0986C0 8.48434 37.3858 41.0983 65 41.0983C92.6142 41.0983 100 8.48434 100 36.0986Z" fill="#855FCE"/>
<path d="M45.0752 53.3339L42.6969 51.364L39.6077 51.0782C35.9211 50.7587 32.9927 47.8247 32.6698 44.1055L32.3818 41.0421L30.3984 38.6537C29.2464 37.2744 28.6168 35.5336 28.6201 33.7365C28.6234 31.9393 29.2594 30.2008 30.4164 28.8257L32.3874 26.4475L32.6732 23.3571C32.9938 19.6682 35.9289 16.7398 39.6493 16.4203L42.7082 16.1323L45.0966 14.1478C47.9001 11.8011 52.0603 11.7662 54.9246 14.1658L57.3051 16.1368L60.3954 16.4248C64.0821 16.7432 67.0104 19.6772 67.3322 23.3987L67.6191 26.4598L69.6036 28.8482C70.7554 30.2276 71.3848 31.9685 71.3815 33.7655C71.3783 35.5625 70.7424 37.3011 69.5856 38.6762L67.6157 41.0545L67.3288 44.1448C67.0116 47.8292 64.0787 50.7598 60.3572 51.0816L57.2927 51.3685L54.9054 53.3518C52.1076 55.6975 47.9451 55.7402 45.0752 53.3339Z" fill="#00A0C8"/>
<path d="M47.9657 49.8861L44.4973 47.0128L40.0221 46.5977C39.2814 46.5325 38.5876 46.208 38.0628 45.6814C37.538 45.1547 37.2159 44.4597 37.1533 43.7188L36.7337 39.238L33.8616 35.7797C33.3848 35.2098 33.124 34.49 33.125 33.7469C33.126 33.0038 33.3888 32.2849 33.8672 31.7162L36.7404 28.249L37.1556 23.7737C37.2206 23.0328 37.5452 22.3387 38.0721 21.8138C38.599 21.289 39.2944 20.9671 40.0356 20.905L44.5164 20.4842L47.9747 17.6121C48.5453 17.1367 49.2648 16.8769 50.0075 16.8779C50.7501 16.879 51.4689 17.1408 52.0382 17.6177L55.5066 20.491L59.9818 20.9061C60.7226 20.9709 61.4167 21.2952 61.9416 21.822C62.4665 22.3487 62.7884 23.044 62.8506 23.785L63.2713 28.2658L66.1434 31.7241C66.6198 32.2943 66.8803 33.0139 66.8793 33.7569C66.8783 34.4999 66.6158 35.2188 66.1378 35.7876L63.2646 39.256L62.8494 43.7312C62.7845 44.4719 62.46 45.1659 61.9333 45.6908C61.4066 46.2156 60.7115 46.5376 59.9706 46.6L55.4886 47.0196L52.0314 49.8917C51.4606 50.3677 50.7407 50.6279 49.9975 50.6268C49.2544 50.6258 48.5352 50.3636 47.9657 49.8861Z" fill="#0A5078"/>
<path d="M66.8305 34.3141C66.7293 33.7853 66.5043 33.2791 66.1443 32.8516L63.2643 29.3866L62.848 24.9091C62.7866 24.1677 62.4649 23.4719 61.9399 22.9449C61.4149 22.4178 60.7204 22.0934 59.9793 22.0291L55.5018 21.6128L52.0368 18.7441C51.469 18.2655 50.7508 18.0021 50.0082 18C49.2656 17.998 48.546 18.2574 47.9755 18.7328L44.5105 21.6128L40.033 22.0291C39.2923 22.0923 38.5975 22.4145 38.0708 22.9392C37.5441 23.4638 37.2191 24.1573 37.153 24.8978L36.7368 29.3753L33.868 32.8403C33.4968 33.2791 33.2718 33.7853 33.1705 34.3141C33.013 33.4141 33.238 32.4578 33.868 31.7153L36.7368 28.2503L37.153 23.7728C37.2191 23.0323 37.5441 22.3388 38.0708 21.8142C38.5975 21.2895 39.2923 20.9673 40.033 20.9041L44.5105 20.4878L47.9755 17.6078C48.546 17.1324 49.2656 16.873 50.0082 16.875C50.7508 16.8771 51.469 17.1405 52.0368 17.6191L55.5018 20.4878L59.9793 20.9041C61.5093 21.0391 62.713 22.2428 62.848 23.7841L63.2643 28.2616L66.1443 31.7266C66.763 32.4578 66.988 33.4141 66.8305 34.3141Z" fill="#00325A"/>
<path d="M53.375 41.626C53.6734 41.626 53.9595 41.5075 54.1705 41.2965C54.3815 41.0855 54.5 40.7993 54.5 40.501C54.5 40.2026 54.3815 39.9165 54.1705 39.7055C53.9595 39.4945 53.6734 39.376 53.375 39.376H51.125V33.6149C53.375 33.1007 55.0625 31.0926 55.0625 28.6885C55.0625 25.8974 52.7911 23.626 50 23.626C47.2089 23.626 44.9375 25.8974 44.9375 28.6885C44.9375 31.0926 46.625 33.1007 48.875 33.6149V46.126C48.875 46.4243 48.9935 46.7105 49.2045 46.9215C49.4155 47.1325 49.7016 47.251 50 47.251C50.2984 47.251 50.5845 47.1325 50.7955 46.9215C51.0065 46.7105 51.125 46.4243 51.125 46.126V45.5635H53.375C53.6734 45.5635 53.9595 45.445 54.1705 45.234C54.3815 45.023 54.5 44.7368 54.5 44.4385C54.5 44.1401 54.3815 43.854 54.1705 43.643C53.9595 43.432 53.6734 43.3135 53.375 43.3135H51.125V41.626H53.375ZM47.1875 28.6885C47.1875 27.1371 48.4497 25.876 50 25.876C51.5503 25.876 52.8125 27.1371 52.8125 28.6885C52.8125 30.2399 51.5503 31.501 50 31.501C48.4497 31.501 47.1875 30.2399 47.1875 28.6885Z" fill="#00325A"/>
<path d="M53.375 40.501C53.6734 40.501 53.9595 40.3825 54.1705 40.1715C54.3815 39.9605 54.5 39.6743 54.5 39.376C54.5 39.0776 54.3815 38.7915 54.1705 38.5805C53.9595 38.3695 53.6734 38.251 53.375 38.251H51.125V32.4899C53.375 31.9757 55.0625 29.9676 55.0625 27.5635C55.0625 24.7724 52.7911 22.501 50 22.501C47.2089 22.501 44.9375 24.7724 44.9375 27.5635C44.9375 29.9676 46.625 31.9757 48.875 32.4899V45.001C48.875 45.2993 48.9935 45.5855 49.2045 45.7965C49.4155 46.0075 49.7016 46.126 50 46.126C50.2984 46.126 50.5845 46.0075 50.7955 45.7965C51.0065 45.5855 51.125 45.2993 51.125 45.001V44.4385H53.375C53.6734 44.4385 53.9595 44.32 54.1705 44.109C54.3815 43.898 54.5 43.6118 54.5 43.3135C54.5 43.0151 54.3815 42.729 54.1705 42.518C53.9595 42.307 53.6734 42.1885 53.375 42.1885H51.125V40.501H53.375ZM47.1875 27.5635C47.1875 26.0121 48.4497 24.751 50 24.751C51.5503 24.751 52.8125 26.0121 52.8125 27.5635C52.8125 29.1149 51.5503 30.376 50 30.376C48.4497 30.376 47.1875 29.1149 47.1875 27.5635Z" fill="#FAB400"/>
<path d="M57.875 60.75H69.125V67.5H57.875V60.75Z" fill="#C80A50"/>
<path d="M57.875 60.75H69.125V63H57.875V60.75Z" fill="#A00028"/>
<path d="M65.3563 51.7501L72.1715 44.9348C72.3807 44.7256 72.4988 44.4421 72.5 44.1462L72.5112 37.1138C72.5 35.8651 73.5125 34.8638 74.7612 34.8751C76.01 34.8638 77.0112 35.8651 77 37.1138V45.5401C77.0112 46.1363 76.7637 46.7101 76.3475 47.1263L68.6592 54.8146C68.4501 55.0233 68.2842 55.2713 68.1711 55.5443C68.058 55.8172 67.9998 56.1099 68 56.4053V61.8751H59V51.7501H65.3563Z" fill="#F0C8A0"/>
<path d="M66.1445 50.9623L67.1233 51.9343C67.2291 52.0395 67.3547 52.1226 67.493 52.1788C67.6312 52.235 67.7792 52.2631 67.9284 52.2615C68.0776 52.2599 68.225 52.2287 68.362 52.1696C68.499 52.1106 68.6229 52.0248 68.7264 51.9174L71.837 48.6898C72.7595 47.7673 72.7258 46.2486 71.7133 45.3936L66.1445 50.9623Z" fill="#D2AA82"/>
<path d="M60.1925 49.3309L60.6088 48.9034C61.5763 47.9359 62.96 47.5309 64.2762 47.7896C64.625 47.8571 64.985 47.7221 65.2325 47.4746L67.8088 44.6059C68.6075 43.8071 69.8787 43.6159 70.79 44.2684C71.9487 45.1009 72.05 46.7321 71.0825 47.6996L65.75 52.8746H59V51.7496C59.1013 50.8496 59.5288 49.9946 60.1925 49.3309Z" fill="#F0C8A0"/>
<path d="M57.875 57.375H69.125C69.4234 57.375 69.7095 57.4935 69.9205 57.7045C70.1315 57.9155 70.25 58.2016 70.25 58.5V60.75C70.25 61.0484 70.1315 61.3345 69.9205 61.5455C69.7095 61.7565 69.4234 61.875 69.125 61.875H57.875C57.5766 61.875 57.2905 61.7565 57.0795 61.5455C56.8685 61.3345 56.75 61.0484 56.75 60.75V58.5C56.75 58.2016 56.8685 57.9155 57.0795 57.7045C57.2905 57.4935 57.5766 57.375 57.875 57.375Z" fill="#0A5078"/>
<path d="M68 60.75C68.6213 60.75 69.125 60.2463 69.125 59.625C69.125 59.0037 68.6213 58.5 68 58.5C67.3787 58.5 66.875 59.0037 66.875 59.625C66.875 60.2463 67.3787 60.75 68 60.75Z" fill="#F0F0F0"/>
<path d="M30.875 60.75H42.125V67.5H30.875V60.75Z" fill="#C80A50"/>
<path d="M30.875 60.75H42.125V63H30.875V60.75Z" fill="#A00028"/>
<path d="M34.6441 51.7501L27.8289 44.9348C27.6196 44.7256 27.5015 44.4421 27.5004 44.1462L27.4891 37.1138C27.5004 35.8651 26.4879 34.8638 25.2391 34.8751C23.9904 34.8638 22.9891 35.8651 23.0004 37.1138V45.5401C22.9891 46.1363 23.2366 46.7101 23.6529 47.1263L31.3411 54.8146C31.7641 55.2365 32.0004 55.8091 32.0004 56.4053V61.8751H41.0004V51.7501H34.6441Z" fill="#F0C8A0"/>
<path d="M33.8565 50.9623L32.8777 51.9343C32.7719 52.0395 32.6463 52.1226 32.508 52.1788C32.3698 52.235 32.2218 52.2631 32.0726 52.2615C31.9234 52.2599 31.7761 52.2287 31.639 52.1696C31.502 52.1106 31.3782 52.0248 31.2746 51.9174L28.164 48.6898C27.2415 47.7673 27.2752 46.2486 28.2877 45.3936L33.8565 50.9623Z" fill="#D2AA82"/>
<path d="M39.8083 49.3309L39.3921 48.9034C38.9187 48.4316 38.3367 48.0833 37.6972 47.8891C37.0577 47.6949 36.3803 47.6607 35.7246 47.7896C35.5516 47.8184 35.3742 47.8048 35.2076 47.7499C35.041 47.6951 34.8903 47.6006 34.7683 47.4746L32.1921 44.6059C31.3933 43.8071 30.1221 43.6159 29.2108 44.2684C28.9435 44.4581 28.7208 44.7038 28.5581 44.9884C28.3954 45.2729 28.2967 45.5895 28.2689 45.9162C28.2411 46.2428 28.2847 46.5715 28.3969 46.8795C28.509 47.1875 28.687 47.4674 28.9183 47.6996L34.2508 52.8746H41.0008V51.7496C40.8878 50.8318 40.4675 49.9793 39.8083 49.3309Z" fill="#F0C8A0"/>
<path d="M42.125 57.375H30.875C30.5766 57.375 30.2905 57.4935 30.0795 57.7045C29.8685 57.9155 29.75 58.2016 29.75 58.5V60.75C29.75 61.0484 29.8685 61.3345 30.0795 61.5455C30.2905 61.7565 30.5766 61.875 30.875 61.875H42.125C42.4234 61.875 42.7095 61.7565 42.9205 61.5455C43.1315 61.3345 43.25 61.0484 43.25 60.75V58.5C43.25 58.2016 43.1315 57.9155 42.9205 57.7045C42.7095 57.4935 42.4234 57.375 42.125 57.375Z" fill="#0A5078"/>
<path d="M32 60.75C32.6213 60.75 33.125 60.2463 33.125 59.625C33.125 59.0037 32.6213 58.5 32 58.5C31.3787 58.5 30.875 59.0037 30.875 59.625C30.875 60.2463 31.3787 60.75 32 60.75Z" fill="#F0F0F0"/>
<path d="M51.125 5.625V7.875C51.125 8.17337 51.0065 8.45952 50.7955 8.6705C50.5845 8.88147 50.2984 9 50 9C49.7016 9 49.4155 8.88147 49.2045 8.6705C48.9935 8.45952 48.875 8.17337 48.875 7.875V5.625C48.875 5.32663 48.9935 5.04048 49.2045 4.82951C49.4155 4.61853 49.7016 4.5 50 4.5C50.2984 4.5 50.5845 4.61853 50.7955 4.82951C51.0065 5.04048 51.125 5.32663 51.125 5.625Z" fill="#0A5078"/>
<path d="M57.5461 8.6702L55.9554 10.261C55.8509 10.3654 55.7269 10.4483 55.5904 10.5048C55.454 10.5613 55.3077 10.5904 55.16 10.5904C55.0123 10.5904 54.866 10.5613 54.7295 10.5048C54.5931 10.4483 54.4691 10.3654 54.3646 10.261C54.2602 10.1565 54.1773 10.0325 54.1208 9.89603C54.0642 9.75956 54.0352 9.61329 54.0352 9.46558C54.0352 9.31786 54.0642 9.1716 54.1208 9.03513C54.1773 8.89865 54.2602 8.77465 54.3646 8.6702L55.9554 7.07946C56.0598 6.97501 56.1838 6.89215 56.3203 6.83562C56.4568 6.77909 56.603 6.75 56.7507 6.75C56.8985 6.75 57.0447 6.77909 57.1812 6.83562C57.3177 6.89215 57.4417 6.975 57.5461 7.07945C57.6506 7.1839 57.7334 7.30791 57.7899 7.44438C57.8465 7.58085 57.8756 7.72712 57.8756 7.87483C57.8756 8.02254 57.8465 8.16881 57.7899 8.30528C57.7334 8.44175 57.6506 8.56575 57.5461 8.6702Z" fill="#C80A50"/>
<path d="M45.6369 10.261C45.5325 10.3655 45.4086 10.4485 45.2721 10.5051C45.1356 10.5617 44.9893 10.5908 44.8416 10.5908C44.6938 10.5908 44.5475 10.5617 44.411 10.5051C44.2745 10.4485 44.1506 10.3655 44.0462 10.261L42.4554 8.6702C42.2445 8.45926 42.126 8.17315 42.126 7.87483C42.126 7.57651 42.2445 7.2904 42.4554 7.07946C42.6664 6.86851 42.9525 6.75 43.2508 6.75C43.5491 6.75 43.8352 6.86851 44.0462 7.07946L45.6369 8.6702C45.7415 8.77459 45.8245 8.89857 45.881 9.03505C45.9376 9.17153 45.9668 9.31783 45.9668 9.46558C45.9668 9.61333 45.9376 9.75963 45.881 9.89611C45.8245 10.0326 45.7415 10.1566 45.6369 10.261Z" fill="#FAB400"/>
</svg>