<svg width="225" height="266" viewBox="0 0 225 266" fill="none" xmlns="http://www.w3.org/2000/svg">
<g opacity="0.4" clip-path="url(#clip0_63_213)">
<g opacity="0.4">
<path d="M143.045 55.2683C143.045 55.2683 120.042 174.473 41.6693 221.192L73.2941 229.239C73.2941 229.239 78.4613 203.524 107.973 211.02C137.484 218.515 128.351 244.297 128.351 244.297L158.184 251.867C158.184 251.867 111.715 189.268 151.154 57.3265L143.045 55.2683Z" stroke="white" stroke-width="1.08791" stroke-linecap="round" stroke-linejoin="round"/>
<path d="M140.96 151.123L139.968 155.029L104.247 145.955L105.239 142.049L140.96 151.123Z" stroke="white" stroke-width="1.08791" stroke-linecap="round" stroke-linejoin="round"/>
<path d="M144.807 192.469L142.417 201.879L79.5343 185.905L81.9247 176.495L144.807 192.469Z" stroke="white" stroke-width="1.08791" stroke-linecap="round" stroke-linejoin="round"/>
<path d="M124.618 161.815L124.518 187.296L102.16 181.612L114.565 159.265L124.618 161.815Z" stroke="white" stroke-width="1.08791" stroke-linecap="round" stroke-linejoin="round"/>
<path d="M151.896 57.5146L155.113 58.3337L157.691 48.1724L141.862 44.1556L139.282 54.3052L151.896 57.5146Z" stroke="white" stroke-width="1.08791" stroke-linecap="round" stroke-linejoin="round"/>
<path d="M154.396 26.3784L154.269 47.3089L145.068 44.9711L154.396 26.3784Z" stroke="white" stroke-width="1.08791" stroke-linecap="round" stroke-linejoin="round"/>
<path d="M103.375 156.421L124.617 161.816L135.399 164.556L124.583 169.988L136.103 177.488L124.516 187.297L137.553 190.604L124.557 176.175L135.647 170.708L124.617 161.816" stroke="white" stroke-width="1.08791" stroke-linecap="round" stroke-linejoin="round"/>
<path d="M114.236 159.173L100.294 161.719L107.433 171.819L89.1163 178.299L102.16 181.611L96.6521 167.464L110.359 166.371L103.448 156.439L114.236 159.173ZM114.236 159.173L135.472 164.574L108.773 147.091" stroke="white" stroke-width="1.08791" stroke-linecap="round" stroke-linejoin="round"/>
<path d="M123.061 117.647L137.513 121.319L125.93 110.686L139.195 109.28L130.204 99.4462" stroke="white" stroke-width="1.08791" stroke-linecap="round" stroke-linejoin="round"/>
<path d="M140.419 102.038L130.204 99.4453L141.35 95.9428L133.743 89.2252L143.634 86.0639" stroke="white" stroke-width="1.08791" stroke-linecap="round" stroke-linejoin="round"/>
<path d="M140.809 208.285L76.9577 192.057" stroke="white" stroke-width="1.08791" stroke-linecap="round" stroke-linejoin="round"/>
<path d="M137.512 121.318L120.087 124.436L136.052 136.309L116.641 131.372L135.059 145.804L111.788 143.705" stroke="white" stroke-width="1.08791" stroke-linecap="round" stroke-linejoin="round"/>
<path d="M135.425 83.9684L143.636 86.0614L137.323 78.5186L145.748 77.1153L139.34 70.6062" stroke="white" stroke-width="1.08791" stroke-linecap="round" stroke-linejoin="round"/>
<path d="M143.39 218.182L69.7475 199.47" stroke="white" stroke-width="1.08791" stroke-linecap="round" stroke-linejoin="round"/>
<path d="M158.198 251.875L126.268 222.747L146.499 227.757L128.393 244.297" stroke="white" stroke-width="1.08791" stroke-linecap="round" stroke-linejoin="round"/>
<path d="M41.6758 221.197L85.7878 212.461L62.2288 206.345L73.3295 229.237" stroke="white" stroke-width="1.08791" stroke-linecap="round" stroke-linejoin="round"/>
<path d="M151.166 57.326L142.056 59.9167L148.643 66.3737L139.34 70.6091L146.912 72.5357" stroke="white" stroke-width="1.08791" stroke-linecap="round" stroke-linejoin="round"/>
<path d="M137.554 121.334L123.103 117.662L138.358 113.843L127.902 106.642L139.966 101.926" stroke="white" stroke-width="1.08791" stroke-linecap="round" stroke-linejoin="round"/>
<path d="M130.203 99.4458L139.965 101.926L132.175 93.8623L142.361 91.0941L135.422 83.9714" stroke="white" stroke-width="1.08791" stroke-linecap="round" stroke-linejoin="round"/>
<path d="M123.102 117.661L136.511 128.382L117.232 131.519L136.052 136.31L112.734 139.983L135.016 149.607" stroke="white" stroke-width="1.08791" stroke-linecap="round" stroke-linejoin="round"/>
<path d="M142.769 85.8396L135.424 83.9696L144.886 80.5056L138.044 75.2508L146.911 72.534" stroke="white" stroke-width="1.08791" stroke-linecap="round" stroke-linejoin="round"/>
<path d="M143.039 55.2635L149.315 62.3975L140.895 64.47L146.911 72.5362L139.339 70.6096" stroke="white" stroke-width="1.08791" stroke-linecap="round" stroke-linejoin="round"/>
<path d="M135.307 153.835L103.448 156.439" stroke="white" stroke-width="1.08791" stroke-linecap="round" stroke-linejoin="round"/>
<path d="M139.928 51.7867L155.759 55.8082L155.11 58.3637L139.278 54.3422L139.928 51.7867Z" stroke="white" stroke-width="1.08791" stroke-linecap="round" stroke-linejoin="round"/>
<path d="M141.865 44.1905L157.696 48.212L157.047 50.7675L141.216 46.746L141.865 44.1905Z" stroke="white" stroke-width="1.08791" stroke-linecap="round" stroke-linejoin="round"/>
</g>
</g>
<defs>
<clipPath id="clip0_63_213">
<rect width="171.091" height="228.264" fill="white" transform="matrix(-0.965926 -0.258819 -0.258819 0.965926 224.767 45.1)"/>
</clipPath>
</defs>
</svg>
