<svg width="24" height="24" viewBox="0 0 24 24" fill="none" xmlns="http://www.w3.org/2000/svg">
<g clip-path="url(#clip0_146_7883)">
<circle cx="12" cy="12" r="12" fill="#D9D9D9"/>
<g clip-path="url(#clip1_146_7883)">
<mask id="mask0_146_7883" style="mask-type:luminance" maskUnits="userSpaceOnUse" x="-7" y="-1" width="38" height="26">
<path d="M30.0464 -0.398926H-6.04492V24.865H30.0464V-0.398926Z" fill="white"/>
</mask>
<g mask="url(#mask0_146_7883)">
<path fill-rule="evenodd" clip-rule="evenodd" d="M-6.04492 -0.398926H45.3852V1.54522H-6.04492V-0.398926ZM-6.04492 3.48937H45.3852V5.43352H-6.04492V3.48937ZM-6.04492 7.37271H45.3852V9.32173H-6.04492V7.37271ZM-6.04492 11.2609H45.3852V13.2052H-6.04492V11.2609ZM-6.04492 15.1492H45.3852V17.0934H-6.04492V15.1492ZM-6.04492 19.0325H45.3852V20.9767H-6.04492V19.0325ZM-6.04492 22.9208H45.3852V24.865H-6.04492V22.9208Z" fill="#BD3D44"/>
<path fill-rule="evenodd" clip-rule="evenodd" d="M-6.04492 1.54529H45.3852V3.48944H-6.04492V1.54529ZM-6.04492 5.4335H45.3852V7.37277H-6.04492V5.4335ZM-6.04492 9.31692H45.3852V11.261H-6.04492V9.31692ZM-6.04492 13.2052H45.3852V15.1493H-6.04492V13.2052ZM-6.04492 17.0934H45.3852V19.0376H-6.04492V17.0934ZM-6.04492 20.9768H45.3852V22.9209H-6.04492V20.9768Z" fill="white"/>
<path fill-rule="evenodd" clip-rule="evenodd" d="M-6.04492 -0.398926H14.526V13.2052H-6.04492V-0.398926Z" fill="#192F5D"/>
<path fill-rule="evenodd" clip-rule="evenodd" d="M-4.332 0.183289L-4.14168 0.721049H-3.53896L-4.0254 1.05174L-3.84032 1.59446L-4.332 1.2589L-4.81839 1.5895L-4.63336 1.05174L-5.125 0.721049H-4.51173L-4.332 0.183289ZM-0.900846 0.183289L-0.715824 0.721049H-0.107884L-0.599538 1.05174L-0.41448 1.59446L-0.900846 1.2589L-1.39254 1.5895L-1.20751 1.05174L-1.6939 0.721049H-1.09117L-0.900846 0.183289ZM2.52498 0.183289L2.71536 0.721139H3.31276L2.82634 1.05174L3.01131 1.59455L2.51974 1.25899L2.03332 1.58959L2.21838 1.05174L1.72664 0.721139H2.33469L2.52498 0.183289ZM5.95618 0.183289L6.14115 0.721139H6.74919L6.25745 1.05174L6.44783 1.59455L5.95609 1.25899L5.46443 1.58959L5.65482 1.05174L5.16307 0.721139H5.7658L5.95618 0.183289ZM9.38205 0.183289L9.57235 0.721139H10.175L9.68865 1.05174L9.87362 1.59455L9.38196 1.25899L8.89554 1.58959L9.08069 1.05174L8.59427 0.721139H9.19691L9.38205 0.183289ZM12.8131 0.183289L12.9981 0.721139H13.6062L13.1144 1.05174L13.3048 1.59455L12.8131 1.25899L12.3214 1.58959L12.5117 1.05174L12.0201 0.721139H12.6281L12.8131 0.183289ZM-2.61378 1.5451L-2.42875 2.08295H-1.82079L-2.31247 2.41355L-2.13269 2.9514L-2.60853 2.62081L-3.10016 2.9514L-2.92574 2.41355L-3.40152 2.08295H-2.7988L-2.61378 1.5451ZM0.812083 1.5451L1.00237 2.08295H1.6051L1.11336 2.41355L1.30374 2.9514L0.811993 2.62081L0.320429 2.9514L0.510721 2.41355L0.0190673 2.08295H0.627025L0.812083 1.5451ZM4.24319 1.5451L4.42816 2.08295H5.03621L4.54456 2.41355L4.72952 2.9514L4.24319 2.62081L3.75154 2.9514L3.9366 2.41364L3.45018 2.08295H4.0529L4.24319 1.5451ZM7.66907 1.5451L7.85945 2.08295H8.46209L7.97043 2.41355L8.16073 2.9514L7.66907 2.62081L7.18265 2.9514L7.36771 2.41355L6.87605 2.08295H7.48934L7.66907 1.5451ZM11.1002 1.5451L11.2852 2.08295H11.8932L11.4015 2.41355L11.5866 2.9514L11.1002 2.62081L10.6085 2.9514L10.7936 2.41355L10.3072 2.08295H10.9099L11.1002 1.5451ZM-4.332 2.90214L-4.14168 3.44991H-3.53896L-4.0254 3.78051L-3.84032 4.31836L-4.332 3.9828L-4.81839 4.31836L-4.63336 3.77555L-5.125 3.44495H-4.51173L-4.332 2.90214ZM-0.900846 2.90214L-0.715824 3.44486H-0.107884L-0.599538 3.77546L-0.41448 4.31331L-0.900846 3.97775L-1.39254 4.31331L-1.20751 3.77049L-1.6939 3.4399H-1.09117L-0.900846 2.90214ZM2.52498 2.90214L2.71536 3.44495H3.31276L2.82634 3.77555L3.01131 4.3134L2.51974 3.97784L2.03332 4.3134L2.21838 3.77058L1.72664 3.44008H2.33469L2.52498 2.90214ZM5.95618 2.90214L6.14115 3.44495H6.74919L6.25745 3.77555L6.44783 4.3134L5.95609 3.97784L5.46443 4.3134L5.65482 3.77058L5.16307 3.44008H5.7658L5.95618 2.90214ZM9.38205 2.90214L9.57235 3.44495H10.175L9.68865 3.77546L9.87362 4.3134L9.38196 3.97775L8.89554 4.31331L9.08069 3.77058L8.59427 3.43999H9.19691L9.38205 2.90214ZM12.8131 2.90214L12.9981 3.44495H13.6062L13.1144 3.77555L13.3048 4.3134L12.8131 3.97784L12.3214 4.3134L12.5117 3.77058L12.0201 3.44008H12.6281L12.8131 2.90214ZM-2.61378 4.26404L-2.42875 4.80189H-1.82079L-2.31247 5.1324L-2.12739 5.67521L-2.61378 5.33965L-3.10547 5.67025L-2.92044 5.13249L-3.40683 4.80189H-2.80405L-2.61378 4.26404ZM0.812083 4.26404L1.00237 4.80189H1.6051L1.11336 5.1324L1.30374 5.67521L0.811993 5.33965L0.320429 5.67025L0.510721 5.13249L0.0190673 4.80189H0.627025L0.812083 4.26404ZM4.24319 4.26404L4.42816 4.80189H5.03621L4.54456 5.1324L4.72952 5.67521L4.24319 5.33965L3.75154 5.67025L3.9366 5.13249L3.45018 4.80189H4.0529L4.24319 4.26404ZM7.66907 4.26404L7.85945 4.80189H8.46209L7.97567 5.1324L8.16073 5.67521L7.66907 5.33965L7.18265 5.67025L7.36771 5.13249L6.87605 4.80189H7.48934L7.66907 4.26404ZM11.1002 4.26404L11.2852 4.80189H11.8932L11.4015 5.1324L11.5866 5.67521L11.1002 5.33965L10.6085 5.67025L10.7936 5.13249L10.3072 4.80189H10.9099L11.1002 4.26404ZM-4.332 5.62586L-4.14168 6.16371H-3.53896L-4.0254 6.4943L-3.84032 7.03712L-4.332 6.70156L-4.81839 7.03216L-4.63336 6.4943L-5.125 6.16371H-4.51173L-4.332 5.62586ZM-0.900846 5.62586L-0.715824 6.16371H-0.107884L-0.599538 6.4943L-0.41448 7.03216L-0.900846 6.70156L-1.39254 7.03216L-1.20751 6.4943L-1.6939 6.16371H-1.09117L-0.900846 5.62586ZM2.52498 5.62586L2.71536 6.16371H3.31276L2.82634 6.4943L3.01131 7.03712L2.51974 6.70156L2.03332 7.03216L2.21838 6.4943L1.72664 6.16371H2.33469L2.52498 5.62586ZM5.95618 5.62586L6.14115 6.16371H6.74919L6.25745 6.4943L6.44783 7.03712L5.95609 6.70156L5.46443 7.03216L5.65482 6.4943L5.16307 6.16371H5.7658L5.95618 5.62586ZM9.38205 5.62586L9.57235 6.16371H10.175L9.68865 6.4943L9.87362 7.03712L9.38196 6.70156L8.89554 7.03216L9.08069 6.4943L8.59427 6.16371H9.19691L9.38205 5.62586ZM12.8131 5.62586L12.9981 6.16371H13.6062L13.1144 6.4943L13.3048 7.03712L12.8131 6.70156L12.3214 7.03216L12.5117 6.4943L12.0201 6.16371H12.6281L12.8131 5.62586ZM-2.61378 6.98776L-2.42875 7.52561H-1.82079L-2.31247 7.85621L-2.12739 8.39406L-2.61378 8.0585L-3.10547 8.39406L-2.92044 7.85125L-3.40683 7.52065H-2.80405L-2.61378 6.98776ZM0.812083 6.98776L1.00237 7.52561H1.6051L1.11336 7.85621L1.30374 8.39406L0.811993 8.0585L0.320429 8.39406L0.510721 7.85125L0.0190673 7.52065H0.627025L0.812083 6.98776ZM4.24319 6.98776L4.42816 7.52561H5.03621L4.54456 7.85621L4.72952 8.39406L4.24319 8.0585L3.75154 8.39406L3.9366 7.85125L3.45018 7.52065H4.0529L4.24319 6.98776ZM7.66907 6.98776L7.85945 7.52561H8.46209L7.97567 7.85621L8.16073 8.39406L7.66907 8.0585L7.18265 8.39406L7.36771 7.85125L6.87605 7.52065H7.48934L7.66907 6.98776ZM11.1002 6.98776L11.2852 7.52561H11.8932L11.4015 7.85621L11.5866 8.39406L11.1002 8.0585L10.6085 8.39406L10.7936 7.85125L10.3072 7.52065H10.9099L11.1002 6.98776ZM-4.332 8.34471L-4.14168 8.88752H-3.53896L-4.0254 9.21803L-3.84032 9.75101L-4.332 9.42041L-4.81839 9.75101L-4.63336 9.21315L-5.125 8.88256H-4.51173L-4.332 8.34471ZM-0.900846 8.34471L-0.715824 8.88752H-0.107884L-0.599538 9.21803L-0.409156 9.75101L-0.900909 9.42041L-1.39254 9.75101L-1.20221 9.21315L-1.6939 8.88256H-1.09117L-0.900846 8.34471ZM2.52498 8.34471L2.71536 8.88752H3.31276L2.82634 9.21803L3.01131 9.75101L2.51974 9.42041L2.03332 9.75101L2.21838 9.21315L1.72664 8.88256H2.33469L2.52498 8.34471ZM5.95618 8.34471L6.14115 8.88752H6.74919L6.25745 9.21803L6.44783 9.75101L5.95609 9.42041L5.46443 9.75101L5.65482 9.21315L5.16307 8.88256H5.7658L5.95618 8.34471ZM9.38205 8.34471L9.57235 8.88752H10.175L9.68865 9.21803L9.87362 9.75101L9.38196 9.42041L8.89554 9.75101L9.08069 9.21315L8.59427 8.88256H9.19691L9.38205 8.34471ZM12.8131 8.34471L12.9981 8.88752H13.6062L13.1144 9.21803L13.3048 9.75101L12.8131 9.42041L12.3214 9.75101L12.5117 9.21315L12.0201 8.88256H12.6281L12.8131 8.34471ZM-2.61378 9.70661L-2.42875 10.2445H-1.82079L-2.31247 10.5751L-2.12739 11.1179L-2.61378 10.7823L-3.10547 11.1128L-2.92044 10.5751L-3.40683 10.2445H-2.80405L-2.61378 9.70661ZM0.812083 9.70661L1.00237 10.2445H1.6051L1.11336 10.5751L1.30374 11.1179L0.811993 10.7823L0.320429 11.1128L0.510721 10.5751L0.0190673 10.2445H0.627025L0.812083 9.70661ZM4.24319 9.70661L4.42816 10.2445H5.03621L4.54456 10.5751L4.72952 11.1179L4.24319 10.7823L3.75154 11.1128L3.9366 10.5751L3.45018 10.2445H4.0529L4.24319 9.70661ZM7.66907 9.70661L7.85945 10.2445H8.46209L7.97567 10.5751L8.16073 11.1179L7.66907 10.7823L7.18265 11.1128L7.36771 10.5751L6.87605 10.2445H7.48934L7.66907 9.70661ZM11.1002 9.70661L11.2852 10.2445H11.8932L11.4015 10.5751L11.5866 11.1179L11.1002 10.7823L10.6085 11.1128L10.7936 10.5751L10.3072 10.2445H10.9099L11.1002 9.70661ZM-4.332 11.0685L-4.14168 11.6064H-3.53896L-4.0254 11.937L-3.84032 12.4748L-4.332 12.1442L-4.81839 12.4747L-4.63336 11.932L-5.125 11.6014H-4.51173L-4.332 11.0685ZM-0.900846 11.0685L-0.715824 11.6064H-0.107884L-0.599538 11.937L-0.409156 12.4748L-0.900909 12.1442L-1.39254 12.4747L-1.20221 11.932L-1.6939 11.6014H-1.09117L-0.900846 11.0685ZM2.52498 11.0685L2.71536 11.6064H3.31276L2.8369 11.937L3.02195 12.4748L2.53021 12.1442L2.04388 12.4747L2.22894 11.932L1.73728 11.6014H2.34524L2.52498 11.0685ZM5.95618 11.0685L6.14115 11.6064H6.74919L6.25745 11.937L6.44783 12.4748L5.95609 12.1442L5.46443 12.4747L5.65482 11.932L5.16307 11.6014H5.7658L5.95618 11.0685ZM9.38205 11.0685L9.57235 11.6064H10.175L9.68865 11.937L9.87362 12.4748L9.38196 12.1442L8.89554 12.4747L9.08069 11.932L8.59427 11.6014H9.19691L9.38205 11.0685ZM12.8131 11.0685L12.9981 11.6064H13.6062L13.1144 11.937L13.3048 12.4748L12.8131 12.1442L12.3214 12.4747L12.5117 11.932L12.0201 11.6014H12.6281L12.8131 11.0685Z" fill="white"/>
</g>
</g>
</g>
<defs>
<clipPath id="clip0_146_7883">
<rect width="24" height="24" fill="white"/>
</clipPath>
<clipPath id="clip1_146_7883">
<rect width="24" height="24" rx="12" fill="white"/>
</clipPath>
</defs>
</svg>
