<svg width="112" height="88" viewBox="0 0 112 88" fill="none" xmlns="http://www.w3.org/2000/svg">
<path opacity="0.1" d="M111.109 31.7663C111.109 62.2859 86.3682 87.027 55.8486 87.027C25.329 87.027 0.587891 62.2859 0.587891 31.7663C0.587891 1.24666 41.9072 37.2921 72.4268 37.2921C102.946 37.2921 111.109 1.24666 111.109 31.7663Z" fill="#2F80ED"/>
<path fill-rule="evenodd" clip-rule="evenodd" d="M29.1865 49.626C29.2848 49.9089 29.2668 50.2192 29.1363 50.4889C29.0059 50.7585 28.7738 50.9653 28.4909 51.0638C27.9022 51.2685 27.2579 50.9568 27.0532 50.3681C25.9525 47.2042 25.354 43.8061 25.354 40.2693C25.354 27.5513 33.0889 16.6254 44.1073 11.9441C44.6811 11.7004 45.3447 11.9683 45.5884 12.542C45.7054 12.8177 45.7082 13.1286 45.596 13.4063C45.4839 13.684 45.2661 13.9059 44.9905 14.0231C34.7808 18.3609 27.6128 28.4845 27.6128 40.2693C27.6128 43.5462 28.1668 46.6947 29.1865 49.626ZM67.1432 66.556C67.4193 66.44 67.7302 66.4383 68.0075 66.5515C68.2848 66.6646 68.5059 66.8832 68.6221 67.1592C68.738 67.4354 68.7396 67.7462 68.6265 68.0236C68.5134 68.3009 68.2948 68.5219 68.0188 68.6382C64.3564 70.1783 60.3343 71.03 56.1148 71.03C51.9117 71.03 47.9044 70.1849 44.2536 68.6561C43.9774 68.5403 43.7584 68.3196 43.6449 68.0425C43.5313 67.7653 43.5324 67.4545 43.6479 67.1781C43.7638 66.9019 43.9845 66.683 44.2617 66.5695C44.5388 66.4559 44.8497 66.4571 45.1261 66.5726C48.5084 67.9889 52.2209 68.7712 56.1148 68.7712C60.0238 68.7712 63.7502 67.9828 67.1432 66.556ZM66.8141 13.8466C66.5367 13.7339 66.3153 13.5156 66.1988 13.2397C66.0822 12.9638 66.0799 12.653 66.1924 12.3754C66.3051 12.0979 66.5234 11.8766 66.7993 11.76C67.0752 11.6434 67.3861 11.6411 67.6636 11.7537C78.9254 16.3238 86.8756 27.3756 86.8756 40.2693C86.8756 43.9204 86.2378 47.4239 85.0681 50.6743C84.8571 51.2608 84.2095 51.5657 83.623 51.3547C83.3413 51.2531 83.1113 51.0439 82.9837 50.7729C82.8562 50.5019 82.8414 50.1913 82.9427 49.9094C84.0264 46.898 84.6168 43.6521 84.6168 40.2693C84.6168 28.3217 77.2495 18.0815 66.8141 13.8466Z" fill="#A79BA7"/>
<path fill-rule="evenodd" clip-rule="evenodd" d="M63.1881 56.8968L64.2441 57.4769C65.125 57.9622 66.2426 57.638 66.7257 56.757C67.211 55.8762 66.882 54.7657 66.0058 54.2731C66.8844 54.7657 68.0043 54.4318 68.4897 53.5533C68.7857 53.0134 68.7763 52.3931 68.5253 51.8768L68.7998 51.7632L56.4208 41.9106C52.8902 39.5308 50.43 42.5973 48.003 41.231L44.7874 39.7486C44.2452 39.4978 43.5987 39.7345 43.343 40.2744L39.8907 47.6219C39.7604 47.8965 39.7486 48.1807 39.8551 48.4647C39.9593 48.7489 40.1534 48.9573 40.4306 49.0804C41.5766 49.5989 43.3336 50.3898 43.6958 50.5296C44.7945 50.9558 44.4322 52.6749 45.036 53.461C45.9619 54.6686 46.1134 55.5494 46.902 56.0017L58.4026 62.6081C59.2764 63.11 60.4011 62.769 60.8865 61.8882C61.3718 61.0074 61.0452 59.8921 60.169 59.402L61.4239 60.1005C62.3049 60.5883 63.4224 60.2592 63.9079 59.3782C64.3933 58.4974 64.0642 57.3892 63.1881 56.8968Z" fill="#F6DCCD"/>
<path fill-rule="evenodd" clip-rule="evenodd" d="M56.7901 42.2041L56.4208 41.9106C52.8903 39.5308 50.43 42.5973 48.003 41.231L44.7874 39.7486C44.2452 39.4978 43.5987 39.7345 43.3431 40.2744L42.5806 41.8988C43.3383 41.5174 44.2428 41.7495 45.2468 42.3533C50.0559 45.235 51.7088 42.1118 55.4807 43.4449C55.632 43.3035 55.7804 43.1591 55.9258 43.0116C56.2025 42.7305 56.4908 42.461 56.7901 42.2041ZM56.9086 61.7484L58.4026 62.6081C59.2551 63.0982 60.3466 62.7857 60.8511 61.9498L57.7349 60.1763L56.9086 61.7484ZM65.3736 53.9204L66.0058 54.2731C66.844 54.742 67.9048 54.4602 68.4211 53.6647L62.5061 50.3023C62.3051 50.1893 62.0675 50.1608 61.8455 50.2229C61.6235 50.2851 61.4353 50.4329 61.3222 50.6338C61.2093 50.8348 61.1808 51.0723 61.2429 51.2943C61.3051 51.5163 61.4528 51.7045 61.6536 51.8177C62.9087 52.5351 65.4068 53.9369 65.3736 53.9204ZM62.5724 56.5581L64.2441 57.4769C65.0824 57.9387 66.1337 57.6663 66.6523 56.8801L59.3687 52.7411C58.9496 52.5044 58.4216 52.6536 58.1848 53.0703C57.9503 53.4893 58.0971 54.0197 58.5163 54.2542L62.5724 56.5581ZM56.9464 57.4911C57.0766 57.6852 57.2424 57.7325 57.4507 57.851L60.2899 59.4706L61.424 60.1005C62.2693 60.5669 63.3349 60.2852 63.8464 59.4824L58.0617 56.2053C57.6449 55.9709 57.1145 56.1178 56.88 56.5368C56.7958 56.6847 56.7571 56.8542 56.7689 57.024C56.7807 57.1938 56.8425 57.3563 56.9464 57.4911Z" fill="#F1CBBC"/>
<path fill-rule="evenodd" clip-rule="evenodd" d="M42.093 36.774L36.7393 48.8881C36.4813 49.4753 36.7464 50.1643 37.3337 50.4248L39.6659 51.4548C40.2508 51.7129 40.9423 51.4454 41.2004 50.8605L46.5565 38.7466C46.8145 38.1593 46.547 37.4679 45.9621 37.2097L43.6297 36.1798C43.045 35.9194 42.3535 36.1869 42.093 36.774Z" fill="#D1D1D6"/>
<path fill-rule="evenodd" clip-rule="evenodd" d="M40.246 50.4395C39.9877 51.0243 39.3011 51.2919 38.7163 51.0361L39.6657 51.4553C40.2506 51.7134 40.9421 51.4458 41.2002 50.8609C42.9855 46.8237 44.7709 42.7842 46.5563 38.747C46.7978 38.1977 46.58 37.5559 46.0709 37.2646C44.1292 41.6571 42.1876 46.0471 40.246 50.4395Z" fill="#B1B1B5"/>
<path fill-rule="evenodd" clip-rule="evenodd" d="M43.8592 38.1023C44.2973 38.1236 44.636 38.493 44.6147 38.931C44.5934 39.3691 44.2239 39.7054 43.7858 39.6863C43.576 39.676 43.3788 39.5831 43.2372 39.4278C43.0957 39.2725 43.0214 39.0675 43.0305 38.8576C43.0408 38.6478 43.1337 38.4505 43.289 38.3089C43.4443 38.1674 43.6493 38.0931 43.8592 38.1023Z" fill="#685E68"/>
<path fill-rule="evenodd" clip-rule="evenodd" d="M55.05 57.9928C55.616 57.3654 56.5632 57.1759 57.3398 57.5903C57.5856 57.7217 57.7991 57.9061 57.9649 58.1301C58.3935 58.715 58.4527 59.4988 58.1117 60.1381L56.9988 62.2195C56.5111 63.1334 55.3626 63.4816 54.451 62.9938C53.7169 62.6006 53.3476 61.7814 53.485 61.0024C52.9451 61.7554 51.9056 62.0135 51.0673 61.566C50.3474 61.18 49.9805 60.3891 50.0942 59.6244C49.6016 60.5406 48.4627 60.8958 47.5416 60.4034C46.6276 59.9156 46.2818 58.7671 46.7696 57.8556L47.1202 57.1996C46.5471 57.7182 45.6828 57.8508 44.9654 57.4672C44.0538 56.9794 43.7057 55.8309 44.1934 54.9194L45.3537 52.7481C45.8438 51.8341 46.9898 51.4884 47.9016 51.9761C48.78 52.445 49.1352 53.5247 48.7279 54.4173C49.3009 53.8917 50.1698 53.7568 50.8897 54.1428C51.6665 54.5571 52.0334 55.4498 51.825 56.269C52.391 55.6415 53.3381 55.4522 54.1147 55.8665C54.8915 56.2809 55.2584 57.1735 55.05 57.9928Z" fill="#D6B4A8"/>
<path fill-rule="evenodd" clip-rule="evenodd" d="M47.1198 57.1993C46.5468 57.7178 45.6825 57.8504 44.965 57.4668C44.8105 57.3839 44.6686 57.2794 44.5435 57.1566C45.1189 57.1826 45.3794 56.728 45.6422 56.2662L47.6146 52.795C47.7733 52.5156 47.7852 52.1461 47.662 51.8691C47.7449 51.8975 47.823 51.9331 47.9012 51.9757C48.7796 52.4446 49.1348 53.5243 48.7275 54.417L47.1198 57.1993ZM50.0938 59.624C49.6131 60.5213 48.4765 60.9026 47.5412 60.403C47.4501 60.3539 47.363 60.2976 47.2807 60.2348C47.6122 60.1851 47.9485 59.972 48.0408 59.7944L50.6502 54.7414C50.6739 54.6917 50.7497 54.3625 50.6053 54.0191C50.7023 54.0499 50.797 54.0925 50.8893 54.1424C51.6661 54.5567 52.033 55.4494 51.827 56.2662L50.0938 59.624ZM57.1264 57.4928C57.1998 57.5213 57.2684 57.5545 57.3394 57.5899C57.5852 57.7213 57.7988 57.9057 57.9645 58.1298C58.3932 58.7146 58.4523 59.4985 58.1114 60.1377L56.9985 62.2191C56.5107 63.133 55.3622 63.4812 54.4507 62.9934C54.4388 62.9862 54.4293 62.9816 54.4199 62.9744C54.614 62.9034 54.7371 62.7968 54.794 62.6879L57.1169 58.189C57.2092 58.0114 57.2258 57.7319 57.1264 57.4928ZM53.4846 61.002C52.9447 61.755 51.9052 62.0131 51.0669 61.5656C51.0056 61.5329 50.9463 61.4965 50.8893 61.4566C51.2091 61.317 51.479 61.0778 51.6661 60.7202L53.8303 56.5267C53.9842 56.2308 53.951 55.975 53.8231 55.7406C53.9227 55.7738 54.0196 55.8164 54.1144 55.8661C54.8911 56.2805 55.258 57.1731 55.0497 57.9924L53.4846 61.002Z" fill="#CCA393"/>
<path fill-rule="evenodd" clip-rule="evenodd" d="M61.4457 47.4652L67.768 51.069C68.097 51.2557 68.3613 51.5381 68.5257 51.8788L72.0941 50.3894C72.357 50.2802 72.5668 50.0722 72.6783 49.8102C72.7898 49.5482 72.7943 49.2529 72.6907 48.9876L69.7142 41.304C69.5959 41.0033 69.3781 40.7878 69.075 40.6764C68.7719 40.5628 68.4664 40.5841 68.1823 40.738L66.0465 41.8794C63.4963 43.2053 61.0432 38.7419 56.4259 41.9102C55.8269 42.3197 55.2633 42.8123 54.7518 43.3284C53.4708 44.6237 51.9057 45.7793 50.1369 46.8116C50.1102 46.8274 50.0872 46.8487 50.0693 46.874C50.0513 46.8992 50.0389 46.928 50.0327 46.9584C50.0264 46.9889 50.0269 47.0205 50.0343 47.0508C50.0417 47.0811 50.0557 47.1094 50.0753 47.1336C53.7383 51.848 58.1947 45.6111 61.4457 47.4652Z" fill="#D6B4A8"/>
<path fill-rule="evenodd" clip-rule="evenodd" d="M66.3493 50.2597L67.7677 51.0695C68.0966 51.2561 68.3609 51.5386 68.5254 51.8792L72.0937 50.3898C72.6406 50.1625 72.9059 49.5398 72.6927 48.9881L71.819 46.7363C71.8592 47.4514 71.6935 48.0812 70.9547 48.3819L66.3493 50.2597ZM50.5698 47.7024C54.1334 51.3062 58.3388 45.6944 61.4454 47.4656C56.5273 44.134 54.697 48.524 50.5698 47.7024Z" fill="#CCA393"/>
<path fill-rule="evenodd" clip-rule="evenodd" d="M71.8687 37.6335L76.6566 49.9842C76.8887 50.5809 76.5902 51.2581 75.9936 51.4902L73.6162 52.4113C73.0172 52.6434 72.34 52.3449 72.1079 51.7459L67.3202 39.3975C67.0881 38.7985 67.3888 38.1212 67.9855 37.8892L70.3628 36.9681C70.9596 36.736 71.639 37.0367 71.8687 37.6335Z" fill="#D1D1D6"/>
<path fill-rule="evenodd" clip-rule="evenodd" d="M67.7915 37.9863C67.3274 38.2752 67.1166 38.8671 67.3204 39.3975L72.1081 51.746C72.3402 52.345 73.0174 52.6434 73.6141 52.4113L74.4973 52.0704L74.4996 52.068C73.903 52.3001 73.2258 52.0016 72.9937 51.405C71.2604 46.9321 69.5248 42.4592 67.7915 37.9863Z" fill="#B1B1B5"/>
<path fill-rule="evenodd" clip-rule="evenodd" d="M70.0433 40.4653C70.479 40.4653 70.8366 40.1078 70.8366 39.6722C70.8366 39.2365 70.479 38.8789 70.0433 38.8789C69.6076 38.8789 69.2524 39.2365 69.2524 39.6722C69.2524 40.1078 69.6076 40.4653 70.0433 40.4653Z" fill="#685E68"/>
<path fill-rule="evenodd" clip-rule="evenodd" d="M56.1065 37.3177C53.1183 35.562 47.6201 31.5338 47.5469 27.5139C47.4654 23.0382 52.4953 21.0091 56.2799 24.8567C60.0636 21.0091 65.0933 23.0371 65.0128 27.513C64.9395 31.5328 59.4416 35.562 56.4531 37.3177C56.4008 37.3491 56.3409 37.3656 56.2798 37.3656C56.2188 37.3656 56.1589 37.3491 56.1065 37.3177Z" fill="#FE646F"/>
<path fill-rule="evenodd" clip-rule="evenodd" d="M56.1062 37.3185C56.0341 37.2761 55.9598 37.2318 55.8844 37.1865C58.9141 35.3668 64.1502 31.4366 64.2213 27.5137C64.2698 24.8328 62.4842 23.0307 60.2324 22.8429C62.8422 22.6295 65.0661 24.5265 65.0125 27.5137C64.9392 31.5336 59.4412 35.5628 56.4528 37.3185C56.4005 37.3498 56.3406 37.3664 56.2795 37.3664C56.2185 37.3664 56.1586 37.3498 56.1062 37.3185ZM51.5366 22.8429C53.1189 22.6996 54.9148 23.4299 56.2796 24.8575C56.1436 24.9784 56.0118 25.104 55.8844 25.234C54.626 23.955 52.8353 22.9492 51.5366 22.8429Z" fill="#FD4755"/>
<path fill-rule="evenodd" clip-rule="evenodd" d="M49.6457 18.6452H62.9057C63.2773 18.6452 63.5959 18.4854 63.8171 18.1875C64.0384 17.8898 64.1008 17.5371 63.993 17.1826C62.9937 13.8678 59.9171 11.4531 56.2762 11.4531C52.6353 11.4531 49.5577 13.8678 48.5585 17.1826C48.4516 17.5371 48.513 17.8898 48.7343 18.1875C48.9555 18.4854 49.2751 18.6452 49.6457 18.6452Z" fill="#8AC9FE"/>
<path fill-rule="evenodd" clip-rule="evenodd" d="M62.9056 18.6452C63.2772 18.6452 63.5958 18.4854 63.817 18.1875C64.0383 17.8898 64.1007 17.5371 63.993 17.1826C62.9936 13.8678 59.917 11.4531 56.2761 11.4531C55.8904 11.4531 55.5112 11.4805 55.1406 11.5325C58.2739 11.9751 60.8285 14.2186 61.722 17.1826C61.8297 17.5371 61.7683 17.8898 61.5471 18.1875C61.3258 18.4854 61.0062 18.6452 60.6356 18.6452H62.9056Z" fill="#60B7FF"/>
<path fill-rule="evenodd" clip-rule="evenodd" d="M56.2761 10.7856C58.5207 10.7856 60.351 8.95508 60.351 6.71066C60.351 4.46609 58.5207 2.63574 56.2761 2.63574C54.0315 2.63574 52.2012 4.46609 52.2012 6.71066C52.2012 8.95508 54.0315 10.7856 56.2761 10.7856Z" fill="#F6DCCD"/>
<path fill-rule="evenodd" clip-rule="evenodd" d="M56.2762 2.63574C58.5265 2.63574 60.3512 4.46045 60.3512 6.71066C60.3512 8.96172 58.5265 10.7856 56.2762 10.7856C56.0834 10.7856 55.8934 10.7723 55.708 10.7468C57.6897 10.4698 59.2157 8.76887 59.2157 6.71066C59.2157 4.6533 57.6897 2.95155 55.708 2.67541C55.8963 2.64923 56.0861 2.63598 56.2762 2.63574Z" fill="#F1CBBC"/>
<path fill-rule="evenodd" clip-rule="evenodd" d="M73.7302 70.403H86.9902C87.3617 70.403 87.6804 70.2434 87.9016 69.9455C88.1228 69.6477 88.1852 69.2951 88.0775 68.9404C87.0781 65.6258 84.0016 63.2109 80.3607 63.2109C76.7197 63.2109 73.6422 65.6258 72.643 68.9404C72.5361 69.2951 72.5975 69.6477 72.8187 69.9455C73.04 70.2434 73.3596 70.403 73.7302 70.403Z" fill="#8AC9FE"/>
<path fill-rule="evenodd" clip-rule="evenodd" d="M86.9901 70.403C87.3617 70.403 87.6803 70.2434 87.9015 69.9455C88.1227 69.6477 88.1851 69.2951 88.0774 68.9404C87.078 65.6258 84.0015 63.2109 80.3606 63.2109C79.9749 63.2109 79.5957 63.2385 79.2251 63.2904C82.3584 63.7329 84.913 65.9764 85.8065 68.9404C85.9142 69.2951 85.8528 69.6477 85.6315 69.9455C85.4103 70.2434 85.0907 70.403 84.7201 70.403H86.9901Z" fill="#60B7FF"/>
<path fill-rule="evenodd" clip-rule="evenodd" d="M80.3606 62.5434C82.6051 62.5434 84.4355 60.713 84.4355 58.4685C84.4355 56.224 82.6051 54.3936 80.3606 54.3936C78.116 54.3936 76.2856 56.224 76.2856 58.4685C76.2856 60.713 78.116 62.5434 80.3606 62.5434Z" fill="#F6DCCD"/>
<path fill-rule="evenodd" clip-rule="evenodd" d="M80.3607 54.3936C82.6109 54.3936 84.4356 56.2184 84.4356 58.4685C84.4356 60.7197 82.6109 62.5434 80.3607 62.5434C80.1679 62.5434 79.9778 62.5303 79.7925 62.5047C81.7742 62.2277 83.3001 60.5268 83.3001 58.4685C83.3001 56.4112 81.7742 54.7094 79.7925 54.4334C79.9808 54.4071 80.1706 54.3938 80.3607 54.3936Z" fill="#F1CBBC"/>
<path fill-rule="evenodd" clip-rule="evenodd" d="M24.7728 69.9058H38.0328C38.4043 69.9058 38.723 69.7461 38.9442 69.4483C39.1654 69.1505 39.2278 68.7979 39.12 68.4432C38.1207 65.1286 35.0442 62.7139 31.4033 62.7139C27.7623 62.7139 24.6848 65.1286 23.6854 68.4432C23.5785 68.7979 23.6401 69.1505 23.8613 69.4483C24.0825 69.7461 24.402 69.9058 24.7728 69.9058Z" fill="#8AC9FE"/>
<path fill-rule="evenodd" clip-rule="evenodd" d="M38.0326 69.9058C38.4041 69.9058 38.7228 69.7461 38.944 69.4483C39.1652 69.1505 39.2276 68.7979 39.1198 68.4432C38.1205 65.1286 35.044 62.7139 31.4031 62.7139C31.0172 62.7139 30.6382 62.7413 30.2676 62.7932C33.4007 63.2357 35.9554 65.4792 36.8488 68.4432C36.9567 68.7979 36.8951 69.1505 36.6739 69.4483C36.4527 69.7461 36.1332 69.9058 35.7624 69.9058H38.0326Z" fill="#60B7FF"/>
<path fill-rule="evenodd" clip-rule="evenodd" d="M31.403 62.0463C33.6475 62.0463 35.478 60.216 35.478 57.9714C35.478 55.727 33.6475 53.8965 31.403 53.8965C29.1585 53.8965 27.3281 55.727 27.3281 57.9714C27.3281 60.216 29.1585 62.0463 31.403 62.0463Z" fill="#F6DCCD"/>
<path fill-rule="evenodd" clip-rule="evenodd" d="M31.4032 53.8965C33.6533 53.8965 35.4781 55.7213 35.4781 57.9714C35.4781 60.2226 33.6533 62.0463 31.4032 62.0463C31.2102 62.0463 31.0202 62.0332 30.835 62.0076C32.8167 61.7307 34.3426 60.0298 34.3426 57.9714C34.3426 55.9142 32.8167 54.2123 30.835 53.9363C31.0232 53.9101 31.2131 53.8968 31.4032 53.8965Z" fill="#F1CBBC"/>
</svg>
