<svg width="103" height="87" viewBox="0 0 103 87" fill="none" xmlns="http://www.w3.org/2000/svg">
<path opacity="0.1" d="M102.757 34.8549C102.757 63.1166 79.8461 86.0272 51.5844 86.0272C23.3227 86.0272 0.412109 63.1166 0.412109 34.8549C0.412109 6.59321 38.6744 39.9719 66.9361 39.9719C95.1978 39.9719 102.757 6.59321 102.757 34.8549Z" fill="white"/>
<g clip-path="url(#clip0_104_1643)">
<path d="M60.9595 55.9584L61.0289 60.5001C61.0289 60.9862 61.5567 61.3751 62.1956 61.3751L80.2511 61.2362C80.89 61.2362 81.4039 60.8334 81.4039 60.3473L81.3345 55.8057C81.3345 55.3196 80.8067 54.9307 80.1678 54.9307L62.1122 55.0696C61.4734 55.0696 60.9595 55.4723 60.9595 55.9584Z" fill="#D1D0DF"/>
<path d="M77.9873 54.958H81.3901V60.5969H77.9873V54.958Z" fill="#B5B5C6"/>
<path d="M83.3487 71.8475H62.6265C69.6126 71.8475 75.7376 68.0281 79.1126 61.1948L83.182 61.167L83.3487 71.8475Z" fill="#F9A01E"/>
<path d="M79.1126 61.1949C75.7376 68.0143 69.6126 71.8476 62.6265 71.8476H59.4182L59.2654 61.3615L79.1126 61.1949ZM84.3904 38.4865L83.7098 38.7643L81.2654 31.1393L81.2376 31.0699C80.821 30.2782 80.0154 29.7782 79.1265 29.7504C77.9043 29.7226 76.7515 30.3338 76.071 31.3476L76.0571 31.3754C75.3626 32.5976 75.0987 34.0143 75.3071 35.4032C75.5154 36.7365 76.0849 40.2226 76.321 41.6254C76.0015 41.806 75.6821 42.0143 75.3904 42.2365L61.071 48.2226L59.4182 48.9171L58.4737 49.3199L58.0432 49.5004L54.2237 40.3893C54.3349 40.4032 54.446 40.4032 54.571 40.4171C55.9321 40.5282 57.5293 40.4449 58.7098 39.8199C58.8904 39.7226 59.0571 39.6254 59.2237 39.5143C59.8626 39.0838 60.4182 38.5421 60.8626 37.9032C60.9321 37.806 60.9876 37.7226 61.0432 37.6254C61.0849 37.556 61.1265 37.4726 61.1682 37.4032C61.4321 36.931 61.6265 36.431 61.7515 35.931C61.7654 35.8754 61.7793 35.8199 61.7932 35.7504V35.7226C62.3349 33.1671 61.1821 30.4449 58.7793 29.1254C55.8348 27.5004 52.1265 28.5699 50.5154 31.5143C50.2237 30.8199 49.8904 30.0143 49.5293 29.1532V29.1393C48.446 26.5282 47.1682 23.4726 46.5293 21.9588L57.2237 17.4865C57.6821 17.2921 57.9599 16.8476 57.9321 16.3476C57.9043 15.8615 57.5848 15.4449 57.1126 15.306C56.0015 14.9588 55.0571 14.1949 54.5154 13.1671C53.3626 11.0143 54.1682 8.33376 56.321 7.18098C58.4737 6.0282 61.1543 6.83376 62.3071 8.98653C62.9599 10.2088 62.7376 12.306 62.6126 13.1532C62.5849 13.3754 62.6126 13.6115 62.696 13.8199C62.9599 14.4588 63.7099 14.7782 64.3487 14.5004L74.5015 10.2504L85.3349 36.1671C85.7099 37.0699 85.2932 38.1115 84.3904 38.4865Z" fill="#FFBB26"/>
<path d="M53.7373 41.3751L57.5984 50.5973L84.7095 39.264C86.0429 38.7084 86.6679 37.1807 86.1123 35.8473L85.6818 34.8057C84.5151 35.3751 83.3206 35.9168 82.1123 36.4307C73.1401 40.1946 63.4456 41.8751 53.7373 41.3751Z" fill="#F9A01E"/>
<path d="M84.2376 43.1665L81.8765 52.0276L81.8626 52.0137L81.8348 52.1248C81.7515 52.472 81.5987 52.7915 81.4042 53.0831C81.4042 53.0831 80.7237 54.2081 80.0709 55.1804L62.7098 55.1943C61.1959 53.8193 60.3209 51.8748 60.2792 49.8331L60.2515 48.5693L61.0709 48.222L75.3904 42.2359C75.682 42.0137 75.9876 41.8054 76.3209 41.6248C76.0848 40.222 75.5154 36.7498 75.307 35.4026V35.3748C75.4876 35.3609 75.6542 35.347 75.8348 35.3331C75.8348 34.8887 75.8765 34.4443 76.0015 34.0137C76.0431 33.847 76.0987 33.6804 76.1681 33.5137C76.2792 32.9165 76.4876 32.347 76.7792 31.8054C77.5987 30.5276 79.7515 29.9998 80.5154 31.4581L84.2376 43.1665Z" fill="#EFCDB1"/>
<path d="M42.4874 17.5553L42.418 13.0137C42.418 12.5276 41.8902 12.1387 41.2513 12.1387L23.1957 12.2776C22.5569 12.2776 22.043 12.6803 22.043 13.1664L22.1124 17.7081C22.1124 18.1942 22.6402 18.5831 23.2791 18.5831L41.3346 18.4442C41.9735 18.4442 42.4874 18.0553 42.4874 17.5553Z" fill="#D1D0DF"/>
<path d="M22.043 12.917H25.4457V18.5559H22.043V12.917Z" fill="#B5B5C6"/>
<path d="M20.0986 0.0136719H40.8209C33.8347 0.0136719 27.7097 5.49978 24.3347 12.3331L20.2514 12.3609L20.0986 0.0136719Z" fill="#05BECC"/>
<path d="M24.3345 12.3192C27.7095 5.49978 33.8345 0.0136719 40.8206 0.0136719H44.0289L44.1817 12.1665L24.3345 12.3192Z" fill="#01C6E1"/>
<path d="M58.5152 38.7361C57.1541 39.5 54.9874 39.3889 53.8485 39.25C53.6124 39.2222 53.4041 39.3889 53.3763 39.625C53.3624 39.7083 53.3763 39.7777 53.4041 39.8472L57.5152 49.0416C57.9319 49.9722 57.5152 51.0694 56.5846 51.5C53.9041 52.6944 49.043 54.875 46.9735 55.8055C46.8069 55.875 46.6124 55.8055 46.543 55.6389C46.5013 55.5555 46.5013 55.4444 46.543 55.3611C47.8207 52.7639 46.7513 49.6111 44.1541 48.3333C41.5569 47.0555 38.4041 48.125 37.1263 50.7222C36.5152 51.9722 36.418 53.4027 36.8624 54.7222C37.3624 56.2083 39.0569 57.5555 40.0013 58.2083C40.1957 58.3472 40.2513 58.6111 40.1124 58.8055C40.0707 58.875 40.0013 58.9166 39.9319 58.9583L29.1124 63.8055L26.293 57.5C35.4457 50.7777 41.543 38.75 41.543 25.0277C41.543 24.4166 41.5291 23.8055 41.5013 23.1944L43.793 22.1666C44.5846 21.8194 45.5013 22.1666 45.8624 22.9583C47.043 25.5833 49.3069 30.6666 50.2652 32.8055C50.3346 32.9722 50.5291 33.0416 50.6957 32.9722C50.7791 32.9305 50.8485 32.8611 50.8763 32.7639C51.6541 29.9722 54.5569 28.3333 57.3485 29.125C60.1402 29.9166 61.7791 32.8055 60.9874 35.5972C60.5985 36.9166 59.7235 38.0416 58.5152 38.7361Z" fill="white"/>
<path d="M42.0845 22L30.9456 26.9861L29.5428 26.3333C29.2789 26.9028 28.9873 27.4583 28.6956 27.9861C28.6539 28.0694 28.5984 28.1389 28.5567 28.2222C28.3067 28.6528 28.015 29.0278 27.7095 29.3333C26.8345 30.2222 25.9039 30.625 25.89 30.625L25.2789 30.875L25.3484 31.3056L25.39 31.5278C25.4039 31.5833 26.2373 36.6528 26.5011 38.3333C26.6539 39.3333 26.4734 40.3472 25.9734 41.2361C25.6123 41.75 25.0289 42.0694 24.4039 42.0694C24.1261 42.0833 23.8623 41.9306 23.7234 41.6944L21.015 33.2361L20.765 32.4306L20.515 31.625L20.0845 30.2917L22.3761 21.6806C22.4456 21.4306 22.5984 21.0833 22.7373 20.8611L22.7511 20.8333C22.7511 20.8194 23.1678 20.1528 23.6539 19.3889L40.5428 19.25C41.265 20.0694 41.7928 21 42.0845 22Z" fill="#EFCDB1"/>
<path d="M60.1681 35.3886C59.8625 36.458 59.1403 37.4163 58.1125 37.9997C56.9042 38.6802 54.807 38.5136 53.9597 38.4163C53.7236 38.3886 53.5014 38.4163 53.2931 38.5136C53.0709 38.6108 52.9042 38.7636 52.7792 38.9441C52.5014 39.1802 52.3347 39.5413 52.3347 39.9025C52.3347 40.0691 52.3625 40.2358 52.432 40.3886L56.6264 50.4302C56.5292 50.5552 56.4042 50.6525 56.2514 50.7219C53.9736 51.7497 50.1125 53.4719 47.7375 54.5413C48.0292 53.4025 47.9875 52.208 47.6125 51.0969C46.5431 47.9163 43.0847 46.1941 39.9042 47.2775C36.7236 48.3469 35.0014 51.8052 36.0847 54.9858C36.557 56.3747 37.807 57.5969 38.9597 58.4719L29.5431 62.6802L17.8764 36.6108C17.4736 35.708 17.8764 34.6663 18.7792 34.2636L19.5153 33.9302L22.2097 42.3608L22.2514 42.4302C22.6681 43.2219 23.4736 43.7219 24.3625 43.7497H24.5014C25.682 43.7358 26.7792 43.1247 27.432 42.1386L27.4459 42.1108C28.1403 40.8886 28.4042 39.4719 28.1959 38.083C27.9875 36.7358 27.4181 33.2636 27.182 31.8608C28.2931 31.2358 29.2236 30.3469 29.9181 29.2775L42.3903 23.6941L44.0153 22.9719L44.1681 22.9025C44.2653 22.8608 44.3625 22.833 44.4736 22.833C44.7653 22.833 45.0292 22.9997 45.1403 23.2636C45.8764 24.9025 47.0292 27.4997 48.0292 29.7219V29.7358C48.6125 31.1247 49.1403 32.4025 49.4875 33.2219C49.6264 33.5413 49.8903 33.7775 50.2236 33.8886C50.8347 34.083 51.4875 33.7358 51.682 33.1247C52.0292 32.0136 52.7931 31.0691 53.8209 30.5275C55.9736 29.3747 58.6542 30.1802 59.807 32.333C60.2653 33.333 60.3764 34.4025 60.1681 35.3886Z" fill="black"/>
<path d="M86.8763 35.5278L75.3902 8.06944L64.3347 12.6944C64.4597 11.3889 64.4736 9.54167 63.7652 8.20833C63.2097 7.16667 62.3625 6.31945 61.3347 5.75C58.3902 4.125 54.6958 5.19444 53.0708 8.13889C51.4458 11.0833 52.5152 14.7778 55.4597 16.4028L44.3347 21.0556L44.3902 21.1944C44.1263 21.1944 43.8625 21.2361 43.6125 21.3333C43.3486 20.5 42.9458 19.7083 42.4319 19C42.5708 18.9167 42.7097 18.8056 42.8347 18.6944C43.1402 18.3889 43.3069 17.9861 43.3069 17.5556L43.2513 13.0139L44.1958 13C44.6541 13 45.0291 12.6111 45.0152 12.1528L44.8625 0L43.1958 0.0277778L43.3347 11.3472L41.6958 11.3611C41.543 11.3333 41.3902 11.3194 41.2375 11.3194L23.1819 11.4583C23.0152 11.4583 22.8625 11.4722 22.7097 11.5139L21.0708 11.5278L20.9319 0L19.2652 0.0277778L19.418 12.375C19.418 12.8333 19.793 13.1944 20.2513 13.1944H21.2097L21.2791 17.7361C21.2791 18.25 21.543 18.6944 21.9458 19C21.6263 19.5139 21.3763 19.9028 21.3347 19.9861C21.0986 20.3472 20.8625 20.8611 20.7513 21.2778L18.3347 30.375L18.9597 32.3472L18.0569 32.75C16.3208 33.5278 15.543 35.5694 16.3208 37.3056L28.668 64.8889L40.2375 59.7083C40.4458 59.6111 40.6263 59.4722 40.7513 59.2778C41.1541 58.7083 41.0152 57.9167 40.4458 57.5139C38.9597 56.4722 37.9319 55.3472 37.6263 54.4306C37.2513 53.3194 37.3347 52.125 37.8486 51.0695C38.918 48.875 41.5708 47.9722 43.7652 49.0417C45.9597 50.1111 46.8625 52.7639 45.793 54.9583C45.6402 55.2778 45.6263 55.6389 45.7652 55.9583C46.0291 56.5417 46.7097 56.8056 47.293 56.5417C49.3625 55.6111 54.2236 53.4306 56.9041 52.2361C57.3763 52.0278 57.7513 51.6944 58.0291 51.2917L59.5013 50.6944C59.668 52.0833 60.1958 53.4028 61.0013 54.5278C60.8625 54.6111 60.7236 54.7083 60.5986 54.8333C60.293 55.125 60.1263 55.5417 60.1263 55.9583L60.1958 60.5H59.2513C58.793 60.5139 58.418 60.8889 58.4319 61.3472L58.5847 71.8333L60.2513 71.8056L60.1125 62.1528L61.7513 62.1389C61.8902 62.1667 62.043 62.1806 62.2097 62.1806H62.2236L80.2791 62.0417C80.4458 62.0417 80.5986 62.0278 80.7513 61.9861L82.3902 61.9722L82.5291 71.8333L84.1958 71.8056L84.043 61.125C84.043 60.6667 83.668 60.3056 83.2097 60.3056L82.2513 60.3194V60.3056L82.1819 55.7639C82.1819 55.25 81.918 54.8056 81.5152 54.5C81.8347 53.9861 82.0847 53.5972 82.1263 53.5139C82.3625 53.1389 82.5986 52.6389 82.7097 52.2222L85.1263 43.1389L84.2375 40.3611L85.043 40.0278C86.7791 39.2917 87.6125 37.2778 86.8763 35.5278ZM25.3486 31.3194L25.3902 31.5417C25.4041 31.5972 26.2375 36.6667 26.5013 38.3472C26.6541 39.3472 26.4736 40.3611 25.9736 41.25C25.6125 41.7639 25.0291 42.0833 24.4041 42.0833C24.1263 42.0972 23.8625 41.9444 23.7236 41.7083L21.0152 33.25L20.7652 32.4444L20.5152 31.6389L20.0847 30.3056L22.3763 21.6944C22.4458 21.4444 22.5986 21.0972 22.7375 20.875L22.7513 20.8472C22.7513 20.8333 23.168 20.1667 23.6541 19.4028L40.543 19.2639C41.2652 20.0417 41.793 20.9722 42.0847 21.9722L30.9458 26.9583L29.543 26.3056C29.2791 26.875 28.9875 27.4306 28.6958 27.9583C28.6541 28.0417 28.5986 28.1111 28.5569 28.1944C28.3069 28.625 28.0152 29 27.7097 29.3056C26.8347 30.1944 25.9041 30.5972 25.8902 30.5972L25.2791 30.8472L25.3486 31.3194ZM22.9597 13.1667L41.4875 13.0139C41.5152 13.0278 41.5569 13.0417 41.5847 13.0694L41.6402 17.5139C41.543 17.5833 41.4319 17.6111 41.3208 17.6111H41.2791L23.2652 17.75C23.1402 17.7639 23.0291 17.7222 22.9319 17.6528V17.4861L22.8763 13.2083L22.9597 13.1667ZM56.2375 50.7222C53.9597 51.75 50.0986 53.4722 47.7236 54.5417C48.0152 53.4028 47.9736 52.2083 47.5986 51.0972C46.5291 47.9167 43.0708 46.1944 39.8902 47.2778C36.7097 48.3472 34.9875 51.8056 36.0708 54.9861C36.543 56.375 37.793 57.5972 38.9458 58.4722L29.5291 62.6806L17.8625 36.6111C17.4597 35.7083 17.8625 34.6667 18.7652 34.2639L19.5013 33.9306L22.1958 42.3611L22.2375 42.4306C22.6541 43.2222 23.4597 43.7222 24.3486 43.75H24.4875C25.668 43.7361 26.7652 43.125 27.418 42.1389L27.4319 42.1111C28.1263 40.9028 28.3902 39.4861 28.1819 38.1111V38.0833C27.9736 36.7361 27.4041 33.2639 27.168 31.8611C28.2791 31.2361 29.2097 30.3472 29.9041 29.2778L42.3763 23.6944L43.1958 23.3333L44.0013 22.9722L44.1541 22.9028C44.2513 22.8611 44.3486 22.8333 44.4597 22.8333C44.7513 22.8333 45.0152 23 45.1263 23.2639C45.8625 24.9028 47.0152 27.5 48.0152 29.7222V29.7361C48.5986 31.125 49.1263 32.4028 49.4736 33.2222C49.6125 33.5417 49.8763 33.7778 50.2097 33.8889C50.8208 34.0833 51.4736 33.7361 51.668 33.125C52.0152 32.0139 52.7791 31.0694 53.8069 30.5278C55.9597 29.375 58.6402 30.1806 59.793 32.3333C60.3069 33.3056 60.4319 34.375 60.2097 35.375C59.9041 36.4444 59.1819 37.4028 58.1541 37.9861C56.9458 38.6667 54.8486 38.5 54.0013 38.4028C53.7652 38.375 53.543 38.4028 53.3347 38.5C53.1125 38.5972 52.9458 38.75 52.8208 38.9306C52.543 39.1667 52.3763 39.5278 52.3763 39.8889C52.3763 40.0556 52.4041 40.2222 52.4736 40.375L56.668 50.4167C56.5291 50.5556 56.3902 50.6528 56.2375 50.7222ZM80.4875 60.3472L61.9597 60.5C61.9319 60.4861 61.9041 60.4722 61.8763 60.4445L61.8069 56C61.9041 55.9306 62.0152 55.9028 62.1263 55.9028H62.168L80.1819 55.7639C80.293 55.7639 80.418 55.7917 80.5152 55.8611V56.0278L80.5708 60.3056L80.4875 60.3472ZM81.0708 51.8056C81.0013 52.0556 80.8486 52.4028 80.7097 52.625L80.6958 52.6528C80.6958 52.6667 80.2791 53.3472 79.793 54.0972L62.918 54.2361C61.8347 53.0972 61.2097 51.6111 61.1263 50.0417L73.1402 45.0139C72.8902 45.4861 72.6402 45.9861 72.4041 46.4861L73.918 47.1944C74.2236 46.5417 74.5569 45.9028 74.9041 45.2917C75.293 44.6111 75.8069 44.0833 76.2791 43.7083C76.9597 43.1528 77.5708 42.8889 77.5708 42.8889L78.1819 42.6389L78.0847 42.0417L78.0708 41.9722C78.0708 41.9583 78.0152 41.6667 77.9458 41.1944C77.6958 39.6944 77.168 36.4444 76.9597 35.1667C76.8069 34.1667 76.9875 33.1389 77.4875 32.2639C77.8486 31.75 78.4319 31.4306 79.0569 31.4306C79.3347 31.4167 79.5986 31.5694 79.7375 31.8056L82.1819 39.4306L82.4319 40.2222L82.6819 41.0139L83.3763 43.1944L81.0708 51.8056ZM84.3902 38.4861L83.7097 38.7639L81.2652 31.1389L81.2375 31.0694C80.8208 30.2778 80.0152 29.7778 79.1263 29.75C77.9041 29.7222 76.7513 30.3333 76.0708 31.3472L76.0569 31.375C75.3625 32.5833 75.0986 33.9861 75.3069 35.375V35.4028C75.5152 36.7361 76.0847 40.2222 76.3208 41.625C76.0013 41.8056 75.6819 42.0139 75.3902 42.2361L61.0708 48.2222L60.2513 48.5694L59.418 48.9167L58.4736 49.3194L58.043 49.5L54.2236 40.3889C54.3347 40.4028 54.4458 40.4028 54.5708 40.4167C55.9319 40.5278 57.5291 40.4444 58.7097 39.8194C58.8902 39.7222 59.0569 39.625 59.2236 39.5139C59.5152 39.3194 59.793 39.0972 60.043 38.8472C60.3486 38.5556 60.6125 38.2361 60.8625 37.8889C60.9319 37.7917 60.9875 37.7083 61.043 37.6111C61.0847 37.5417 61.1263 37.4583 61.168 37.3889C61.2791 37.1806 61.3763 36.9722 61.4736 36.7639C61.5847 36.4861 61.6819 36.2083 61.7513 35.9167C61.7652 35.8611 61.7791 35.8056 61.793 35.7361V35.7083C62.3347 33.1528 61.1819 30.4306 58.7791 29.1111C55.8347 27.4861 52.1263 28.5556 50.5152 31.5C50.2236 30.8056 49.8902 30 49.5291 29.1389V29.125C48.4458 26.5139 47.168 23.4583 46.5291 21.9444L57.2236 17.4722C57.6819 17.2778 57.9597 16.8333 57.9319 16.3333C57.9041 15.8472 57.5847 15.4306 57.1125 15.2917C56.0013 14.9444 55.0569 14.1806 54.5152 13.1528C53.3625 11 54.168 8.31944 56.3208 7.16667C58.4736 6.01389 61.1541 6.81944 62.3069 8.97222C62.9597 10.1944 62.7375 12.2917 62.6125 13.1389C62.5847 13.3611 62.6125 13.5972 62.6958 13.8056C62.9597 14.4444 63.7097 14.7639 64.3486 14.4861L74.5013 10.25L85.3347 36.1667C85.7097 37.0694 85.293 38.1111 84.3902 38.4861Z" fill="white"/>
<path d="M33.1641 66.0732L34.6457 65.3099L36.5668 69.0388L35.0852 69.8021L33.1641 66.0732ZM21.1934 69.0288L23.1145 65.2999L24.5961 66.0632L22.675 69.792L21.1934 69.0288ZM28.0232 71.945L28.1281 67.7506L29.7947 67.7922L29.6899 71.9867L28.0232 71.945ZM68.4572 3.14822L69.9389 2.38475L71.86 6.11364L70.3784 6.87697L68.4572 3.14822ZM80.4279 6.10169L82.3489 2.37294L83.8306 3.13628L81.9096 6.86489L80.4279 6.10169ZM75.2447 4.35655L75.3496 0.162109L77.0163 0.203776L76.9114 4.39822L75.2447 4.35655Z" fill="white"/>
</g>
<defs>
<clipPath id="clip0_104_1643">
<rect width="72" height="72" fill="white" transform="translate(15.5845)"/>
</clipPath>
</defs>
</svg>
