<svg width="73" height="73" viewBox="0 0 73 73" fill="none" xmlns="http://www.w3.org/2000/svg">
<g clip-path="url(#clip0_148_8558)">
<path d="M67.8952 19.1841C70.8259 24.3937 72.499 30.4044 72.499 36.8066C72.499 56.6892 56.3816 72.8066 36.499 72.8066C16.6165 72.8066 0.499023 56.6892 0.499023 36.8066C0.499023 16.9241 16.6165 0.806641 36.499 0.806641C45.5601 0.806641 53.8381 4.15534 60.1662 9.68078C62.1831 13.2652 64.7969 16.4792 67.8952 19.1841Z" fill="#FDBF43"/>
<path d="M25.8115 9.58643H34.249C35.8025 9.58643 37.0615 10.8454 37.0615 12.3989V40.0817C37.0615 41.6351 35.8025 42.8942 34.249 42.8942H25.8115C24.258 42.8942 22.999 41.6351 22.999 40.0817V12.3989C22.999 10.8454 24.258 9.58643 25.8115 9.58643Z" fill="#FFF2B4"/>
<path d="M67.999 19.3697V40.0817C67.999 41.6351 66.74 42.8942 65.1865 42.8942H59.1336L56.3727 46.6411C55.8108 47.4034 54.671 47.4034 54.1091 46.6411L51.3482 42.8942H28.624C27.0705 42.8942 25.8115 41.6351 25.8115 40.0817V12.3989C25.8115 10.8454 27.0705 9.58643 28.624 9.58643H60.0598C63.2583 12.3578 65.9455 15.6691 67.999 19.3697Z" fill="#FFF5F5"/>
<path d="M46.9053 13.8052V38.6754C46.9053 39.4522 46.2757 40.0817 45.499 40.0817C44.7224 40.0817 44.0928 39.4522 44.0928 38.6754V13.8052C44.0928 13.0284 44.7224 12.3989 45.499 12.3989C46.2757 12.3989 46.9053 13.0284 46.9053 13.8052ZM39.874 16.6177C39.0974 16.6177 38.4678 17.2471 38.4678 18.0239V34.4567C38.4678 35.2335 39.0974 35.8629 39.874 35.8629C40.6507 35.8629 41.2803 35.2335 41.2803 34.4567V18.0239C41.2803 17.2471 40.6507 16.6177 39.874 16.6177ZM56.749 16.6177C55.9724 16.6177 55.3428 17.2471 55.3428 18.0239V34.4567C55.3428 35.2335 55.9724 35.8629 56.749 35.8629C57.5257 35.8629 58.1553 35.2335 58.1553 34.4567V18.0239C58.1553 17.2471 57.5257 16.6177 56.749 16.6177ZM28.624 23.6489C27.8474 23.6489 27.2178 24.2784 27.2178 25.0552V27.4254C27.2178 28.2022 27.8474 28.8317 28.624 28.8317C29.4007 28.8317 30.0303 28.2022 30.0303 27.4254V25.0552C30.0303 24.2784 29.4007 23.6489 28.624 23.6489ZM34.249 23.2067C33.4724 23.2067 32.8428 23.8367 32.8428 24.6129V27.8677C32.8428 28.6443 33.4724 29.2739 34.249 29.2739C35.0257 29.2739 35.6553 28.6443 35.6553 27.8677V24.6129C35.6553 23.8367 35.0257 23.2067 34.249 23.2067ZM62.374 20.8364C61.5974 20.8364 60.9678 21.4659 60.9678 22.2427V30.2379C60.9678 31.0147 61.5974 31.6442 62.374 31.6442C63.1507 31.6442 63.7803 31.0147 63.7803 30.2379V22.2427C63.7803 21.4659 63.1507 20.8364 62.374 20.8364ZM51.124 20.8364C50.3474 20.8364 49.7178 21.4659 49.7178 22.2427V30.2379C49.7178 31.0147 50.3474 31.6442 51.124 31.6442C51.9007 31.6442 52.5303 31.0147 52.5303 30.2379V22.2427C52.5303 21.4659 51.9007 20.8364 51.124 20.8364Z" fill="#0ED1B2"/>
<path d="M35.6553 25.6308V27.8677C35.6553 28.6444 35.0257 29.2739 34.249 29.2739C33.4724 29.2739 32.8428 28.6444 32.8428 27.8677V25.6308C32.8428 26.4076 33.4724 27.037 34.249 27.037C35.0257 27.037 35.6553 26.4076 35.6553 25.6308ZM28.624 26.5955C27.8474 26.5955 27.2178 25.9659 27.2178 25.1892V27.4254C27.2178 28.2022 27.8474 28.8317 28.624 28.8317C29.4007 28.8317 30.0303 28.2022 30.0303 27.4254V25.1892C30.0303 25.9655 29.4007 26.5955 28.624 26.5955ZM51.124 29.408C50.3474 29.408 49.7178 28.7784 49.7178 28.0017V30.2379C49.7178 31.0147 50.3474 31.6442 51.124 31.6442C51.9007 31.6442 52.5303 31.0147 52.5303 30.2379V28.0017C52.5303 28.778 51.9007 29.408 51.124 29.408ZM56.749 33.6267C55.9724 33.6267 55.3428 32.9971 55.3428 32.2205V34.4567C55.3428 35.2335 55.9724 35.8629 56.749 35.8629C57.5257 35.8629 58.1553 35.2335 58.1553 34.4567V32.2205C58.1553 32.9967 57.5257 33.6267 56.749 33.6267ZM62.374 29.408C61.5974 29.408 60.9678 28.7784 60.9678 28.0017V30.2379C60.9678 31.0147 61.5974 31.6442 62.374 31.6442C63.1507 31.6442 63.7803 31.0147 63.7803 30.2379V28.0017C63.7803 28.778 63.1507 29.408 62.374 29.408Z" fill="#0AB59E"/>
<path d="M6.75195 30.719H46.127C47.6804 30.719 48.9395 31.9782 48.9395 33.5315V61.2144C48.9395 62.7679 47.6804 64.0269 46.127 64.0269H6.75195C5.19847 64.0269 3.93945 62.7679 3.93945 61.2144V33.5316C3.93945 31.9781 5.19847 30.719 6.75195 30.719Z" fill="#54469B"/>
<path d="M9.56445 30.719H46.127C47.6804 30.719 48.9395 31.9782 48.9395 33.5315V61.2144C48.9395 62.7679 47.6804 64.0269 46.127 64.0269H9.56445C8.01097 64.0269 6.75195 62.7679 6.75195 61.2144V33.5316C6.75195 31.9781 8.01097 30.719 9.56445 30.719Z" fill="#6E61B5"/>
<path d="M45.3887 58.1409C45.3887 58.9171 44.7591 59.5471 43.9824 59.5471H17.1934C16.4165 59.5471 15.7871 58.9171 15.7871 58.1409C15.7871 57.3643 16.4165 56.7346 17.1934 56.7346H43.9824C44.7591 56.7346 45.3887 57.3643 45.3887 58.1409ZM26.4395 51.8127C30.7109 51.8127 34.1738 48.35 34.1738 44.0784C34.1738 39.8065 30.7109 36.344 26.4395 36.344C22.168 36.344 18.7051 39.8065 18.7051 44.0784C18.7051 48.35 22.168 51.8127 26.4395 51.8127Z" fill="#968DCA"/>
<path d="M17.1933 59.5471H10.3428C9.5661 59.5471 8.93652 58.9171 8.93652 58.1409C8.93652 57.3643 9.5661 56.7346 10.3428 56.7346H17.1933C17.97 56.7346 18.5996 57.3643 18.5996 58.1409C18.5996 58.9171 17.97 59.5471 17.1933 59.5471Z" fill="#54469B"/>
<path d="M20.0059 58.1408C20.0059 59.3055 19.0616 60.2502 17.8965 60.2502C16.7314 60.2502 15.7871 59.3055 15.7871 58.1408C15.7871 56.9759 16.7314 56.0315 17.8965 56.0315C19.0616 56.0315 20.0059 56.9759 20.0059 58.1408ZM24.4053 48.5193L30.3622 44.6684C30.7905 44.3915 30.7905 43.7647 30.3622 43.488L24.4053 39.6373C23.9373 39.3346 23.3204 39.6702 23.3204 40.2279V47.9292C23.3204 48.4861 23.9373 48.8218 24.4053 48.5191V48.5193Z" fill="#FFF5F5"/>
</g>
<defs>
<clipPath id="clip0_148_8558">
<rect width="72" height="72" fill="white" transform="translate(0.499023 0.806641)"/>
</clipPath>
</defs>
</svg>
