<svg width="98" height="21" viewBox="0 0 98 21" fill="none" xmlns="http://www.w3.org/2000/svg">
<path d="M16.6948 5.04016C15.136 3.47766 13.0601 2.61829 10.854 2.61829C6.30046 2.61829 2.5951 6.32364 2.5951 10.8772C2.5951 12.3318 2.97456 13.753 3.69629 15.0067L2.52441 19.285L6.90313 18.1354C8.10849 18.7939 9.46638 19.1399 10.8503 19.1399H10.854C15.4039 19.1399 19.1911 15.4345 19.1911 10.8809C19.1911 8.67483 18.2536 6.60266 16.6948 5.04016ZM10.854 17.7485C9.61891 17.7485 8.40983 17.4174 7.357 16.7924L7.10775 16.6436L4.51102 17.3244L5.20299 14.7909L5.03929 14.5305C4.35105 13.4367 3.99019 12.1756 3.99019 10.8772C3.99019 7.09373 7.07054 4.01338 10.8577 4.01338C12.6918 4.01338 14.4143 4.72766 15.7089 6.02602C17.0036 7.32439 17.7997 9.04686 17.796 10.8809C17.796 14.6681 14.6375 17.7485 10.854 17.7485ZM14.6189 12.6071C14.4143 12.503 13.3987 12.0044 13.2089 11.9375C13.0192 11.8668 12.8816 11.8333 12.7439 12.0416C12.6063 12.25 12.2119 12.7113 12.0891 12.8527C11.9701 12.9903 11.8473 13.0089 11.6427 12.9047C10.4299 12.2983 9.63379 11.8222 8.83394 10.4494C8.62188 10.0848 9.04599 10.1108 9.44034 9.32215C9.5073 9.18451 9.47382 9.06546 9.42174 8.96129C9.36965 8.85713 8.95671 7.8415 8.78557 7.42855C8.61816 7.02677 8.44703 7.08257 8.32055 7.07513C8.2015 7.06769 8.06385 7.06769 7.9262 7.06769C7.78855 7.06769 7.56534 7.11977 7.3756 7.32439C7.18587 7.53272 6.65388 8.03123 6.65388 9.04686C6.65388 10.0625 7.39421 11.0446 7.49465 11.1823C7.59882 11.3199 8.94927 13.4033 11.0214 14.2998C12.331 14.8653 12.8444 14.9137 13.4991 14.8169C13.8972 14.7574 14.7194 14.3184 14.8905 13.8348C15.0616 13.3512 15.0616 12.9382 15.0095 12.8527C14.9612 12.7597 14.8235 12.7076 14.6189 12.6071Z" fill="#56C668"/>
<path d="M29.6981 15.4513L27.2091 5.98236H29.1705L30.8073 13.3817L32.7687 5.98236H34.7707L36.6645 13.3817L38.3284 5.98236H40.2898L37.7467 15.4513H35.5688L33.7427 8.5525L31.8624 15.4513H29.6981ZM41.5282 15.4513V5.71182H43.3544V9.62114C43.5798 9.26041 43.882 8.97635 44.2607 8.76893C44.6395 8.5525 45.0723 8.44428 45.5593 8.44428C46.1274 8.44428 46.6054 8.56152 46.9932 8.79599C47.381 9.03045 47.674 9.37765 47.8724 9.83757C48.0798 10.2885 48.1836 10.8431 48.1836 11.5014V15.4513H46.3709V11.6637C46.3709 11.1226 46.2537 10.7078 46.0192 10.4192C45.7848 10.1307 45.4285 9.98637 44.9506 9.98637C44.653 9.98637 44.3825 10.0585 44.139 10.2028C43.8955 10.3471 43.7016 10.5545 43.5573 10.825C43.422 11.0956 43.3544 11.4202 43.3544 11.799V15.4513H41.5282ZM52.203 15.6136C51.6439 15.6136 51.1794 15.5234 50.8097 15.3431C50.44 15.1537 50.1649 14.9012 49.9846 14.5856C49.8042 14.2699 49.714 13.9227 49.714 13.544C49.714 13.1292 49.8177 12.7639 50.0251 12.4483C50.2416 12.1327 50.5662 11.8847 50.9991 11.7043C51.432 11.5239 51.973 11.4338 52.6223 11.4338H54.2862C54.2862 11.0911 54.2456 10.8115 54.1644 10.5951C54.0833 10.3786 53.948 10.2163 53.7586 10.1081C53.5692 9.99087 53.3122 9.93226 52.9876 9.93226C52.6539 9.93226 52.3653 10.0089 52.1218 10.1622C51.8874 10.3065 51.7431 10.5274 51.689 10.825H49.9169C49.962 10.3381 50.1198 9.91873 50.3904 9.56703C50.6699 9.21532 51.0352 8.94027 51.4861 8.74188C51.937 8.54348 52.442 8.44428 53.0011 8.44428C53.6504 8.44428 54.205 8.5525 54.6649 8.76893C55.1339 8.98536 55.4901 9.29649 55.7336 9.7023C55.9861 10.1081 56.1123 10.6086 56.1123 11.2038V15.4513H54.5838L54.3808 14.4097C54.2816 14.5901 54.1644 14.7524 54.0291 14.8967C53.8939 15.041 53.7361 15.1672 53.5557 15.2754C53.3753 15.3837 53.1724 15.4648 52.947 15.5189C52.7215 15.5821 52.4735 15.6136 52.203 15.6136ZM52.6359 14.2068C52.8703 14.2068 53.0777 14.1662 53.2581 14.0851C53.4475 13.9949 53.6098 13.8776 53.7451 13.7334C53.8803 13.5801 53.9841 13.4042 54.0562 13.2058C54.1374 13.0074 54.1915 12.7955 54.2185 12.57V12.5565H52.8252C52.5547 12.5565 52.3292 12.5926 52.1489 12.6647C51.9775 12.7369 51.8468 12.8361 51.7566 12.9623C51.6754 13.0796 51.6349 13.2238 51.6349 13.3952C51.6349 13.5665 51.6754 13.7153 51.7566 13.8416C51.8468 13.9588 51.964 14.049 52.1083 14.1121C52.2616 14.1752 52.4375 14.2068 52.6359 14.2068ZM60.8475 15.4513C60.3696 15.4513 59.9502 15.3791 59.5895 15.2349C59.2378 15.0816 58.9627 14.8336 58.7644 14.4909C58.566 14.1392 58.4668 13.6612 58.4668 13.057V10.1352H57.2899V8.60661H58.4668L58.6697 6.73987H60.2929V8.60661H62.092V10.1352H60.2929V13.0841C60.2929 13.3907 60.3605 13.6026 60.4958 13.7198C60.6311 13.8371 60.861 13.8957 61.1857 13.8957H62.0785V15.4513H60.8475ZM66.4152 15.6136C65.7839 15.6136 65.2383 15.5144 64.7784 15.316C64.3275 15.1176 63.9713 14.8426 63.7098 14.4909C63.4573 14.1392 63.3085 13.7424 63.2634 13.3005H65.0895C65.1256 13.4628 65.1977 13.6161 65.3059 13.7604C65.4142 13.9047 65.5585 14.0174 65.7388 14.0986C65.9192 14.1798 66.1356 14.2203 66.3881 14.2203C66.6316 14.2203 66.83 14.1888 66.9833 14.1256C67.1456 14.0535 67.2629 13.9588 67.335 13.8416C67.4162 13.7243 67.4567 13.6026 67.4567 13.4763C67.4567 13.2779 67.4026 13.1292 67.2944 13.03C67.1862 12.9217 67.0239 12.8361 66.8075 12.7729C66.6 12.7098 66.3475 12.6467 66.0499 12.5836C65.7163 12.5204 65.3916 12.4438 65.076 12.3536C64.7694 12.2544 64.4943 12.1327 64.2508 11.9884C64.0074 11.8351 63.8135 11.6457 63.6692 11.4202C63.5339 11.1948 63.4663 10.9152 63.4663 10.5816C63.4663 10.1757 63.5745 9.81502 63.7909 9.49939C64.0074 9.17474 64.323 8.91773 64.7378 8.72835C65.1526 8.53897 65.6531 8.44428 66.2393 8.44428C67.069 8.44428 67.7228 8.62915 68.2007 8.99889C68.6787 9.36863 68.9583 9.87815 69.0394 10.5274H67.335C67.2809 10.311 67.1592 10.1442 66.9698 10.0269C66.7804 9.90971 66.5324 9.85109 66.2258 9.85109C65.9011 9.85109 65.6531 9.90971 65.4818 10.0269C65.3105 10.1442 65.2248 10.2975 65.2248 10.4869C65.2248 10.6131 65.2789 10.7258 65.3871 10.825C65.4953 10.9242 65.6531 11.0099 65.8606 11.0821C66.068 11.1542 66.325 11.2218 66.6316 11.285C67.1637 11.3932 67.6281 11.5149 68.0249 11.6502C68.4217 11.7855 68.7283 11.9839 68.9447 12.2454C69.1702 12.5069 69.2829 12.8812 69.2829 13.3681C69.2919 13.81 69.1747 14.2023 68.9312 14.545C68.6967 14.8786 68.3631 15.1402 67.9302 15.3296C67.5063 15.5189 67.0013 15.6136 66.4152 15.6136ZM70.2596 15.4513L73.709 5.98236H75.7786L79.228 15.4513H77.2937L74.7371 8.06552L72.1669 15.4513H70.2596ZM71.7746 13.3005L72.2616 11.8802H77.0772L77.5642 13.3005H71.7746ZM80.4317 18.4272V8.60661H82.055L82.2579 9.53997C82.4022 9.35059 82.5735 9.17023 82.7719 8.99889C82.9703 8.82755 83.2093 8.69228 83.4888 8.59308C83.7684 8.49388 84.0885 8.44428 84.4493 8.44428C85.0895 8.44428 85.6532 8.6021 86.1401 8.91773C86.6271 9.23336 87.0104 9.66172 87.2899 10.2028C87.5695 10.7349 87.7093 11.3481 87.7093 12.0425C87.7093 12.7278 87.565 13.3411 87.2764 13.8822C86.9969 14.4232 86.6136 14.8471 86.1266 15.1537C85.6396 15.4603 85.085 15.6136 84.4628 15.6136C83.9578 15.6136 83.5204 15.5234 83.1507 15.3431C82.7899 15.1537 82.4923 14.8967 82.2579 14.572V18.4272H80.4317ZM84.0299 14.0174C84.3816 14.0174 84.6927 13.9363 84.9633 13.7739C85.2428 13.6116 85.4593 13.3817 85.6126 13.0841C85.7749 12.7774 85.8561 12.4303 85.8561 12.0425C85.8561 11.6457 85.7749 11.2985 85.6126 11.0009C85.4593 10.6943 85.2428 10.4598 84.9633 10.2975C84.6927 10.1261 84.3816 10.0405 84.0299 10.0405C83.6782 10.0405 83.3626 10.1261 83.083 10.2975C82.8125 10.4598 82.6006 10.6943 82.4473 11.0009C82.2939 11.2985 82.2173 11.6412 82.2173 12.029C82.2173 12.4257 82.2939 12.7729 82.4473 13.0705C82.6006 13.3681 82.8125 13.6026 83.083 13.7739C83.3626 13.9363 83.6782 14.0174 84.0299 14.0174ZM89.2956 18.4272V8.60661H90.9189L91.1218 9.53997C91.2661 9.35059 91.4374 9.17023 91.6358 8.99889C91.8342 8.82755 92.0732 8.69228 92.3528 8.59308C92.6323 8.49388 92.9525 8.44428 93.3132 8.44428C93.9535 8.44428 94.5171 8.6021 95.0041 8.91773C95.491 9.23336 95.8743 9.66172 96.1539 10.2028C96.4334 10.7349 96.5732 11.3481 96.5732 12.0425C96.5732 12.7278 96.4289 13.3411 96.1403 13.8822C95.8608 14.4232 95.4775 14.8471 94.9905 15.1537C94.5036 15.4603 93.9489 15.6136 93.3267 15.6136C92.8217 15.6136 92.3843 15.5234 92.0146 15.3431C91.6539 15.1537 91.3563 14.8967 91.1218 14.572V18.4272H89.2956ZM92.8938 14.0174C93.2455 14.0174 93.5567 13.9363 93.8272 13.7739C94.1068 13.6116 94.3232 13.3817 94.4765 13.0841C94.6388 12.7774 94.72 12.4303 94.72 12.0425C94.72 11.6457 94.6388 11.2985 94.4765 11.0009C94.3232 10.6943 94.1068 10.4598 93.8272 10.2975C93.5567 10.1261 93.2455 10.0405 92.8938 10.0405C92.5421 10.0405 92.2265 10.1261 91.9469 10.2975C91.6764 10.4598 91.4645 10.6943 91.3112 11.0009C91.1579 11.2985 91.0812 11.6412 91.0812 12.029C91.0812 12.4257 91.1579 12.7729 91.3112 13.0705C91.4645 13.3681 91.6764 13.6026 91.9469 13.7739C92.2265 13.9363 92.5421 14.0174 92.8938 14.0174Z" fill="#56C668"/>
</svg>
