<svg width="17" height="11" viewBox="0 0 17 11" fill="none" xmlns="http://www.w3.org/2000/svg">
<path fill-rule="evenodd" clip-rule="evenodd" d="M14.761 0.343069C15.4461 0.524413 15.9858 1.05589 16.1696 1.72945C16.511 2.95882 16.495 5.52198 16.495 5.52198C16.495 5.52198 16.4926 8.07101 16.1616 9.2996C15.9754 9.97238 15.4334 10.5031 14.749 10.6836C13.4971 11.0055 8.48866 11 8.48866 11C8.48866 11 3.4938 10.9945 2.22909 10.6569C1.54318 10.4756 1.00356 9.94411 0.81969 9.27133C0.491922 8.05452 0.495118 5.49215 0.495118 5.49215C0.495118 5.49215 0.498317 2.94234 0.828484 1.71296C1.01395 1.04018 1.56876 0.496937 2.24029 0.317162C3.493 -0.00548932 8.50066 5.96305e-06 8.50066 5.96305e-06C8.50066 5.96305e-06 13.5091 0.00550127 14.761 0.343069ZM6.90259 3.14409L6.89859 7.85434L11.0652 5.50314L6.90259 3.14409Z" fill="white"/>
</svg>
