<svg width="16" height="12" viewBox="0 0 16 12" fill="none" xmlns="http://www.w3.org/2000/svg">
<path fill-rule="evenodd" clip-rule="evenodd" d="M14.2659 1.24395C14.951 1.42529 15.4906 1.95676 15.6745 2.63033C16.0159 3.8597 15.9999 6.42286 15.9999 6.42286C15.9999 6.42286 15.9975 8.97189 15.6665 10.2005C15.4803 10.8733 14.9382 11.4039 14.2539 11.5845C13.002 11.9064 7.99355 11.9009 7.99355 11.9009C7.99355 11.9009 2.99868 11.8954 1.73398 11.5578C1.04806 11.3765 0.508443 10.845 0.324573 10.1722C-0.0031954 8.9554 1.17004e-06 6.39303 1.17004e-06 6.39303C1.17004e-06 6.39303 0.00320009 3.84322 0.333367 2.61384C0.518835 1.94106 1.07364 1.39782 1.74517 1.21804C2.99788 0.89539 8.00554 0.900885 8.00554 0.900885C8.00554 0.900885 13.014 0.90638 14.2659 1.24395ZM6.40747 4.04497L6.40347 8.75522L10.5701 6.40402L6.40747 4.04497Z" fill="#000418"/>
</svg>
