<svg width="16" height="9" viewBox="0 0 16 9" fill="none" xmlns="http://www.w3.org/2000/svg">
<path d="M0.959483 7.22124L7.22845 0.952276C7.31581 0.864611 7.41962 0.795054 7.53392 0.747594C7.64822 0.700132 7.77076 0.6757 7.89453 0.6757C8.01829 0.6757 8.14083 0.700132 8.25513 0.747594C8.36944 0.795054 8.47324 0.864611 8.5606 0.952276L14.8296 7.22124C15.0062 7.3979 15.1055 7.63749 15.1055 7.88732C15.1055 8.13715 15.0062 8.37674 14.8296 8.5534C14.6529 8.73005 14.4133 8.82929 14.1635 8.82929C13.9137 8.82929 13.6741 8.73005 13.4974 8.5534L7.89374 2.94973L2.29007 8.55418C2.11342 8.73084 1.87382 8.83008 1.62399 8.83008C1.37417 8.83008 1.13457 8.73084 0.957916 8.55418C0.781261 8.37753 0.682015 8.13793 0.682015 7.8881C0.682015 7.63828 0.781261 7.39868 0.957916 7.22203L0.959483 7.22124Z" fill="#000418"/>
</svg>