<svg width="21" height="25" viewBox="0 0 21 25" fill="none" xmlns="http://www.w3.org/2000/svg">
<rect width="20" height="24" transform="translate(0.5 0.250977)" fill="#F9FAFB"/>
<path d="M17.4842 19.8595C17.3185 19.8593 17.1596 19.7934 17.0425 19.6761L11.7259 14.3595C11.6096 14.2419 11.5444 14.0832 11.5444 13.9178C11.5444 13.7525 11.6096 13.5938 11.7259 13.4761L18.1675 7.03448C18.3259 6.87615 18.5675 6.81781 18.7842 6.87615C19.0009 6.94281 19.1675 7.11781 19.2175 7.33448C19.3759 8.04281 19.4592 8.83448 19.4592 9.75115V14.7511C19.4592 17.0595 18.9759 18.6178 17.9258 19.6761C17.8092 19.7928 17.6342 19.8178 17.4842 19.8595ZM13.0509 13.9178L17.4342 18.3011C17.9592 17.4928 18.2092 16.3428 18.2092 14.7511V9.75115C18.2092 9.40948 18.2009 9.09281 18.1759 8.79281L13.0509 13.9178Z" fill="#E2403C"/>
<path d="M5.72484 20.9841C5.67484 20.9841 5.63317 20.9758 5.58317 20.9675C2.82484 20.3342 1.5415 18.3591 1.5415 14.7508V9.75081C1.5415 5.22581 3.47484 3.29248 7.99984 3.29248H12.9998C16.6082 3.29248 18.5832 4.57581 19.2165 7.33415C19.2665 7.54248 19.1998 7.76748 19.0498 7.91748L6.1665 20.8008C6.04941 20.9181 5.89054 20.984 5.72484 20.9841ZM7.99984 4.54248C4.15817 4.54248 2.7915 5.90915 2.7915 9.75081V14.7508C2.7915 17.6425 3.5915 19.0925 5.53317 19.6675L17.9082 7.29248C17.3415 5.35081 15.8832 4.55081 12.9915 4.55081H7.99984V4.54248Z" fill="#E2403C"/>
<path d="M13 21.2103H7.99998C7.08331 21.2103 6.29998 21.1353 5.58331 20.9687C5.47453 20.9454 5.37424 20.8927 5.2934 20.8163C5.21257 20.7398 5.1543 20.6426 5.12498 20.5353C5.05831 20.3187 5.12498 20.0853 5.28331 19.9187L11.725 13.477C11.9666 13.2353 12.3666 13.2353 12.6083 13.477L17.925 18.7937C18.042 18.9109 18.1078 19.0697 18.1078 19.2353C18.1078 19.401 18.042 19.5598 17.925 19.677C16.8666 20.727 15.3083 21.2103 13 21.2103ZM7.04165 19.927C7.34165 19.952 7.65831 19.9603 7.99998 19.9603H13C14.6 19.9603 15.7416 19.7103 16.55 19.1853L12.1666 14.802L7.04165 19.927ZM8.09915 13.3428C7.57415 13.3428 7.04915 13.1512 6.63248 12.7595C5.30748 11.5012 4.77415 10.1178 5.09081 8.76784C5.40748 7.38451 6.61581 6.45117 8.09915 6.45117C9.58248 6.45117 10.7908 7.38451 11.1075 8.76784C11.4158 10.1262 10.8825 11.5012 9.55748 12.7595C9.14915 13.1428 8.62415 13.3428 8.09915 13.3428ZM6.30748 9.04284C6.04081 10.1762 6.80748 11.1928 7.49915 11.8512C7.84081 12.1762 8.36581 12.1762 8.69915 11.8512C9.38248 11.2012 10.1491 10.1845 9.89081 9.04284C9.66581 8.05117 8.78248 7.69284 8.09915 7.69284C7.41581 7.69284 6.54081 8.05117 6.30748 9.04284Z" fill="#E2403C"/>
<path d="M8.12337 10.1579C7.66504 10.1579 7.29004 9.78288 7.29004 9.32454C7.29004 8.86621 7.65671 8.49121 8.12337 8.49121H8.13171C8.59004 8.49121 8.96504 8.86621 8.96504 9.32454C8.96504 9.78288 8.58171 10.1579 8.12337 10.1579Z" fill="#E2403C"/>
</svg>
