<svg width="15" height="13" viewBox="0 0 15 13" fill="none" xmlns="http://www.w3.org/2000/svg">
<path d="M14.4351 7.16797L9.43506 12.168C9.24756 12.3555 8.99756 12.4492 8.74756 12.4492C8.46631 12.4492 8.21631 12.3555 8.02881 12.168C7.62256 11.793 7.62256 11.1367 8.02881 10.7617L11.3101 7.44922H1.74756C1.18506 7.44922 0.747559 7.01172 0.747559 6.44922C0.747559 5.91797 1.18506 5.44922 1.74756 5.44922H11.3101L8.02881 2.16797C7.62256 1.79297 7.62256 1.13672 8.02881 0.761719C8.40381 0.355469 9.06006 0.355469 9.43506 0.761719L14.4351 5.76172C14.8413 6.13672 14.8413 6.79297 14.4351 7.16797Z" fill="#E2403C"/>
</svg>
