<svg width="15" height="13" viewBox="0 0 15 13" fill="none" xmlns="http://www.w3.org/2000/svg">
<path d="M14.7158 6.44946C14.7158 7.01196 14.2783 7.44946 13.7471 7.44946H4.15332L7.43457 10.762C7.84082 11.137 7.84082 11.7932 7.43457 12.1682C7.24707 12.3557 6.99707 12.4495 6.74707 12.4495C6.46582 12.4495 6.21582 12.3557 6.02832 12.1682L1.02832 7.16821C0.62207 6.79321 0.62207 6.13696 1.02832 5.76196L6.02832 0.761963C6.40332 0.355713 7.05957 0.355713 7.43457 0.761963C7.84082 1.13696 7.84082 1.79321 7.43457 2.16821L4.15332 5.44946H13.7471C14.2783 5.44946 14.7158 5.91821 14.7158 6.44946Z" fill="#E2403C"/>
</svg>
