<svg width="24" height="24" viewBox="0 0 24 24" fill="none" xmlns="http://www.w3.org/2000/svg">
<path d="M22 16.7404V4.67043C22 3.47043 21.02 2.58043 19.83 2.68043H19.77C17.67 2.86043 14.48 3.93043 12.7 5.05043L12.53 5.16043C12.24 5.34043 11.76 5.34043 11.47 5.16043L11.22 5.01043C9.44 3.90043 6.26 2.84043 4.16 2.67043C2.97 2.57043 2 3.47043 2 4.66043V16.7404C2 17.7004 2.78 18.6004 3.74 18.7204L4.03 18.7604C6.2 19.0504 9.55 20.1504 11.47 21.2004L11.51 21.2204C11.78 21.3704 12.21 21.3704 12.47 21.2204C14.39 20.1604 17.75 19.0504 19.93 18.7604L20.26 18.7204C21.22 18.6004 22 17.7004 22 16.7404Z" stroke="#000418" stroke-width="1.5" stroke-linecap="round" stroke-linejoin="round"/>
<path d="M12 5.49048V20.4905" stroke="#000418" stroke-width="1.5" stroke-linecap="round" stroke-linejoin="round"/>
<path d="M7.75 8.49048H5.5" stroke="#000418" stroke-width="1.5" stroke-linecap="round" stroke-linejoin="round"/>
<path d="M8.5 11.4905H5.5" stroke="#000418" stroke-width="1.5" stroke-linecap="round" stroke-linejoin="round"/>
</svg>
