<svg width="24" height="25" viewBox="0 0 24 25" fill="none" xmlns="http://www.w3.org/2000/svg">
<path d="M7.99983 22.251H15.9998C20.0198 22.251 20.7398 20.641 20.9498 18.681L21.6998 10.681C21.9698 8.24098 21.2698 6.25098 16.9998 6.25098H6.99983C2.72983 6.25098 2.02983 8.24098 2.29983 10.681L3.04983 18.681C3.25983 20.641 3.97983 22.251 7.99983 22.251Z" stroke="#292D32" stroke-width="1.5" stroke-miterlimit="10" stroke-linecap="round" stroke-linejoin="round"/>
<path d="M8 6.25098V5.45098C8 3.68098 8 2.25098 11.2 2.25098H12.8C16 2.25098 16 3.68098 16 5.45098V6.25098" stroke="#292D32" stroke-width="1.5" stroke-miterlimit="10" stroke-linecap="round" stroke-linejoin="round"/>
<path d="M14 13.251V14.251C14 14.261 14 14.261 14 14.271C14 15.361 13.99 16.251 12 16.251C10.02 16.251 10 15.371 10 14.281V13.251C10 12.251 10 12.251 11 12.251H13C14 12.251 14 12.251 14 13.251Z" stroke="#292D32" stroke-width="1.5" stroke-miterlimit="10" stroke-linecap="round" stroke-linejoin="round"/>
<path d="M21.65 11.251C19.34 12.931 16.7 13.931 14 14.271" stroke="#292D32" stroke-width="1.5" stroke-miterlimit="10" stroke-linecap="round" stroke-linejoin="round"/>
<path d="M2.62012 11.521C4.87012 13.061 7.41012 13.991 10.0001 14.281" stroke="#292D32" stroke-width="1.5" stroke-miterlimit="10" stroke-linecap="round" stroke-linejoin="round"/>
</svg>
