<svg width="100" height="87" viewBox="0 0 100 87" fill="none" xmlns="http://www.w3.org/2000/svg">
<path opacity="0.1" d="M100 36.0986C100 63.7128 77.6142 86.0986 50 86.0986C22.3858 86.0986 0 63.7128 0 36.0986C0 8.48434 37.3858 41.0983 65 41.0983C92.6142 41.0983 100 8.48434 100 36.0986Z" fill="#855FCE"/>
<path d="M82.625 20.25H17.375L20.75 25.875L17.375 31.5H82.625L79.25 25.875L82.625 20.25Z" fill="#E6737A"/>
<path d="M60.0314 29.9936L60.001 31.5H65.6271L65.6384 30.9566L68.0583 27.4826C68.3869 27.0109 68.563 26.4499 68.563 25.875C68.563 25.3001 68.3869 24.7391 68.0583 24.2674L65.6373 20.7934L65.6271 20.25H60.001L60.0303 21.7575C60.0415 22.3133 60.217 22.8532 60.5343 23.31L62.3219 25.875L60.5354 28.4411C60.2171 28.8972 60.0417 29.4376 60.0314 29.9936ZM39.9682 29.9925C39.9568 29.4366 39.7814 28.8965 39.4642 28.44L37.6777 25.875L39.4642 23.3089C39.7825 22.8532 39.9569 22.3133 39.9682 21.7575L39.9985 20.25H34.3724L34.3612 20.7934L31.9413 24.2674C31.6127 24.7391 31.4365 25.3001 31.4365 25.875C31.4365 26.4499 31.6127 27.0109 31.9413 27.4826L34.3612 30.9555L34.3724 31.5H39.9985L39.9682 29.9925Z" fill="#D96C73"/>
<path d="M65.75 25.8753L62.843 30.0491L62.7418 35.1341L57.9346 36.7991L54.8679 40.8581L50 39.3753L45.1321 40.8581L42.0654 36.798L37.2571 35.1341L37.157 30.0491L34.25 25.8753L37.157 21.7016L37.2582 16.6166L42.0654 14.9516L45.1321 10.8926L50 12.3753L54.8679 10.8926L57.9346 14.9527L62.7429 16.6166L62.843 21.7016L65.75 25.8753Z" fill="#FF8088"/>
<path d="M50 34.875C54.9706 34.875 59 30.8456 59 25.875C59 20.9044 54.9706 16.875 50 16.875C45.0294 16.875 41 20.9044 41 25.875C41 30.8456 45.0294 34.875 50 34.875Z" fill="#83ADE6"/>
<path d="M48.8755 30.3753C48.5771 30.3752 48.291 30.2566 48.0801 30.0456L44.7051 26.6706L46.2958 25.0799L48.8001 27.5841L53.6365 21.7803L55.3645 23.2203L49.7395 29.9703C49.6394 30.0904 49.5154 30.1884 49.3753 30.2579C49.2353 30.3275 49.0823 30.367 48.9261 30.3741L48.8755 30.3753Z" fill="#5A6D80"/>
<path d="M48.1967 49.4182C47.412 49.3582 46.6307 49.2599 45.8556 49.1234L46.2471 46.9072C46.9457 47.0309 47.6601 47.1209 48.3678 47.1749L48.1967 49.4182ZM50.5559 49.4812L50.5053 47.2312C51.2172 47.2148 51.928 47.1633 52.6349 47.077L52.9094 49.3102C52.1331 49.4069 51.3411 49.4632 50.5559 49.4812ZM43.5539 48.5958C42.7962 48.3813 42.0498 48.129 41.3174 47.8398L42.142 45.7462C42.8046 46.0083 43.4852 46.2378 44.1659 46.4302L43.5539 48.5958ZM55.2359 48.9063L54.7398 46.7125C55.434 46.5548 56.12 46.3626 56.7951 46.1365L57.5117 48.2695C56.7641 48.5191 56.0045 48.7316 55.2359 48.9063ZM39.1664 46.8633C38.4667 46.502 37.7856 46.1059 37.1256 45.6764L38.353 43.7909C38.947 44.1768 39.568 44.539 40.1991 44.8653L39.1664 46.8633ZM59.7089 47.4055L58.783 45.3547C59.432 45.0608 60.0661 44.7353 60.6831 44.3793L61.8081 46.3267C61.1267 46.721 60.4261 47.081 59.7089 47.4055ZM35.2143 44.2904C34.6009 43.7968 34.0122 43.2735 33.4502 42.7222L35.0275 41.1168C35.5338 41.614 36.0715 42.0922 36.6239 42.5365L35.2143 44.2904ZM63.7915 45.0453L62.4764 43.2194C63.0545 42.8028 63.6117 42.3579 64.1459 41.8863L65.6354 43.5727C65.0481 44.0924 64.4271 44.5874 63.7915 45.0453ZM31.8505 40.9863C31.346 40.3815 30.8722 39.7519 30.4307 39.0997L32.2937 37.8385C32.6909 38.4258 33.124 38.9995 33.5785 39.5452L31.8505 40.9863ZM67.3263 41.9245L65.6759 40.3945C66.1607 39.8714 66.6231 39.3213 67.0506 38.7577L68.8428 40.1167C68.3674 40.7439 67.8613 41.3473 67.3263 41.9245ZM29.2056 37.0814C28.8309 36.3886 28.4911 35.6775 28.1875 34.9507L30.2642 34.0833C30.5387 34.7403 30.8481 35.3883 31.1845 36.0104L29.2056 37.0814ZM70.1736 38.1648L68.2544 36.9914C68.6234 36.3873 68.9665 35.7562 69.2747 35.1149L71.302 36.0892C70.9622 36.799 70.582 37.4977 70.1736 38.1648ZM29.2439 15.973C29.5724 15.2632 29.9425 14.56 30.343 13.8828L32.2803 15.028C31.918 15.6412 31.5828 16.2768 31.2869 16.918L29.2439 15.973ZM69.3591 15.4769L71.3234 14.38C71.7059 15.0652 72.0591 15.7773 72.3707 16.495L70.3075 17.3917C70.0231 16.7382 69.7066 16.0991 69.3591 15.4769ZM31.6446 11.9129C32.1092 11.2818 32.611 10.6653 33.1364 10.0825L34.8059 11.59C34.3288 12.1194 33.8783 12.6721 33.4559 13.246L31.6446 11.9129ZM66.9145 11.9782L68.6223 10.5134C69.1348 11.1108 69.6172 11.7333 70.0679 12.3787L68.2229 13.6679C67.8154 13.0831 67.3787 12.5191 66.9145 11.9782ZM34.8025 8.41078C35.3854 7.88159 35.994 7.38148 36.6261 6.91228L37.966 8.72016C37.3956 9.14316 36.841 9.59878 36.3145 10.0769L34.8025 8.41078ZM63.8275 9.03066L65.2113 7.25653C65.8278 7.73691 66.4285 8.25553 66.9977 8.79891L65.4441 10.4257C64.9281 9.93483 64.3886 9.46929 63.8275 9.03066ZM38.5915 5.60166C39.2665 5.19891 39.9674 4.82541 40.675 4.49353L41.6313 6.52978C40.9861 6.83278 40.3565 7.1677 39.7446 7.53328L38.5915 5.60166ZM60.2196 6.75478L61.222 4.74103C61.9229 5.08978 62.6147 5.48016 63.2796 5.89978L62.0793 7.80216C61.477 7.4226 60.8564 7.07304 60.2196 6.75478ZM42.862 3.59916C43.605 3.33769 44.3609 3.11428 45.1266 2.92978L45.6554 5.11678C44.9636 5.28437 44.2806 5.48637 43.609 5.72203L42.862 3.59916ZM56.2304 5.24503L56.8098 3.07041C57.5658 3.27178 58.3217 3.51591 59.0586 3.79378L58.2621 5.89866C57.5961 5.64736 56.918 5.42922 56.2304 5.24503ZM47.4452 2.48991C48.2255 2.38274 49.0106 2.31441 49.7976 2.28516L49.8797 4.53403C49.1687 4.55991 48.4533 4.62178 47.7524 4.71853L47.4452 2.48991ZM52.0161 4.56103L52.1567 2.31553C52.9431 2.36503 53.7317 2.45278 54.5012 2.57766L54.1424 4.79841C53.4449 4.68591 52.7294 4.60603 52.0161 4.56103Z" fill="#FFEAAB"/>
<path d="M26.0886 47.2504L25.2899 44.0543C25.1808 43.6172 24.9046 43.2404 24.5208 43.0046C24.1369 42.7688 23.6759 42.6929 23.2368 42.7932C22.33 42.9934 21.7878 43.9407 21.9408 44.8576L22.7136 49.5004L24.3584 52.2544C24.7169 52.8549 25.2339 53.345 25.8527 53.6709C26.4715 53.9967 27.1682 54.1458 27.8661 54.1017L29.4636 54.0004L26.0886 47.2504Z" fill="#F2D0A3"/>
<path d="M40.0573 55.4632L35.9803 49.7032C35.6736 49.2695 35.2143 48.9677 34.6945 48.8582C34.1747 48.7487 33.6327 48.8396 33.177 49.1127C32.7213 49.3857 32.3856 49.8208 32.2371 50.3308C32.0885 50.8409 32.1381 51.3882 32.3758 51.8632L33.7348 54.9165L25.7676 52.392C25.4121 52.259 25.0963 52.038 24.8496 51.7496L19.7016 45.7432C19.3446 45.3354 18.8453 45.0794 18.3058 45.0274C17.7663 44.9754 17.2274 45.1314 16.799 45.4635C16.3707 45.7956 16.0854 46.2787 16.0013 46.8141C15.9173 47.3495 16.0409 47.8969 16.3468 48.3442L22.819 57.5906C22.9225 57.7391 23.044 57.8741 23.1801 57.9933L27.6362 61.8926C29.2292 63.2865 32.1193 64.9335 31.9483 67.3117C31.8898 68.1262 31.7998 68.9385 31.7121 69.7507H41.8371C41.5952 64.9886 43.0476 59.6718 40.0573 55.4632Z" fill="#FFDBAC"/>
<path d="M73.625 47.2504L74.4237 44.0543C74.5329 43.6172 74.809 43.2404 75.1928 43.0046C75.5767 42.7688 76.0377 42.6929 76.4769 42.7932C77.3836 42.9934 77.9259 43.9407 77.7729 44.8576L77 49.5004L76.1765 50.8797C75.5708 51.8942 74.6972 52.7222 73.6517 53.2728C72.6062 53.8233 71.4292 54.0751 70.25 54.0004L73.625 47.2504Z" fill="#F2D0A3"/>
<path d="M59.656 55.4624L63.733 49.7024C64.0398 49.2687 64.499 48.9669 65.0188 48.8574C65.5386 48.7479 66.0806 48.8388 66.5363 49.1118C66.992 49.3849 67.3277 49.82 67.4762 50.33C67.6248 50.84 67.5752 51.3873 67.3375 51.8624L65.9785 54.9156L73.9457 52.39C74.3012 52.2573 74.6173 52.0356 74.8637 51.7476L80.0117 45.7413C80.3687 45.3335 80.868 45.0774 81.4075 45.0254C81.947 44.9734 82.486 45.1294 82.9143 45.4615C83.3426 45.7936 83.6279 46.2767 83.712 46.8122C83.796 47.3476 83.6724 47.8949 83.3665 48.3423L76.8943 57.5886C76.7908 57.7371 76.6693 57.8721 76.5332 57.9914L72.0771 61.8906C70.4841 63.2845 67.594 64.9315 67.765 67.3098C67.8223 68.1254 67.9123 68.9376 68.0001 69.7499H57.8751C58.1181 64.9878 56.6657 59.671 59.656 55.4624Z" fill="#FFDBAC"/>
</svg>
