<svg width="100" height="87" viewBox="0 0 100 87" fill="none" xmlns="http://www.w3.org/2000/svg">
<path opacity="0.1" d="M100 36.0986C100 63.7128 77.6142 86.0986 50 86.0986C22.3858 86.0986 0 63.7128 0 36.0986C0 8.48434 37.3858 41.0983 65 41.0983C92.6142 41.0983 100 8.48434 100 36.0986Z" fill="#855FCE"/>
<g clip-path="url(#clip0_471_4438)">
<path d="M23.9534 36.1442C23.7793 36.1724 23.6021 36.1909 23.4202 36.1909C22.6746 36.1909 21.9883 35.9434 21.4326 35.5303C21.1851 36.7394 21.1609 38.5531 22.1048 40.9128C23.176 43.5915 19.1384 45.8178 19.495 49.5528L23.5256 48.5353C24.0033 48.4149 24.4669 48.2444 24.9088 48.0268L26.8854 47.0522C27.2576 46.8688 27.5709 46.5848 27.79 46.2325C28.0091 45.8802 28.1252 45.4736 28.1252 45.0587V42.6344C25.7824 41.3572 24.1413 38.9416 23.9534 36.1442Z" fill="#FCDD86"/>
<path d="M43.0112 52.6972C41.412 52.9546 40.0024 51.8754 39.7203 50.3975C36.7838 55.5505 33.8034 53.1416 32.5335 51.6741C32.4365 51.5619 32.3823 51.419 32.3805 51.2707H31.4743C31.4726 51.419 31.4184 51.5619 31.3213 51.6741C29.9235 53.2896 26.4538 56.0472 23.2506 48.6045L17.8093 49.9781C17.1314 50.1487 16.5259 50.5315 16.0811 51.0707C15.6362 51.6098 15.3753 52.277 15.3365 52.9748L14.7045 70.3347C14.6976 70.4585 14.7161 70.5823 14.7587 70.6987C14.8013 70.815 14.8672 70.9215 14.9524 71.0115C15.0375 71.1016 15.1402 71.1733 15.254 71.2223C15.3678 71.2713 15.4904 71.2966 15.6144 71.2966H20.676C21.0163 71.2966 21.2923 71.0207 21.2923 70.6804V59.8289L22.1861 62.692C22.7705 64.5641 23.0678 66.5139 23.0678 68.4751V70.6801C23.0678 71.0204 23.3437 71.2963 23.684 71.2963H35.9052L36.1738 66.3952C36.2061 65.8151 36.4229 65.2604 36.7928 64.8122C37.1626 64.3641 37.6659 64.0458 38.2294 63.9039L41.5597 63.0658C41.7456 62.4251 41.8961 61.9746 42.5623 59.8286V62.8132L43.5923 62.5539L45.1901 61.7661C45.2576 61.7091 46.8185 61.2036 46.8185 59.4796V58.4072C44.6872 57.3362 43.1788 55.1933 43.0112 52.6972Z" fill="#FC657E"/>
<path d="M40.0319 48.4525C39.1423 48.1862 38.7154 47.8917 37.4351 47.2822C36.4013 48.493 34.7883 50.021 32.8519 50.6218C32.3962 50.7633 32.2208 51.3137 32.5329 51.6745C33.8028 53.1424 36.7832 55.551 39.7197 50.3979C39.5903 49.7329 39.7009 49.0436 40.0319 48.4525ZM31.0018 50.6218C29.0654 50.0213 27.4524 48.493 26.4186 47.2822L24.908 48.027C24.4661 48.2447 24.0025 48.4151 23.5248 48.5355L23.25 48.6049C26.4532 56.0477 29.9229 53.29 31.3208 51.6745C31.6327 51.3137 31.4574 50.763 31.0018 50.6218Z" fill="#EDF4FC"/>
<path d="M36.9688 47.0526C36.5967 46.8692 36.2834 46.5852 36.0643 46.2329C35.8452 45.8806 35.729 45.474 35.729 45.0591V42.6348C34.5964 43.2521 33.3004 43.6034 31.9263 43.6034C30.5521 43.6034 29.2561 43.2521 28.1238 42.6348V45.0591C28.1237 45.474 28.0076 45.8806 27.7885 46.2329C27.5694 46.5852 27.2561 46.8692 26.884 47.0526L26.418 47.2824C27.4518 48.4932 29.0648 50.0212 31.0012 50.622C31.1399 50.664 31.2611 50.7501 31.3463 50.8674C31.4315 50.9846 31.4761 51.1265 31.4732 51.2714H32.3793C32.3764 51.1265 32.4209 50.9846 32.5061 50.8673C32.5913 50.7501 32.7125 50.6639 32.8513 50.622C34.7877 50.0215 36.4007 48.4932 37.4345 47.2824L36.9688 47.0526Z" fill="#F9D0B4"/>
<path d="M42.6676 59.134C42.5013 59.1083 42.3312 59.1434 42.1886 59.2327C42.0459 59.322 41.9401 59.4597 41.8905 59.6205C41.634 60.4468 41.454 61.0214 41.319 61.4526C41.1309 62.0533 41.0293 62.377 40.9309 62.7112C40.8824 62.8752 40.8953 63.0513 40.9672 63.2065C41.0391 63.3616 41.1652 63.4853 41.3217 63.5542C41.4783 63.6232 41.6546 63.6327 41.8176 63.581C41.9807 63.5293 42.1193 63.4199 42.2075 63.2734C42.3143 63.3358 42.4358 63.3689 42.5595 63.3694C42.6832 63.3698 42.8049 63.3377 42.9122 63.2761C43.0195 63.2145 43.1087 63.1256 43.1707 63.0185C43.2327 62.9115 43.2653 62.7899 43.2653 62.6662V59.8292C43.2653 59.661 43.205 59.4983 43.0954 59.3708C42.9857 59.2432 42.8339 59.1592 42.6676 59.134ZM35.9047 70.5935H23.7707V68.4754C23.771 66.443 23.4629 64.4224 22.8569 62.4825L21.9631 59.6194C21.9134 59.4587 21.8076 59.3212 21.6649 59.232C21.5223 59.1428 21.3523 59.1079 21.186 59.1337C21.0198 59.159 20.8682 59.2431 20.7587 59.3706C20.6491 59.4982 20.5889 59.6608 20.5889 59.8289V70.5935H15.6145C15.5862 70.5935 15.5581 70.5878 15.5321 70.5766C15.5061 70.5655 15.4826 70.5491 15.4632 70.5285C15.4401 70.504 15.4021 70.452 15.4072 70.3603L16.0383 53.0137C16.0671 52.4649 16.2715 51.9399 16.6213 51.5161C16.9711 51.0924 17.4478 50.7922 17.9812 50.6599L23.4225 49.2863C23.5121 49.2637 23.5963 49.2236 23.6703 49.1685C23.7444 49.1134 23.8069 49.0442 23.8542 48.9649C23.9015 48.8856 23.9328 48.7977 23.9461 48.7064C23.9595 48.615 23.9548 48.5219 23.9322 48.4324C23.9096 48.3429 23.8695 48.2587 23.8144 48.1846C23.7593 48.1105 23.6901 48.0481 23.6108 48.0007C23.5315 47.9534 23.4436 47.9222 23.3523 47.9088C23.2609 47.8954 23.1678 47.9002 23.0783 47.9228L17.6375 49.2961C15.9385 49.7236 14.7316 51.1861 14.6335 52.949L14.0023 70.2956C13.9905 70.5148 14.0234 70.7341 14.0988 70.9402C14.1743 71.1463 14.2908 71.3349 14.4414 71.4946C14.5925 71.6539 14.7744 71.7808 14.9761 71.8676C15.1777 71.9544 15.3949 71.9994 15.6145 71.9997H20.6761C21.0259 71.9994 21.3612 71.8603 21.6085 71.613C21.8559 71.3657 21.995 71.0304 21.9955 70.6807V64.7769C22.2413 65.9944 22.365 67.2334 22.3648 68.4754V70.6807C22.3651 71.0304 22.5042 71.3657 22.7515 71.613C22.9988 71.8603 23.3341 71.9994 23.6838 71.9997H35.905C35.9973 71.9997 36.0887 71.9815 36.174 71.9462C36.2593 71.9108 36.3368 71.859 36.4021 71.7937C36.4674 71.7284 36.5192 71.6509 36.5545 71.5656C36.5898 71.4802 36.608 71.3888 36.608 71.2965C36.6079 71.2041 36.5897 71.1127 36.5544 71.0274C36.519 70.9421 36.4672 70.8646 36.4019 70.7993C36.3366 70.734 36.2591 70.6823 36.1738 70.6469C36.0885 70.6116 35.997 70.5935 35.9047 70.5935Z" fill="black"/>
<path d="M42.4231 35.5303C41.8492 35.9593 41.152 36.191 40.4355 36.1909C40.2568 36.1897 40.0785 36.1741 39.9023 36.1442C39.7147 38.9416 38.0733 41.3572 35.7305 42.6341V45.0585C35.7305 45.4733 35.8466 45.8799 36.0657 46.2322C36.2848 46.5845 36.5981 46.8685 36.9702 47.052L38.9468 48.0265C39.2964 48.1983 39.6597 48.3405 40.033 48.4517C40.2158 48.125 40.4601 47.8368 40.7525 47.6029V45.0922C40.7511 43.6412 41.0927 42.2104 41.7495 40.9165L41.7509 40.9126C42.6948 38.5531 42.6706 36.7394 42.4231 35.5303Z" fill="#FCDD86"/>
<path d="M40.4356 29.5156C40.2609 29.5156 40.0899 29.5302 39.9226 29.5564V35.6086C39.9226 35.7889 39.9144 35.9672 39.9023 36.1447C40.0764 36.1728 40.2536 36.1914 40.4356 36.1914C42.2789 36.1914 43.7735 34.6971 43.7735 32.8535C43.7735 31.0102 42.2789 29.5156 40.4356 29.5156Z" fill="#F9D0B4"/>
<path d="M39.431 28.5408C38.6222 28.3532 37.6397 27.8846 36.5139 26.8617C36.4616 26.8134 36.4002 26.7761 36.3331 26.752C36.2661 26.7279 36.195 26.7175 36.1239 26.7215C36.0528 26.7255 35.9832 26.7438 35.9193 26.7752C35.8555 26.8066 35.7985 26.8506 35.752 26.9045C34.5345 28.3256 30.217 32.6372 23.9336 30.8476V35.6086C23.9336 40.0057 27.5311 43.6031 31.9281 43.6031C36.3252 43.6031 39.9227 40.0057 39.9227 35.6086V29.1497C39.9229 28.8561 39.7173 28.6072 39.431 28.5408Z" fill="#F9D0B4"/>
<path d="M23.9329 35.6083V30.8473C23.3558 30.682 22.7908 30.4769 22.242 30.2334C22.0594 30.1532 21.8573 30.1284 21.6607 30.1621C21.4641 30.1959 21.2818 30.2867 21.1364 30.4232C20.8033 30.7342 20.5378 31.1104 20.3564 31.5285C20.175 31.9466 20.0816 32.3975 20.082 32.8532C20.082 34.6965 21.5763 36.1911 23.4199 36.1911C23.6019 36.1911 23.7791 36.1725 23.9532 36.1444C23.9405 35.966 23.9337 35.7872 23.9329 35.6083Z" fill="#F9D0B4"/>
<path d="M31.9278 17.6709C25.9487 17.6709 21.0566 22.563 21.0566 28.5421V30.5066C21.0839 30.4793 21.1087 30.4501 21.1368 30.4236C21.2821 30.287 21.4645 30.1962 21.661 30.1624C21.8576 30.1287 22.0598 30.1535 22.2424 30.2338C22.7912 30.4773 23.3561 30.6824 23.9333 30.8477C30.2167 32.6376 34.5341 28.3258 35.7517 26.9046C35.7982 26.8507 35.8551 26.8067 35.919 26.7753C35.9829 26.7438 36.0525 26.7255 36.1236 26.7215C36.1947 26.7176 36.2658 26.7279 36.3328 26.752C36.3998 26.7761 36.4613 26.8135 36.5136 26.8619C37.6394 27.8848 38.6218 28.3533 39.4307 28.5409C39.7167 28.6073 39.9223 28.8562 39.9223 29.1498V29.5565C40.442 29.4747 40.9737 29.5173 41.4738 29.6808C41.9738 29.8443 42.428 30.124 42.799 30.497V28.5418C42.799 22.563 37.9069 17.6709 31.9278 17.6709Z" fill="#FCDD86"/>
<path d="M40.4349 28.8125C40.31 28.8125 40.1869 28.8187 40.0651 28.8302C39.9731 28.8388 39.8838 28.8653 39.8021 28.9084C39.7204 28.9515 39.648 29.0103 39.589 29.0813C39.5301 29.1524 39.4857 29.2344 39.4584 29.3226C39.4311 29.4108 39.4215 29.5035 39.43 29.5955C39.466 29.9819 39.808 30.2615 40.1953 30.2306C40.2743 30.2232 40.3539 30.219 40.4349 30.219C41.8879 30.219 43.0697 31.4008 43.0697 32.8538C43.0697 34.3064 41.8879 35.4882 40.4349 35.4882C40.3511 35.4882 40.2684 35.4829 40.1871 35.4742C40.0953 35.4642 40.0025 35.4725 39.9139 35.4984C39.8252 35.5243 39.7426 35.5675 39.6706 35.6253C39.5987 35.6832 39.5388 35.7547 39.4945 35.8357C39.4502 35.9167 39.4223 36.0056 39.4123 36.0974C39.4023 36.1892 39.4106 36.2821 39.4365 36.3707C39.4624 36.4593 39.5056 36.542 39.5634 36.6139C39.6803 36.7593 39.8502 36.8522 40.0355 36.8723C40.1717 36.8872 40.3061 36.8945 40.4349 36.8945C42.663 36.8945 44.4759 35.0818 44.4759 32.8538C44.4756 30.6254 42.663 28.8125 40.4349 28.8125ZM34.8161 37.7124C34.7453 37.6531 34.6636 37.6083 34.5755 37.5805C34.4874 37.5528 34.3948 37.5427 34.3028 37.5508C34.2108 37.5589 34.1213 37.585 34.0394 37.6277C33.9575 37.6704 33.8849 37.7288 33.8255 37.7996C33.4355 38.265 32.7695 38.5429 32.0435 38.5429C31.3176 38.5429 30.6516 38.2653 30.2615 37.7996C30.1418 37.6566 29.9701 37.5672 29.7843 37.5508C29.5986 37.5345 29.4139 37.5926 29.271 37.7124C29.1281 37.8322 29.0386 38.0038 29.0222 38.1896C29.0059 38.3754 29.064 38.56 29.1838 38.7029C29.8377 39.4828 30.9067 39.9489 32.0435 39.9489C33.1804 39.9489 34.2494 39.4831 34.9033 38.7029C34.9626 38.6322 35.0074 38.5504 35.0351 38.4623C35.0629 38.3743 35.073 38.2816 35.0649 38.1896C35.0568 38.0976 35.0306 38.0081 34.988 37.9262C34.9453 37.8444 34.8869 37.7717 34.8161 37.7124Z" fill="black"/>
<path d="M39.5897 27.8554C38.756 27.6622 37.8802 27.1529 36.9864 26.3406C36.8632 26.2293 36.719 26.1436 36.5623 26.0885C36.4056 26.0334 36.2396 26.01 36.0738 26.0197C35.9097 26.0295 35.7494 26.0724 35.6023 26.1457C35.4553 26.2191 35.3246 26.3215 35.2182 26.4467C34.1061 27.7446 30.0198 31.85 24.1263 30.171C24.0216 30.141 23.9115 30.1357 23.8045 30.1556C23.6975 30.1755 23.5965 30.22 23.5097 30.2855C23.4228 30.3511 23.3524 30.436 23.3039 30.5334C23.2554 30.6309 23.2303 30.7383 23.2305 30.8471V35.6081C23.2305 40.4042 27.1323 44.306 31.9281 44.306C36.724 44.306 40.6258 40.4042 40.6258 35.6081V29.1495C40.6261 28.5293 40.2003 27.9972 39.5897 27.8554ZM39.2198 35.6081C39.2198 39.6288 35.9489 42.8998 31.9284 42.8998C27.9079 42.8998 24.637 39.6288 24.637 35.6081V31.7432C30.66 32.9832 34.8334 29.0083 36.1691 27.4963C37.1836 28.3904 38.209 28.9672 39.2198 29.2127V35.6081Z" fill="black"/>
<path d="M21.9577 30.8766C22.5363 31.133 23.1319 31.3492 23.7403 31.5237C23.9196 31.5748 24.1119 31.5525 24.2748 31.4618C24.4378 31.3711 24.558 31.2193 24.609 31.04C24.6601 30.8606 24.6378 30.6683 24.5471 30.5054C24.4564 30.3425 24.3046 30.2223 24.1253 30.1712C23.5794 30.0146 23.0449 29.8204 22.5258 29.5901C22.2171 29.4535 21.875 29.411 21.5422 29.468C21.2095 29.525 20.901 29.6791 20.6555 29.9108C20.2535 30.2885 19.9329 30.7443 19.7134 31.2503C19.4939 31.7564 19.38 32.3019 19.3789 32.8535C19.3789 35.0818 21.1916 36.8945 23.4199 36.8945C23.533 36.8945 23.6441 36.8886 23.7543 36.8785C23.94 36.8612 24.1112 36.7709 24.2303 36.6275C24.3493 36.484 24.4066 36.2991 24.3894 36.1135C24.3811 36.0214 24.3547 35.9319 24.3117 35.8501C24.2687 35.7683 24.21 35.6958 24.1389 35.6368C24.0678 35.5778 23.9858 35.5333 23.8975 35.5061C23.8092 35.4789 23.7164 35.4694 23.6244 35.4781C23.5569 35.4843 23.4888 35.488 23.4196 35.488C21.9667 35.488 20.7849 34.3061 20.7849 32.8532C20.7837 32.4935 20.857 32.1375 21.0002 31.8076C21.1435 31.4776 21.3535 31.1809 21.6171 30.9362C21.6617 30.8939 21.7178 30.8657 21.7784 30.8551C21.839 30.8445 21.9013 30.852 21.9577 30.8766Z" fill="black"/>
<path d="M31.928 16.9678C25.5458 16.9678 20.3537 22.1599 20.3537 28.5421V30.3401C20.3537 30.5266 20.4278 30.7054 20.5596 30.8373C20.6915 30.9691 20.8703 31.0432 21.0568 31.0432C21.2433 31.0432 21.4221 30.9691 21.554 30.8373C21.6859 30.7054 21.7599 30.5266 21.7599 30.3401V28.5421C21.7599 22.9353 26.3213 18.374 31.928 18.374C37.5347 18.374 42.096 22.9356 42.096 28.5421V30.2931C42.096 30.4796 42.1701 30.6584 42.3019 30.7903C42.4338 30.9222 42.6126 30.9962 42.7991 30.9962C42.9856 30.9962 43.1644 30.9222 43.2963 30.7903C43.4282 30.6584 43.5023 30.4796 43.5023 30.2931V28.5421C43.5023 22.1599 38.3101 16.9678 31.928 16.9678ZM43.1479 35.5775C43.1318 35.4866 43.0979 35.3997 43.0482 35.3218C42.9985 35.244 42.9339 35.1767 42.8581 35.1239C42.7823 35.0711 42.6969 35.0337 42.6066 35.014C42.5164 34.9942 42.4232 34.9925 42.3323 35.0088C42.1487 35.0415 41.9856 35.1458 41.8789 35.2987C41.7722 35.4516 41.7306 35.6406 41.7633 35.8242C42.0184 37.2566 41.7883 38.9261 41.0978 40.6521L41.0866 40.6822C41.0237 40.856 41.0318 41.0476 41.1092 41.2155C41.1865 41.3833 41.3268 41.514 41.4997 41.5792C41.6727 41.6444 41.8643 41.6389 42.0332 41.5639C42.2021 41.4889 42.3347 41.3504 42.4023 41.1783L42.4073 41.1648C43.2036 39.1702 43.4528 37.2903 43.1479 35.5775ZM22.7578 40.6518C22.0668 38.9247 21.837 37.2549 22.0927 35.8222C22.1254 35.6387 22.084 35.4496 21.9774 35.2967C21.8708 35.1437 21.7078 35.0394 21.5243 35.0066C21.3407 34.9738 21.1517 35.0153 20.9987 35.1219C20.8458 35.2285 20.7414 35.3915 20.7086 35.575C20.4023 37.2909 20.6524 39.1747 21.4523 41.1741C21.8407 42.1453 21.3254 43.0689 20.4524 44.496C19.6109 45.8718 18.6569 47.4311 18.7804 49.4308C18.7944 49.615 18.8803 49.7863 19.0196 49.9077C19.1589 50.029 19.3404 50.0907 19.5248 50.0793C19.7092 50.0679 19.8817 49.9844 20.005 49.8468C20.1284 49.7093 20.1926 49.5287 20.1838 49.3442C20.0876 47.7869 20.883 46.4872 21.6519 45.23C22.5252 43.8027 23.428 42.327 22.7578 40.6518ZM40.6844 48.1885C40.6448 48.091 40.5839 48.0036 40.506 47.9328C40.4282 47.862 40.3355 47.8095 40.2347 47.7793C39.8989 47.6789 39.572 47.551 39.2573 47.3968L37.7468 46.652C37.6066 46.5828 37.4473 46.5623 37.2942 46.5938C37.1411 46.6253 37.0028 46.7069 36.9013 46.8258C35.9451 47.9455 34.43 49.3967 32.6446 49.9505C32.4255 50.0174 32.2267 50.138 32.0661 50.3013C31.9055 50.4646 31.7883 50.6655 31.7252 50.8857C31.6635 51.1004 31.6565 51.3271 31.7049 51.5452C31.7532 51.7633 31.8553 51.9659 32.0019 52.1344C32.8508 53.1152 34.1794 54.2399 35.8087 54.2399C35.9226 54.2399 36.0382 54.2342 36.1549 54.223C37.6975 54.0717 39.1027 52.902 40.3314 50.7462C40.4144 50.6008 40.4427 50.4305 40.4113 50.2661C40.3123 49.7634 40.3957 49.2418 40.6467 48.7951C40.7508 48.6092 40.7646 48.3859 40.6844 48.1885ZM38.9888 50.2585C38.0356 51.8608 37.0369 52.7239 36.0179 52.8235C34.8085 52.9444 33.7007 51.9325 33.1188 51.2752C34.977 50.6809 36.5348 49.3239 37.607 48.1505L38.6358 48.6582C38.7877 48.733 38.9432 48.803 39.1018 48.868C38.9721 49.3194 38.9337 49.7921 38.9888 50.2585Z" fill="black"/>
<path d="M32.1288 50.8853C32.0657 50.6652 31.9485 50.4643 31.788 50.301C31.6275 50.1376 31.4286 50.017 31.2096 49.9501C29.4237 49.3961 27.9089 47.9451 26.9526 46.8255C26.8511 46.7066 26.7128 46.625 26.5597 46.5936C26.4066 46.5621 26.2474 46.5825 26.1072 46.6516L24.5966 47.3964C24.199 47.5922 23.7819 47.7455 23.3521 47.8537L23.0773 47.9232C22.9787 47.9482 22.8868 47.9943 22.8077 48.0583C22.7287 48.1223 22.6645 48.2027 22.6195 48.2939C22.5745 48.3851 22.5498 48.485 22.5471 48.5866C22.5444 48.6883 22.5638 48.7893 22.6039 48.8828C23.9987 52.1234 25.6479 53.9124 27.5059 54.1995C27.6783 54.2263 27.8518 54.2395 28.0262 54.2395C29.3244 54.2395 30.6646 53.5068 31.8523 52.1343C31.9987 51.9656 32.1007 51.763 32.149 51.5449C32.1973 51.3268 32.1903 51.1 32.1288 50.8853ZM27.7207 52.8099C26.5167 52.6237 25.3174 51.3328 24.2293 49.0622C24.568 48.9506 24.8985 48.8154 25.2184 48.6578L26.247 48.1504C27.3188 49.3238 28.8764 50.6805 30.7352 51.2751C30.1294 51.96 28.9774 53.0023 27.7207 52.8099ZM37.7459 46.6514L37.2796 46.4216C37.0245 46.297 36.8097 46.1031 36.6598 45.862C36.5099 45.621 36.431 45.3425 36.4322 45.0586V42.873C36.4322 42.6866 36.3581 42.5077 36.2262 42.3759C36.0944 42.244 35.9155 42.1699 35.729 42.1699C35.5426 42.1699 35.3637 42.244 35.2319 42.3759C35.1 42.5077 35.0259 42.6866 35.0259 42.873V45.0586C35.0259 46.1811 35.6514 47.1866 36.6577 47.6827L37.1238 47.9125C37.2902 47.9887 37.4798 47.997 37.6522 47.9357C37.8247 47.8744 37.9665 47.7483 38.0475 47.5841C38.1284 47.42 38.1422 47.2307 38.0859 47.0566C38.0296 46.8824 37.9076 46.737 37.7459 46.6514Z" fill="black"/>
<path d="M32.3301 50.5679H31.5232C31.3367 50.5679 31.1578 50.642 31.026 50.7738C30.8941 50.9057 30.82 51.0845 30.82 51.271C30.82 51.4575 30.8941 51.6364 31.026 51.7682C31.1578 51.9001 31.3367 51.9742 31.5232 51.9742H32.3301C32.5166 51.9742 32.6954 51.9001 32.8273 51.7682C32.9591 51.6364 33.0332 51.4575 33.0332 51.271C33.0332 51.0845 32.9591 50.9057 32.8273 50.7738C32.6954 50.642 32.5166 50.5679 32.3301 50.5679ZM28.124 42.1875C27.9375 42.1875 27.7587 42.2616 27.6268 42.3934C27.4949 42.5253 27.4209 42.7041 27.4209 42.8906V45.0588C27.422 45.3427 27.3431 45.6212 27.1932 45.8623C27.0432 46.1033 26.8283 46.2972 26.5732 46.4217L26.1071 46.6515C25.944 46.7364 25.8206 46.8818 25.7634 47.0566C25.7062 47.2314 25.7197 47.4216 25.8011 47.5866C25.8824 47.7515 26.0251 47.878 26.1986 47.939C26.3721 48 26.5626 47.9906 26.7293 47.9129L27.195 47.6831C27.6862 47.4434 28.0999 47.07 28.3886 46.6059C28.6773 46.1418 28.8292 45.6056 28.8271 45.0591V42.8906C28.8271 42.7041 28.753 42.5253 28.6212 42.3934C28.4893 42.2616 28.3105 42.1875 28.124 42.1875Z" fill="black"/>
<path d="M75.7282 28.1065C75.726 27.9903 75.6794 27.8792 75.5979 27.7963C75.5164 27.7133 75.4062 27.6647 75.29 27.6605C71.7648 27.5573 69.9071 26.16 69.1936 25.4603C69.1478 25.4152 69.0931 25.3804 69.0329 25.3579C68.9727 25.3355 68.9085 25.326 68.8444 25.33C68.7804 25.334 68.7178 25.3515 68.661 25.3813C68.6041 25.4111 68.5541 25.4526 68.5144 25.503C65.415 29.4009 60.8427 28.8507 59.3054 28.529C59.0261 28.4705 58.7581 28.6811 58.7578 28.9666V35.7984C58.7578 40.4658 62.5763 44.2843 67.2437 44.2843C71.911 44.2843 75.7296 40.4658 75.7296 35.7984V28.2393C75.7294 28.195 75.7289 28.1508 75.7282 28.1065Z" fill="#F9C1A8"/>
<path d="M73.8833 19.1061C72.979 19.1061 72.1336 19.3615 71.4071 19.7974C70.5586 18.3811 69.0126 17.4248 67.2503 17.4248H64.7612C59.9437 17.4248 56.002 21.3665 56.002 26.1841V30.1089C56.3848 29.8015 56.8276 29.5775 57.3021 29.4512C57.7765 29.3249 58.2721 29.2991 58.7571 29.3754V28.9676C58.7574 28.6821 59.0254 28.4717 59.3047 28.53C60.842 28.8517 65.4143 29.4018 68.5136 25.504C68.5534 25.4536 68.6034 25.4121 68.6602 25.3823C68.7171 25.3525 68.7796 25.335 68.8437 25.331C68.9078 25.327 68.972 25.3365 69.0322 25.3589C69.0923 25.3814 69.1471 25.4162 69.1929 25.4612C69.9067 26.161 71.764 27.558 75.2892 27.6615C75.5297 27.6685 75.7226 27.8668 75.7274 28.1075C75.7283 28.1517 75.7288 28.1958 75.7288 28.2403V29.3754C76.2686 29.2906 76.8208 29.3323 77.3417 29.4974C77.8626 29.6624 78.3381 29.9461 78.7306 30.3263V23.9535C78.7306 21.2875 76.5492 19.1061 73.8833 19.1061Z" fill="#414344"/>
<path d="M76.2739 29.3313C76.0885 29.3313 75.9068 29.3468 75.7294 29.3746V35.799C75.7294 35.9902 75.7206 36.1798 75.708 36.3679C75.8928 36.3977 76.0809 36.4174 76.2739 36.4174C78.2305 36.4174 79.8168 34.8312 79.8168 32.8745C79.8168 30.9176 78.2305 29.3313 76.2739 29.3313ZM58.7573 35.7987V29.3744C58.5772 29.346 58.3952 29.3315 58.2128 29.3311C56.2562 29.3311 54.6699 30.9173 54.6699 32.874C54.6699 34.8306 56.2562 36.4169 58.2128 36.4169C58.406 36.4169 58.5939 36.3972 58.7787 36.3674C58.7652 36.1781 58.7581 35.9884 58.7573 35.7987Z" fill="#F9C1A8"/>
<path d="M84.3574 53.201C84.3177 52.4881 84.0511 51.8065 83.5967 51.2558C83.1422 50.7051 82.5236 50.3141 81.8312 50.1399L75.2409 48.481L72.9116 47.3327C72.4208 47.0907 72.0075 46.7162 71.7185 46.2515C71.4295 45.7868 71.2764 45.2505 71.2764 44.7033V43.2588C70.0394 43.9333 68.6526 44.2862 67.2436 44.2851C65.9286 44.2856 64.6319 43.9775 63.4577 43.3856V44.7033C63.4577 45.8196 62.8237 46.8388 61.8225 47.3327L59.717 48.3708C60.9683 50.4473 59.2336 53.0913 56.7881 52.6978V52.6975C56.6258 55.1149 55.2069 57.2023 53.1816 58.3051V59.4807C53.1816 61.2039 54.7434 61.7108 54.8101 61.7673L56.4079 62.5551L61.771 63.9051C62.3344 64.0469 62.8378 64.3652 63.2076 64.8133C63.5774 65.2614 63.7943 65.816 63.8267 66.3961L64.0953 71.2972H84.3658C84.4924 71.2972 84.6177 71.2713 84.734 71.2213C84.8503 71.1712 84.9551 71.0979 85.0421 71.006C85.1291 70.914 85.1965 70.8052 85.24 70.6863C85.2835 70.5674 85.3024 70.4409 85.2953 70.3145L84.3574 53.201Z" fill="#70D6F9"/>
<path d="M72.9121 47.3327C72.4213 47.0907 72.008 46.7162 71.719 46.2515C71.43 45.7868 71.2769 45.2505 71.2769 44.7033V43.2588C70.0398 43.9333 68.6531 44.2862 67.244 44.2851C65.9291 44.2856 64.6324 43.9775 63.4581 43.3856V44.7033C63.4581 45.8196 62.8242 46.8388 61.8229 47.3327L61.457 47.513C62.5623 49.6578 64.8002 51.1341 67.3675 51.1341C69.9347 51.1341 72.1724 49.6575 73.278 47.513L72.9121 47.3327Z" fill="#F9C1A8"/>
<path d="M76.4316 28.0933C76.4265 27.7964 76.3073 27.5128 76.0986 27.3015C75.8899 27.0902 75.6079 26.9673 75.3111 26.9585C71.9757 26.8603 70.2663 25.5275 69.6861 24.9588C69.5696 24.8455 69.4309 24.7577 69.2786 24.7009C69.1264 24.6441 68.964 24.6196 68.8018 24.6289C68.6394 24.6392 68.4809 24.6835 68.3367 24.7589C68.1924 24.8343 68.0655 24.9391 67.9643 25.0665C65.1602 28.5923 61.075 28.1825 59.4497 27.8416C59.2808 27.8062 59.1061 27.8089 58.9384 27.8496C58.7707 27.8903 58.6142 27.9679 58.4802 28.0767C58.3467 28.1848 58.2391 28.3214 58.1655 28.4766C58.0918 28.6318 58.054 28.8016 58.0547 28.9733V35.7996C58.0547 40.8666 62.177 44.9886 67.2437 44.9886C72.3104 44.9886 76.4327 40.8666 76.4327 35.7996V28.2404L76.4316 28.0933ZM75.0267 35.799C75.0267 40.0906 71.5353 43.5818 67.244 43.5818C62.9527 43.5818 59.4612 40.0906 59.4612 35.799V29.2757C61.1954 29.5825 65.7219 29.9307 68.8974 26.1465C69.8306 26.9849 71.7367 28.2033 75.0267 28.3552V35.799Z" fill="black"/>
<path d="M73.8838 18.4027C73.1104 18.4027 72.3443 18.5686 71.6352 18.8867C70.5887 17.537 68.9625 16.7217 67.2506 16.7217H64.7615C59.544 16.7217 55.2991 20.9666 55.2991 26.1841V30.1089C55.2991 30.2414 55.3365 30.3711 55.4071 30.4832C55.4776 30.5954 55.5783 30.6853 55.6977 30.7427C55.8171 30.8 55.9502 30.8225 56.0819 30.8075C56.2135 30.7925 56.3381 30.7407 56.4416 30.6579C56.7478 30.4105 57.1027 30.2303 57.4832 30.129C57.8637 30.0277 58.2612 30.0075 58.6499 30.0698C58.7501 30.085 58.8525 30.0785 58.9499 30.0508C59.0474 30.023 59.1378 29.9746 59.215 29.9089C59.2919 29.8429 59.3537 29.761 59.3961 29.6689C59.4385 29.5767 59.4604 29.4765 59.4605 29.3751V29.2758C61.1944 29.5824 65.7211 29.9303 68.8967 26.1466C69.8299 26.9851 71.7359 28.2034 75.026 28.3553V29.3751C75.0261 29.4765 75.0481 29.5767 75.0905 29.6688C75.1329 29.7609 75.1947 29.8427 75.2717 29.9087C75.3487 29.9747 75.439 30.0232 75.5365 30.051C75.634 30.0789 75.7364 30.0852 75.8366 30.0698C76.2693 30.0016 76.712 30.0349 77.1297 30.1673C77.5473 30.2996 77.9284 30.5273 78.2429 30.8323C78.3423 30.928 78.4676 30.9923 78.6033 31.0174C78.7389 31.0425 78.879 31.0271 79.006 30.9732C79.1329 30.9192 79.2412 30.8291 79.3173 30.714C79.3935 30.5989 79.434 30.464 79.434 30.326V23.9532C79.4343 20.8926 76.9444 18.4027 73.8838 18.4027ZM78.0281 29.0078C77.526 28.7792 76.9839 28.6513 76.4325 28.6315L76.4311 28.0932C76.4261 27.7962 76.3068 27.5127 76.0982 27.3014C75.8895 27.09 75.6075 26.9672 75.3106 26.9583C71.9753 26.8602 70.2658 25.5273 69.6856 24.9586C69.5692 24.8454 69.4304 24.7575 69.2782 24.7007C69.126 24.644 68.9636 24.6194 68.8014 24.6287C68.6389 24.6391 68.4805 24.6834 68.3362 24.7588C68.1919 24.8341 68.0651 24.9389 67.9638 25.0664C65.1597 28.5924 61.0749 28.1821 59.4493 27.8415C59.2803 27.8061 59.1057 27.8088 58.9379 27.8495C58.7702 27.8902 58.6137 27.9677 58.4798 28.0766C58.3027 28.2197 58.1723 28.4124 58.1054 28.6301C57.6264 28.6428 57.1531 28.7366 56.7054 28.9074V26.1838C56.7054 21.7417 60.3194 18.1276 64.7615 18.1276H67.2506C68.692 18.1276 70.0538 18.9059 70.8044 20.1586C70.9005 20.3183 71.056 20.4335 71.2368 20.4789C71.4176 20.5242 71.6091 20.496 71.7691 20.4004C72.4074 20.0153 73.1384 19.8109 73.8838 19.809C76.169 19.809 78.0281 21.668 78.0281 23.9532V29.0078ZM79.1202 56.5239C78.9337 56.5239 78.7548 56.598 78.623 56.7298C78.4911 56.8617 78.417 57.0405 78.417 57.227V71.078C78.417 71.2645 78.4911 71.4433 78.623 71.5752C78.7548 71.7071 78.9337 71.7811 79.1202 71.7811C79.3066 71.7811 79.4855 71.7071 79.6173 71.5752C79.7492 71.4433 79.8233 71.2645 79.8233 71.078V57.227C79.8233 57.0405 79.7492 56.8617 79.6173 56.7298C79.4855 56.598 79.3066 56.5239 79.1202 56.5239ZM55.6133 56.5239C55.4268 56.5239 55.248 56.598 55.1161 56.7298C54.9842 56.8617 54.9102 57.0405 54.9102 57.227V62.0389C54.9102 62.2254 54.9842 62.4043 55.1161 62.5361C55.248 62.668 55.4268 62.7421 55.6133 62.7421C55.7998 62.7421 55.9786 62.668 56.1105 62.5361C56.2423 62.4043 56.3164 62.2254 56.3164 62.0389V57.227C56.3164 57.0405 56.2423 56.8617 56.1105 56.7298C55.9786 56.598 55.7998 56.5239 55.6133 56.5239Z" fill="black"/>
<path d="M76.2736 28.6282C76.0615 28.6282 75.8419 28.6456 75.6216 28.6797C75.4557 28.7053 75.3045 28.7895 75.1952 28.917C75.086 29.0444 75.0259 29.2068 75.026 29.3746V35.799C75.026 35.9536 75.0198 36.1193 75.0063 36.3207C74.9944 36.4956 75.0484 36.6687 75.1576 36.8059C75.2667 36.9431 75.4232 37.0345 75.5963 37.0623C75.8407 37.1017 76.0624 37.1206 76.2739 37.1206C78.6153 37.1206 80.5199 35.2159 80.5199 32.8745C80.5199 30.5331 78.615 28.6282 76.2736 28.6282ZM76.4322 35.7098V30.039C77.9245 30.1216 79.1134 31.3617 79.1134 32.8745C79.1136 34.3871 77.9248 35.6271 76.4322 35.7098ZM59.4605 35.7987V29.3744C59.4605 29.2065 59.4004 29.0441 59.2912 28.9167C59.1819 28.7892 59.0307 28.705 58.8648 28.6794C58.6491 28.6457 58.4311 28.6285 58.2128 28.6279C55.8714 28.6279 53.9668 30.5326 53.9668 32.8742C53.9668 35.2154 55.8714 37.1203 58.2128 37.1203C58.424 37.1203 58.646 37.1014 58.8904 37.0621C59.0634 37.0342 59.2198 36.9428 59.3289 36.8056C59.4381 36.6685 59.4921 36.4956 59.4804 36.3207C59.4679 36.147 59.4612 35.9729 59.4605 35.7987ZM58.0542 35.7098C56.5619 35.6271 55.373 34.3871 55.373 32.8745C55.373 31.3617 56.5619 30.1216 58.0542 30.039V35.7098ZM63.4573 42.8817C63.2708 42.8817 63.092 42.9558 62.9601 43.0876C62.8283 43.2195 62.7542 43.3983 62.7542 43.5848V44.7031C62.7558 45.1193 62.6401 45.5276 62.4203 45.8811C62.2004 46.2346 61.8854 46.519 61.5113 46.7016L59.5057 47.6905C59.4229 47.7313 59.3489 47.7881 59.288 47.8575C59.2271 47.9269 59.1805 48.0076 59.1508 48.0951C59.1211 48.1825 59.109 48.2749 59.115 48.3671C59.121 48.4592 59.1451 48.5493 59.186 48.6321C59.2268 48.7149 59.2835 48.7889 59.3529 48.8498C59.4224 48.9107 59.5031 48.9573 59.5905 48.987C59.678 49.0167 59.7704 49.0289 59.8626 49.0229C59.9547 49.0168 60.0448 48.9927 60.1276 48.9519L62.1335 47.963C62.7436 47.6651 63.2574 47.2012 63.6159 46.6246C63.9745 46.048 64.1633 45.382 64.1607 44.7031V43.5848C64.1606 43.3983 64.0864 43.2195 63.9545 43.0877C63.8226 42.9558 63.6438 42.8818 63.4573 42.8817ZM85.9972 70.2754L85.059 53.1614C85.0137 52.2979 84.6922 51.4718 84.1418 50.8049C83.5915 50.138 82.8415 49.6655 82.0024 49.457L75.4844 47.8168L73.2223 46.7013C72.8482 46.5187 72.5332 46.2343 72.3134 45.8808C72.0936 45.5273 71.9778 45.119 71.9795 44.7028V43.5466C71.9795 43.3601 71.9054 43.1812 71.7735 43.0494C71.6417 42.9175 71.4628 42.8434 71.2763 42.8434C71.0898 42.8434 70.911 42.9175 70.7791 43.0494C70.6473 43.1812 70.5732 43.3601 70.5732 43.5466V44.7028C70.5732 46.0966 71.35 47.3457 72.6005 47.9627L74.9298 49.1111C74.9742 49.133 75.0209 49.1505 75.069 49.1626L81.6592 50.8211C82.2071 50.9571 82.6967 51.2654 83.056 51.7008C83.4154 52.1361 83.6253 52.6753 83.655 53.239L84.5932 70.3531C84.595 70.384 84.5905 70.4151 84.5798 70.4442C84.5691 70.4733 84.5525 70.4999 84.5311 70.5224C84.5099 70.545 84.4843 70.563 84.4558 70.5753C84.4274 70.5876 84.3967 70.5939 84.3657 70.5938H64.0952C64.0028 70.5938 63.9114 70.612 63.8261 70.6473C63.7408 70.6827 63.6633 70.7345 63.598 70.7997C63.5327 70.865 63.4809 70.9426 63.4456 71.0279C63.4102 71.1132 63.392 71.2046 63.392 71.2969C63.392 71.3893 63.4102 71.4807 63.4456 71.566C63.4809 71.6513 63.5327 71.7288 63.598 71.7941C63.6633 71.8594 63.7408 71.9112 63.8261 71.9465C63.9114 71.9819 64.0028 72.0001 64.0952 72.0001H84.3657C84.8129 72.0001 85.2455 71.8139 85.5529 71.489C85.7051 71.3273 85.823 71.1363 85.8994 70.9277C85.9757 70.7192 86.009 70.4972 85.9972 70.2754Z" fill="black"/>
<path d="M73.5035 47.1189C73.341 47.0274 73.1489 47.0041 72.9693 47.0542C72.7897 47.1043 72.6374 47.2237 72.5458 47.3861C71.4872 49.264 69.5027 50.4304 67.366 50.4304C65.2116 50.4304 63.219 49.2497 62.1654 47.349C62.1215 47.2668 62.0616 47.1941 61.9893 47.1352C61.9171 47.0763 61.8338 47.0323 61.7443 47.0059C61.6549 46.9795 61.5611 46.9712 61.4684 46.9813C61.3757 46.9915 61.286 47.02 61.2044 47.0652C61.1229 47.1104 61.0511 47.1714 60.9933 47.2446C60.9356 47.3178 60.8929 47.4017 60.8679 47.4916C60.8429 47.5814 60.836 47.6753 60.8476 47.7678C60.8592 47.8603 60.8891 47.9496 60.9355 48.0305C62.2369 50.3781 64.7009 51.8364 67.366 51.8364C70.0092 51.8364 72.4637 50.3955 73.7706 48.0763C73.816 47.9959 73.8451 47.9074 73.8563 47.8157C73.8674 47.7241 73.8604 47.6312 73.8355 47.5422C73.8107 47.4533 73.7686 47.3702 73.7116 47.2975C73.6547 47.2249 73.5839 47.1642 73.5035 47.1189ZM70.2176 37.739C70.1468 37.6797 70.0651 37.6349 69.977 37.6072C69.8889 37.5795 69.7962 37.5694 69.7042 37.5775C69.6122 37.5857 69.5227 37.6118 69.4409 37.6545C69.359 37.6972 69.2863 37.7557 69.227 37.8264C68.8325 38.2973 68.1583 38.5785 67.424 38.5785C66.6896 38.5785 66.0157 38.2973 65.6211 37.8264C65.5013 37.6835 65.3297 37.5941 65.144 37.5777C64.9582 37.5613 64.7736 37.6193 64.6306 37.739C64.5598 37.7982 64.5013 37.8709 64.4586 37.9527C64.4159 38.0346 64.3897 38.124 64.3816 38.216C64.3735 38.308 64.3835 38.4006 64.4113 38.4887C64.439 38.5768 64.4838 38.6585 64.5431 38.7293C65.2018 39.5154 66.2787 39.9845 67.424 39.9845C68.5692 39.9845 69.6461 39.5154 70.3048 38.7293C70.4245 38.5864 70.4826 38.4018 70.4662 38.2161C70.4499 38.0304 70.3604 37.8588 70.2176 37.739ZM70.9188 32.0791C70.6226 32.0791 70.3386 32.1967 70.1292 32.4061C69.9198 32.6155 69.8022 32.8995 69.8022 33.1957C69.8022 33.4918 69.9198 33.7758 70.1292 33.9852C70.3386 34.1946 70.6226 34.3122 70.9188 34.3122C71.2149 34.3122 71.4989 34.1946 71.7083 33.9852C71.9177 33.7758 72.0353 33.4918 72.0353 33.1957C72.0353 32.8995 71.9177 32.6155 71.7083 32.4061C71.4989 32.1967 71.2149 32.0791 70.9188 32.0791ZM63.9545 32.0791C63.6583 32.0791 63.3743 32.1967 63.1649 32.4061C62.9555 32.6155 62.8379 32.8995 62.8379 33.1957C62.8379 33.4918 62.9555 33.7758 63.1649 33.9852C63.3743 34.1946 63.6583 34.3122 63.9545 34.3122C64.2506 34.3122 64.5346 34.1946 64.744 33.9852C64.9534 33.7758 65.071 33.4918 65.071 33.1957C65.071 32.8995 64.9534 32.6155 64.744 32.4061C64.5346 32.1967 64.2506 32.0791 63.9545 32.0791ZM35.4813 32.6416C35.1851 32.6416 34.9011 32.7592 34.6917 32.9686C34.4823 33.178 34.3647 33.462 34.3647 33.7582C34.3647 34.0543 34.4823 34.3383 34.6917 34.5477C34.9011 34.7571 35.1851 34.8747 35.4813 34.8747C35.7774 34.8747 36.0614 34.7571 36.2708 34.5477C36.4802 34.3383 36.5978 34.0543 36.5978 33.7582C36.5978 33.462 36.4802 33.178 36.2708 32.9686C36.0614 32.7592 35.7774 32.6416 35.4813 32.6416ZM28.517 32.6416C28.2208 32.6416 27.9368 32.7592 27.7274 32.9686C27.518 33.178 27.4004 33.462 27.4004 33.7582C27.4004 34.0543 27.518 34.3383 27.7274 34.5477C27.9368 34.7571 28.2208 34.8747 28.517 34.8747C28.8131 34.8747 29.0971 34.7571 29.3065 34.5477C29.5159 34.3383 29.6335 34.0543 29.6335 33.7582C29.6335 33.462 29.5159 33.178 29.3065 32.9686C29.0971 32.7592 28.8131 32.6416 28.517 32.6416Z" fill="black"/>
<path d="M56.0472 46.2286H56.0394C53.8706 46.2286 51.948 45.1776 50.7516 43.5573C50.6653 43.4388 50.5523 43.3424 50.4217 43.2759C50.2911 43.2095 50.1466 43.1748 50.0001 43.1748C49.8535 43.1748 49.7091 43.2095 49.5785 43.2759C49.4479 43.3424 49.3348 43.4388 49.2486 43.5573C48.0519 45.1773 46.1295 46.2286 43.9608 46.2286C43.8922 46.2286 43.8238 46.2275 43.7558 46.2252C43.6567 46.2222 43.558 46.2391 43.4656 46.275C43.3732 46.3109 43.289 46.365 43.2179 46.4342C43.1469 46.5033 43.0904 46.586 43.052 46.6774C43.0135 46.7687 42.9939 46.8669 42.9941 46.966V52.2344C42.9941 56.0327 46.1017 59.1402 49.9 59.1402C53.6982 59.1402 56.8058 56.0327 56.8058 52.2344V46.9711C56.8055 46.5551 56.4635 46.228 56.0472 46.2286Z" fill="#F9C1A8"/>
<path d="M50.0003 35.8447C44.8925 35.8447 40.752 39.9853 40.752 45.0931V47.6038C41.0635 47.3536 41.4238 47.1712 41.8099 47.0684C42.196 46.9656 42.5994 46.9446 42.9941 47.0067V46.9662C42.9938 46.8671 43.0135 46.7689 43.0519 46.6775C43.0904 46.5862 43.1468 46.5035 43.2178 46.4343C43.2889 46.3652 43.3731 46.3111 43.4655 46.2752C43.5579 46.2393 43.6566 46.2224 43.7557 46.2254C43.8238 46.2276 43.8921 46.2288 43.9607 46.2288C46.1295 46.2288 48.0521 45.1777 49.2485 43.5574C49.3348 43.439 49.4478 43.3426 49.5784 43.2761C49.709 43.2096 49.8535 43.175 50 43.175C50.1466 43.175 50.291 43.2096 50.4216 43.2761C50.5522 43.3426 50.6653 43.439 50.7515 43.5574C51.9482 45.1774 53.8706 46.2288 56.0393 46.2288H56.0472C56.4634 46.2282 56.8051 46.555 56.8051 46.9713V47.0064C57.2444 46.9375 57.6937 46.9715 58.1177 47.1058C58.5416 47.2401 58.9285 47.4709 59.2481 47.7801V45.0925C59.2486 39.9853 55.1081 35.8447 50.0003 35.8447Z" fill="#414344"/>
<path d="M57.2489 46.9717C57.0982 46.9717 56.9502 46.9843 56.8057 47.0068V52.2347C56.8057 52.3905 56.7986 52.5446 56.7882 52.6979C56.9384 52.7221 57.0917 52.7381 57.2486 52.7381C58.8411 52.7381 60.1317 51.4472 60.1317 49.8551C60.1323 48.2626 58.8413 46.9717 57.2489 46.9717ZM42.9943 52.2347V47.0068C42.8477 46.9837 42.6995 46.9719 42.5511 46.9717C40.9586 46.9717 39.668 48.2626 39.668 49.8548C39.668 51.4472 40.9589 52.7379 42.5511 52.7379C42.7083 52.7379 42.8613 52.7218 43.0115 52.6976C43.0008 52.5436 42.9951 52.3892 42.9943 52.2347Z" fill="#F9C1A8"/>
<path d="M63.826 66.3957C63.7936 65.8156 63.5767 65.261 63.2069 64.8128C62.8371 64.3647 62.3337 64.0465 61.7703 63.9047L56.4071 62.5547L54.5115 61.6201C54.1121 61.4231 53.7758 61.1183 53.5407 60.7402C53.3055 60.362 53.1809 59.9256 53.1809 59.4803V58.3047C52.1742 58.8537 51.0457 59.1409 49.899 59.14C48.7934 59.14 47.7469 58.8751 46.8179 58.4079V59.4803C46.8179 59.9256 46.6933 60.362 46.4581 60.7402C46.223 61.1183 45.8867 61.4231 45.4873 61.6201L43.5917 62.5547L38.2285 63.9047C37.6651 64.0465 37.1617 64.3647 36.7918 64.8129C36.422 65.2611 36.2051 65.8158 36.1729 66.396L35.9043 71.2968H64.0945L63.826 66.3957Z" fill="#F5C84C"/>
<path d="M54.5115 61.6201C54.1121 61.4231 53.7758 61.1183 53.5406 60.7402C53.3055 60.362 53.1809 59.9256 53.1809 59.4803V58.3047C52.1742 58.8537 51.0457 59.1409 49.899 59.14C48.7934 59.14 47.7469 58.8751 46.8179 58.4079V59.4803C46.8179 59.9256 46.6933 60.362 46.4581 60.7402C46.223 61.1183 45.8867 61.4231 45.4873 61.6201L45.1895 61.7669C46.0892 63.5123 47.91 64.7138 49.9994 64.7138C52.0888 64.7138 53.9096 63.5123 54.8093 61.7669L54.5115 61.6201Z" fill="#F9C1A8"/>
<path d="M59.565 67.0749C59.3785 67.0749 59.1997 67.1489 59.0678 67.2808C58.936 67.4127 58.8619 67.5915 58.8619 67.778V71.223C58.8619 71.4095 58.936 71.5883 59.0678 71.7202C59.1997 71.8521 59.3785 71.9261 59.565 71.9261C59.7515 71.9261 59.9303 71.8521 60.0622 71.7202C60.194 71.5883 60.2681 71.4095 60.2681 71.223V67.778C60.2681 67.5915 60.194 67.4127 60.0622 67.2808C59.9303 67.1489 59.7515 67.0749 59.565 67.0749ZM40.4355 67.0749C40.249 67.0749 40.0702 67.1489 39.9383 67.2808C39.8065 67.4127 39.7324 67.5915 39.7324 67.778V71.223C39.7324 71.4095 39.8065 71.5883 39.9383 71.7202C40.0702 71.8521 40.249 71.9261 40.4355 71.9261C40.622 71.9261 40.8008 71.8521 40.9327 71.7202C41.0645 71.5883 41.1386 71.4095 41.1386 71.223V67.778C41.1386 67.5915 41.0645 67.4127 40.9327 67.2808C40.8008 67.1489 40.622 67.0749 40.4355 67.0749ZM57.2486 46.2686C57.1162 46.2686 56.9797 46.2764 56.8431 46.2925C56.7503 46.3018 56.6603 46.3295 56.5783 46.3739C56.4963 46.4184 56.424 46.4787 56.3656 46.5513C56.3071 46.624 56.2637 46.7076 56.2379 46.7972C56.212 46.8867 56.2043 46.9806 56.215 47.0732C56.2258 47.1658 56.2549 47.2554 56.3006 47.3367C56.3463 47.4179 56.4077 47.4893 56.4812 47.5466C56.5548 47.604 56.639 47.6461 56.729 47.6705C56.819 47.695 56.9129 47.7013 57.0053 47.6891C57.0852 47.6799 57.1662 47.6745 57.2486 47.6745C58.4507 47.6745 59.4286 48.6527 59.4286 49.8548C59.4286 51.0566 58.4507 52.0347 57.2486 52.0347C57.1724 52.0347 57.0934 52.0294 57.007 52.0187C56.622 51.9675 56.2704 52.2443 56.2221 52.6293C56.199 52.8143 56.2504 53.0009 56.3649 53.1481C56.4794 53.2952 56.6476 53.3909 56.8327 53.414C56.9772 53.432 57.1133 53.441 57.2486 53.441C59.2261 53.441 60.8348 51.8322 60.8348 49.8548C60.8348 47.8773 59.2264 46.2686 57.2486 46.2686ZM43.5146 52.6532C43.5055 52.5613 43.4783 52.4721 43.4346 52.3907C43.3909 52.3093 43.3316 52.2373 43.26 52.1789C43.1884 52.1205 43.106 52.0768 43.0175 52.0504C42.929 52.0239 42.8362 52.0151 42.7443 52.0246C42.68 52.0312 42.6154 52.0347 42.5508 52.035C41.3487 52.035 40.3708 51.0568 40.3708 49.8551C40.3708 48.653 41.3487 47.6748 42.5508 47.6748C42.609 47.6748 42.6667 47.6776 42.7237 47.6824C42.8158 47.6903 42.9084 47.68 42.9964 47.6521C43.0845 47.6242 43.1661 47.5792 43.2368 47.5198C43.3074 47.4603 43.3657 47.3875 43.4082 47.3055C43.4507 47.2235 43.4766 47.134 43.4845 47.042C43.4924 46.95 43.4821 46.8573 43.4542 46.7693C43.4263 46.6813 43.3814 46.5996 43.3219 46.529C43.2624 46.4583 43.1896 46.4001 43.1076 46.3576C43.0257 46.3151 42.9361 46.2891 42.8441 46.2812C42.7467 46.2729 42.6489 46.2687 42.5511 46.2686C40.5736 46.2686 38.9648 47.8776 38.9648 49.8551C38.9648 51.8325 40.5736 53.4413 42.5511 53.4413C42.6641 53.4413 42.7758 53.4351 42.886 53.4236C43.0715 53.4047 43.242 53.313 43.3598 53.1685C43.4777 53.0241 43.5334 52.8387 43.5146 52.6532Z" fill="black"/>
<path d="M64.5284 66.3567C64.4901 65.6261 64.218 64.9272 63.7524 64.3629C63.2868 63.7986 62.6523 63.3988 61.9423 63.2225L56.6514 61.891L54.8227 60.9893C54.5403 60.8515 54.3025 60.6367 54.1365 60.3699C53.9706 60.103 53.8832 59.7947 53.8845 59.4804V58.5352C53.8845 58.3487 53.8104 58.1698 53.6785 58.038C53.5467 57.9061 53.3678 57.832 53.1814 57.832C52.9949 57.832 52.816 57.9061 52.6842 58.038C52.5523 58.1698 52.4782 58.3487 52.4782 58.5352V59.4804C52.4782 60.6656 53.1383 61.7268 54.2009 62.2507L56.0965 63.1853C56.1409 63.2073 56.1876 63.2244 56.2357 63.2368L61.5989 64.5868C62.0176 64.6906 62.3918 64.9262 62.6664 65.2588C62.9411 65.5915 63.1015 66.0036 63.1241 66.4343L63.3525 70.5935H36.6472L36.8753 66.4346C36.8979 66.0038 37.0583 65.5916 37.3329 65.2589C37.6075 64.9261 37.9818 64.6904 38.4005 64.5865L43.7637 63.2365C43.8118 63.2242 43.8585 63.2073 43.9029 63.1851L45.7983 62.2505C46.3169 61.9974 46.7536 61.6033 47.0584 61.1133C47.3632 60.6232 47.5236 60.0572 47.5212 59.4802V58.6522C47.5212 58.4657 47.4471 58.2868 47.3153 58.155C47.1834 58.0231 47.0046 57.949 46.8181 57.949C46.6316 57.949 46.4528 58.0231 46.3209 58.155C46.189 58.2868 46.1149 58.4657 46.1149 58.6522V59.4802C46.1162 59.7944 46.0289 60.1027 45.8629 60.3696C45.697 60.6365 45.4591 60.8512 45.1767 60.9891L43.348 61.8907L38.0571 63.2222C37.347 63.3986 36.7124 63.7985 36.2468 64.3629C35.7812 64.9273 35.5093 65.6263 35.471 66.357L35.2022 71.2581C35.1971 71.3535 35.2115 71.449 35.2445 71.5387C35.2775 71.6284 35.3284 71.7104 35.3941 71.7798C35.4599 71.8492 35.539 71.9045 35.6268 71.9423C35.7146 71.9801 35.8092 71.9996 35.9047 71.9997H64.095C64.1906 71.9998 64.2852 71.9804 64.373 71.9427C64.4608 71.905 64.54 71.8497 64.6057 71.7803C64.6714 71.7109 64.7223 71.6288 64.7552 71.539C64.7881 71.4493 64.8023 71.3538 64.797 71.2583L64.5284 66.3567Z" fill="black"/>
<path d="M55.0685 61.3103C54.9878 61.2653 54.8991 61.2367 54.8074 61.226C54.7157 61.2153 54.6227 61.2227 54.5339 61.248C54.4451 61.2732 54.3621 61.3157 54.2897 61.373C54.2173 61.4303 54.1569 61.5014 54.1119 61.582C53.2761 63.0797 51.7008 64.0103 50.0009 64.0103C48.3244 64.0103 46.7598 63.0988 45.9177 61.631C45.8719 61.5505 45.8107 61.4799 45.7376 61.4232C45.6645 61.3665 45.5809 61.3248 45.4917 61.3004C45.4024 61.2761 45.3092 61.2696 45.2174 61.2813C45.1256 61.2931 45.037 61.3228 44.9568 61.3689C44.8765 61.4149 44.8061 61.4764 44.7496 61.5497C44.6932 61.623 44.6517 61.7067 44.6277 61.7961C44.6036 61.8854 44.5975 61.9786 44.6095 62.0704C44.6216 62.1621 44.6516 62.2506 44.6979 62.3307C45.79 64.2342 47.8221 65.4166 50.0009 65.4166C52.2101 65.4166 54.2559 64.2097 55.3399 62.2672C55.4306 62.1043 55.4531 61.912 55.4022 61.7326C55.3513 61.5532 55.2313 61.4013 55.0685 61.3103ZM52.4053 53.7124C52.3345 53.6531 52.2528 53.6083 52.1647 53.5805C52.0766 53.5528 51.984 53.5427 51.892 53.5508C51.8 53.5589 51.7105 53.585 51.6286 53.6277C51.5467 53.6704 51.4741 53.7288 51.4147 53.7996C51.118 54.1537 50.607 54.3652 50.0479 54.3652C49.4887 54.3652 48.9777 54.1537 48.681 53.7996C48.5612 53.6566 48.3895 53.5672 48.2038 53.5508C48.018 53.5345 47.8334 53.5926 47.6904 53.7124C47.5475 53.8322 47.458 54.0038 47.4417 54.1896C47.4253 54.3754 47.4835 54.56 47.6032 54.7029C48.1641 55.3717 49.0781 55.7711 50.0479 55.7711C51.0176 55.7711 51.9317 55.3717 52.4925 54.7029C52.5518 54.6322 52.5966 54.5504 52.6243 54.4623C52.6521 54.3743 52.6622 54.2816 52.6541 54.1896C52.646 54.0976 52.6198 54.0081 52.5772 53.9262C52.5345 53.8444 52.4761 53.7717 52.4053 53.7124ZM52.8919 49.207C52.6509 49.207 52.4197 49.3028 52.2493 49.4732C52.0789 49.6436 51.9832 49.8747 51.9832 50.1157C51.9832 50.3568 52.0789 50.5879 52.2493 50.7583C52.4197 50.9287 52.6509 51.0245 52.8919 51.0245C53.1329 51.0245 53.364 50.9287 53.5344 50.7583C53.7049 50.5879 53.8006 50.3568 53.8006 50.1157C53.8006 49.8747 53.7049 49.6436 53.5344 49.4732C53.364 49.3028 53.1329 49.207 52.8919 49.207ZM47.2244 49.207C46.9834 49.207 46.7523 49.3028 46.5818 49.4732C46.4114 49.6436 46.3157 49.8747 46.3157 50.1157C46.3157 50.3568 46.4114 50.5879 46.5818 50.7583C46.7523 50.9287 46.9834 51.0245 47.2244 51.0245C47.4654 51.0245 47.6965 50.9287 47.867 50.7583C48.0374 50.5879 48.1331 50.3568 48.1331 50.1157C48.1331 49.8747 48.0374 49.6436 47.867 49.4732C47.6965 49.3028 47.4654 49.207 47.2244 49.207Z" fill="black"/>
<path d="M57.0867 45.9537C56.6154 45.4829 56.0751 45.5318 56.0467 45.5259C56.0177 45.5189 53.1703 45.6485 51.3175 43.1403C51.0042 42.7159 50.5241 42.4727 50.0004 42.4727C49.4767 42.4727 48.9966 42.7159 48.6833 43.1403C47.5799 44.6343 45.8145 45.5259 43.9608 45.5259C43.8998 45.5259 43.839 45.5248 43.7786 45.5228C43.5857 45.5162 43.3934 45.5486 43.2134 45.6181C43.0333 45.6877 42.8692 45.7929 42.7309 45.9275C42.5912 46.0619 42.4801 46.2233 42.4045 46.4018C42.3289 46.5803 42.2903 46.7723 42.291 46.9662V52.2346C42.291 56.43 45.7043 59.8435 49.9 59.8435C54.0957 59.8435 57.5089 56.43 57.5089 52.2346V46.9713C57.5094 46.7821 57.4723 46.5948 57.3998 46.4201C57.3274 46.2455 57.221 46.0869 57.0867 45.9537ZM56.1027 52.2351C56.1027 55.6551 53.3202 58.4378 49.9 58.4378C46.4797 58.4378 43.6973 55.6551 43.6973 52.2351V46.9665C43.6973 46.9617 43.6973 46.949 43.733 46.9285C43.8087 46.931 43.8846 46.9322 43.9608 46.9322C46.2586 46.9322 48.4467 45.8268 49.8142 43.9757C49.8766 43.8913 49.9576 43.8786 50.0004 43.8786C50.0431 43.8786 50.1241 43.8913 50.1866 43.9757C51.554 45.8268 53.7421 46.9322 56.0399 46.9322H56.0489C56.072 46.9322 56.0855 46.9412 56.1027 46.9718V52.2351Z" fill="black"/>
<path d="M50.0003 35.1416C44.5131 35.1416 40.0488 39.6056 40.0488 45.0928V47.4612C40.0488 47.6477 40.1229 47.8265 40.2548 47.9584C40.3866 48.0902 40.5655 48.1643 40.752 48.1643C40.9384 48.1643 41.1173 48.0902 41.2491 47.9584C41.381 47.8265 41.4551 47.6477 41.4551 47.4612V45.0928C41.4551 40.381 45.2885 36.5479 50.0003 36.5479C54.7121 36.5479 58.5452 40.381 58.5452 45.0928V47.4964C58.5452 47.5887 58.5634 47.6801 58.5988 47.7654C58.6341 47.8507 58.6859 47.9282 58.7512 47.9935C58.8165 48.0588 58.894 48.1106 58.9793 48.146C59.0646 48.1813 59.156 48.1995 59.2484 48.1995C59.3407 48.1995 59.4321 48.1813 59.5174 48.146C59.6027 48.1106 59.6803 48.0588 59.7455 47.9935C59.8108 47.9282 59.8626 47.8507 59.898 47.7654C59.9333 47.6801 59.9515 47.5887 59.9515 47.4964V45.0928C59.9515 39.6056 55.4875 35.1416 50.0003 35.1416Z" fill="black"/>
<path d="M56.644 8.254C54.8533 6.58647 52.0344 6.71444 50.3041 8.44469C50.2237 8.52505 50.1147 8.57019 50.0011 8.57019C49.8874 8.57019 49.7784 8.52505 49.698 8.44469C47.9678 6.71444 45.1488 6.58619 43.3581 8.254C41.4782 10.0048 41.4388 12.9492 43.2397 14.75L49.0686 20.5792C49.191 20.7017 49.3364 20.7988 49.4963 20.8651C49.6563 20.9313 49.8278 20.9654 50.0009 20.9654C50.1741 20.9654 50.3455 20.9313 50.5055 20.8651C50.6655 20.7988 50.8108 20.7017 50.9333 20.5792L56.7622 14.75C58.5633 12.9492 58.5239 10.0048 56.644 8.254Z" fill="#FC657E"/>
<path d="M57.1218 7.73979C55.1564 5.90886 52.0166 5.93923 49.9994 7.76342C47.982 5.93895 44.8424 5.90914 42.8771 7.73979C41.83 8.71517 41.2393 10.0387 41.2137 11.4664C41.1884 12.8948 41.7307 14.2378 42.7406 15.2475L48.5696 21.0767C48.9512 21.4583 49.4591 21.6687 49.9991 21.6687C50.5391 21.6687 51.0471 21.4586 51.4287 21.0767L57.2576 15.2475C58.2676 14.2375 58.8099 12.8948 58.7845 11.4664C58.7595 10.0385 58.1689 8.71489 57.1218 7.73979ZM56.2637 14.2533L50.4348 20.0824C50.2022 20.3148 49.7969 20.3148 49.5643 20.0824L43.7351 14.2533C43.3718 13.8925 43.0856 13.4616 42.8939 12.9869C42.7022 12.5121 42.609 12.0033 42.62 11.4914C42.6383 10.4485 43.0703 9.48157 43.8356 8.76861C44.544 8.10879 45.4631 7.78254 46.3913 7.78254C47.4049 7.78254 48.4286 8.17207 49.199 8.94242C49.4115 9.15408 49.6993 9.27289 49.9992 9.27284C50.2991 9.27278 50.5868 9.15387 50.7993 8.94214C52.275 7.4667 54.6811 7.38936 56.1627 8.76861C56.9283 9.48157 57.36 10.4485 57.3783 11.4914C57.3895 12.0033 57.2964 12.5121 57.1048 12.9869C56.9132 13.4617 56.627 13.8925 56.2637 14.2533Z" fill="black"/>
<path d="M41.6877 4.46653C40.4226 4.23113 39.4256 3.25434 39.1851 2.01516C39.183 2.00194 39.1763 1.98991 39.1661 1.98123C39.1559 1.97254 39.143 1.96777 39.1296 1.96777C39.1162 1.96777 39.1033 1.97254 39.0931 1.98123C39.0829 1.98991 39.0762 2.00194 39.0741 2.01516C38.8336 3.25434 37.8366 4.23113 36.5715 4.46653C36.5582 4.46819 36.546 4.47463 36.5372 4.48465C36.5283 4.49468 36.5234 4.50758 36.5234 4.52095C36.5234 4.53432 36.5283 4.54723 36.5372 4.55725C36.546 4.56728 36.5582 4.57372 36.5715 4.57538C37.8366 4.81106 38.8336 5.78784 39.0741 7.02703C39.0762 7.04025 39.0829 7.05228 39.0931 7.06096C39.1033 7.06965 39.1162 7.07442 39.1296 7.07442C39.143 7.07442 39.1559 7.06965 39.1661 7.06096C39.1763 7.05228 39.183 7.04025 39.1851 7.02703C39.4256 5.78784 40.4226 4.81106 41.6877 4.57538C41.701 4.57372 41.7132 4.56728 41.722 4.55725C41.7309 4.54723 41.7358 4.53432 41.7358 4.52095C41.7358 4.50758 41.7309 4.49468 41.722 4.48465C41.7132 4.47463 41.701 4.46819 41.6877 4.46653Z" fill="#F5C84C"/>
<path d="M65.156 12.3612C64.3426 12.2096 63.7014 11.5816 63.5467 10.7848C63.5452 10.7764 63.5408 10.7688 63.5343 10.7634C63.5277 10.7579 63.5195 10.7549 63.511 10.7549C63.5024 10.7549 63.4942 10.7579 63.4877 10.7634C63.4811 10.7688 63.4767 10.7764 63.4752 10.7848C63.3205 11.5816 62.6796 12.2099 61.8659 12.3612C61.8576 12.3625 61.85 12.3668 61.8445 12.3732C61.839 12.3796 61.8359 12.3878 61.8359 12.3962C61.8359 12.4047 61.839 12.4129 61.8445 12.4193C61.85 12.4257 61.8576 12.4299 61.8659 12.4312C62.6793 12.5828 63.3205 13.2109 63.4752 14.0076C63.4767 14.016 63.4811 14.0236 63.4877 14.0291C63.4942 14.0346 63.5024 14.0376 63.511 14.0376C63.5195 14.0376 63.5277 14.0346 63.5343 14.0291C63.5408 14.0236 63.5452 14.016 63.5467 14.0076C63.7014 13.2109 64.3423 12.5826 65.156 12.4312C65.1643 12.4299 65.172 12.4257 65.1775 12.4193C65.1829 12.4129 65.186 12.4047 65.186 12.3962C65.186 12.3878 65.1829 12.3796 65.1775 12.3732C65.172 12.3668 65.1643 12.3625 65.156 12.3612Z" fill="#70D6F9"/>
<path d="M18.8256 20.3352H18.1706V19.6799C18.1706 19.4444 18.077 19.2186 17.9105 19.0521C17.744 18.8855 17.5182 18.792 17.2827 18.792C17.0472 18.792 16.8214 18.8855 16.6548 19.0521C16.4883 19.2186 16.3948 19.4444 16.3948 19.6799V20.3352H15.7395C15.504 20.3352 15.2781 20.4288 15.1116 20.5953C14.9451 20.7618 14.8516 20.9876 14.8516 21.2231C14.8516 21.4586 14.9451 21.6844 15.1116 21.851C15.2781 22.0175 15.504 22.111 15.7395 22.111H16.3948V22.7663C16.3948 23.0018 16.4883 23.2277 16.6548 23.3942C16.8214 23.5607 17.0472 23.6542 17.2827 23.6542C17.5182 23.6542 17.744 23.5607 17.9105 23.3942C18.077 23.2277 18.1706 23.0018 18.1706 22.7663V22.111H18.8256C19.0611 22.111 19.287 22.0175 19.4535 21.851C19.62 21.6844 19.7135 21.4586 19.7135 21.2231C19.7135 20.9876 19.62 20.7618 19.4535 20.5953C19.287 20.4288 19.0611 20.3352 18.8256 20.3352Z" fill="#FC657E"/>
<path d="M45.067 1.89956C45.5915 1.89956 46.0167 1.47433 46.0167 0.949781C46.0167 0.425232 45.5915 0 45.067 0C44.5424 0 44.1172 0.425232 44.1172 0.949781C44.1172 1.47433 44.5424 1.89956 45.067 1.89956Z" fill="#87D147"/>
<path d="M14.9498 27.8438C14.6979 27.8437 14.4563 27.9438 14.2782 28.1219C14.1001 28.3001 14 28.5416 14 28.7935C14 29.0454 14.1001 29.287 14.2782 29.4651C14.4563 29.6432 14.6979 29.7433 14.9498 29.7433C15.2017 29.7433 15.4433 29.6432 15.6214 29.4651C15.7995 29.287 15.8996 29.0454 15.8996 28.7935C15.8996 28.5416 15.7995 28.3001 15.6214 28.1219C15.4433 27.9438 15.2017 27.8437 14.9498 27.8438Z" fill="#F5C84C"/>
</g>
<defs>
<clipPath id="clip0_471_4438">
<rect width="72" height="72" fill="white" transform="translate(14)"/>
</clipPath>
</defs>
</svg>
