<svg width="14" height="14" viewBox="0 0 14 14" fill="none" xmlns="http://www.w3.org/2000/svg">
<path d="M2.18262 3.375C3.1146 3.375 3.87012 2.61948 3.87012 1.6875C3.87012 0.75552 3.1146 0 2.18262 0C1.25064 0 0.495117 0.75552 0.495117 1.6875C0.495117 2.61948 1.25064 3.375 2.18262 3.375Z" fill="white"/>
<path d="M3.58887 4.5H0.776367C0.621117 4.5 0.495117 4.626 0.495117 4.78125V13.2188C0.495117 13.374 0.621117 13.5 0.776367 13.5H3.58887C3.74412 13.5 3.87012 13.374 3.87012 13.2188V4.78125C3.87012 4.626 3.74412 4.5 3.58887 4.5Z" fill="white"/>
<path d="M11.9684 4.11247C10.7664 3.70072 9.2628 4.06241 8.36112 4.71097C8.33018 4.59003 8.21993 4.50003 8.08887 4.50003H5.27637C5.12112 4.50003 4.99512 4.62603 4.99512 4.78128V13.2188C4.99512 13.374 5.12112 13.5 5.27637 13.5H8.08887C8.24412 13.5 8.37012 13.374 8.37012 13.2188V7.15503C8.82462 6.76353 9.41018 6.63866 9.88943 6.84228C10.3541 7.0386 10.6201 7.51785 10.6201 8.15628V13.2188C10.6201 13.374 10.7461 13.5 10.9014 13.5H13.7139C13.8691 13.5 13.9951 13.374 13.9951 13.2188V7.58985C13.9631 5.27853 12.8757 4.42297 11.9684 4.11247Z" fill="white"/>
</svg>
