<svg width="21" height="25" viewBox="0 0 21 25" fill="none" xmlns="http://www.w3.org/2000/svg">
<rect width="20" height="24" transform="translate(0.5 0.250977)" fill="#F9FAFB"/>
<path d="M14.6665 19.9591H6.33317C5.9915 19.9591 5.70817 19.6758 5.70817 19.3341C5.70817 18.9925 5.9915 18.7091 6.33317 18.7091H14.6665C17.0498 18.7091 18.2082 17.5508 18.2082 15.1675V9.33415C18.2082 6.95081 17.0498 5.79248 14.6665 5.79248H6.33317C3.94984 5.79248 2.7915 6.95081 2.7915 9.33415C2.7915 9.67581 2.50817 9.95915 2.1665 9.95915C1.82484 9.95915 1.5415 9.67581 1.5415 9.33415C1.5415 6.29248 3.2915 4.54248 6.33317 4.54248H14.6665C17.7082 4.54248 19.4582 6.29248 19.4582 9.33415V15.1675C19.4582 18.2091 17.7082 19.9591 14.6665 19.9591Z" fill="#E2403C"/>
<path d="M10.499 12.9745C9.799 12.9745 9.09067 12.7578 8.549 12.3162L5.94067 10.2328C5.81938 10.1275 5.74343 9.97943 5.72866 9.81947C5.71389 9.65952 5.76144 9.50004 5.86139 9.37429C5.96134 9.24854 6.10598 9.16624 6.26515 9.14454C6.42431 9.12284 6.5857 9.16342 6.71567 9.25782L9.324 11.3412C9.95734 11.8495 11.0323 11.8495 11.6657 11.3412L14.274 9.25782C14.5407 9.04115 14.9407 9.08282 15.149 9.35782C15.3657 9.62449 15.324 10.0245 15.049 10.2328L12.4407 12.3162C11.9073 12.7578 11.199 12.9745 10.499 12.9745ZM7.1665 16.6262H2.1665C1.82484 16.6262 1.5415 16.3428 1.5415 16.0012C1.5415 15.6595 1.82484 15.3762 2.1665 15.3762H7.1665C7.50817 15.3762 7.7915 15.6595 7.7915 16.0012C7.7915 16.3428 7.50817 16.6262 7.1665 16.6262ZM4.6665 13.2928H2.1665C1.82484 13.2928 1.5415 13.0095 1.5415 12.6678C1.5415 12.3262 1.82484 12.0428 2.1665 12.0428H4.6665C5.00817 12.0428 5.2915 12.3262 5.2915 12.6678C5.2915 13.0095 5.00817 13.2928 4.6665 13.2928Z" fill="#E2403C"/>
</svg>
