<svg width="20" height="21" viewBox="0 0 20 21" fill="none" xmlns="http://www.w3.org/2000/svg">
<path d="M12.5002 19.5329H7.50016C3.82516 19.5329 2.7085 18.4162 2.7085 14.7412V6.40788C2.7085 2.73288 3.82516 1.61621 7.50016 1.61621H12.5002C16.1752 1.61621 17.2918 2.73288 17.2918 6.40788V14.7412C17.2918 18.4162 16.1752 19.5329 12.5002 19.5329ZM7.50016 2.86621C4.51683 2.86621 3.9585 3.43288 3.9585 6.40788V14.7412C3.9585 17.7162 4.51683 18.2829 7.50016 18.2829H12.5002C15.4835 18.2829 16.0418 17.7162 16.0418 14.7412V6.40788C16.0418 3.43288 15.4835 2.86621 12.5002 2.86621H7.50016Z" fill="white"/>
<path d="M11.6668 5.78223H8.3335C7.99183 5.78223 7.7085 5.49889 7.7085 5.15723C7.7085 4.81556 7.99183 4.53223 8.3335 4.53223H11.6668C12.0085 4.53223 12.2918 4.81556 12.2918 5.15723C12.2918 5.49889 12.0085 5.78223 11.6668 5.78223ZM10.0002 17.1256C9.49183 17.1256 9.00432 16.9236 8.64487 16.5642C8.28543 16.2047 8.0835 15.7172 8.0835 15.2089C8.0835 14.7006 8.28543 14.2131 8.64487 13.8536C9.00432 13.4942 9.49183 13.2922 10.0002 13.2922C10.5085 13.2922 10.996 13.4942 11.3555 13.8536C11.7149 14.2131 11.9168 14.7006 11.9168 15.2089C11.9168 15.7172 11.7149 16.2047 11.3555 16.5642C10.996 16.9236 10.5085 17.1256 10.0002 17.1256ZM10.0002 14.5339C9.6335 14.5339 9.3335 14.8339 9.3335 15.2006C9.3335 15.5672 9.6335 15.8672 10.0002 15.8672C10.3668 15.8672 10.6668 15.5672 10.6668 15.2006C10.6668 14.8339 10.3668 14.5339 10.0002 14.5339Z" fill="white"/>
</svg>
