<svg width="24" height="24" viewBox="0 0 24 24" fill="none" xmlns="http://www.w3.org/2000/svg">
<mask id="mask0_2001_1703" style="mask-type:luminance" maskUnits="userSpaceOnUse" x="0" y="0" width="24" height="24">
<path d="M24 0H0V24H24V0Z" fill="white"/>
</mask>
<g mask="url(#mask0_2001_1703)">
<path d="M19 7.00003H5C3.89543 7.00003 3 7.89547 3 9.00001V18C3 19.1046 3.89543 20 5 20H19C20.1046 20 21 19.1046 21 18V9.00001C21 7.89547 20.1046 7.00003 19 7.00003Z" stroke="#E2403C" stroke-width="1.5" stroke-linecap="round" stroke-linejoin="round"/>
<path d="M8 7.00002V5C8 4.46957 8.21072 3.96086 8.58578 3.58579C8.96084 3.21071 9.46958 3 9.99998 3H14C14.5305 3 15.0391 3.21071 15.4142 3.58579C15.7893 3.96086 16 4.46957 16 5V7.00002" stroke="#E2403C" stroke-width="1.5" stroke-linecap="round" stroke-linejoin="round"/>
<path d="M12 12V12.01" stroke="#E2403C" stroke-width="1.5" stroke-linecap="round" stroke-linejoin="round"/>
<path d="M3 13C5.79158 14.4067 8.874 15.1395 12 15.1395C15.126 15.1395 18.2084 14.4067 21 13" stroke="#E2403C" stroke-width="1.5" stroke-linecap="round" stroke-linejoin="round"/>
</g>
</svg>
