<svg width="21" height="25" viewBox="0 0 21 25" fill="none" xmlns="http://www.w3.org/2000/svg">
<rect width="20" height="24" transform="translate(0.5 0.250977)" fill="#F9FAFB"/>
<path d="M13.0002 21.2091H8.00016C4.32516 21.2091 3.2085 20.0925 3.2085 16.4175V8.08415C3.2085 4.40915 4.32516 3.29248 8.00016 3.29248H13.0002C16.6752 3.29248 17.7918 4.40915 17.7918 8.08415V16.4175C17.7918 20.0925 16.6752 21.2091 13.0002 21.2091ZM8.00016 4.54248C5.01683 4.54248 4.4585 5.10915 4.4585 8.08415V16.4175C4.4585 19.3925 5.01683 19.9591 8.00016 19.9591H13.0002C15.9835 19.9591 16.5418 19.3925 16.5418 16.4175V8.08415C16.5418 5.10915 15.9835 4.54248 13.0002 4.54248H8.00016Z" fill="#E2403C"/>
<path d="M12.1668 7.45947H8.8335C8.49183 7.45947 8.2085 7.17614 8.2085 6.83447C8.2085 6.49281 8.49183 6.20947 8.8335 6.20947H12.1668C12.5085 6.20947 12.7918 6.49281 12.7918 6.83447C12.7918 7.17614 12.5085 7.45947 12.1668 7.45947ZM10.5002 18.8028C9.99183 18.8028 9.50432 18.6009 9.14487 18.2414C8.78543 17.882 8.5835 17.3945 8.5835 16.8861C8.5835 16.3778 8.78543 15.8903 9.14487 15.5309C9.50432 15.1714 9.99183 14.9695 10.5002 14.9695C11.0085 14.9695 11.496 15.1714 11.8555 15.5309C12.2149 15.8903 12.4168 16.3778 12.4168 16.8861C12.4168 17.3945 12.2149 17.882 11.8555 18.2414C11.496 18.6009 11.0085 18.8028 10.5002 18.8028ZM10.5002 16.2111C10.1335 16.2111 9.8335 16.5111 9.8335 16.8778C9.8335 17.2445 10.1335 17.5445 10.5002 17.5445C10.8668 17.5445 11.1668 17.2445 11.1668 16.8778C11.1668 16.5111 10.8668 16.2111 10.5002 16.2111Z" fill="#E2403C"/>
</svg>
