<svg width="255" height="127" viewBox="0 0 255 127" fill="none" xmlns="http://www.w3.org/2000/svg">
<path fill-rule="evenodd" clip-rule="evenodd" d="M36.0712 39.3273C14.6148 61.5087 1.81755 90.6447 0 121.452L78.0844 126.059C78.8003 113.924 83.841 102.448 92.2924 93.7108C100.744 84.9738 112.046 79.5547 124.15 78.4361C136.255 77.3174 148.359 80.5734 158.268 87.6135C168.178 94.6537 175.236 105.012 178.164 116.81L254.082 97.9706C246.649 68.0182 228.729 41.721 203.57 23.8475C178.412 5.9741 147.682 -2.29213 116.952 0.547826C86.2224 3.38778 57.5276 17.1459 36.0712 39.3273Z" fill="#64AEBB"/>
<path d="M184.979 13.0005C204.782 51.605 187.91 99.0462 177.776 116.767L253.701 97.9231C241.9 49.5172 205.629 20.3855 184.979 13.0005Z" fill="#8DC3CD"/>
</svg>
