<svg width="25" height="25" viewBox="0 0 25 25" fill="none" xmlns="http://www.w3.org/2000/svg">
<path d="M10.55 3.3545L4.53002 7.2845C2.60002 8.5445 2.60002 11.3645 4.53002 12.6245L10.55 16.5545C11.63 17.2645 13.41 17.2645 14.49 16.5545L20.48 12.6245C22.4 11.3645 22.4 8.5545 20.48 7.2945L14.49 3.3645C13.41 2.6445 11.63 2.6445 10.55 3.3545Z" stroke="white" stroke-width="1.5" stroke-linecap="round" stroke-linejoin="round"/>
<path d="M6.13012 13.9044L6.12012 18.5944C6.12012 19.8644 7.10012 21.2244 8.30012 21.6244L11.4901 22.6844C12.0401 22.8644 12.9501 22.8644 13.5101 22.6844L16.7001 21.6244C17.9001 21.2244 18.8801 19.8644 18.8801 18.5944V13.9544" stroke="white" stroke-width="1.5" stroke-linecap="round" stroke-linejoin="round"/>
<path d="M21.8999 15.8245V9.82446" stroke="white" stroke-width="1.5" stroke-linecap="round" stroke-linejoin="round"/>
</svg>
