<svg width="24" height="24" viewBox="0 0 24 24" fill="none" xmlns="http://www.w3.org/2000/svg">
<path d="M10.05 2.53052L4.03002 6.46052C2.10002 7.72052 2.10002 10.5405 4.03002 11.8005L10.05 15.7305C11.13 16.4405 12.91 16.4405 13.99 15.7305L19.98 11.8005C21.9 10.5405 21.9 7.73052 19.98 6.47052L13.99 2.54052C12.91 1.82052 11.13 1.82052 10.05 2.53052Z" stroke="#000418" stroke-width="1.5" stroke-linecap="round" stroke-linejoin="round"/>
<path d="M5.63012 13.0806L5.62012 17.7706C5.62012 19.0406 6.60012 20.4006 7.80012 20.8006L10.9901 21.8606C11.5401 22.0406 12.4501 22.0406 13.0101 21.8606L16.2001 20.8006C17.4001 20.4006 18.3801 19.0406 18.3801 17.7706V13.1306" stroke="#000418" stroke-width="1.5" stroke-linecap="round" stroke-linejoin="round"/>
<path d="M21.3999 15.0005V9.00049" stroke="#000418" stroke-width="1.5" stroke-linecap="round" stroke-linejoin="round"/>
</svg>
