<svg width="100" height="87" viewBox="0 0 100 87" fill="none" xmlns="http://www.w3.org/2000/svg">
<path opacity="0.1" d="M100 36.0986C100 63.7128 77.6142 86.0986 50 86.0986C22.3858 86.0986 0 63.7128 0 36.0986C0 8.48434 37.3858 41.0983 65 41.0983C92.6142 41.0983 100 8.48434 100 36.0986Z" fill="#855FCE"/>
<path d="M78.6139 47.5812C78.6117 47.5801 78.6096 47.5759 78.6064 47.5748C78.6499 47.4552 78.6541 47.4477 78.6139 47.5812Z" fill="#5D35A6"/>
<path d="M56.778 68.0649L56.8034 68.0427C56.8669 67.5662 56.9379 67.1109 56.9972 66.6482C57.1719 65.3829 57.336 64.1113 57.2333 62.8417C56.8733 58.8923 53.3717 55.4564 49.4223 55.1759C48.6843 55.1314 47.9262 55.1684 47.1988 55.0043C45.583 54.6232 44.3834 53.1577 43.9101 51.56C43.4368 49.9633 43.603 48.2406 43.9461 46.6121C44.2373 45.2632 44.6269 43.8062 44.0266 42.5822C43.3764 41.264 41.7257 40.6869 40.2677 40.8913C38.8214 41.1009 37.5444 41.9342 36.3893 42.8427C35.5104 43.5394 34.6369 44.2986 33.5696 44.6543C29.0167 46.1653 24.7517 39.59 20.1967 40.832L20.184 40.8669C19.7706 34.5724 21.3723 28.3097 24.757 22.9866C33.2731 9.53527 50.7564 5.20045 64.4947 12.843C64.3274 12.7552 64.158 12.6694 63.9907 12.5857C62.2733 12.6546 60.5717 13.0929 59.2535 14.1666C57.5827 15.5166 56.778 18.0715 57.8993 19.9064C58.5812 21.0277 59.9364 21.9013 59.8994 23.2206C59.8676 24.2328 58.9179 25.0396 57.9226 25.2546C56.9294 25.4663 55.896 25.2228 54.9049 24.9539C53.16 24.4562 51.3631 23.8834 49.5706 24.1724C47.7907 24.4668 46.0404 25.9724 46.1971 27.7724C46.2999 29.042 47.2719 30.0489 48.1803 30.9373C49.6563 32.3879 51.3939 33.938 53.4639 33.8268C54.456 33.7675 55.3983 33.3164 56.401 33.2646C58.5917 33.164 60.4076 35.0349 61.3712 37.0223C62.322 38.9992 62.7508 41.2386 63.9155 43.1032C64.554 44.1175 65.4402 45.0376 66.5859 45.4029C67.7315 45.7672 69.1419 45.4421 69.7952 44.4362C70.3966 43.4854 70.5501 41.9088 71.6672 41.8506C72.006 41.8326 72.3289 41.9903 72.6201 42.1417C74.724 43.3181 76.2402 45.2949 77.9576 46.9753C78.1683 47.1849 78.3875 47.3882 78.6067 47.5746C78.3663 48.2257 76.9348 52.2779 75.2439 54.9503C70.8762 61.8475 64.1484 66.3475 56.778 68.0649Z" fill="#423751"/>
<path d="M78.6139 47.5815C78.6117 47.5804 78.6096 47.5762 78.6064 47.5751C78.6499 47.4555 78.6541 47.4481 78.6139 47.5815Z" fill="#5D35A6"/>
<path d="M33.5701 44.6551C29.0171 46.166 24.7522 39.5907 20.1971 40.8327L20.1844 40.8677C19.7697 34.5735 21.3692 28.3108 24.7511 22.9862C26.6859 19.9236 29.164 17.2402 32.0633 15.0684C29.4417 22.2387 29.8398 30.866 33.8475 38.6939C34.5867 40.1406 35.4362 41.5283 36.3886 42.8445C35.5088 43.5412 34.6373 44.2993 33.5701 44.6551ZM56.7837 68.0614L56.8038 68.0434C56.8673 67.567 56.9383 67.1117 56.9976 66.6489C57.1723 65.3837 57.3364 64.112 57.2337 62.8425C56.8737 58.8931 53.3722 55.4572 49.4228 55.1766C48.6848 55.1321 47.9266 55.1692 47.1992 55.0051C45.5835 54.6239 44.3838 53.1585 43.9105 51.5607C43.7612 51.0499 43.6696 50.5239 43.6373 49.9926C51.3191 55.3344 61.001 56.5891 69.1825 52.4014C74.0288 49.9217 77.6393 45.8981 79.8046 41.0837C79.46 46.0141 77.8904 50.7806 75.2379 54.9511C71.0532 61.5813 64.4211 66.2922 56.7826 68.0604L56.7837 68.0614Z" fill="#382E49"/>
<path d="M78.6143 47.5813C78.3868 47.389 78.1678 47.1869 77.9578 46.9756C76.2404 45.2942 74.7231 43.3174 72.6214 42.1432C72.3281 41.9886 72.0062 41.8319 71.6653 41.8509C70.5493 41.9092 70.3947 43.4857 69.7943 44.4345C69.141 45.4425 67.7296 45.7686 66.5861 45.4043C65.4404 45.039 64.5531 44.1179 63.9147 43.1035C62.75 41.24 62.3222 38.9995 61.3703 37.0216C60.4068 35.0353 58.5888 33.1654 56.4002 33.2649C55.3975 33.3179 54.4551 33.7689 53.463 33.8282C51.3909 33.9394 49.6544 32.3861 48.1795 30.9376C47.2721 30.0493 46.299 29.0423 46.1963 27.7739C46.0396 25.9707 47.7888 24.4672 49.5708 24.1717C51.3634 23.8837 53.1581 24.4576 54.9073 24.9553C55.8951 25.221 56.9275 25.4677 57.9228 25.2539C58.9181 25.04 59.8668 24.2332 59.8975 23.2209C59.9356 21.9006 58.5814 21.027 57.8984 19.9068C56.7782 18.0719 57.5829 15.5169 59.2516 14.1659C60.5709 13.0933 62.2724 12.6539 63.9898 12.584C64.6675 12.9196 65.3293 13.3072 65.9878 13.7243C77.5629 21.0514 82.3869 35.0533 78.6143 47.5813Z" fill="#FFD86A"/>
<path d="M71.6635 41.8526C70.5517 41.9119 70.394 43.4906 69.7979 44.4288C69.1403 45.442 67.73 45.765 66.5907 45.405C65.4387 45.0397 64.5546 44.1153 63.914 43.101C62.7514 41.2438 62.3236 38.9991 61.3686 37.0233C60.405 35.0317 58.5934 33.1618 56.4027 33.2624C55.4 33.3206 54.4544 33.7706 53.4613 33.8246C51.3902 33.9411 49.6527 32.3899 48.1767 30.9362C47.2661 30.0478 46.2983 29.0451 46.1935 27.7788C46.0442 25.9682 47.7923 24.4636 49.5754 24.1724C51.3574 23.8823 53.1606 24.4572 54.9013 24.9527C55.8934 25.2217 56.93 25.4684 57.9179 25.2513C58.9184 25.0385 59.8693 24.2296 59.8957 23.2184C59.9317 21.9012 58.5849 21.0256 57.903 19.9096C56.7849 18.0736 57.5822 15.5123 59.2583 14.1665C60.5734 13.0939 62.2696 12.6587 63.9881 12.5889C64.6668 12.9182 65.3328 13.3089 65.9914 13.7282L66.2455 13.8976C60.8508 17.2583 59.2456 25.0491 62.6984 31.7938C66.2667 38.7672 73.9061 42.004 79.8789 39.1251C79.8614 41.9894 79.4361 44.8365 78.6157 47.5809C78.3853 47.3923 78.1661 47.1904 77.9593 46.9763C76.244 45.2917 74.7224 43.318 72.6217 42.1396C72.3327 41.9882 72.0087 41.8325 71.6646 41.8537L71.6635 41.8526Z" fill="#FCCB4F"/>
<path d="M31.6251 33.9951C30.0358 33.74 28.8149 32.4821 27.8281 31.1999C26.8519 29.9261 25.9614 28.5179 24.5923 27.6676C23.9948 27.3119 23.3426 27.0572 22.6621 26.9137C23.2586 25.5528 23.9592 24.2398 24.7575 22.9866C26.5178 20.2021 28.728 17.7289 31.2979 15.668C31.3656 15.8829 31.4218 16.0894 31.4599 16.3011C31.8559 18.4908 30.9093 21.0976 32.3461 22.8044C33.4706 24.1407 35.5766 24.2709 36.6968 25.5891C37.6921 26.7824 37.5767 28.5708 37.0431 30.0309C36.196 32.3074 34.0201 34.3859 31.6251 33.9951Z" fill="#FFD86A"/>
<path d="M31.6189 33.9958C30.036 33.7417 28.8131 32.4817 27.8252 31.2005C26.8489 29.9236 25.9617 28.5143 24.5968 27.6693C23.9975 27.2987 23.3453 27.0669 22.6592 26.9186C23.2538 25.5572 23.9548 24.2448 24.7556 22.9936C26.512 20.2054 28.7226 17.731 31.296 15.6729C31.4332 16.0743 31.5131 16.4932 31.5332 16.917C31.4624 16.9442 31.3934 16.976 31.3267 17.0123C27.6685 18.8843 26.4339 23.7993 28.5759 27.9859C29.9894 30.7463 32.5147 32.4944 35.1215 32.8364C34.1358 33.7078 32.9075 34.2129 31.62 33.9958H31.6189Z" fill="#FCCB4F"/>
<path d="M56.7765 68.0659C49.2525 69.8162 41.0582 68.6673 34.0192 64.2108C25.6227 58.8955 20.7786 50.0808 20.1846 40.8669L20.1983 40.8319C24.7523 39.5899 29.0173 46.1652 33.5702 44.6543C34.6375 44.2985 35.511 43.5393 36.3899 42.8437C37.544 41.9331 38.822 41.1009 40.2683 40.8912C41.7263 40.6869 43.377 41.2639 44.0272 42.5822C44.6275 43.8072 44.2389 45.2631 43.9467 46.612C43.6047 48.2405 43.4374 49.9632 43.9107 51.5599C44.384 53.1588 45.5836 54.6231 47.2005 55.0043C47.9268 55.1684 48.6849 55.1313 49.4229 55.1769C53.3723 55.4564 56.8728 58.8933 57.2339 62.8428C57.3366 64.1112 57.1725 65.3829 56.9977 66.6482C56.9385 67.1109 56.8686 67.5672 56.804 68.0426L56.7765 68.0659Z" fill="#FFD86A"/>
<path d="M26.1551 56.9644C25.3558 55.9228 24.6328 54.8248 23.9919 53.6789C21.7779 49.7469 20.4773 45.3671 20.1865 40.864C20.1865 40.8534 20.1971 40.8407 20.1971 40.829C21.5164 40.4711 22.8124 40.7718 24.0957 41.3267C24.4769 41.5003 24.8581 41.6856 25.2519 41.8931C24.1995 47.2603 24.5118 52.5682 26.1541 56.9634L26.1551 56.9644Z" fill="#FFD86A"/>
<path d="M56.7765 68.066C49.2525 69.8162 41.0582 68.6674 34.0192 64.2108C25.6227 58.8955 20.7786 50.0808 20.1846 40.8669L20.1983 40.832C22.2239 40.2792 24.1933 41.2745 26.1563 42.4149C25.6957 46.0541 26.3247 49.9707 28.1882 53.612C32.738 62.5008 42.927 66.3803 50.9455 62.2753C52.7065 61.3749 54.2696 60.1315 55.5429 58.6181C56.4757 59.8442 57.0941 61.3033 57.2339 62.8428C57.3366 64.1113 57.1725 65.3829 56.9977 66.6482C56.9385 67.1109 56.8686 67.5673 56.804 68.0427L56.7765 68.066Z" fill="#FCCB4F"/>
<path d="M51.3897 68.8069C48.5563 69.5237 45.8966 69.8826 43.4094 69.8826C35.1982 69.8826 28.93 66.0434 25.6212 58.7682C24.8883 57.1385 24.3414 55.4315 23.9906 53.6795C23.2166 49.8508 23.2282 45.607 24.0954 41.3272C25.0057 36.819 26.8 32.5357 29.3746 28.7246C31.9492 24.9134 35.2531 21.65 39.0957 19.1227C39.1592 19.0804 39.2305 19.0514 39.3054 19.0372C39.3803 19.0231 39.4572 19.0241 39.5317 19.0403C39.6062 19.0565 39.6766 19.0875 39.7389 19.1315C39.8011 19.1755 39.8539 19.2315 39.8941 19.2963C39.9359 19.3594 39.9648 19.43 39.9793 19.5043C39.9938 19.5785 39.9935 19.6549 39.9784 19.729C39.9634 19.8032 39.9339 19.8736 39.8916 19.9363C39.8494 19.9991 39.7952 20.0529 39.7321 20.0947C31.6247 25.4491 26.8589 33.7302 25.2516 41.8958C24.1992 47.2619 24.5115 52.5698 26.1537 56.965C26.3041 57.4161 26.4894 57.8671 26.6863 58.2949C30.1095 65.8475 36.9908 69.4443 46.012 68.5761C47.8046 68.8196 49.5971 68.9011 51.3908 68.809L51.3897 68.8069Z" fill="#EDEEF2"/>
<path d="M60.3878 2.13446L30.7365 8.15917C29.9985 8.3074 29.8365 9.29211 30.4888 9.66905L52.3789 22.3728C52.4799 22.4313 52.5922 22.4676 52.7083 22.4792C52.8245 22.4908 52.9418 22.4775 53.0524 22.4401C53.1629 22.4027 53.2642 22.3421 53.3495 22.2624C53.4348 22.1827 53.502 22.0857 53.5468 21.9779L61.3079 3.25046C61.3646 3.11314 61.3829 2.96299 61.3609 2.81607C61.3388 2.66915 61.2773 2.53098 61.1828 2.41636C61.0883 2.30173 60.9644 2.21494 60.8243 2.16529C60.6843 2.11564 60.5334 2.10498 60.3878 2.13446Z" fill="#FF3D47"/>
<path d="M54.6224 5.53517L36.9199 13.4022L38.0232 19.987C38.0498 20.1451 38.1158 20.2938 38.2153 20.4194C38.3148 20.545 38.4444 20.6434 38.5922 20.7055C38.7399 20.7675 38.9009 20.7911 39.0603 20.7742C39.2196 20.7573 39.3721 20.7003 39.5035 20.6086L43.9696 17.4914L55.0025 6.07728C55.2598 5.81152 54.9612 5.38481 54.6224 5.53517Z" fill="#EF253D"/>
</svg>