<svg width="100" height="87" viewBox="0 0 100 87" fill="none" xmlns="http://www.w3.org/2000/svg">
<path opacity="0.1" d="M100 36.0986C100 63.7128 77.6142 86.0986 50 86.0986C22.3858 86.0986 0 63.7128 0 36.0986C0 8.48434 37.3858 41.0983 65 41.0983C92.6142 41.0983 100 8.48434 100 36.0986Z" fill="#855FCE"/>
<path d="M50 33.75C58.6985 33.75 65.75 26.6985 65.75 18C65.75 9.30152 58.6985 2.25 50 2.25C41.3015 2.25 34.25 9.30152 34.25 18C34.25 26.6985 41.3015 33.75 50 33.75Z" fill="#B3D3FF"/>
<path d="M53.3189 29.5871L52.6664 33.5246C51.8001 33.6708 50.9114 33.7496 50.0001 33.7496C46.6026 33.7496 43.4526 32.6696 40.8764 30.8358L41.8439 26.9996C42.0239 26.2796 41.8889 25.5146 41.4839 24.9071L40.1451 22.9046C39.7401 22.2971 39.6051 21.5321 39.7739 20.8121L40.1451 19.3496C40.5051 17.9096 39.5826 16.4358 38.1089 16.1546L34.4639 15.4121C35.3414 10.1246 38.8401 5.73707 43.5876 3.62207L47.8064 5.30957C48.9989 5.79332 49.5614 7.15457 49.0439 8.33582L45.5226 16.2558C45.0726 17.2683 45.4214 18.4496 46.3326 19.0683L47.2439 19.6646C48.0989 20.2271 48.4589 21.2958 48.1326 22.2633L47.4914 24.1983C46.9064 25.9646 48.5939 27.6633 50.3714 27.0671C50.6076 26.9883 50.8551 26.9546 51.0914 26.9546C52.4301 26.9546 53.5551 28.1583 53.3189 29.5871ZM64.7939 12.5996L58.9551 17.3246C58.1226 18.0108 56.8851 17.3021 57.0764 16.2558L57.4026 14.2758C57.5376 13.5108 56.9189 12.9146 56.2664 12.9146C56.0301 12.9146 55.7826 13.0046 55.5801 13.1621C54.6689 13.8371 53.4426 12.9483 53.7914 11.8683L56.5926 3.68957C60.3839 5.44457 63.3539 8.65082 64.7939 12.5996Z" fill="#44A649"/>
<path d="M70.464 55.3834C70.734 55.9234 71.3753 56.1371 71.9153 55.8784L78.1365 52.8184L70.2278 36.7646L64.0065 39.8246C63.4665 40.0834 63.2528 40.7359 63.5115 41.2646L64.1528 42.5584C62.6565 43.0759 59.6753 43.2446 53.9828 40.9384C44.2965 37.0009 39.1553 49.2409 39.1553 51.1309C39.1553 53.0209 44.5778 53.4484 47.784 47.7784L65.3678 58.8034C66.8978 56.1371 68.5403 54.8096 69.8565 54.1571L70.464 55.3834Z" fill="#2970CC"/>
<path d="M65.8062 59.0736L47.7838 47.7674L41.675 45.4499C39.605 44.9999 37.9737 43.9874 37.0625 43.3011L37.2425 42.9861C37.3854 42.7384 37.4241 42.4441 37.3503 42.1679C37.2765 41.8916 37.0961 41.6559 36.8487 41.5124L30.83 38.0361L21.875 53.5386L27.8938 57.0149C28.4113 57.3186 29.075 57.1386 29.3675 56.6211L29.6487 56.1261L33.3612 58.8599L47.5362 67.2524L51.0913 69.3899C51.98 69.9299 53.1838 69.7949 53.8363 68.9736C54.0216 68.7478 54.1564 68.4848 54.2313 68.2024C54.3062 67.92 54.3196 67.6248 54.2705 67.3368C54.2215 67.0488 54.1111 66.7747 53.9469 66.533C53.7827 66.2914 53.5685 66.0878 53.3188 65.9361L54.9613 66.9261C55.8387 67.4549 57.0088 67.3424 57.6725 66.5661C58.5163 65.5761 58.2463 64.1136 57.1775 63.4611L58.8425 64.4624C59.72 64.9911 60.89 64.8786 61.5537 64.1024C62.3975 63.1124 62.1275 61.6499 61.0588 61.0086L63.6125 62.5499C64.5012 63.0899 65.705 62.9549 66.3462 62.1336C66.65 61.7511 66.8075 61.2899 66.8075 60.8399C66.8075 60.1424 66.4475 59.4674 65.795 59.0736H65.8062Z" fill="#E65C62"/>
<path d="M37.0508 43.3125L37.062 43.3237V43.3125H37.0508Z" fill="#FFD299"/>
<path d="M65.8059 59.0737L47.7834 47.7675L41.6747 45.4612C39.5822 45.0112 37.9622 43.9988 37.0622 43.3125L29.6484 56.1375L33.3609 58.8713L47.5359 67.2638L51.1584 69.4575C52.1372 70.0425 53.3972 69.7275 53.9822 68.76C54.1734 68.4337 54.2747 68.0625 54.2747 67.7025C54.2747 67.0163 53.9259 66.3413 53.2959 65.9588L55.0284 67.005C55.9959 67.59 57.2672 67.275 57.8522 66.3075C58.4372 65.34 58.1222 64.0688 57.1547 63.4837L58.9097 64.5412C59.8772 65.1262 61.1484 64.8113 61.7334 63.8438C62.3184 62.8762 62.0034 61.6162 61.0359 61.0312L63.6684 62.6175C64.1354 62.8965 64.694 62.9785 65.2215 62.8456C65.7489 62.7127 66.202 62.3757 66.4809 61.9087C66.7599 61.4418 66.842 60.8832 66.7091 60.3557C66.5761 59.8283 66.2391 59.3752 65.7722 59.0962L65.8059 59.0737Z" fill="#FFD299"/>
<path d="M54.5224 61.8748L58.9661 64.5523C59.6074 64.9236 60.3724 64.9011 60.9799 64.5636L55.0511 60.9973L54.5224 61.8748ZM58.0774 58.0498L57.5486 58.9273L63.6911 62.6061C64.3436 62.9998 65.1086 62.9773 65.7274 62.6511L58.0774 58.0498ZM50.6299 64.3273L55.1074 67.0161C55.7486 67.3761 56.5024 67.3536 57.0986 67.0161L51.1586 63.4386L50.6299 64.3161V64.3273Z" fill="#E6B373"/>
<path d="M36.819 57.6133L36.6799 57.5177C35.7839 56.9017 34.5582 57.1287 33.9422 58.0246L32.6802 59.8602C32.0642 60.7561 32.2912 61.9819 33.1871 62.5979L33.3262 62.6935C34.2222 63.3095 35.4479 63.0825 36.0639 62.1866L37.3259 60.351C37.9419 59.4551 37.7149 58.2294 36.819 57.6133Z" fill="#FFC680"/>
<path d="M40.7916 59.1046L40.6526 59.009C39.7566 58.3929 38.5309 58.6199 37.9149 59.5159L36.0729 62.195C35.4569 63.091 35.6838 64.3167 36.5798 64.9327L36.7188 65.0283C37.6148 65.6443 38.8405 65.4174 39.4565 64.5214L41.2985 61.8423C41.9146 60.9463 41.6876 59.7206 40.7916 59.1046Z" fill="#FFC680"/>
<path d="M44.1725 61.4288L44.0334 61.3332C43.1375 60.7172 41.9118 60.9441 41.2957 61.8401L40.0337 63.6756C39.4177 64.5716 39.6447 65.7973 40.5407 66.4133L40.6797 66.5089C41.5757 67.1249 42.8014 66.898 43.4174 66.002L44.6794 64.1665C45.2954 63.2705 45.0685 62.0448 44.1725 61.4288Z" fill="#FFC680"/>
<path d="M71.5234 51.1719L73.3594 50.2686L74.3123 52.2058L72.4752 53.1092L71.5234 51.1719Z" fill="#1258B3"/>
<path d="M64.1528 42.5587C62.6565 43.0762 59.6753 43.245 53.9828 40.9387C44.2965 37.0012 39.1553 49.2412 39.1553 51.1312C39.1553 53.0212 44.5778 53.4487 47.784 47.7787L65.3678 58.8037C66.8978 56.1375 68.5403 54.81 69.8565 54.1575L64.1528 42.5587Z" fill="#FFC680"/>
<path d="M65.9973 57.7912L65.5023 57.4874L58.5385 53.1224C59.056 52.7624 59.4948 52.3912 59.8435 52.0424C60.631 51.2662 61.0135 50.6249 61.0923 50.4899L60.2035 49.9724C60.2035 49.9724 59.7873 50.6924 58.9435 51.4687C58.5835 51.8062 58.1223 52.1662 57.5823 52.5037L47.9298 46.4512C44.9148 51.7837 39.9423 51.7837 39.3573 50.1299C39.2335 50.5574 39.166 50.9062 39.166 51.1087C39.166 53.0662 44.5885 53.4262 47.7948 47.7562L56.3785 53.1337L57.4023 53.7862L65.3673 58.7812C65.581 58.4212 65.7835 58.0837 65.9973 57.7687V57.7912Z" fill="#E6A85C"/>
<path d="M46.9869 64.6114L46.8479 64.5158C45.9519 63.8998 44.7262 64.1267 44.1102 65.0227L43.4282 66.0146C42.8122 66.9106 43.0391 68.1363 43.9351 68.7523L44.0742 68.8479C44.9701 69.4639 46.1959 69.237 46.8119 68.341L47.4939 67.3491C48.1099 66.4531 47.8829 65.2274 46.9869 64.6114Z" fill="#FFC680"/>
</svg>