<svg width="225" height="266" viewBox="0 0 225 266" fill="none" xmlns="http://www.w3.org/2000/svg">
<g opacity="0.4" clip-path="url(#clip0_55_1476)">
<g opacity="0.4">
<path d="M82.1469 55.2683C82.1469 55.2683 105.151 174.473 183.523 221.192L151.898 229.239C151.898 229.239 146.731 203.524 117.22 211.02C87.708 218.515 96.8419 244.297 96.8419 244.297L67.0086 251.867C67.0086 251.867 113.478 189.268 74.0381 57.3265L82.1469 55.2683Z" stroke="white" stroke-width="1.08791" stroke-linecap="round" stroke-linejoin="round"/>
<path d="M84.233 151.123L85.2251 155.029L120.946 145.955L119.954 142.049L84.233 151.123Z" stroke="white" stroke-width="1.08791" stroke-linecap="round" stroke-linejoin="round"/>
<path d="M80.3854 192.469L82.7759 201.879L145.659 185.905L143.268 176.495L80.3854 192.469Z" stroke="white" stroke-width="1.08791" stroke-linecap="round" stroke-linejoin="round"/>
<path d="M100.575 161.815L100.675 187.296L123.033 181.612L110.628 159.265L100.575 161.815Z" stroke="white" stroke-width="1.08791" stroke-linecap="round" stroke-linejoin="round"/>
<path d="M73.2969 57.5146L70.0807 58.3337L67.5021 48.1724L83.3317 44.1556L85.911 54.3052L73.2969 57.5146Z" stroke="white" stroke-width="1.08791" stroke-linecap="round" stroke-linejoin="round"/>
<path d="M70.7962 26.3784L70.9232 47.3089L80.1239 44.9711L70.7962 26.3784Z" stroke="white" stroke-width="1.08791" stroke-linecap="round" stroke-linejoin="round"/>
<path d="M121.817 156.421L100.576 161.816L89.7939 164.556L100.61 169.988L89.0894 177.488L100.677 187.297L87.6395 190.604L100.636 176.175L89.546 170.708L100.576 161.816" stroke="white" stroke-width="1.08791" stroke-linecap="round" stroke-linejoin="round"/>
<path d="M110.958 159.173L124.899 161.719L117.76 171.819L136.077 178.299L123.034 181.611L128.541 167.464L114.834 166.371L121.745 156.439L110.958 159.173ZM110.958 159.173L89.7217 164.574L116.421 147.091" stroke="white" stroke-width="1.08791" stroke-linecap="round" stroke-linejoin="round"/>
<path d="M102.132 117.647L87.6803 121.319L99.2632 110.686L85.9981 109.28L94.9886 99.4462" stroke="white" stroke-width="1.08791" stroke-linecap="round" stroke-linejoin="round"/>
<path d="M84.7736 102.038L94.9886 99.4453L83.8432 95.9428L91.4503 89.2252L81.5586 86.0639" stroke="white" stroke-width="1.08791" stroke-linecap="round" stroke-linejoin="round"/>
<path d="M84.3843 208.285L148.235 192.057" stroke="white" stroke-width="1.08791" stroke-linecap="round" stroke-linejoin="round"/>
<path d="M87.681 121.318L105.106 124.436L89.1412 136.309L108.551 131.372L90.1335 145.804L113.405 143.705" stroke="white" stroke-width="1.08791" stroke-linecap="round" stroke-linejoin="round"/>
<path d="M89.7676 83.9684L81.5569 86.0614L87.8695 78.5186L79.4443 77.1153L85.8522 70.6062" stroke="white" stroke-width="1.08791" stroke-linecap="round" stroke-linejoin="round"/>
<path d="M81.8032 218.182L155.445 199.47" stroke="white" stroke-width="1.08791" stroke-linecap="round" stroke-linejoin="round"/>
<path d="M66.9947 251.875L98.9246 222.747L78.6934 227.757L96.7991 244.297" stroke="white" stroke-width="1.08791" stroke-linecap="round" stroke-linejoin="round"/>
<path d="M183.517 221.197L139.405 212.461L162.964 206.345L151.863 229.237" stroke="white" stroke-width="1.08791" stroke-linecap="round" stroke-linejoin="round"/>
<path d="M74.0267 57.326L83.1369 59.9167L76.5501 66.3737L85.8532 70.6091L78.2812 72.5357" stroke="white" stroke-width="1.08791" stroke-linecap="round" stroke-linejoin="round"/>
<path d="M87.6381 121.334L102.09 117.662L86.8344 113.843L97.2906 106.642L85.2269 101.926" stroke="white" stroke-width="1.08791" stroke-linecap="round" stroke-linejoin="round"/>
<path d="M94.9896 99.4458L85.228 101.926L93.0175 93.8623L82.8315 91.0941L89.7704 83.9714" stroke="white" stroke-width="1.08791" stroke-linecap="round" stroke-linejoin="round"/>
<path d="M102.091 117.661L88.6819 128.382L107.962 131.519L89.1417 136.31L112.459 139.983L90.1771 149.607" stroke="white" stroke-width="1.08791" stroke-linecap="round" stroke-linejoin="round"/>
<path d="M82.4241 85.8396L89.7694 83.9696L80.3075 80.5056L87.1495 75.2508L78.282 72.534" stroke="white" stroke-width="1.08791" stroke-linecap="round" stroke-linejoin="round"/>
<path d="M82.1539 55.2635L75.878 62.3975L84.2975 64.47L78.2817 72.5362L85.8538 70.6096" stroke="white" stroke-width="1.08791" stroke-linecap="round" stroke-linejoin="round"/>
<path d="M89.8867 153.835L121.746 156.439" stroke="white" stroke-width="1.08791" stroke-linecap="round" stroke-linejoin="round"/>
<path d="M85.2658 51.7867L69.4346 55.8082L70.0837 58.3637L85.9149 54.3422L85.2658 51.7867Z" stroke="white" stroke-width="1.08791" stroke-linecap="round" stroke-linejoin="round"/>
<path d="M83.3278 44.1905L67.4966 48.212L68.1457 50.7675L83.9769 46.746L83.3278 44.1905Z" stroke="white" stroke-width="1.08791" stroke-linecap="round" stroke-linejoin="round"/>
</g>
</g>
<defs>
<clipPath id="clip0_55_1476">
<rect width="171.091" height="228.264" fill="white" transform="translate(0.42627 45.1) rotate(-15)"/>
</clipPath>
</defs>
</svg>
