<svg width="101" height="87" viewBox="0 0 101 87" fill="none" xmlns="http://www.w3.org/2000/svg">
<path opacity="0.1" d="M100.824 36.1259C100.824 63.7402 78.4385 86.1259 50.8242 86.1259C23.21 86.1259 0.824219 63.7402 0.824219 36.1259C0.824219 8.51168 38.21 41.1257 65.8242 41.1257C93.4385 41.1257 100.824 8.51168 100.824 36.1259Z" fill="#855FCE"/>
<g clip-path="url(#clip0_104_1644)">
<path d="M81.0641 27.3418C81.4129 27.3418 81.7474 27.4804 81.994 27.727C82.2407 27.9736 82.3792 28.3081 82.3792 28.6569V65.5046C82.3792 68.5088 79.9438 70.9442 76.9396 70.9442H24.7086C21.7045 70.9442 19.269 68.5088 19.269 65.5046V28.6569C19.269 28.3081 19.4076 27.9736 19.6542 27.727C19.9009 27.4804 20.2354 27.3418 20.5842 27.3418H81.0641Z" fill="#B3E5EE"/>
<path d="M23.2563 27.3418V64.5206C23.2563 66.9813 25.2576 68.9831 27.7176 68.9831H74.0712C76.5311 68.9831 78.5325 66.9812 78.5325 64.5206V27.3418H23.2563Z" fill="#86D7E5"/>
<path d="M74.5978 24.6836H27.1909C26.5727 24.6836 26.0728 25.1849 26.0728 25.8031V59.4417L41.3499 65.0219L50.8944 66.1196L73.7699 61.9902L75.7158 59.4417V25.8031C75.716 25.1849 75.2161 24.6836 74.5978 24.6836Z" fill="#F9F7F7"/>
<path d="M49.8384 24.6836H51.9507V66.1661H49.8384V24.6836Z" fill="#F8F3F2"/>
<path d="M37.8584 24.6836L44.0531 34.3275V35.0757C44.0531 36.3145 44.6704 37.4113 45.6129 38.0766V39.2531C45.6129 41.7148 47.6157 43.7176 50.0774 43.7176H51.7116C54.1733 43.7176 56.1761 41.7148 56.1761 39.2531V38.0766C57.1186 37.4113 57.7359 36.3145 57.7359 35.0757V34.3275L63.9306 24.6836H37.8584ZM31.9357 60.6285V24.6836H27.1909C26.5727 24.6836 26.0728 25.1849 26.0728 25.8031V59.4417L32.1259 61.6527C32.0007 61.3257 31.9362 60.9786 31.9357 60.6285Z" fill="#F8F3F2"/>
<path d="M50.8944 66.1203V66.1667H27.7176C26.8093 66.1667 26.0728 65.4302 26.0728 64.5205V59.4424H44.2165C47.9047 59.4424 50.8944 62.4321 50.8944 66.1203ZM75.716 59.4424V64.5205C75.716 65.4302 74.9795 66.1667 74.0712 66.1667H50.8944V66.1203C50.8944 62.4321 53.8841 59.4424 57.5722 59.4424H75.716Z" fill="#F2EAE7"/>
<path d="M54.0638 34.9463H47.7256V39.2538C47.7256 40.5528 48.7787 41.6058 50.0776 41.6058H51.7117C53.0108 41.6058 54.0638 40.5528 54.0638 39.2538V34.9463Z" fill="#A59CA6"/>
<path d="M54.0638 34.9463H47.7256V39.2538C47.7256 40.5528 48.7787 41.6058 50.0776 41.6058H51.7117C52.622 41.6058 53.4101 41.0878 53.801 40.3311C53.7103 40.3417 53.6185 40.3487 53.5249 40.3487H51.8907C50.8574 40.3487 49.9807 39.6819 49.6656 38.7551C49.547 38.4066 49.8054 38.0443 50.1737 38.0443H54.0639V34.9463H54.0638Z" fill="#8F8390"/>
<path d="M64.9405 15.1019C64.9405 7.34443 58.6519 1.05566 50.8943 1.05566C43.1368 1.05566 36.8481 7.34429 36.8481 15.1019C36.8481 18.1114 37.795 20.8994 39.4066 23.1854L46.1655 33.7075V35.0757C46.1655 35.9372 46.8638 36.6355 47.7252 36.6355H54.0634C54.9249 36.6355 55.6232 35.9372 55.6232 35.0757V33.7075L62.382 23.1854C63.9936 20.8996 64.9405 18.1114 64.9405 15.1019Z" fill="#FBE88C"/>
<path d="M45.3305 24.9787C43.6455 22.5076 42.6555 19.4937 42.6555 16.2404C42.6555 9.00305 47.5521 2.94889 54.1076 1.42631C53.0544 1.18005 51.9764 1.05601 50.8948 1.05664C43.1374 1.05664 36.8486 7.34527 36.8486 15.1028C36.8486 18.1124 37.7955 20.9004 39.4071 23.1864L46.166 33.7085V35.0767C46.166 35.9381 46.8643 36.6365 47.7257 36.6365H51.7399L45.3305 24.9787Z" fill="#FBE372"/>
<path d="M51.42 63.5186C51.0718 64.3418 50.8929 65.2267 50.894 66.1206V66.167H74.0708C74.9791 66.167 75.7157 65.4305 75.7157 64.5208V63.5187H51.42V63.5186Z" fill="#EDE2DD"/>
<path d="M34.8248 63.5182C33.2291 63.5182 31.9357 62.2248 31.9357 60.6291V59.4424H26.0728V64.5205C26.0728 65.4302 26.8093 66.1667 27.7176 66.1667H50.8944V66.1203C50.8944 65.1972 50.7071 64.318 50.3684 63.5182H34.8248Z" fill="#EDE2DD"/>
<path d="M81.0641 26.2851H76.7731V25.8032C76.7731 24.6037 75.7972 23.6279 74.5976 23.6279H66.1345C65.5513 23.6279 65.0784 24.1007 65.0784 24.6841C65.0784 25.2675 65.5513 25.7403 66.1345 25.7403H74.5976C74.6324 25.7403 74.6607 25.7685 74.6607 25.8032V38.6812C74.6607 39.2646 75.1336 39.7373 75.7169 39.7373C76.3002 39.7373 76.7731 39.2646 76.7731 38.6812V28.3975H81.0641C81.2069 28.3975 81.3231 28.5137 81.3231 28.6565V65.5042C81.3231 67.9211 79.3568 69.8874 76.9398 69.8874H24.7085C22.2916 69.8874 20.3252 67.9211 20.3252 65.5042V28.6565C20.3252 28.5137 20.4414 28.3975 20.5842 28.3975H25.0161V64.5206C25.0161 66.01 26.2277 67.2218 27.7172 67.2218H74.0718C75.5613 67.2218 76.7729 66.0101 76.7729 64.5206V43.186C76.7729 42.6025 76.3001 42.1298 75.7168 42.1298C75.1335 42.1298 74.6606 42.6025 74.6606 43.186V58.3852H57.5724C55.3593 58.3852 53.3618 59.3211 51.9508 60.8161V47.1541C51.9508 46.5707 51.4779 46.0979 50.8946 46.0979C50.3113 46.0979 49.8384 46.5707 49.8384 47.1541V60.8163C48.4274 59.3213 46.4298 58.3854 44.2167 58.3854H39.4174C38.8342 58.3854 38.3613 58.8581 38.3613 59.4415C38.3613 60.025 38.8342 60.4977 39.4174 60.4977H44.2167C46.9717 60.4977 49.2685 62.4902 49.7459 65.1094H27.7172C27.5611 65.1093 27.4114 65.0472 27.3011 64.9368C27.1907 64.8264 27.1286 64.6768 27.1284 64.5206V60.4977H34.9125C35.4958 60.4977 35.9687 60.025 35.9687 59.4415C35.9687 58.8581 35.4958 58.3854 34.9125 58.3854H27.1284V25.8032C27.1284 25.7685 27.1568 25.7403 27.1915 25.7403H35.6546C36.2379 25.7403 36.7108 25.2675 36.7108 24.6841C36.7108 24.1007 36.2379 23.6279 35.6546 23.6279H27.1915C25.992 23.6279 25.0161 24.6038 25.0161 25.8032V26.2851H20.5842C19.2767 26.2851 18.2129 27.3489 18.2129 28.6565V65.5042C18.2129 69.0859 21.1268 71.9998 24.7085 71.9998H76.9395C80.5212 71.9998 83.4352 69.0859 83.4352 65.5042V28.6565C83.4353 27.3489 82.3717 26.2851 81.0641 26.2851ZM57.5724 60.4976H74.6606V64.5206C74.6604 64.6768 74.5984 64.8264 74.488 64.9368C74.3776 65.0472 74.2279 65.1093 74.0718 65.1094H52.0434C52.5207 62.4901 54.8175 60.4976 57.5724 60.4976Z" fill="black"/>
<path d="M36.8128 14.819C37.3926 14.8728 37.9087 14.4474 37.9635 13.8666C38.2655 10.6637 39.7445 7.69828 42.1283 5.51663C44.527 3.32147 47.6402 2.11236 50.8946 2.11236C58.0573 2.11236 63.8846 7.93965 63.8846 15.1022C63.8846 17.7975 63.0666 20.3821 61.5191 22.5773C61.5104 22.5897 61.5019 22.6023 61.4936 22.615L54.7349 33.1371C54.6255 33.3074 54.5673 33.5056 54.5673 33.708V35.0763C54.5672 35.2098 54.5141 35.3378 54.4196 35.4322C54.3252 35.5266 54.1972 35.5797 54.0637 35.5799H53.9947L54.6676 24.1626H55.8708C57.5925 24.1626 58.9931 22.7619 58.9931 21.0404V20.9122C58.9931 19.1906 57.5925 17.79 55.8708 17.79C54.2202 17.79 52.8511 19.0808 52.7539 20.7286L52.676 22.0502H48.9722L48.8944 20.7286C48.7973 19.0808 47.4281 17.79 45.7775 17.79C44.0558 17.79 42.6552 19.1906 42.6552 20.9122V21.0404C42.6552 22.7619 44.0558 24.1626 45.7775 24.1626H46.9807L47.6531 35.5725C47.4099 35.537 47.2219 35.3292 47.2219 35.0763V33.708C47.2219 33.5056 47.1638 33.3075 47.0545 33.1371L40.2957 22.615C40.2875 22.6023 40.279 22.5897 40.2703 22.5773C39.3019 21.2065 38.611 19.6596 38.2365 18.0236C38.1738 17.7506 38.0051 17.5137 37.7677 17.3651C37.5303 17.2164 37.2435 17.1682 36.9705 17.2309C36.6975 17.2937 36.4606 17.4623 36.312 17.6998C36.1633 17.9372 36.1151 18.2239 36.1778 18.4969C36.6119 20.3925 37.411 22.1853 38.5306 23.7753L45.1099 34.0177V35.076C45.1099 36.1424 45.7522 37.0605 46.6696 37.4673V39.2534C46.6696 41.1328 48.1985 42.6617 50.078 42.6617H51.7121C53.5914 42.6617 55.1205 41.1328 55.1205 39.2534V37.4673C56.0378 37.0605 56.6802 36.1426 56.6802 35.076V34.0177L63.2594 23.7753C65.0507 21.2262 65.9974 18.2275 65.9974 15.1021C65.9968 6.77475 59.222 0 50.8946 0C47.111 0 43.4912 1.40584 40.7022 3.95842C37.9312 6.49466 36.2118 9.94287 35.8605 13.6684C35.8475 13.8065 35.8617 13.9458 35.9025 14.0783C35.9433 14.2109 36.0098 14.3342 36.0982 14.441C36.1867 14.5479 36.2953 14.6363 36.4179 14.7011C36.5405 14.766 36.6747 14.8061 36.8128 14.819ZM54.8626 20.8528C54.878 20.5958 54.9909 20.3543 55.1783 20.1777C55.3656 20.001 55.6133 19.9025 55.8708 19.9022C56.4277 19.9022 56.8808 20.3552 56.8808 20.9121V21.0402C56.8808 21.597 56.4277 22.0501 55.8708 22.0501H54.7921L54.8626 20.8528ZM45.7775 22.0501C45.2205 22.0501 44.7675 21.597 44.7675 21.0402V20.9121C44.7675 20.3552 45.2205 19.9022 45.7775 19.9022C46.035 19.9025 46.2827 20.001 46.47 20.1776C46.6574 20.3543 46.7703 20.5957 46.7857 20.8528L46.8562 22.0501H45.7775ZM52.5516 24.1624L51.8788 35.5797H49.7696L49.0969 24.1624H52.5516ZM53.0075 39.2535C53.0075 39.9681 52.4262 40.5495 51.7115 40.5495H50.0774C49.3629 40.5495 48.7814 39.9681 48.7814 39.2535V37.6921H53.0074V39.2535H53.0075ZM69.3952 8.02006C69.6516 8.02031 69.8992 7.92697 70.0916 7.75756L72.396 5.73421C72.6043 5.54878 72.7307 5.28853 72.7478 5.01023C72.7649 4.73193 72.6713 4.45816 72.4873 4.24863C72.3034 4.03909 72.044 3.9108 71.7659 3.89173C71.4877 3.87267 71.2133 3.96437 71.0024 4.14684L68.698 6.1702C68.5366 6.31189 68.4222 6.49942 68.3702 6.70778C68.3181 6.91613 68.3308 7.13541 68.4065 7.33638C68.4823 7.53734 68.6175 7.71044 68.7941 7.83259C68.9708 7.95474 69.1804 8.02014 69.3952 8.02006ZM68.698 14.3899L71.0024 16.4134C71.1948 16.5829 71.4425 16.6763 71.6989 16.6759C71.9137 16.676 72.1234 16.6107 72.3001 16.4885C72.4768 16.3664 72.612 16.1933 72.6878 15.9923C72.7635 15.7914 72.7762 15.5721 72.7241 15.3637C72.6721 15.1553 72.5577 14.9678 72.3963 14.8261L70.0919 12.8026C69.9877 12.711 69.8664 12.6409 69.7351 12.5963C69.6038 12.5516 69.465 12.5332 69.3266 12.5422C69.1881 12.5512 69.0529 12.5874 68.9284 12.6487C68.804 12.71 68.6929 12.7952 68.6014 12.8995C68.5098 13.0037 68.4397 13.1249 68.395 13.2562C68.3503 13.3875 68.3319 13.5263 68.3409 13.6647C68.3499 13.8031 68.386 13.9384 68.4473 14.0629C68.5086 14.1873 68.5938 14.2984 68.698 14.3899ZM29.3931 5.73421L31.6975 7.75756C31.8899 7.92702 32.1375 8.02037 32.3939 8.02006C32.6087 8.02014 32.8183 7.95474 32.995 7.83259C33.1716 7.71044 33.3068 7.53734 33.3826 7.33638C33.4583 7.13541 33.471 6.91613 33.4189 6.70778C33.3669 6.49942 33.2525 6.31189 33.0911 6.1702L30.7867 4.14684C30.6825 4.0553 30.5612 3.9852 30.4299 3.94053C30.2986 3.89585 30.1598 3.87749 30.0214 3.88649C29.8829 3.89549 29.7477 3.93167 29.6232 3.99296C29.4988 4.05426 29.3877 4.13947 29.2962 4.24373C29.1114 4.45423 29.0178 4.72952 29.036 5.00903C29.0541 5.28855 29.1826 5.5494 29.3931 5.73421ZM30.0903 16.6759C30.3467 16.6762 30.5943 16.5828 30.7868 16.4134L33.0912 14.3899C33.3017 14.2051 33.4302 13.9443 33.4484 13.6647C33.4665 13.3852 33.3729 13.1099 33.1881 12.8994C33.0032 12.6889 32.7424 12.5604 32.4628 12.5423C32.1833 12.5241 31.908 12.6178 31.6975 12.8026L29.3931 14.8261C29.2317 14.9678 29.1173 15.1553 29.0653 15.3637C29.0132 15.572 29.0259 15.7913 29.1016 15.9923C29.1773 16.1932 29.3126 16.3663 29.4892 16.4885C29.6658 16.6106 29.8755 16.676 30.0903 16.6759ZM41.55 36.6359C41.55 36.3558 41.4387 36.0871 41.2406 35.8891C41.0426 35.691 40.7739 35.5797 40.4938 35.5797H30.0899C29.5066 35.5797 29.0337 36.0525 29.0337 36.6359C29.0337 37.2193 29.5066 37.6921 30.0899 37.6921H40.4938C40.7739 37.6921 41.0426 37.5808 41.2406 37.3827C41.4387 37.1847 41.55 36.916 41.55 36.6359ZM43.7113 40.9523H31.9978C31.4145 40.9523 30.9416 41.425 30.9416 42.0085C30.9416 42.5919 31.4145 43.0646 31.9978 43.0646H43.7113C44.2946 43.0646 44.7675 42.5919 44.7675 42.0085C44.7675 41.425 44.2946 40.9523 43.7113 40.9523ZM43.7113 46.0981H31.9978C31.4145 46.0981 30.9416 46.5709 30.9416 47.1543C30.9416 47.7377 31.4145 48.2105 31.9978 48.2105H43.7113C44.2946 48.2105 44.7675 47.7377 44.7675 47.1543C44.7675 46.5709 44.2946 46.0981 43.7113 46.0981ZM43.7113 51.244H31.9978C31.4145 51.244 30.9416 51.7167 30.9416 52.3001C30.9416 52.8836 31.4145 53.3563 31.9978 53.3563H43.7113C44.2946 53.3563 44.7675 52.8836 44.7675 52.3001C44.7675 51.7167 44.2946 51.244 43.7113 51.244ZM72.7556 36.6359C72.7556 36.3558 72.6443 36.0871 72.4462 35.8891C72.2481 35.691 71.9795 35.5797 71.6994 35.5797H61.2954C60.7122 35.5797 60.2393 36.0525 60.2393 36.6359C60.2393 37.2193 60.7122 37.6921 61.2954 37.6921H71.6994C71.9795 37.6921 72.2481 37.5808 72.4462 37.3827C72.6443 37.1847 72.7556 36.916 72.7556 36.6359ZM69.7913 40.9523H58.0778C57.4945 40.9523 57.0216 41.425 57.0216 42.0085C57.0216 42.5919 57.4945 43.0646 58.0778 43.0646H69.7913C70.3746 43.0646 70.8475 42.5919 70.8475 42.0085C70.8475 41.425 70.3746 40.9523 69.7913 40.9523ZM69.7913 46.0981H58.0778C57.4945 46.0981 57.0216 46.5709 57.0216 47.1543C57.0216 47.7377 57.4945 48.2105 58.0778 48.2105H69.7913C70.3746 48.2105 70.8475 47.7377 70.8475 47.1543C70.8475 46.5709 70.3746 46.0981 69.7913 46.0981ZM69.7913 51.244H58.0778C57.4945 51.244 57.0216 51.7167 57.0216 52.3001C57.0216 52.8836 57.4945 53.3563 58.0778 53.3563H69.7913C70.3746 53.3563 70.8475 52.8836 70.8475 52.3001C70.8475 51.7167 70.3746 51.244 69.7913 51.244Z" fill="black"/>
</g>
<defs>
<clipPath id="clip0_104_1644">
<rect width="72" height="72" fill="white" transform="translate(14.8242)"/>
</clipPath>
</defs>
</svg>
