<svg width="105" height="88" viewBox="0 0 105 88" fill="none" xmlns="http://www.w3.org/2000/svg">
<path opacity="0.1" d="M104.932 34.561C104.932 63.5373 81.4425 87.0272 52.4662 87.0272C23.4899 87.0272 0 63.5373 0 34.561C0 5.58477 39.2298 39.8074 68.206 39.8074C97.1823 39.8074 104.932 5.58477 104.932 34.561Z" fill="#27AE60"/>
<path d="M52.7939 32.9355C60.8711 32.9355 67.4189 26.3877 67.4189 18.3105C67.4189 10.2334 60.8711 3.68555 52.7939 3.68555C44.7168 3.68555 38.1689 10.2334 38.1689 18.3105C38.1689 26.3877 44.7168 32.9355 52.7939 32.9355Z" fill="#F2C383"/>
<path d="M44.9189 34.0605H85.4189V45.3105H44.9189V34.0605Z" fill="#59CEA7"/>
<path d="M80.9189 40.8105H65.1689C64.8706 40.8105 64.5844 40.692 64.3734 40.481C64.1625 40.2701 64.0439 39.9839 64.0439 39.6855C64.0439 39.3872 64.1625 39.101 64.3734 38.8901C64.5844 38.6791 64.8706 38.5605 65.1689 38.5605H80.9189C81.2173 38.5605 81.5035 38.6791 81.7144 38.8901C81.9254 39.101 82.0439 39.3872 82.0439 39.6855C82.0439 39.9839 81.9254 40.2701 81.7144 40.481C81.5035 40.692 81.2173 40.8105 80.9189 40.8105Z" fill="#00B378"/>
<path d="M41.5439 25.0605H83.1689V34.0605H41.5439V25.0605Z" fill="#31C292"/>
<path d="M78.6689 30.6855H57.2939C56.9956 30.6855 56.7094 30.567 56.4984 30.356C56.2875 30.1451 56.1689 29.8589 56.1689 29.5605C56.1689 29.2622 56.2875 28.976 56.4984 28.7651C56.7094 28.5541 56.9956 28.4355 57.2939 28.4355H78.6689C78.9673 28.4355 79.2535 28.5541 79.4644 28.7651C79.6754 28.976 79.7939 29.2622 79.7939 29.5605C79.7939 29.8589 79.6754 30.1451 79.4644 30.356C79.2535 30.567 78.9673 30.6855 78.6689 30.6855Z" fill="#00A16C"/>
<path d="M20.1689 30.6855H32.5439V46.4355H20.1689V30.6855Z" fill="#576CD3"/>
<path d="M25.7939 30.6855H32.5439V46.4355H25.7939V30.6855Z" fill="#3F589E"/>
<path d="M60.4313 41.8167L44.9189 34.0605H48.2939C49.4874 34.0605 50.632 33.5864 51.4759 32.7425C52.3198 31.8986 52.7939 30.754 52.7939 29.5605H43.4079C42.817 29.5605 42.2318 29.6769 41.6858 29.9031C41.1398 30.1293 40.6437 30.4607 40.2259 30.8786L38.1689 32.9355H32.5439V44.1855H38.1689L40.4102 45.6798C41.1494 46.1726 42.0179 46.4356 42.9063 46.4355H62.9189V45.8417C62.9189 45.006 62.6862 44.1867 62.2468 43.4758C61.8075 42.7649 61.1788 42.1904 60.4313 41.8167Z" fill="#FCDCC8"/>
<path d="M47.1677 20.5607C46.8884 20.5606 46.6192 20.4567 46.4123 20.2691C46.2055 20.0816 46.0757 19.8238 46.0484 19.5459C46.021 19.268 46.098 18.9899 46.2643 18.7656C46.4306 18.5413 46.6744 18.3869 46.9483 18.3323L51.6688 17.3882V10.4355C51.6688 10.1372 51.7873 9.85103 51.9983 9.64005C52.2093 9.42907 52.4954 9.31055 52.7938 9.31055C53.0922 9.31055 53.3783 9.42907 53.5893 9.64005C53.8003 9.85103 53.9188 10.1372 53.9188 10.4355V18.3105C53.9188 18.5706 53.8287 18.8227 53.6638 19.0238C53.4989 19.2249 53.2695 19.3627 53.0144 19.4137L47.3894 20.5387C47.3164 20.5534 47.2421 20.5607 47.1677 20.5607Z" fill="#D7A25B"/>
<path d="M73.0439 7.06055H67.4189C67.1206 7.06055 66.8344 6.94202 66.6234 6.73104C66.4125 6.52006 66.2939 6.23392 66.2939 5.93555C66.2939 5.63718 66.4125 5.35103 66.6234 5.14005C66.8344 4.92907 67.1206 4.81055 67.4189 4.81055H73.0439C73.3423 4.81055 73.6285 4.92907 73.8394 5.14005C74.0504 5.35103 74.1689 5.63718 74.1689 5.93555C74.1689 6.23392 74.0504 6.52006 73.8394 6.73104C73.6285 6.94202 73.3423 7.06055 73.0439 7.06055ZM77.5439 11.5605H70.7939C70.4956 11.5605 70.2094 11.442 69.9984 11.231C69.7875 11.0201 69.6689 10.7339 69.6689 10.4355C69.6689 10.1372 69.7875 9.85103 69.9984 9.64005C70.2094 9.42907 70.4956 9.31055 70.7939 9.31055H77.5439C77.8423 9.31055 78.1285 9.42907 78.3394 9.64005C78.5504 9.85103 78.6689 10.1372 78.6689 10.4355C78.6689 10.7339 78.5504 11.0201 78.3394 11.231C78.1285 11.442 77.8423 11.5605 77.5439 11.5605ZM82.0439 16.0605H73.0439C72.7456 16.0605 72.4594 15.942 72.2484 15.731C72.0375 15.5201 71.9189 15.2339 71.9189 14.9355C71.9189 14.6372 72.0375 14.351 72.2484 14.1401C72.4594 13.9291 72.7456 13.8105 73.0439 13.8105H82.0439C82.3423 13.8105 82.6285 13.9291 82.8394 14.1401C83.0504 14.351 83.1689 14.6372 83.1689 14.9355C83.1689 15.2339 83.0504 15.5201 82.8394 15.731C82.6285 15.942 82.3423 16.0605 82.0439 16.0605Z" fill="#F4CF9B"/>
<path d="M70.7939 53.1855H85.4189V68.9355H70.7939V53.1855Z" fill="#576CD3"/>
<path d="M70.7939 53.1855H77.5439V68.9355H70.7939V53.1855Z" fill="#3F589E"/>
<path d="M65.1689 55.4355L63.112 53.3786C62.6942 52.9607 62.1981 52.6293 61.6521 52.4031C61.1061 52.1769 60.5209 52.0605 59.93 52.0605H50.5439C50.5439 53.254 51.0181 54.3986 51.862 55.2425C52.7059 56.0864 53.8505 56.5605 55.0439 56.5605H58.4189L51.6689 61.0605L36.6423 60.1215C35.7606 60.0663 34.8821 60.272 34.1164 60.7127C33.3508 61.1535 32.7318 61.8099 32.3367 62.6001L31.4189 64.4355L55.2141 68.7619C55.8434 68.8763 56.4899 68.8553 57.1104 68.7001L65.1689 66.6855H70.7939V55.4355H65.1689Z" fill="#FCDCC8"/>
<path d="M28.0439 62.1855C27.7456 62.1855 27.4594 62.067 27.2485 61.856C27.0375 61.6451 26.9189 61.3589 26.9189 61.0605C26.9213 58.9727 27.7518 56.971 29.2281 55.4947C30.7044 54.0184 32.7061 53.1879 34.7939 53.1855C35.0923 53.1855 35.3785 53.3041 35.5894 53.5151C35.8004 53.726 35.9189 54.0122 35.9189 54.3105C35.9189 54.6089 35.8004 54.8951 35.5894 55.106C35.3785 55.317 35.0923 55.4355 34.7939 55.4355C33.3026 55.4372 31.8728 56.0304 30.8183 57.0849C29.7638 58.1395 29.1706 59.5692 29.1689 61.0605C29.1689 61.3589 29.0504 61.6451 28.8394 61.856C28.6285 62.067 28.3423 62.1855 28.0439 62.1855ZM25.7939 56.5605C25.4956 56.5605 25.2094 56.442 24.9985 56.231C24.7875 56.0201 24.6689 55.7339 24.6689 55.4355C24.6703 54.2425 25.1448 53.0987 25.9884 52.255C26.8321 51.4114 27.9759 50.9369 29.1689 50.9355C29.4673 50.9355 29.7535 51.0541 29.9644 51.2651C30.1754 51.476 30.2939 51.7622 30.2939 52.0605C30.2939 52.3589 30.1754 52.6451 29.9644 52.856C29.7535 53.067 29.4673 53.1855 29.1689 53.1855C28.5724 53.1862 28.0005 53.4235 27.5787 53.8453C27.1569 54.2671 26.9196 54.839 26.9189 55.4355C26.9189 55.7339 26.8004 56.0201 26.5894 56.231C26.3785 56.442 26.0923 56.5605 25.7939 56.5605Z" fill="#DFDFDF"/>
<path d="M46.141 35.1855H42.6689C42.3706 35.1855 42.0844 35.067 41.8734 34.856C41.6625 34.6451 41.5439 34.3589 41.5439 34.0605C41.5439 33.7622 41.6625 33.476 41.8734 33.2651C42.0844 33.0541 42.3706 32.9355 42.6689 32.9355H46.141C46.4393 32.9355 46.7255 33.0541 46.9365 33.2651C47.1474 33.476 47.266 33.7622 47.266 34.0605C47.266 34.3589 47.1474 34.6451 46.9365 34.856C46.7255 35.067 46.4393 35.1855 46.141 35.1855ZM60.6689 57.6855H57.3858C57.0874 57.6855 56.8013 57.567 56.5903 57.356C56.3793 57.1451 56.2608 56.8589 56.2608 56.5605C56.2608 56.2622 56.3793 55.976 56.5903 55.7651C56.8013 55.5541 57.0874 55.4355 57.3858 55.4355H60.6689C60.9673 55.4355 61.2535 55.5541 61.4644 55.7651C61.6754 55.976 61.7939 56.2622 61.7939 56.5605C61.7939 56.8589 61.6754 57.1451 61.4644 57.356C61.2535 57.567 60.9673 57.6855 60.6689 57.6855Z" fill="#EFC8B4"/>
<path d="M28.0439 13.8105C28.012 13.8106 27.9811 13.8216 27.9563 13.8417C27.9315 13.8618 27.9143 13.8897 27.9075 13.9209C27.6729 14.9592 27.1488 15.9097 26.396 16.6623C25.6433 17.4148 24.6926 17.9386 23.6543 18.173C23.6231 18.1798 23.5952 18.197 23.5751 18.2218C23.555 18.2466 23.544 18.2775 23.5439 18.3094V18.3117C23.544 18.3436 23.555 18.3745 23.5751 18.3993C23.5952 18.4241 23.6231 18.4413 23.6543 18.4481C24.6927 18.6824 25.6433 19.2062 26.3961 19.9588C27.1489 20.7114 27.673 21.6619 27.9077 22.7002C27.9144 22.7313 27.9316 22.7593 27.9564 22.7793C27.9812 22.7994 28.0121 22.8104 28.0439 22.8105H28.0451C28.077 22.8105 28.1079 22.7995 28.1327 22.7794C28.1575 22.7593 28.1747 22.7314 28.1815 22.7002C28.4158 21.6618 28.9396 20.7112 29.6922 19.9584C30.4448 19.2056 31.3953 18.6815 32.4336 18.4468C32.4647 18.4401 32.4927 18.4229 32.5127 18.3981C32.5328 18.3733 32.5438 18.3424 32.5439 18.3105V18.3094C32.5439 18.2775 32.5329 18.2466 32.5128 18.2218C32.4927 18.197 32.4648 18.1798 32.4336 18.173C31.3952 17.9387 30.4446 17.4149 29.6918 16.6623C28.939 15.9097 28.4149 14.9592 28.1802 13.9209C28.1735 13.8898 28.1563 13.8618 28.1315 13.8417C28.1067 13.8217 28.0758 13.8107 28.0439 13.8105Z" fill="#F2C383"/>
<path d="M67.3763 17.1855H65.1689C64.8706 17.1855 64.5844 17.3041 64.3734 17.5151C64.1625 17.726 64.0439 18.0122 64.0439 18.3105C64.0439 18.6089 64.1625 18.8951 64.3734 19.106C64.5844 19.317 64.8706 19.4355 65.1689 19.4355H67.3763C67.4046 19.0643 67.4188 18.6893 67.4189 18.3105C67.4189 17.932 67.4047 17.557 67.3763 17.1855ZM62.3089 7.20455L60.9984 8.51517C60.8929 8.61941 60.8091 8.74348 60.7517 8.88025C60.6943 9.01701 60.6646 9.16377 60.6641 9.31208C60.6637 9.46039 60.6926 9.60733 60.7491 9.74443C60.8057 9.88154 60.8888 10.0061 60.9937 10.111C61.0985 10.2158 61.2231 10.2989 61.3602 10.3555C61.4973 10.412 61.6443 10.4409 61.7926 10.4404C61.9409 10.44 62.0876 10.4102 62.2244 10.3528C62.3612 10.2954 62.4852 10.2116 62.5895 10.1061L63.8999 8.79544C63.411 8.22531 62.8791 7.69346 62.3089 7.20455ZM52.7939 3.68555C52.4154 3.68555 52.0404 3.69975 51.6689 3.72816V5.93555C51.6689 6.23392 51.7875 6.52006 51.9984 6.73104C52.2094 6.94202 52.4956 7.06055 52.7939 7.06055C53.0923 7.06055 53.3785 6.94202 53.5894 6.73104C53.8004 6.52006 53.9189 6.23392 53.9189 5.93555V3.72816C53.5477 3.69994 53.1727 3.68573 52.7939 3.68555ZM41.6879 8.79558L42.9986 10.1061C43.1028 10.2116 43.2269 10.2954 43.3636 10.3528C43.5004 10.4102 43.6472 10.4399 43.7955 10.4404C43.9438 10.4408 44.0907 10.4119 44.2278 10.3554C44.3649 10.2988 44.4895 10.2157 44.5944 10.1108C44.6992 10.006 44.7823 9.88138 44.8389 9.74427C44.8954 9.60716 44.9243 9.46022 44.9238 9.31191C44.9234 9.1636 44.8936 9.01684 44.8362 8.88008C44.7788 8.74332 44.695 8.61926 44.5895 8.51503L43.2788 7.20455C42.7087 7.69351 42.1769 8.22541 41.6879 8.79558ZM38.2116 19.4355H40.4189C40.7173 19.4355 41.0035 19.317 41.2144 19.106C41.4254 18.8951 41.5439 18.6089 41.5439 18.3105C41.5439 18.0122 41.4254 17.726 41.2144 17.5151C41.0035 17.3041 40.7173 17.1855 40.4189 17.1855H38.2116C38.1833 17.5568 38.1691 17.9318 38.1689 18.3105C38.1689 18.6891 38.1831 19.0641 38.2116 19.4355Z" fill="#F9DBB7"/>
</svg>
